0
SECTION
2
HEADER
9
$ACADVER
1
AC1009
0
ENDSEC
0
SECTION
2
TABLES
0
TABLE
2
VPORT
70
1
0
VPORT
2
ACTIVE
70
0
10
0.0
20
0.0
11
0.0
21
0.0
12
0.0
22
0.0
13
0.0
23
0.0
14
0.0
24
0.0
15
0.0
25
0.0
16
0.0
26
0.0
36
0.0
17
0.0
27
0.0
37
0.0
40
0.0
41
0.0
42
0.0
43
0.0
44
0.0
50
0.0
51
0.0
71
0
72
1000
73
1
74
3
75
0
76
0
77
0
78
0
0
ENDTAB
0
ENDSEC
0
SECTION
2
ENTITIES
0
LINE
8
hole
62
5
39
2
10
22.447466
20
107.410701
11
21.714394
21
106.817790
0
LINE
8
hole
62
5
39
2
10
21.714394
20
106.817790
11
21.101944
21
106.533767
0
LINE
8
hole
62
5
39
2
10
21.101944
20
106.533767
11
20.578723
21
106.656035
0
LINE
8
hole
62
5
39
2
10
20.578723
20
106.656035
11
19.971842
21
106.840128
0
LINE
8
hole
62
5
39
2
10
19.971842
20
106.840128
11
19.549910
21
107.219725
0
LINE
8
hole
62
5
39
2
10
19.549910
20
107.219725
11
19.174038
21
107.713601
0
LINE
8
hole
62
5
39
2
10
19.174038
20
107.713601
11
18.987121
21
108.427169
0
LINE
8
hole
62
5
39
2
10
18.987121
20
108.427169
11
19.165832
21
109.447947
0
LINE
8
hole
62
5
39
2
10
19.165832
20
109.447947
11
19.531944
21
109.956155
0
LINE
8
hole
62
5
39
2
10
19.531944
20
109.956155
11
19.971842
21
110.376000
0
LINE
8
hole
62
5
39
2
10
19.971842
20
110.376000
11
20.750019
21
110.587086
0
LINE
8
hole
62
5
39
2
10
20.750019
20
110.587086
11
21.439376
21
110.527140
0
LINE
8
hole
62
5
39
2
10
21.439376
20
110.527140
11
22.232050
21
110.099706
0
LINE
8
hole
62
5
39
2
10
22.232050
20
110.099706
11
22.763863
21
109.299149
0
LINE
8
hole
62
5
39
2
10
22.763863
20
109.299149
11
22.973992
21
108.574537
0
LINE
8
hole
62
5
39
2
10
22.973992
20
108.574537
11
22.716797
21
107.866520
0
LINE
8
hole
62
5
39
2
10
22.716797
20
107.866520
11
22.447466
21
107.410701
0
LINE
8
hole
62
5
39
2
10
64.819058
20
14.303807
11
64.045896
21
13.659333
0
LINE
8
hole
62
5
39
2
10
64.045896
20
13.659333
11
63.467918
21
13.536217
0
LINE
8
hole
62
5
39
2
10
63.467918
20
13.536217
11
62.915792
21
13.442243
0
LINE
8
hole
62
5
39
2
10
62.915792
20
13.442243
11
62.336526
21
13.750309
0
LINE
8
hole
62
5
39
2
10
62.336526
20
13.750309
11
61.785688
21
14.176209
0
LINE
8
hole
62
5
39
2
10
61.785688
20
14.176209
11
61.445777
21
14.812705
0
LINE
8
hole
62
5
39
2
10
61.445777
20
14.812705
11
61.201854
21
15.467641
0
LINE
8
hole
62
5
39
2
10
61.201854
20
15.467641
11
61.401786
21
16.040716
0
LINE
8
hole
62
5
39
2
10
61.401786
20
16.040716
11
61.658165
21
16.631481
0
LINE
8
hole
62
5
39
2
10
61.658165
20
16.631481
11
62.302919
21
17.209870
0
LINE
8
hole
62
5
39
2
10
62.302919
20
17.209870
11
62.915792
21
17.532297
0
LINE
8
hole
62
5
39
2
10
62.915792
20
17.532297
11
63.776076
21
17.443257
0
LINE
8
hole
62
5
39
2
10
63.776076
20
17.443257
11
64.436752
21
17.075700
0
LINE
8
hole
62
5
39
2
10
64.436752
20
17.075700
11
64.898745
21
16.631481
0
LINE
8
hole
62
5
39
2
10
64.898745
20
16.631481
11
65.176000
21
15.992887
0
LINE
8
hole
62
5
39
2
10
65.176000
20
15.992887
11
65.373969
21
15.467641
0
LINE
8
hole
62
5
39
2
10
65.373969
20
15.467641
11
65.176000
21
14.987356
0
LINE
8
hole
62
5
39
2
10
65.176000
20
14.987356
11
64.957670
21
14.505939
0
LINE
8
hole
62
5
39
2
10
64.957670
20
14.505939
11
64.819058
21
14.303807
0
LINE
8
hole
62
5
39
2
10
24.971536
20
60.585641
11
24.492257
21
60.293459
0
LINE
8
hole
62
5
39
2
10
24.492257
20
60.293459
11
23.854396
21
60.331960
0
LINE
8
hole
62
5
39
2
10
23.854396
20
60.331960
11
22.946989
21
60.665596
0
LINE
8
hole
62
5
39
2
10
22.946989
20
60.665596
11
22.478965
21
61.099442
0
LINE
8
hole
62
5
39
2
10
22.478965
20
61.099442
11
22.126269
21
61.705408
0
LINE
8
hole
62
5
39
2
10
22.126269
20
61.705408
11
22.043191
21
62.404193
0
LINE
8
hole
62
5
39
2
10
22.043191
20
62.404193
11
22.222477
21
63.165506
0
LINE
8
hole
62
5
39
2
10
22.222477
20
63.165506
11
22.704823
21
63.758576
0
LINE
8
hole
62
5
39
2
10
22.704823
20
63.758576
11
23.362157
21
64.225905
0
LINE
8
hole
62
5
39
2
10
23.362157
20
64.225905
11
24.486752
21
64.344694
0
LINE
8
hole
62
5
39
2
10
24.486752
20
64.344694
11
25.129386
21
63.948470
0
LINE
8
hole
62
5
39
2
10
25.129386
20
63.948470
11
25.622363
21
63.430134
0
LINE
8
hole
62
5
39
2
10
25.622363
20
63.430134
11
25.901434
21
62.739646
0
LINE
8
hole
62
5
39
2
10
25.901434
20
62.739646
11
26.055513
21
62.021092
0
LINE
8
hole
62
5
39
2
10
26.055513
20
62.021092
11
25.622363
21
61.195736
0
LINE
8
hole
62
5
39
2
10
25.622363
20
61.195736
11
24.971536
21
60.585641
0
LINE
8
hole
62
5
39
2
10
92.633625
20
88.623474
11
92.021132
21
88.694225
0
LINE
8
hole
62
5
39
2
10
92.021132
20
88.694225
11
91.393955
21
89.039299
0
LINE
8
hole
62
5
39
2
10
91.393955
20
89.039299
11
90.956213
21
89.502045
0
LINE
8
hole
62
5
39
2
10
90.956213
20
89.502045
11
90.633191
21
89.953157
0
LINE
8
hole
62
5
39
2
10
90.633191
20
89.953157
11
90.552101
21
90.663868
0
LINE
8
hole
62
5
39
2
10
90.552101
20
90.663868
11
90.802333
21
91.676025
0
LINE
8
hole
62
5
39
2
10
90.802333
20
91.676025
11
91.168392
21
92.197574
0
LINE
8
hole
62
5
39
2
10
91.168392
20
92.197574
11
91.780522
21
92.609647
0
LINE
8
hole
62
5
39
2
10
91.780522
20
92.609647
11
92.298495
21
92.871445
0
LINE
8
hole
62
5
39
2
10
92.298495
20
92.871445
11
92.838538
21
92.732312
0
LINE
8
hole
62
5
39
2
10
92.838538
20
92.732312
11
93.428598
21
92.563960
0
LINE
8
hole
62
5
39
2
10
93.428598
20
92.563960
11
94.145050
21
91.917146
0
LINE
8
hole
62
5
39
2
10
94.145050
20
91.917146
11
94.558704
21
91.183234
0
LINE
8
hole
62
5
39
2
10
94.558704
20
91.183234
11
94.442949
21
90.121134
0
LINE
8
hole
62
5
39
2
10
94.442949
20
90.121134
11
94.202741
21
89.649169
0
LINE
8
hole
62
5
39
2
10
94.202741
20
89.649169
11
93.489251
21
88.864376
0
LINE
8
hole
62
5
39
2
10
93.489251
20
88.864376
11
92.633625
21
88.623474
0
LINE
8
hole
62
5
39
2
10
96.032186
20
162.111004
11
95.688807
21
161.275844
0
LINE
8
hole
62
5
39
2
10
95.688807
20
161.275844
11
95.180086
21
160.616677
0
LINE
8
hole
62
5
39
2
10
95.180086
20
160.616677
11
94.558704
21
160.114965
0
LINE
8
hole
62
5
39
2
10
94.558704
20
160.114965
11
93.732200
21
160.072735
0
LINE
8
hole
62
5
39
2
10
93.732200
20
160.072735
11
93.084435
21
160.254016
0
LINE
8
hole
62
5
39
2
10
93.084435
20
160.254016
11
92.298495
21
160.833003
0
LINE
8
hole
62
5
39
2
10
92.298495
20
160.833003
11
92.005065
21
161.400461
0
LINE
8
hole
62
5
39
2
10
92.005065
20
161.400461
11
91.737414
21
162.111004
0
LINE
8
hole
62
5
39
2
10
91.737414
20
162.111004
11
91.937847
21
162.672606
0
LINE
8
hole
62
5
39
2
10
91.937847
20
162.672606
11
92.204065
21
163.274838
0
LINE
8
hole
62
5
39
2
10
92.204065
20
163.274838
11
92.810038
21
163.845662
0
LINE
8
hole
62
5
39
2
10
92.810038
20
163.845662
11
93.428598
21
164.197430
0
LINE
8
hole
62
5
39
2
10
93.428598
20
164.197430
11
94.246694
21
164.147039
0
LINE
8
hole
62
5
39
2
10
94.246694
20
164.147039
11
94.908603
21
163.863471
0
LINE
8
hole
62
5
39
2
10
94.908603
20
163.863471
11
95.547823
21
163.274838
0
LINE
8
hole
62
5
39
2
10
95.547823
20
163.274838
11
95.885640
21
162.527433
0
LINE
8
hole
62
5
39
2
10
95.885640
20
162.527433
11
96.032186
21
162.111004
0
LINE
8
hole
62
5
39
2
10
93.487188
20
30.552232
11
92.740283
21
30.338735
0
LINE
8
hole
62
5
39
2
10
92.740283
20
30.338735
11
91.921349
21
30.427495
0
LINE
8
hole
62
5
39
2
10
91.921349
20
30.427495
11
91.325345
21
30.772936
0
LINE
8
hole
62
5
39
2
10
91.325345
20
30.772936
11
90.883145
21
31.257961
0
LINE
8
hole
62
5
39
2
10
90.883145
20
31.257961
11
90.544750
21
31.761347
0
LINE
8
hole
62
5
39
2
10
90.544750
20
31.761347
11
90.518851
21
32.492630
0
LINE
8
hole
62
5
39
2
10
90.518851
20
32.492630
11
90.818131
21
33.474452
0
LINE
8
hole
62
5
39
2
10
90.818131
20
33.474452
11
91.168392
21
33.955956
0
LINE
8
hole
62
5
39
2
10
91.168392
20
33.955956
11
91.821144
21
34.364115
0
LINE
8
hole
62
5
39
2
10
91.821144
20
34.364115
11
92.298495
21
34.584004
0
LINE
8
hole
62
5
39
2
10
92.298495
20
34.584004
11
92.832290
21
34.455053
0
LINE
8
hole
62
5
39
2
10
92.832290
20
34.455053
11
93.428598
21
34.284441
0
LINE
8
hole
62
5
39
2
10
93.428598
20
34.284441
11
94.088434
21
33.687547
0
LINE
8
hole
62
5
39
2
10
94.088434
20
33.687547
11
94.521413
21
32.965988
0
LINE
8
hole
62
5
39
2
10
94.521413
20
32.965988
11
94.458363
21
31.906941
0
LINE
8
hole
62
5
39
2
10
94.458363
20
31.906941
11
94.116050
21
31.191491
0
LINE
8
hole
62
5
39
2
10
94.116050
20
31.191491
11
93.545778
21
30.597514
0
LINE
8
hole
62
5
39
2
10
93.545778
20
30.597514
11
93.487188
21
30.552232
0
LINE
8
hole
62
5
39
2
10
39.416243
20
178.183689
11
38.727493
21
177.740392
0
LINE
8
hole
62
5
39
2
10
38.727493
20
177.740392
11
38.053505
21
177.517141
0
LINE
8
hole
62
5
39
2
10
38.053505
20
177.517141
11
37.373843
21
177.731664
0
LINE
8
hole
62
5
39
2
10
37.373843
20
177.731664
11
36.688999
21
178.175100
0
LINE
8
hole
62
5
39
2
10
36.688999
20
178.175100
11
36.248268
21
178.846756
0
LINE
8
hole
62
5
39
2
10
36.248268
20
178.846756
11
36.046377
21
179.568544
0
LINE
8
hole
62
5
39
2
10
36.046377
20
179.568544
11
36.006796
21
180.452147
0
LINE
8
hole
62
5
39
2
10
36.006796
20
180.452147
11
35.984257
21
181.003614
0
LINE
8
hole
62
5
39
2
10
35.984257
20
181.003614
11
35.975621
21
181.637251
0
LINE
8
hole
62
5
39
2
10
35.975621
20
181.637251
11
35.967053
21
182.149978
0
LINE
8
hole
62
5
39
2
10
35.967053
20
182.149978
11
35.957264
21
182.820589
0
LINE
8
hole
62
5
39
2
10
35.957264
20
182.820589
11
35.945734
21
183.996679
0
LINE
8
hole
62
5
39
2
10
35.945734
20
183.996679
11
35.943709
21
185.161897
0
LINE
8
hole
62
5
39
2
10
35.943709
20
185.161897
11
35.943416
21
186.326101
0
LINE
8
hole
62
5
39
2
10
35.943416
20
186.326101
11
35.942449
21
187.491143
0
LINE
8
hole
62
5
39
2
10
35.942449
20
187.491143
11
35.939849
21
188.658209
0
LINE
8
hole
62
5
39
2
10
35.939849
20
188.658209
11
35.939245
21
189.822454
0
LINE
8
hole
62
5
39
2
10
35.939245
20
189.822454
11
35.939256
21
190.986282
0
LINE
8
hole
62
5
39
2
10
35.939256
20
190.986282
11
35.943220
21
192.144979
0
LINE
8
hole
62
5
39
2
10
35.943220
20
192.144979
11
35.946896
21
193.304720
0
LINE
8
hole
62
5
39
2
10
35.946896
20
193.304720
11
35.950626
21
194.464242
0
LINE
8
hole
62
5
39
2
10
35.950626
20
194.464242
11
35.953377
21
195.625101
0
LINE
8
hole
62
5
39
2
10
35.953377
20
195.625101
11
35.957202
21
196.784468
0
LINE
8
hole
62
5
39
2
10
35.957202
20
196.784468
11
35.961868
21
197.943080
0
LINE
8
hole
62
5
39
2
10
35.961868
20
197.943080
11
35.965333
21
199.103304
0
LINE
8
hole
62
5
39
2
10
35.965333
20
199.103304
11
35.970784
21
200.261899
0
LINE
8
hole
62
5
39
2
10
35.970784
20
200.261899
11
35.994593
21
200.782253
0
LINE
8
hole
62
5
39
2
10
35.994593
20
200.782253
11
36.021913
21
201.380855
0
LINE
8
hole
62
5
39
2
10
36.021913
20
201.380855
11
36.187755
21
202.042295
0
LINE
8
hole
62
5
39
2
10
36.187755
20
202.042295
11
36.555680
21
202.845266
0
LINE
8
hole
62
5
39
2
10
36.555680
20
202.845266
11
37.443436
21
203.461919
0
LINE
8
hole
62
5
39
2
10
37.443436
20
203.461919
11
38.053505
21
203.687543
0
LINE
8
hole
62
5
39
2
10
38.053505
20
203.687543
11
38.669120
21
203.472356
0
LINE
8
hole
62
5
39
2
10
38.669120
20
203.472356
11
39.183609
21
203.214761
0
LINE
8
hole
62
5
39
2
10
39.183609
20
203.214761
11
39.564888
21
202.845267
0
LINE
8
hole
62
5
39
2
10
39.564888
20
202.845267
11
39.837448
21
202.409135
0
LINE
8
hole
62
5
39
2
10
39.837448
20
202.409135
11
40.121057
21
201.681432
0
LINE
8
hole
62
5
39
2
10
40.121057
20
201.681432
11
40.153151
21
200.741907
0
LINE
8
hole
62
5
39
2
10
40.153151
20
200.741907
11
40.174699
21
199.564573
0
LINE
8
hole
62
5
39
2
10
40.174699
20
199.564573
11
40.185672
21
198.387825
0
LINE
8
hole
62
5
39
2
10
40.185672
20
198.387825
11
40.188700
21
197.221098
0
LINE
8
hole
62
5
39
2
10
40.188700
20
197.221098
11
40.188187
21
196.058128
0
LINE
8
hole
62
5
39
2
10
40.188187
20
196.058128
11
40.187273
21
194.895446
0
LINE
8
hole
62
5
39
2
10
40.187273
20
194.895446
11
40.185483
21
193.733946
0
LINE
8
hole
62
5
39
2
10
40.185483
20
193.733946
11
40.184592
21
192.571081
0
LINE
8
hole
62
5
39
2
10
40.184592
20
192.571081
11
40.183950
21
191.408043
0
LINE
8
hole
62
5
39
2
10
40.183950
20
191.408043
11
40.183328
21
190.244963
0
LINE
8
hole
62
5
39
2
10
40.183328
20
190.244963
11
40.179199
21
189.086628
0
LINE
8
hole
62
5
39
2
10
40.179199
20
189.086628
11
40.173864
21
187.929309
0
LINE
8
hole
62
5
39
2
10
40.173864
20
187.929309
11
40.168883
21
186.771367
0
LINE
8
hole
62
5
39
2
10
40.168883
20
186.771367
11
40.163903
21
185.613379
0
LINE
8
hole
62
5
39
2
10
40.163903
20
185.613379
11
40.159632
21
184.454351
0
LINE
8
hole
62
5
39
2
10
40.159632
20
184.454351
11
40.155003
21
183.295867
0
LINE
8
hole
62
5
39
2
10
40.155003
20
183.295867
11
40.145882
21
182.142780
0
LINE
8
hole
62
5
39
2
10
40.145882
20
182.142780
11
40.129912
21
180.996287
0
LINE
8
hole
62
5
39
2
10
40.129912
20
180.996287
11
40.111115
21
180.461952
0
LINE
8
hole
62
5
39
2
10
40.111115
20
180.461952
11
40.098341
21
179.856020
0
LINE
8
hole
62
5
39
2
10
40.098341
20
179.856020
11
39.958131
21
179.203818
0
LINE
8
hole
62
5
39
2
10
39.958131
20
179.203818
11
39.648878
21
178.404710
0
LINE
8
hole
62
5
39
2
10
39.648878
20
178.404710
11
39.416243
21
178.183689
0
LINE
8
hole
62
5
39
2
10
60.124626
20
114.393718
11
59.525480
21
113.776801
0
LINE
8
hole
62
5
39
2
10
59.525480
20
113.776801
11
58.994456
21
113.229882
0
LINE
8
hole
62
5
39
2
10
58.994456
20
113.229882
11
58.395376
21
112.612255
0
LINE
8
hole
62
5
39
2
10
58.395376
20
112.612255
11
57.865341
21
112.066045
0
LINE
8
hole
62
5
39
2
10
57.865341
20
112.066045
11
57.265272
21
111.448042
0
LINE
8
hole
62
5
39
2
10
57.265272
20
111.448042
11
56.735013
21
110.902209
0
LINE
8
hole
62
5
39
2
10
56.735013
20
110.902209
11
56.135169
21
110.284839
0
LINE
8
hole
62
5
39
2
10
56.135169
20
110.284839
11
55.603396
21
109.738373
0
LINE
8
hole
62
5
39
2
10
55.603396
20
109.738373
11
55.005064
21
109.123164
0
LINE
8
hole
62
5
39
2
10
55.005064
20
109.123164
11
54.407608
21
109.738373
0
LINE
8
hole
62
5
39
2
10
54.407608
20
109.738373
11
53.874960
21
110.286934
0
LINE
8
hole
62
5
39
2
10
53.874960
20
110.286934
11
53.277443
21
110.902209
0
LINE
8
hole
62
5
39
2
10
53.277443
20
110.902209
11
52.744857
21
111.451058
0
LINE
8
hole
62
5
39
2
10
52.744857
20
111.451058
11
52.148598
21
112.066045
0
LINE
8
hole
62
5
39
2
10
52.148598
20
112.066045
11
51.614753
21
112.615431
0
LINE
8
hole
62
5
39
2
10
51.614753
20
112.615431
11
51.017017
21
113.229881
0
LINE
8
hole
62
5
39
2
10
51.017017
20
113.229881
11
50.484648
21
113.777605
0
LINE
8
hole
62
5
39
2
10
50.484648
20
113.777605
11
49.886319
21
114.393718
0
LINE
8
hole
62
5
39
2
10
49.886319
20
114.393718
11
49.354544
21
114.941713
0
LINE
8
hole
62
5
39
2
10
49.354544
20
114.941713
11
48.756725
21
115.557554
0
LINE
8
hole
62
5
39
2
10
48.756725
20
115.557554
11
48.224440
21
116.105854
0
LINE
8
hole
62
5
39
2
10
48.224440
20
116.105854
11
47.626780
21
116.721390
0
LINE
8
hole
62
5
39
2
10
47.626780
20
116.721390
11
47.094337
21
117.269320
0
LINE
8
hole
62
5
39
2
10
47.094337
20
117.269320
11
46.495665
21
117.885226
0
LINE
8
hole
62
5
39
2
10
46.495665
20
117.885226
11
45.964233
21
118.432123
0
LINE
8
hole
62
5
39
2
10
45.964233
20
118.432123
11
45.365191
21
119.049063
0
LINE
8
hole
62
5
39
2
10
45.365191
20
119.049063
11
44.834129
21
119.596138
0
LINE
8
hole
62
5
39
2
10
44.834129
20
119.596138
11
44.235438
21
120.212899
0
LINE
8
hole
62
5
39
2
10
44.235438
20
120.212899
11
43.704025
21
120.760401
0
LINE
8
hole
62
5
39
2
10
43.704025
20
120.760401
11
43.105933
21
121.376735
0
LINE
8
hole
62
5
39
2
10
43.105933
20
121.376735
11
42.573921
21
121.924881
0
LINE
8
hole
62
5
39
2
10
42.573921
20
121.924881
11
41.976600
21
122.540571
0
LINE
8
hole
62
5
39
2
10
41.976600
20
122.540571
11
41.443817
21
123.089363
0
LINE
8
hole
62
5
39
2
10
41.443817
20
123.089363
11
40.846445
21
123.704408
0
LINE
8
hole
62
5
39
2
10
40.846445
20
123.704408
11
40.619121
21
124.560570
0
LINE
8
hole
62
5
39
2
10
40.619121
20
124.560570
11
40.846786
21
125.212965
0
LINE
8
hole
62
5
39
2
10
40.846786
20
125.212965
11
41.443817
21
125.796477
0
LINE
8
hole
62
5
39
2
10
41.443817
20
125.796477
11
41.977732
21
126.377029
0
LINE
8
hole
62
5
39
2
10
41.977732
20
126.377029
11
42.573921
21
126.959729
0
LINE
8
hole
62
5
39
2
10
42.573921
20
126.959729
11
43.108677
21
127.541092
0
LINE
8
hole
62
5
39
2
10
43.108677
20
127.541092
11
43.704025
21
128.122985
0
LINE
8
hole
62
5
39
2
10
43.704025
20
128.122985
11
44.239468
21
128.705116
0
LINE
8
hole
62
5
39
2
10
44.239468
20
128.705116
11
44.834129
21
129.286503
0
LINE
8
hole
62
5
39
2
10
44.834129
20
129.286503
11
45.369388
21
129.868992
0
LINE
8
hole
62
5
39
2
10
45.369388
20
129.868992
11
45.964233
21
130.451112
0
LINE
8
hole
62
5
39
2
10
45.964233
20
130.451112
11
46.499044
21
131.032646
0
LINE
8
hole
62
5
39
2
10
46.499044
20
131.032646
11
47.094337
21
131.614498
0
LINE
8
hole
62
5
39
2
10
47.094337
20
131.614498
11
47.629825
21
132.196643
0
LINE
8
hole
62
5
39
2
10
47.629825
20
132.196643
11
48.224440
21
132.778059
0
LINE
8
hole
62
5
39
2
10
48.224440
20
132.778059
11
48.759876
21
133.360500
0
LINE
8
hole
62
5
39
2
10
48.759876
20
133.360500
11
49.354544
21
133.942216
0
LINE
8
hole
62
5
39
2
10
49.354544
20
133.942216
11
49.889411
21
134.524185
0
LINE
8
hole
62
5
39
2
10
49.889411
20
134.524185
11
50.484649
21
135.106452
0
LINE
8
hole
62
5
39
2
10
50.484649
20
135.106452
11
51.019228
21
135.687943
0
LINE
8
hole
62
5
39
2
10
51.019228
20
135.687943
11
51.614753
21
136.270170
0
LINE
8
hole
62
5
39
2
10
51.614753
20
136.270170
11
52.149740
21
136.851839
0
LINE
8
hole
62
5
39
2
10
52.149740
20
136.851839
11
52.744857
21
137.433617
0
LINE
8
hole
62
5
39
2
10
52.744857
20
137.433617
11
53.279799
21
138.015734
0
LINE
8
hole
62
5
39
2
10
53.279799
20
138.015734
11
53.874961
21
138.598117
0
LINE
8
hole
62
5
39
2
10
53.874961
20
138.598117
11
54.408717
21
139.179262
0
LINE
8
hole
62
5
39
2
10
54.408717
20
139.179262
11
55.005064
21
139.762843
0
LINE
8
hole
62
5
39
2
10
55.005064
20
139.762843
11
55.423719
21
139.384525
0
LINE
8
hole
62
5
39
2
10
55.423719
20
139.384525
11
55.908322
21
138.834278
0
LINE
8
hole
62
5
39
2
10
55.908322
20
138.834278
11
56.469166
21
138.288338
0
LINE
8
hole
62
5
39
2
10
56.469166
20
138.288338
11
57.038762
21
137.670441
0
LINE
8
hole
62
5
39
2
10
57.038762
20
137.670441
11
57.599353
21
137.124061
0
LINE
8
hole
62
5
39
2
10
57.599353
20
137.124061
11
58.168591
21
136.506606
0
LINE
8
hole
62
5
39
2
10
58.168591
20
136.506606
11
58.729572
21
135.959936
0
LINE
8
hole
62
5
39
2
10
58.729572
20
135.959936
11
59.298545
21
135.342769
0
LINE
8
hole
62
5
39
2
10
59.298545
20
135.342769
11
59.859579
21
134.796750
0
LINE
8
hole
62
5
39
2
10
59.859579
20
134.796750
11
60.429925
21
134.178933
0
LINE
8
hole
62
5
39
2
10
60.429925
20
134.178933
11
60.989320
21
133.633951
0
LINE
8
hole
62
5
39
2
10
60.989320
20
133.633951
11
61.559629
21
133.015098
0
LINE
8
hole
62
5
39
2
10
61.559629
20
133.015098
11
62.119608
21
132.469503
0
LINE
8
hole
62
5
39
2
10
62.119608
20
132.469503
11
62.689616
21
131.851261
0
LINE
8
hole
62
5
39
2
10
62.689616
20
131.851261
11
63.249711
21
131.305662
0
LINE
8
hole
62
5
39
2
10
63.249711
20
131.305662
11
63.819717
21
130.687425
0
LINE
8
hole
62
5
39
2
10
63.819717
20
130.687425
11
64.379864
21
130.141667
0
LINE
8
hole
62
5
39
2
10
64.379864
20
130.141667
11
64.949564
21
129.523588
0
LINE
8
hole
62
5
39
2
10
64.949564
20
129.523588
11
65.510019
21
128.977366
0
LINE
8
hole
62
5
39
2
10
65.510019
20
128.977366
11
66.079460
21
128.359753
0
LINE
8
hole
62
5
39
2
10
66.079460
20
128.359753
11
66.640190
21
127.813642
0
LINE
8
hole
62
5
39
2
10
66.640190
20
127.813642
11
67.209959
21
127.195916
0
LINE
8
hole
62
5
39
2
10
67.209959
20
127.195916
11
67.770127
21
126.650282
0
LINE
8
hole
62
5
39
2
10
67.770127
20
126.650282
11
68.340116
21
126.032080
0
LINE
8
hole
62
5
39
2
10
68.340116
20
126.032080
11
68.900219
21
125.486471
0
LINE
8
hole
62
5
39
2
10
68.900219
20
125.486471
11
69.470222
21
124.868243
0
LINE
8
hole
62
5
39
2
10
69.470222
20
124.868243
11
69.309630
21
124.172562
0
LINE
8
hole
62
5
39
2
10
69.309630
20
124.172562
11
68.866199
21
123.395790
0
LINE
8
hole
62
5
39
2
10
68.866199
20
123.395790
11
68.321705
21
122.818273
0
LINE
8
hole
62
5
39
2
10
68.321705
20
122.818273
11
67.735763
21
122.232075
0
LINE
8
hole
62
5
39
2
10
67.735763
20
122.232075
11
67.191538
21
121.654482
0
LINE
8
hole
62
5
39
2
10
67.191538
20
121.654482
11
66.605639
21
121.068409
0
LINE
8
hole
62
5
39
2
10
66.605639
20
121.068409
11
66.061324
21
120.491031
0
LINE
8
hole
62
5
39
2
10
66.061324
20
120.491031
11
65.475181
21
119.905216
0
LINE
8
hole
62
5
39
2
10
65.475181
20
119.905216
11
64.930948
21
119.328135
0
LINE
8
hole
62
5
39
2
10
64.930948
20
119.328135
11
64.344531
21
118.741444
0
LINE
8
hole
62
5
39
2
10
64.344531
20
118.741444
11
63.800843
21
118.164150
0
LINE
8
hole
62
5
39
2
10
63.800843
20
118.164150
11
63.214632
21
117.577228
0
LINE
8
hole
62
5
39
2
10
63.214632
20
117.577228
11
62.670896
21
116.999797
0
LINE
8
hole
62
5
39
2
10
62.670896
20
116.999797
11
62.084815
21
116.413243
0
LINE
8
hole
62
5
39
2
10
62.084815
20
116.413243
11
61.540886
21
115.835684
0
LINE
8
hole
62
5
39
2
10
61.540886
20
115.835684
11
60.954962
21
115.249111
0
LINE
8
hole
62
5
39
2
10
60.954962
20
115.249111
11
60.410923
21
114.671518
0
LINE
8
hole
62
5
39
2
10
60.410923
20
114.671518
11
60.124626
21
114.393718
0
LINE
8
hole
62
5
39
2
10
82.170061
20
32.898135
11
81.656850
21
32.603156
0
LINE
8
hole
62
5
39
2
10
81.656850
20
32.603156
11
80.997456
21
32.267398
0
LINE
8
hole
62
5
39
2
10
80.997456
20
32.267398
11
80.065607
21
31.919656
0
LINE
8
hole
62
5
39
2
10
80.065607
20
31.919656
11
79.203339
21
31.500421
0
LINE
8
hole
62
5
39
2
10
79.203339
20
31.500421
11
78.737247
21
31.286767
0
LINE
8
hole
62
5
39
2
10
78.737247
20
31.286767
11
78.005553
21
31.029041
0
LINE
8
hole
62
5
39
2
10
78.005553
20
31.029041
11
77.319406
21
30.794483
0
LINE
8
hole
62
5
39
2
10
77.319406
20
30.794483
11
76.702185
21
30.597514
0
LINE
8
hole
62
5
39
2
10
76.702185
20
30.597514
11
76.148054
21
30.403691
0
LINE
8
hole
62
5
39
2
10
76.148054
20
30.403691
11
75.346936
21
30.165474
0
LINE
8
hole
62
5
39
2
10
75.346936
20
30.165474
11
74.655472
21
30.012607
0
LINE
8
hole
62
5
39
2
10
74.655472
20
30.012607
11
73.874424
21
29.856225
0
LINE
8
hole
62
5
39
2
10
73.874424
20
29.856225
11
73.086727
21
29.728836
0
LINE
8
hole
62
5
39
2
10
73.086727
20
29.728836
11
72.195430
21
29.621026
0
LINE
8
hole
62
5
39
2
10
72.195430
20
29.621026
11
71.154351
21
29.433674
0
LINE
8
hole
62
5
39
2
10
71.154351
20
29.433674
11
70.611654
21
29.330124
0
LINE
8
hole
62
5
39
2
10
70.611654
20
29.330124
11
70.035937
21
29.270050
0
LINE
8
hole
62
5
39
2
10
70.035937
20
29.270050
11
69.300767
21
29.217241
0
LINE
8
hole
62
5
39
2
10
69.300767
20
29.217241
11
68.566312
21
29.175476
0
LINE
8
hole
62
5
39
2
10
68.566312
20
29.175476
11
67.899793
21
29.165485
0
LINE
8
hole
62
5
39
2
10
67.899793
20
29.165485
11
66.975954
21
29.169005
0
LINE
8
hole
62
5
39
2
10
66.975954
20
29.169005
11
66.306104
21
29.184474
0
LINE
8
hole
62
5
39
2
10
66.306104
20
29.184474
11
65.545009
21
29.234732
0
LINE
8
hole
62
5
39
2
10
65.545009
20
29.234732
11
64.897058
21
29.313208
0
LINE
8
hole
62
5
39
2
10
64.897058
20
29.313208
11
64.142495
21
29.483349
0
LINE
8
hole
62
5
39
2
10
64.142495
20
29.483349
11
63.154235
21
29.596834
0
LINE
8
hole
62
5
39
2
10
63.154235
20
29.596834
11
62.468840
21
29.685525
0
LINE
8
hole
62
5
39
2
10
62.468840
20
29.685525
11
61.785688
21
29.778566
0
LINE
8
hole
62
5
39
2
10
61.785688
20
29.778566
11
60.968505
21
29.937043
0
LINE
8
hole
62
5
39
2
10
60.968505
20
29.937043
11
60.142353
21
30.136811
0
LINE
8
hole
62
5
39
2
10
60.142353
20
30.136811
11
59.525480
21
30.300951
0
LINE
8
hole
62
5
39
2
10
59.525480
20
30.300951
11
58.810033
21
30.597514
0
LINE
8
hole
62
5
39
2
10
58.810033
20
30.597514
11
58.048633
21
30.829671
0
LINE
8
hole
62
5
39
2
10
58.048633
20
30.829671
11
57.265273
21
31.045281
0
LINE
8
hole
62
5
39
2
10
57.265273
20
31.045281
11
56.570935
21
31.284984
0
LINE
8
hole
62
5
39
2
10
56.570935
20
31.284984
11
55.812943
21
31.637209
0
LINE
8
hole
62
5
39
2
10
55.812943
20
31.637209
11
55.239298
21
31.902294
0
LINE
8
hole
62
5
39
2
10
55.239298
20
31.902294
11
54.676068
21
32.151456
0
LINE
8
hole
62
5
39
2
10
54.676068
20
32.151456
11
53.874961
21
32.517120
0
LINE
8
hole
62
5
39
2
10
53.874961
20
32.517120
11
53.195719
21
32.925182
0
LINE
8
hole
62
5
39
2
10
53.195719
20
32.925182
11
52.420970
21
33.329247
0
LINE
8
hole
62
5
39
2
10
52.420970
20
33.329247
11
51.614753
21
33.788379
0
LINE
8
hole
62
5
39
2
10
51.614753
20
33.788379
11
51.175021
21
34.089022
0
LINE
8
hole
62
5
39
2
10
51.175021
20
34.089022
11
50.729661
21
34.353779
0
LINE
8
hole
62
5
39
2
10
50.729661
20
34.353779
11
49.957919
21
34.899250
0
LINE
8
hole
62
5
39
2
10
49.957919
20
34.899250
11
49.539790
21
35.252855
0
LINE
8
hole
62
5
39
2
10
49.539790
20
35.252855
11
49.092553
21
35.560159
0
LINE
8
hole
62
5
39
2
10
49.092553
20
35.560159
11
48.224440
21
36.206367
0
LINE
8
hole
62
5
39
2
10
48.224440
20
36.206367
11
47.533270
21
36.756746
0
LINE
8
hole
62
5
39
2
10
47.533270
20
36.756746
11
47.094337
21
37.170194
0
LINE
8
hole
62
5
39
2
10
47.094337
20
37.170194
11
46.650114
21
37.580530
0
LINE
8
hole
62
5
39
2
10
46.650114
20
37.580530
11
46.244703
21
37.936381
0
LINE
8
hole
62
5
39
2
10
46.244703
20
37.936381
11
45.709811
21
38.487284
0
LINE
8
hole
62
5
39
2
10
45.709811
20
38.487284
11
45.164619
21
39.026495
0
LINE
8
hole
62
5
39
2
10
45.164619
20
39.026495
11
44.606707
21
39.657421
0
LINE
8
hole
62
5
39
2
10
44.606707
20
39.657421
11
44.087368
21
40.217544
0
LINE
8
hole
62
5
39
2
10
44.087368
20
40.217544
11
43.704025
21
40.710812
0
LINE
8
hole
62
5
39
2
10
43.704025
20
40.710812
11
43.061272
21
41.454741
0
LINE
8
hole
62
5
39
2
10
43.061272
20
41.454741
11
42.573921
21
42.156519
0
LINE
8
hole
62
5
39
2
10
42.573921
20
42.156519
11
42.074103
21
42.804594
0
LINE
8
hole
62
5
39
2
10
42.074103
20
42.804594
11
41.713860
21
43.399712
0
LINE
8
hole
62
5
39
2
10
41.713860
20
43.399712
11
41.443817
21
43.845488
0
LINE
8
hole
62
5
39
2
10
41.443817
20
43.845488
11
40.957052
21
44.563546
0
LINE
8
hole
62
5
39
2
10
40.957052
20
44.563546
11
40.652421
21
45.039762
0
LINE
8
hole
62
5
39
2
10
40.652421
20
45.039762
11
40.313712
21
45.695925
0
LINE
8
hole
62
5
39
2
10
40.313712
20
45.695925
11
39.947453
21
46.320388
0
LINE
8
hole
62
5
39
2
10
39.947453
20
46.320388
11
39.661576
21
46.891220
0
LINE
8
hole
62
5
39
2
10
39.661576
20
46.891220
11
39.183609
21
47.945904
0
LINE
8
hole
62
5
39
2
10
39.183609
20
47.945904
11
38.942066
21
48.447162
0
LINE
8
hole
62
5
39
2
10
38.942066
20
48.447162
11
38.610028
21
49.218888
0
LINE
8
hole
62
5
39
2
10
38.610028
20
49.218888
11
38.416238
21
49.780311
0
LINE
8
hole
62
5
39
2
10
38.416238
20
49.780311
11
38.237318
21
50.382728
0
LINE
8
hole
62
5
39
2
10
38.237318
20
50.382728
11
38.053505
21
50.903525
0
LINE
8
hole
62
5
39
2
10
38.053505
20
50.903525
11
37.774064
21
51.546562
0
LINE
8
hole
62
5
39
2
10
37.774064
20
51.546562
11
37.609070
21
52.058045
0
LINE
8
hole
62
5
39
2
10
37.609070
20
52.058045
11
37.423210
21
52.710396
0
LINE
8
hole
62
5
39
2
10
37.423210
20
52.710396
11
37.286971
21
53.314353
0
LINE
8
hole
62
5
39
2
10
37.286971
20
53.314353
11
37.172514
21
53.874236
0
LINE
8
hole
62
5
39
2
10
37.172514
20
53.874236
11
36.923402
21
54.841513
0
LINE
8
hole
62
5
39
2
10
36.923402
20
54.841513
11
36.706136
21
55.763280
0
LINE
8
hole
62
5
39
2
10
36.706136
20
55.763280
11
36.544799
21
56.770925
0
LINE
8
hole
62
5
39
2
10
36.544799
20
56.770925
11
36.465356
21
57.365744
0
LINE
8
hole
62
5
39
2
10
36.465356
20
57.365744
11
36.390780
21
58.065707
0
LINE
8
hole
62
5
39
2
10
36.390780
20
58.065707
11
36.311580
21
58.935338
0
LINE
8
hole
62
5
39
2
10
36.311580
20
58.935338
11
36.264050
21
59.693418
0
LINE
8
hole
62
5
39
2
10
36.264050
20
59.693418
11
36.239682
21
60.489716
0
LINE
8
hole
62
5
39
2
10
36.239682
20
60.489716
11
36.224213
21
61.241222
0
LINE
8
hole
62
5
39
2
10
36.224213
20
61.241222
11
36.216973
21
62.021092
0
LINE
8
hole
62
5
39
2
10
36.216973
20
62.021092
11
36.242594
21
62.800955
0
LINE
8
hole
62
5
39
2
10
36.242594
20
62.800955
11
36.273249
21
63.454985
0
LINE
8
hole
62
5
39
2
10
36.273249
20
63.454985
11
36.328478
21
64.348760
0
LINE
8
hole
62
5
39
2
10
36.328478
20
64.348760
11
36.391534
21
65.061542
0
LINE
8
hole
62
5
39
2
10
36.391534
20
65.061542
11
36.510019
21
66.057590
0
LINE
8
hole
62
5
39
2
10
36.510019
20
66.057590
11
36.596549
21
66.676431
0
LINE
8
hole
62
5
39
2
10
36.596549
20
66.676431
11
36.761554
21
67.528595
0
LINE
8
hole
62
5
39
2
10
36.761554
20
67.528595
11
36.923402
21
68.163040
0
LINE
8
hole
62
5
39
2
10
36.923402
20
68.163040
11
37.066037
21
68.761546
0
LINE
8
hole
62
5
39
2
10
37.066037
20
68.761546
11
37.216834
21
69.420260
0
LINE
8
hole
62
5
39
2
10
37.216834
20
69.420260
11
37.373100
21
70.167942
0
LINE
8
hole
62
5
39
2
10
37.373100
20
70.167942
11
37.562599
21
70.892560
0
LINE
8
hole
62
5
39
2
10
37.562599
20
70.892560
11
37.867457
21
71.740579
0
LINE
8
hole
62
5
39
2
10
37.867457
20
71.740579
11
38.121077
21
72.351454
0
LINE
8
hole
62
5
39
2
10
38.121077
20
72.351454
11
38.382105
21
73.229415
0
LINE
8
hole
62
5
39
2
10
38.382105
20
73.229415
11
38.748131
21
74.206088
0
LINE
8
hole
62
5
39
2
10
38.748131
20
74.206088
11
39.027414
21
74.823284
0
LINE
8
hole
62
5
39
2
10
39.027414
20
74.823284
11
39.405668
21
75.639505
0
LINE
8
hole
62
5
39
2
10
39.405668
20
75.639505
11
39.729104
21
76.310581
0
LINE
8
hole
62
5
39
2
10
39.729104
20
76.310581
11
40.171448
21
77.150958
0
LINE
8
hole
62
5
39
2
10
40.171448
20
77.150958
11
40.609307
21
77.950328
0
LINE
8
hole
62
5
39
2
10
40.609307
20
77.950328
11
41.158180
21
78.821343
0
LINE
8
hole
62
5
39
2
10
41.158180
20
78.821343
11
41.513548
21
79.321666
0
LINE
8
hole
62
5
39
2
10
41.513548
20
79.321666
11
41.790615
21
79.783159
0
LINE
8
hole
62
5
39
2
10
41.790615
20
79.783159
11
42.350122
21
80.642470
0
LINE
8
hole
62
5
39
2
10
42.350122
20
80.642470
11
42.885275
21
81.393412
0
LINE
8
hole
62
5
39
2
10
42.885275
20
81.393412
11
43.225767
21
81.806306
0
LINE
8
hole
62
5
39
2
10
43.225767
20
81.806306
11
43.704025
21
82.390394
0
LINE
8
hole
62
5
39
2
10
43.704025
20
82.390394
11
44.175871
21
82.970140
0
LINE
8
hole
62
5
39
2
10
44.175871
20
82.970140
11
44.593557
21
83.441522
0
LINE
8
hole
62
5
39
2
10
44.593557
20
83.441522
11
45.035941
21
83.929320
0
LINE
8
hole
62
5
39
2
10
45.035941
20
83.929320
11
45.598103
21
84.514540
0
LINE
8
hole
62
5
39
2
10
45.598103
20
84.514540
11
45.964233
21
84.876730
0
LINE
8
hole
62
5
39
2
10
45.964233
20
84.876730
11
46.408972
21
85.297814
0
LINE
8
hole
62
5
39
2
10
46.408972
20
85.297814
11
47.094337
21
85.941615
0
LINE
8
hole
62
5
39
2
10
47.094337
20
85.941615
11
47.702071
21
86.461652
0
LINE
8
hole
62
5
39
2
10
47.702071
20
86.461652
11
48.224440
21
86.910627
0
LINE
8
hole
62
5
39
2
10
48.224440
20
86.910627
11
48.660021
21
87.287555
0
LINE
8
hole
62
5
39
2
10
48.660021
20
87.287555
11
49.141245
21
87.625485
0
LINE
8
hole
62
5
39
2
10
49.141245
20
87.625485
11
49.855410
21
88.182316
0
LINE
8
hole
62
5
39
2
10
49.855410
20
88.182316
11
50.484648
21
88.560521
0
LINE
8
hole
62
5
39
2
10
50.484648
20
88.560521
11
51.160187
21
89.029835
0
LINE
8
hole
62
5
39
2
10
51.160187
20
89.029835
11
51.614753
21
89.336736
0
LINE
8
hole
62
5
39
2
10
51.614753
20
89.336736
11
52.047284
21
89.617436
0
LINE
8
hole
62
5
39
2
10
52.047284
20
89.617436
11
52.681012
21
89.953156
0
LINE
8
hole
62
5
39
2
10
52.681012
20
89.953156
11
53.180076
21
90.250165
0
LINE
8
hole
62
5
39
2
10
53.180076
20
90.250165
11
53.874961
21
90.617911
0
LINE
8
hole
62
5
39
2
10
53.874961
20
90.617911
11
54.957065
21
91.116993
0
LINE
8
hole
62
5
39
2
10
54.957065
20
91.116993
11
55.614099
21
91.438678
0
LINE
8
hole
62
5
39
2
10
55.614099
20
91.438678
11
56.135168
21
91.656329
0
LINE
8
hole
62
5
39
2
10
56.135168
20
91.656329
11
56.771782
21
91.881030
0
LINE
8
hole
62
5
39
2
10
56.771782
20
91.881030
11
57.265273
21
92.034784
0
LINE
8
hole
62
5
39
2
10
57.265273
20
92.034784
11
57.971736
21
92.280829
0
LINE
8
hole
62
5
39
2
10
57.971736
20
92.280829
11
58.940379
21
92.645194
0
LINE
8
hole
62
5
39
2
10
58.940379
20
92.645194
11
59.525480
21
92.824533
0
LINE
8
hole
62
5
39
2
10
59.525480
20
92.824533
11
60.334730
21
93.004043
0
LINE
8
hole
62
5
39
2
10
60.334730
20
93.004043
11
61.024336
21
93.145099
0
LINE
8
hole
62
5
39
2
10
61.024336
20
93.145099
11
61.785688
21
93.272158
0
LINE
8
hole
62
5
39
2
10
61.785688
20
93.272158
11
62.518206
21
93.444668
0
LINE
8
hole
62
5
39
2
10
62.518206
20
93.444668
11
63.228295
21
93.613201
0
LINE
8
hole
62
5
39
2
10
63.228295
20
93.613201
11
64.045896
21
93.741681
0
LINE
8
hole
62
5
39
2
10
64.045896
20
93.741681
11
64.586403
21
93.794139
0
LINE
8
hole
62
5
39
2
10
64.586403
20
93.794139
11
65.176000
21
93.850743
0
LINE
8
hole
62
5
39
2
10
65.176000
20
93.850743
11
65.690257
21
93.882498
0
LINE
8
hole
62
5
39
2
10
65.690257
20
93.882498
11
66.306104
21
93.919238
0
LINE
8
hole
62
5
39
2
10
66.306104
20
93.919238
11
66.955226
21
93.934763
0
LINE
8
hole
62
5
39
2
10
66.955226
20
93.934763
11
67.911498
21
93.942362
0
LINE
8
hole
62
5
39
2
10
67.911498
20
93.942362
11
68.566312
21
93.936679
0
LINE
8
hole
62
5
39
2
10
68.566312
20
93.936679
11
69.201037
21
93.909321
0
LINE
8
hole
62
5
39
2
10
69.201037
20
93.909321
11
70.244532
21
93.842519
0
LINE
8
hole
62
5
39
2
10
70.244532
20
93.842519
11
70.826521
21
93.794768
0
LINE
8
hole
62
5
39
2
10
70.826521
20
93.794768
11
71.525523
21
93.698463
0
LINE
8
hole
62
5
39
2
10
71.525523
20
93.698463
11
72.245706
21
93.566973
0
LINE
8
hole
62
5
39
2
10
72.245706
20
93.566973
11
72.956434
21
93.376028
0
LINE
8
hole
62
5
39
2
10
72.956434
20
93.376028
11
73.914613
21
93.218246
0
LINE
8
hole
62
5
39
2
10
73.914613
20
93.218246
11
74.582786
21
93.089914
0
LINE
8
hole
62
5
39
2
10
74.582786
20
93.089914
11
75.346936
21
92.933540
0
LINE
8
hole
62
5
39
2
10
75.346936
20
92.933540
11
75.993928
21
92.755354
0
LINE
8
hole
62
5
39
2
10
75.993928
20
92.755354
11
76.854746
21
92.455947
0
LINE
8
hole
62
5
39
2
10
76.854746
20
92.455947
11
77.456886
21
92.204257
0
LINE
8
hole
62
5
39
2
10
77.456886
20
92.204257
11
78.326793
21
91.944047
0
LINE
8
hole
62
5
39
2
10
78.326793
20
91.944047
11
79.245071
21
91.602267
0
LINE
8
hole
62
5
39
2
10
79.245071
20
91.602267
11
79.867351
21
91.328166
0
LINE
8
hole
62
5
39
2
10
79.867351
20
91.328166
11
80.713563
21
90.925337
0
LINE
8
hole
62
5
39
2
10
80.713563
20
90.925337
11
81.324900
21
90.632456
0
LINE
8
hole
62
5
39
2
10
81.324900
20
90.632456
11
82.127559
21
90.222137
0
LINE
8
hole
62
5
39
2
10
82.127559
20
90.222137
11
82.565188
21
89.953157
0
LINE
8
hole
62
5
39
2
10
82.565188
20
89.953157
11
83.257665
21
89.590959
0
LINE
8
hole
62
5
39
2
10
83.257665
20
89.590959
11
83.779993
21
89.291282
0
LINE
8
hole
62
5
39
2
10
83.779993
20
89.291282
11
84.387768
21
88.872557
0
LINE
8
hole
62
5
39
2
10
84.387768
20
88.872557
11
85.069436
21
88.445791
0
LINE
8
hole
62
5
39
2
10
85.069436
20
88.445791
11
85.517871
21
88.108712
0
LINE
8
hole
62
5
39
2
10
85.517871
20
88.108712
11
86.137113
21
87.625486
0
LINE
8
hole
62
5
39
2
10
86.137113
20
87.625486
11
86.647974
21
87.244687
0
LINE
8
hole
62
5
39
2
10
86.647974
20
87.244687
11
87.049009
21
86.917111
0
LINE
8
hole
62
5
39
2
10
87.049009
20
86.917111
11
87.539724
21
86.461651
0
LINE
8
hole
62
5
39
2
10
87.539724
20
86.461651
11
88.098225
21
85.991817
0
LINE
8
hole
62
5
39
2
10
88.098225
20
85.991817
11
88.554802
21
85.555552
0
LINE
8
hole
62
5
39
2
10
88.554802
20
85.555552
11
89.134120
21
85.013215
0
LINE
8
hole
62
5
39
2
10
89.134120
20
85.013215
11
89.560131
21
84.669387
0
LINE
8
hole
62
5
39
2
10
89.560131
20
84.669387
11
90.038286
21
84.137515
0
LINE
8
hole
62
5
39
2
10
90.038286
20
84.137515
11
90.550955
21
83.628162
0
LINE
8
hole
62
5
39
2
10
90.550955
20
83.628162
11
91.042353
21
82.970140
0
LINE
8
hole
62
5
39
2
10
91.042353
20
82.970140
11
91.464237
21
82.500712
0
LINE
8
hole
62
5
39
2
10
91.464237
20
82.500712
11
92.031656
21
81.806306
0
LINE
8
hole
62
5
39
2
10
92.031656
20
81.806306
11
92.567054
21
81.134282
0
LINE
8
hole
62
5
39
2
10
92.567054
20
81.134282
11
92.938929
21
80.642469
0
LINE
8
hole
62
5
39
2
10
92.938929
20
80.642469
11
93.428598
21
79.922731
0
LINE
8
hole
62
5
39
2
10
93.428598
20
79.922731
11
93.746428
21
79.478629
0
LINE
8
hole
62
5
39
2
10
93.746428
20
79.478629
11
94.036468
21
79.039339
0
LINE
8
hole
62
5
39
2
10
94.036468
20
79.039339
11
94.410108
21
78.314795
0
LINE
8
hole
62
5
39
2
10
94.410108
20
78.314795
11
94.837002
21
77.652830
0
LINE
8
hole
62
5
39
2
10
94.837002
20
77.652830
11
95.134216
21
77.150958
0
LINE
8
hole
62
5
39
2
10
95.134216
20
77.150958
11
95.688807
21
76.064713
0
LINE
8
hole
62
5
39
2
10
95.688807
20
76.064713
11
95.922531
21
75.612958
0
LINE
8
hole
62
5
39
2
10
95.922531
20
75.612958
11
96.289249
21
74.823284
0
LINE
8
hole
62
5
39
2
10
96.289249
20
74.823284
11
96.475188
21
74.333476
0
LINE
8
hole
62
5
39
2
10
96.475188
20
74.333476
11
96.692425
21
73.659450
0
LINE
8
hole
62
5
39
2
10
96.692425
20
73.659450
11
97.018481
21
72.921454
0
LINE
8
hole
62
5
39
2
10
97.018481
20
72.921454
11
97.349317
21
72.091716
0
LINE
8
hole
62
5
39
2
10
97.349317
20
72.091716
11
97.580702
21
71.331776
0
LINE
8
hole
62
5
39
2
10
97.580702
20
71.331776
11
97.756967
21
70.520111
0
LINE
8
hole
62
5
39
2
10
97.756967
20
70.520111
11
97.877820
21
70.020756
0
LINE
8
hole
62
5
39
2
10
97.877820
20
70.020756
11
98.104442
21
69.368831
0
LINE
8
hole
62
5
39
2
10
98.104442
20
69.368831
11
98.347063
21
68.449724
0
LINE
8
hole
62
5
39
2
10
98.347063
20
68.449724
11
98.472255
21
67.840268
0
LINE
8
hole
62
5
39
2
10
98.472255
20
67.840268
11
98.614607
21
66.985420
0
LINE
8
hole
62
5
39
2
10
98.614607
20
66.985420
11
98.722431
21
66.174853
0
LINE
8
hole
62
5
39
2
10
98.722431
20
66.174853
11
98.791148
21
65.512597
0
LINE
8
hole
62
5
39
2
10
98.791148
20
65.512597
11
98.864902
21
64.631752
0
LINE
8
hole
62
5
39
2
10
98.864902
20
64.631752
11
98.903141
21
64.089400
0
LINE
8
hole
62
5
39
2
10
98.903141
20
64.089400
11
98.933125
21
63.400095
0
LINE
8
hole
62
5
39
2
10
98.933125
20
63.400095
11
98.972825
21
62.188788
0
LINE
8
hole
62
5
39
2
10
98.972825
20
62.188788
11
98.968283
21
61.035362
0
LINE
8
hole
62
5
39
2
10
98.968283
20
61.035362
11
98.940114
21
59.908970
0
LINE
8
hole
62
5
39
2
10
98.940114
20
59.908970
11
98.884389
21
58.809624
0
LINE
8
hole
62
5
39
2
10
98.884389
20
58.809624
11
98.842655
21
58.224691
0
LINE
8
hole
62
5
39
2
10
98.842655
20
58.224691
11
98.807146
21
57.716415
0
LINE
8
hole
62
5
39
2
10
98.807146
20
57.716415
11
98.727582
21
56.953340
0
LINE
8
hole
62
5
39
2
10
98.727582
20
56.953340
11
98.634797
21
56.201910
0
LINE
8
hole
62
5
39
2
10
98.634797
20
56.201910
11
98.510656
21
55.440799
0
LINE
8
hole
62
5
39
2
10
98.510656
20
55.440799
11
98.299481
21
54.471201
0
LINE
8
hole
62
5
39
2
10
98.299481
20
54.471201
11
98.150542
21
53.874236
0
LINE
8
hole
62
5
39
2
10
98.150542
20
53.874236
11
97.949013
21
53.321345
0
LINE
8
hole
62
5
39
2
10
97.949013
20
53.321345
11
97.772218
21
52.710396
0
LINE
8
hole
62
5
39
2
10
97.772218
20
52.710396
11
97.611378
21
52.010815
0
LINE
8
hole
62
5
39
2
10
97.611378
20
52.010815
11
97.320072
21
51.044336
0
LINE
8
hole
62
5
39
2
10
97.320072
20
51.044336
11
97.084401
21
50.382728
0
LINE
8
hole
62
5
39
2
10
97.084401
20
50.382728
11
96.818913
21
49.812709
0
LINE
8
hole
62
5
39
2
10
96.818913
20
49.812709
11
96.591275
21
49.218888
0
LINE
8
hole
62
5
39
2
10
96.591275
20
49.218888
11
96.414135
21
48.718462
0
LINE
8
hole
62
5
39
2
10
96.414135
20
48.718462
11
96.138932
21
48.055054
0
LINE
8
hole
62
5
39
2
10
96.138932
20
48.055054
11
95.688807
21
47.228088
0
LINE
8
hole
62
5
39
2
10
95.688807
20
47.228088
11
95.395811
21
46.594166
0
LINE
8
hole
62
5
39
2
10
95.395811
20
46.594166
11
94.984610
21
45.727380
0
LINE
8
hole
62
5
39
2
10
94.984610
20
45.727380
11
94.558704
21
45.044536
0
LINE
8
hole
62
5
39
2
10
94.558704
20
45.044536
11
94.295290
21
44.563546
0
LINE
8
hole
62
5
39
2
10
94.295290
20
44.563546
11
93.956167
21
43.943013
0
LINE
8
hole
62
5
39
2
10
93.956167
20
43.943013
11
93.583596
21
43.399712
0
LINE
8
hole
62
5
39
2
10
93.583596
20
43.399712
11
93.108004
21
42.668683
0
LINE
8
hole
62
5
39
2
10
93.108004
20
42.668683
11
92.778666
21
42.235872
0
LINE
8
hole
62
5
39
2
10
92.778666
20
42.235872
11
92.463606
21
41.825615
0
LINE
8
hole
62
5
39
2
10
92.463606
20
41.825615
11
92.067845
21
41.293052
0
LINE
8
hole
62
5
39
2
10
92.067845
20
41.293052
11
91.573135
21
40.687603
0
LINE
8
hole
62
5
39
2
10
91.573135
20
40.687603
11
91.168392
21
40.236670
0
LINE
8
hole
62
5
39
2
10
91.168392
20
40.236670
11
90.586044
21
39.551734
0
LINE
8
hole
62
5
39
2
10
90.586044
20
39.551734
11
90.038286
21
38.994270
0
LINE
8
hole
62
5
39
2
10
90.038286
20
38.994270
11
89.476295
21
38.393174
0
LINE
8
hole
62
5
39
2
10
89.476295
20
38.393174
11
88.908186
21
37.854800
0
LINE
8
hole
62
5
39
2
10
88.908186
20
37.854800
11
88.171350
21
37.148284
0
LINE
8
hole
62
5
39
2
10
88.171350
20
37.148284
11
87.778080
21
36.803197
0
LINE
8
hole
62
5
39
2
10
87.778080
20
36.803197
11
87.307240
21
36.416696
0
LINE
8
hole
62
5
39
2
10
87.307240
20
36.416696
11
86.647974
21
35.861750
0
LINE
8
hole
62
5
39
2
10
86.647974
20
35.861750
11
85.827975
21
35.252856
0
LINE
8
hole
62
5
39
2
10
85.827975
20
35.252856
11
85.052963
21
34.665962
0
LINE
8
hole
62
5
39
2
10
85.052963
20
34.665962
11
84.387768
21
34.277932
0
LINE
8
hole
62
5
39
2
10
84.387768
20
34.277932
11
83.729654
21
33.824114
0
LINE
8
hole
62
5
39
2
10
83.729654
20
33.824114
11
83.257665
21
33.517152
0
LINE
8
hole
62
5
39
2
10
83.257665
20
33.517152
11
82.212562
21
32.925182
0
LINE
8
hole
62
5
39
2
10
82.212562
20
32.925182
11
82.170061
21
32.898135
0
LINE
8
boundary
62
5
39
2
10
98.312175
20
23.104937
11
98.881936
21
23.614497
0
LINE
8
boundary
62
5
39
2
10
98.881936
20
23.614497
11
99.427527
21
24.281888
0
LINE
8
boundary
62
5
39
2
10
99.427527
20
24.281888
11
99.879227
21
24.778331
0
LINE
8
boundary
62
5
39
2
10
99.879227
20
24.778331
11
100.209225
21
25.201099
0
LINE
8
boundary
62
5
39
2
10
100.209225
20
25.201099
11
100.525602
21
25.683723
0
LINE
8
boundary
62
5
39
2
10
100.525602
20
25.683723
11
101.042655
21
26.455294
0
LINE
8
boundary
62
5
39
2
10
101.042655
20
26.455294
11
101.398102
21
26.962010
0
LINE
8
boundary
62
5
39
2
10
101.398102
20
26.962010
11
101.715667
21
27.693070
0
LINE
8
boundary
62
5
39
2
10
101.715667
20
27.693070
11
101.988818
21
28.269839
0
LINE
8
boundary
62
5
39
2
10
101.988818
20
28.269839
11
102.211835
21
28.754308
0
LINE
8
boundary
62
5
39
2
10
102.211835
20
28.754308
11
102.469431
21
29.223425
0
LINE
8
boundary
62
5
39
2
10
102.469431
20
29.223425
11
102.628497
21
29.725543
0
LINE
8
boundary
62
5
39
2
10
102.628497
20
29.725543
11
102.749088
21
30.230516
0
LINE
8
boundary
62
5
39
2
10
102.749088
20
30.230516
11
102.915107
21
30.918888
0
LINE
8
boundary
62
5
39
2
10
102.915107
20
30.918888
11
103.094577
21
31.761347
0
LINE
8
boundary
62
5
39
2
10
103.094577
20
31.761347
11
103.174629
21
32.297427
0
LINE
8
boundary
62
5
39
2
10
103.174629
20
32.297427
11
103.269366
21
32.925182
0
LINE
8
boundary
62
5
39
2
10
103.269366
20
32.925182
11
103.302860
21
33.444865
0
LINE
8
boundary
62
5
39
2
10
103.302860
20
33.444865
11
103.345656
21
34.089022
0
LINE
8
boundary
62
5
39
2
10
103.345656
20
34.089022
11
103.345648
21
34.783972
0
LINE
8
boundary
62
5
39
2
10
103.345648
20
34.783972
11
103.345645
21
35.721744
0
LINE
8
boundary
62
5
39
2
10
103.345645
20
35.721744
11
103.345648
21
36.416696
0
LINE
8
boundary
62
5
39
2
10
103.345648
20
36.416696
11
103.345636
21
37.111634
0
LINE
8
boundary
62
5
39
2
10
103.345636
20
37.111634
11
103.345621
21
38.049432
0
LINE
8
boundary
62
5
39
2
10
103.345621
20
38.049432
11
103.345612
21
38.744364
0
LINE
8
boundary
62
5
39
2
10
103.345612
20
38.744364
11
103.345606
21
39.439288
0
LINE
8
boundary
62
5
39
2
10
103.345606
20
39.439288
11
103.345606
21
40.377115
0
LINE
8
boundary
62
5
39
2
10
103.345606
20
40.377115
11
103.345612
21
41.072038
0
LINE
8
boundary
62
5
39
2
10
103.345612
20
41.072038
11
103.345594
21
41.766953
0
LINE
8
boundary
62
5
39
2
10
103.345594
20
41.766953
11
103.345607
21
42.704785
0
LINE
8
boundary
62
5
39
2
10
103.345607
20
42.704785
11
103.345640
21
43.399712
0
LINE
8
boundary
62
5
39
2
10
103.345640
20
43.399712
11
103.345648
21
44.094659
0
LINE
8
boundary
62
5
39
2
10
103.345648
20
44.094659
11
103.345652
21
45.032430
0
LINE
8
boundary
62
5
39
2
10
103.345652
20
45.032430
11
103.345652
21
45.727380
0
LINE
8
boundary
62
5
39
2
10
103.345652
20
45.727380
11
103.345652
21
46.422335
0
LINE
8
boundary
62
5
39
2
10
103.345652
20
46.422335
11
103.345652
21
47.360104
0
LINE
8
boundary
62
5
39
2
10
103.345652
20
47.360104
11
103.345652
21
48.055054
0
LINE
8
boundary
62
5
39
2
10
103.345652
20
48.055054
11
103.345652
21
48.750003
0
LINE
8
boundary
62
5
39
2
10
103.345652
20
48.750003
11
103.345652
21
49.687777
0
LINE
8
boundary
62
5
39
2
10
103.345652
20
49.687777
11
103.345652
21
50.382728
0
LINE
8
boundary
62
5
39
2
10
103.345652
20
50.382728
11
103.345652
21
51.077677
0
LINE
8
boundary
62
5
39
2
10
103.345652
20
51.077677
11
103.345652
21
52.015446
0
LINE
8
boundary
62
5
39
2
10
103.345652
20
52.015446
11
103.345652
21
52.710396
0
LINE
8
boundary
62
5
39
2
10
103.345652
20
52.710396
11
103.345652
21
53.405351
0
LINE
8
boundary
62
5
39
2
10
103.345652
20
53.405351
11
103.345652
21
54.343121
0
LINE
8
boundary
62
5
39
2
10
103.345652
20
54.343121
11
103.345652
21
55.038070
0
LINE
8
boundary
62
5
39
2
10
103.345652
20
55.038070
11
103.345652
21
55.733021
0
LINE
8
boundary
62
5
39
2
10
103.345652
20
55.733021
11
103.345652
21
56.670794
0
LINE
8
boundary
62
5
39
2
10
103.345652
20
56.670794
11
103.345652
21
57.365744
0
LINE
8
boundary
62
5
39
2
10
103.345652
20
57.365744
11
103.345652
21
58.060694
0
LINE
8
boundary
62
5
39
2
10
103.345652
20
58.060694
11
103.345652
21
58.998462
0
LINE
8
boundary
62
5
39
2
10
103.345652
20
58.998462
11
103.345652
21
59.693418
0
LINE
8
boundary
62
5
39
2
10
103.345652
20
59.693418
11
103.345652
21
60.388368
0
LINE
8
boundary
62
5
39
2
10
103.345652
20
60.388368
11
103.345652
21
61.326136
0
LINE
8
boundary
62
5
39
2
10
103.345652
20
61.326136
11
103.345652
21
62.021092
0
LINE
8
boundary
62
5
39
2
10
103.345652
20
62.021092
11
103.345651
21
62.716041
0
LINE
8
boundary
62
5
39
2
10
103.345651
20
62.716041
11
103.345632
21
63.653820
0
LINE
8
boundary
62
5
39
2
10
103.345632
20
63.653820
11
103.345606
21
64.348760
0
LINE
8
boundary
62
5
39
2
10
103.345606
20
64.348760
11
103.345606
21
65.043684
0
LINE
8
boundary
62
5
39
2
10
103.345606
20
65.043684
11
103.345606
21
65.981507
0
LINE
8
boundary
62
5
39
2
10
103.345606
20
65.981507
11
103.345606
21
66.676431
0
LINE
8
boundary
62
5
39
2
10
103.345606
20
66.676431
11
103.345606
21
67.371358
0
LINE
8
boundary
62
5
39
2
10
103.345606
20
67.371358
11
103.345606
21
68.309181
0
LINE
8
boundary
62
5
39
2
10
103.345606
20
68.309181
11
103.345606
21
69.004105
0
LINE
8
boundary
62
5
39
2
10
103.345606
20
69.004105
11
103.345614
21
69.699035
0
LINE
8
boundary
62
5
39
2
10
103.345614
20
69.699035
11
103.345626
21
70.636843
0
LINE
8
boundary
62
5
39
2
10
103.345626
20
70.636843
11
103.345631
21
71.331776
0
LINE
8
boundary
62
5
39
2
10
103.345631
20
71.331776
11
103.345631
21
72.026717
0
LINE
8
boundary
62
5
39
2
10
103.345631
20
72.026717
11
103.345631
21
72.964510
0
LINE
8
boundary
62
5
39
2
10
103.345631
20
72.964510
11
103.345631
21
73.659450
0
LINE
8
boundary
62
5
39
2
10
103.345631
20
73.659450
11
103.345631
21
74.354387
0
LINE
8
boundary
62
5
39
2
10
103.345631
20
74.354387
11
103.345631
21
75.292183
0
LINE
8
boundary
62
5
39
2
10
103.345631
20
75.292183
11
103.345631
21
75.987121
0
LINE
8
boundary
62
5
39
2
10
103.345631
20
75.987121
11
103.345643
21
76.682067
0
LINE
8
boundary
62
5
39
2
10
103.345643
20
76.682067
11
103.345652
21
77.619843
0
LINE
8
boundary
62
5
39
2
10
103.345652
20
77.619843
11
103.345652
21
78.314795
0
LINE
8
boundary
62
5
39
2
10
103.345652
20
78.314795
11
103.345652
21
79.009745
0
LINE
8
boundary
62
5
39
2
10
103.345652
20
79.009745
11
103.345652
21
79.947518
0
LINE
8
boundary
62
5
39
2
10
103.345652
20
79.947518
11
103.345652
21
80.642469
0
LINE
8
boundary
62
5
39
2
10
103.345652
20
80.642469
11
103.345652
21
81.337420
0
LINE
8
boundary
62
5
39
2
10
103.345652
20
81.337420
11
103.345652
21
82.275191
0
LINE
8
boundary
62
5
39
2
10
103.345652
20
82.275191
11
103.345652
21
82.970140
0
LINE
8
boundary
62
5
39
2
10
103.345652
20
82.970140
11
103.345644
21
83.665087
0
LINE
8
boundary
62
5
39
2
10
103.345644
20
83.665087
11
103.345637
21
84.602870
0
LINE
8
boundary
62
5
39
2
10
103.345637
20
84.602870
11
103.345636
21
85.297814
0
LINE
8
boundary
62
5
39
2
10
103.345636
20
85.297814
11
103.345637
21
85.992756
0
LINE
8
boundary
62
5
39
2
10
103.345637
20
85.992756
11
103.345637
21
86.930545
0
LINE
8
boundary
62
5
39
2
10
103.345637
20
86.930545
11
103.345636
21
87.625486
0
LINE
8
boundary
62
5
39
2
10
103.345636
20
87.625486
11
103.345637
21
88.320427
0
LINE
8
boundary
62
5
39
2
10
103.345637
20
88.320427
11
103.345637
21
89.258215
0
LINE
8
boundary
62
5
39
2
10
103.345637
20
89.258215
11
103.345636
21
89.953156
0
LINE
8
boundary
62
5
39
2
10
103.345636
20
89.953156
11
103.345638
21
90.648099
0
LINE
8
boundary
62
5
39
2
10
103.345638
20
90.648099
11
103.345637
21
91.585887
0
LINE
8
boundary
62
5
39
2
10
103.345637
20
91.585887
11
103.345636
21
92.280829
0
LINE
8
boundary
62
5
39
2
10
103.345636
20
92.280829
11
103.345638
21
92.975772
0
LINE
8
boundary
62
5
39
2
10
103.345638
20
92.975772
11
103.345638
21
93.913560
0
LINE
8
boundary
62
5
39
2
10
103.345638
20
93.913560
11
103.345638
21
94.608503
0
LINE
8
boundary
62
5
39
2
10
103.345638
20
94.608503
11
103.345641
21
95.303448
0
LINE
8
boundary
62
5
39
2
10
103.345641
20
95.303448
11
103.345644
21
96.241230
0
LINE
8
boundary
62
5
39
2
10
103.345644
20
96.241230
11
103.345643
21
96.936176
0
LINE
8
boundary
62
5
39
2
10
103.345643
20
96.936176
11
103.345644
21
97.631120
0
LINE
8
boundary
62
5
39
2
10
103.345644
20
97.631120
11
103.345644
21
98.568902
0
LINE
8
boundary
62
5
39
2
10
103.345644
20
98.568902
11
103.345643
21
99.263848
0
LINE
8
boundary
62
5
39
2
10
103.345643
20
99.263848
11
103.345648
21
99.958795
0
LINE
8
boundary
62
5
39
2
10
103.345648
20
99.958795
11
103.345651
21
100.896571
0
LINE
8
boundary
62
5
39
2
10
103.345651
20
100.896571
11
103.345648
21
101.591519
0
LINE
8
boundary
62
5
39
2
10
103.345648
20
101.591519
11
103.345651
21
102.286469
0
LINE
8
boundary
62
5
39
2
10
103.345651
20
102.286469
11
103.345651
21
103.224243
0
LINE
8
boundary
62
5
39
2
10
103.345651
20
103.224243
11
103.345648
21
103.919193
0
LINE
8
boundary
62
5
39
2
10
103.345648
20
103.919193
11
103.345651
21
104.614141
0
LINE
8
boundary
62
5
39
2
10
103.345651
20
104.614141
11
103.345651
21
105.551916
0
LINE
8
boundary
62
5
39
2
10
103.345651
20
105.551916
11
103.345648
21
106.246864
0
LINE
8
boundary
62
5
39
2
10
103.345648
20
106.246864
11
103.345651
21
106.941814
0
LINE
8
boundary
62
5
39
2
10
103.345651
20
106.941814
11
103.345651
21
107.879588
0
LINE
8
boundary
62
5
39
2
10
103.345651
20
107.879588
11
103.345648
21
108.574537
0
LINE
8
boundary
62
5
39
2
10
103.345648
20
108.574537
11
103.345651
21
109.269486
0
LINE
8
boundary
62
5
39
2
10
103.345651
20
109.269486
11
103.345651
21
110.207260
0
LINE
8
boundary
62
5
39
2
10
103.345651
20
110.207260
11
103.345648
21
110.902209
0
LINE
8
boundary
62
5
39
2
10
103.345648
20
110.902209
11
103.345651
21
111.597158
0
LINE
8
boundary
62
5
39
2
10
103.345651
20
111.597158
11
103.345651
21
112.534933
0
LINE
8
boundary
62
5
39
2
10
103.345651
20
112.534933
11
103.345648
21
113.229881
0
LINE
8
boundary
62
5
39
2
10
103.345648
20
113.229881
11
103.345651
21
113.924830
0
LINE
8
boundary
62
5
39
2
10
103.345651
20
113.924830
11
103.345651
21
114.862605
0
LINE
8
boundary
62
5
39
2
10
103.345651
20
114.862605
11
103.345649
21
115.557554
0
LINE
8
boundary
62
5
39
2
10
103.345649
20
115.557554
11
103.345651
21
116.252503
0
LINE
8
boundary
62
5
39
2
10
103.345651
20
116.252503
11
103.345651
21
117.190277
0
LINE
8
boundary
62
5
39
2
10
103.345651
20
117.190277
11
103.345649
21
117.885226
0
LINE
8
boundary
62
5
39
2
10
103.345649
20
117.885226
11
103.345651
21
118.580175
0
LINE
8
boundary
62
5
39
2
10
103.345651
20
118.580175
11
103.345651
21
119.517950
0
LINE
8
boundary
62
5
39
2
10
103.345651
20
119.517950
11
103.345650
21
120.212899
0
LINE
8
boundary
62
5
39
2
10
103.345650
20
120.212899
11
103.345651
21
120.907848
0
LINE
8
boundary
62
5
39
2
10
103.345651
20
120.907848
11
103.345651
21
121.845622
0
LINE
8
boundary
62
5
39
2
10
103.345651
20
121.845622
11
103.345650
21
122.540571
0
LINE
8
boundary
62
5
39
2
10
103.345650
20
122.540571
11
103.345651
21
123.235520
0
LINE
8
boundary
62
5
39
2
10
103.345651
20
123.235520
11
103.345651
21
124.173294
0
LINE
8
boundary
62
5
39
2
10
103.345651
20
124.173294
11
103.345650
21
124.868243
0
LINE
8
boundary
62
5
39
2
10
103.345650
20
124.868243
11
103.345651
21
125.563193
0
LINE
8
boundary
62
5
39
2
10
103.345651
20
125.563193
11
103.345651
21
126.500966
0
LINE
8
boundary
62
5
39
2
10
103.345651
20
126.500966
11
103.345650
21
127.195916
0
LINE
8
boundary
62
5
39
2
10
103.345650
20
127.195916
11
103.345651
21
127.890866
0
LINE
8
boundary
62
5
39
2
10
103.345651
20
127.890866
11
103.345651
21
128.828640
0
LINE
8
boundary
62
5
39
2
10
103.345651
20
128.828640
11
103.345650
21
129.523588
0
LINE
8
boundary
62
5
39
2
10
103.345650
20
129.523588
11
103.345651
21
130.218538
0
LINE
8
boundary
62
5
39
2
10
103.345651
20
130.218538
11
103.345651
21
131.156312
0
LINE
8
boundary
62
5
39
2
10
103.345651
20
131.156312
11
103.345650
21
131.851261
0
LINE
8
boundary
62
5
39
2
10
103.345650
20
131.851261
11
103.345651
21
132.546211
0
LINE
8
boundary
62
5
39
2
10
103.345651
20
132.546211
11
103.345651
21
133.483984
0
LINE
8
boundary
62
5
39
2
10
103.345651
20
133.483984
11
103.345650
21
134.178933
0
LINE
8
boundary
62
5
39
2
10
103.345650
20
134.178933
11
103.345652
21
134.873884
0
LINE
8
boundary
62
5
39
2
10
103.345652
20
134.873884
11
103.345652
21
135.811656
0
LINE
8
boundary
62
5
39
2
10
103.345652
20
135.811656
11
103.345648
21
136.506606
0
LINE
8
boundary
62
5
39
2
10
103.345648
20
136.506606
11
103.345648
21
137.201555
0
LINE
8
boundary
62
5
39
2
10
103.345648
20
137.201555
11
103.345648
21
138.139329
0
LINE
8
boundary
62
5
39
2
10
103.345648
20
138.139329
11
103.345648
21
138.834278
0
LINE
8
boundary
62
5
39
2
10
103.345648
20
138.834278
11
103.345648
21
139.529226
0
LINE
8
boundary
62
5
39
2
10
103.345648
20
139.529226
11
103.345671
21
140.466970
0
LINE
8
boundary
62
5
39
2
10
103.345671
20
140.466970
11
103.345710
21
141.161953
0
LINE
8
boundary
62
5
39
2
10
103.345710
20
141.161953
11
103.345713
21
141.856997
0
LINE
8
boundary
62
5
39
2
10
103.345713
20
141.856997
11
103.345691
21
142.794610
0
LINE
8
boundary
62
5
39
2
10
103.345691
20
142.794610
11
103.345648
21
143.489623
0
LINE
8
boundary
62
5
39
2
10
103.345648
20
143.489623
11
103.345648
21
144.184574
0
LINE
8
boundary
62
5
39
2
10
103.345648
20
144.184574
11
103.345648
21
145.122347
0
LINE
8
boundary
62
5
39
2
10
103.345648
20
145.122347
11
103.345649
21
145.817298
0
LINE
8
boundary
62
5
39
2
10
103.345649
20
145.817298
11
103.345648
21
146.512245
0
LINE
8
boundary
62
5
39
2
10
103.345648
20
146.512245
11
103.345648
21
147.450021
0
LINE
8
boundary
62
5
39
2
10
103.345648
20
147.450021
11
103.345648
21
148.144968
0
LINE
8
boundary
62
5
39
2
10
103.345648
20
148.144968
11
103.345651
21
148.839918
0
LINE
8
boundary
62
5
39
2
10
103.345651
20
148.839918
11
103.345652
21
149.777690
0
LINE
8
boundary
62
5
39
2
10
103.345652
20
149.777690
11
103.345652
21
150.472639
0
LINE
8
boundary
62
5
39
2
10
103.345652
20
150.472639
11
103.345652
21
151.167592
0
LINE
8
boundary
62
5
39
2
10
103.345652
20
151.167592
11
103.345663
21
152.105347
0
LINE
8
boundary
62
5
39
2
10
103.345663
20
152.105347
11
103.345683
21
152.800314
0
LINE
8
boundary
62
5
39
2
10
103.345683
20
152.800314
11
103.345684
21
153.495315
0
LINE
8
boundary
62
5
39
2
10
103.345684
20
153.495315
11
103.345684
21
154.432984
0
LINE
8
boundary
62
5
39
2
10
103.345684
20
154.432984
11
103.345683
21
155.127985
0
LINE
8
boundary
62
5
39
2
10
103.345683
20
155.127985
11
103.345685
21
155.822988
0
LINE
8
boundary
62
5
39
2
10
103.345685
20
155.822988
11
103.345685
21
156.760655
0
LINE
8
boundary
62
5
39
2
10
103.345685
20
156.760655
11
103.345684
21
157.455658
0
LINE
8
boundary
62
5
39
2
10
103.345684
20
157.455658
11
103.345685
21
158.150659
0
LINE
8
boundary
62
5
39
2
10
103.345685
20
158.150659
11
103.345685
21
159.088328
0
LINE
8
boundary
62
5
39
2
10
103.345685
20
159.088328
11
103.345683
21
159.783330
0
LINE
8
boundary
62
5
39
2
10
103.345683
20
159.783330
11
103.345685
21
160.478332
0
LINE
8
boundary
62
5
39
2
10
103.345685
20
160.478332
11
103.345685
21
161.415999
0
LINE
8
boundary
62
5
39
2
10
103.345685
20
161.415999
11
103.345682
21
162.111004
0
LINE
8
boundary
62
5
39
2
10
103.345682
20
162.111004
11
103.345548
21
162.805852
0
LINE
8
boundary
62
5
39
2
10
103.345548
20
162.805852
11
103.345297
21
163.744034
0
LINE
8
boundary
62
5
39
2
10
103.345297
20
163.744034
11
103.345072
21
164.438675
0
LINE
8
boundary
62
5
39
2
10
103.345072
20
164.438675
11
103.344849
21
165.132806
0
LINE
8
boundary
62
5
39
2
10
103.344849
20
165.132806
11
103.344540
21
166.072475
0
LINE
8
boundary
62
5
39
2
10
103.344540
20
166.072475
11
103.344316
21
166.766346
0
LINE
8
boundary
62
5
39
2
10
103.344316
20
166.766346
11
103.344111
21
167.459726
0
LINE
8
boundary
62
5
39
2
10
103.344111
20
167.459726
11
103.343956
21
168.400783
0
LINE
8
boundary
62
5
39
2
10
103.343956
20
168.400783
11
103.343934
21
169.094020
0
LINE
8
boundary
62
5
39
2
10
103.343934
20
169.094020
11
103.343930
21
169.787227
0
LINE
8
boundary
62
5
39
2
10
103.343930
20
169.787227
11
103.343926
21
170.728483
0
LINE
8
boundary
62
5
39
2
10
103.343926
20
170.728483
11
103.343924
21
171.421694
0
LINE
8
boundary
62
5
39
2
10
103.343924
20
171.421694
11
103.343934
21
172.114913
0
LINE
8
boundary
62
5
39
2
10
103.343934
20
172.114913
11
103.343948
21
173.056120
0
LINE
8
boundary
62
5
39
2
10
103.343948
20
173.056120
11
103.343964
21
173.749362
0
LINE
8
boundary
62
5
39
2
10
103.343964
20
173.749362
11
103.343978
21
174.442650
0
LINE
8
boundary
62
5
39
2
10
103.343978
20
174.442650
11
103.343983
21
175.383740
0
LINE
8
boundary
62
5
39
2
10
103.343983
20
175.383740
11
103.343983
21
176.077036
0
LINE
8
boundary
62
5
39
2
10
103.343983
20
176.077036
11
103.343983
21
176.770332
0
LINE
8
boundary
62
5
39
2
10
103.343983
20
176.770332
11
103.343983
21
177.711413
0
LINE
8
boundary
62
5
39
2
10
103.343983
20
177.711413
11
103.343983
21
178.404710
0
LINE
8
boundary
62
5
39
2
10
103.343983
20
178.404710
11
103.343983
21
179.098007
0
LINE
8
boundary
62
5
39
2
10
103.343983
20
179.098007
11
103.343983
21
180.039082
0
LINE
8
boundary
62
5
39
2
10
103.343983
20
180.039082
11
103.343983
21
180.732378
0
LINE
8
boundary
62
5
39
2
10
103.343983
20
180.732378
11
103.343983
21
181.425681
0
LINE
8
boundary
62
5
39
2
10
103.343983
20
181.425681
11
103.343983
21
182.366756
0
LINE
8
boundary
62
5
39
2
10
103.343983
20
182.366756
11
103.343983
21
183.060052
0
LINE
8
boundary
62
5
39
2
10
103.343983
20
183.060052
11
103.343983
21
183.753348
0
LINE
8
boundary
62
5
39
2
10
103.343983
20
183.753348
11
103.336747
21
184.701627
0
LINE
8
boundary
62
5
39
2
10
103.336747
20
184.701627
11
103.326131
21
185.387726
0
LINE
8
boundary
62
5
39
2
10
103.326131
20
185.387726
11
103.255360
21
185.949470
0
LINE
8
boundary
62
5
39
2
10
103.255360
20
185.949470
11
103.180818
21
186.551560
0
LINE
8
boundary
62
5
39
2
10
103.180818
20
186.551560
11
103.042514
21
187.259932
0
LINE
8
boundary
62
5
39
2
10
103.042514
20
187.259932
11
102.872171
21
188.036087
0
LINE
8
boundary
62
5
39
2
10
102.872171
20
188.036087
11
102.675631
21
188.879234
0
LINE
8
boundary
62
5
39
2
10
102.675631
20
188.879234
11
102.469431
21
189.422341
0
LINE
8
boundary
62
5
39
2
10
102.469431
20
189.422341
11
102.173562
21
190.043068
0
LINE
8
boundary
62
5
39
2
10
102.173562
20
190.043068
11
101.911708
21
190.580964
0
LINE
8
boundary
62
5
39
2
10
101.911708
20
190.580964
11
101.648010
21
191.206908
0
LINE
8
boundary
62
5
39
2
10
101.648010
20
191.206908
11
101.339325
21
191.797464
0
LINE
8
boundary
62
5
39
2
10
101.339325
20
191.797464
11
100.973853
21
192.370742
0
LINE
8
boundary
62
5
39
2
10
100.973853
20
192.370742
11
100.598019
21
192.944465
0
LINE
8
boundary
62
5
39
2
10
100.598019
20
192.944465
11
100.286283
21
193.534576
0
LINE
8
boundary
62
5
39
2
10
100.286283
20
193.534576
11
99.743279
21
194.113915
0
LINE
8
boundary
62
5
39
2
10
99.743279
20
194.113915
11
99.303727
21
194.698416
0
LINE
8
boundary
62
5
39
2
10
99.303727
20
194.698416
11
98.744977
21
195.251212
0
LINE
8
boundary
62
5
39
2
10
98.744977
20
195.251212
11
98.166927
21
195.862251
0
LINE
8
boundary
62
5
39
2
10
98.166927
20
195.862251
11
97.646729
21
196.258677
0
LINE
8
boundary
62
5
39
2
10
97.646729
20
196.258677
11
96.818913
21
196.884724
0
LINE
8
boundary
62
5
39
2
10
96.818913
20
196.884724
11
96.078981
21
197.338321
0
LINE
8
boundary
62
5
39
2
10
96.078981
20
197.338321
11
95.189746
21
197.886597
0
LINE
8
boundary
62
5
39
2
10
95.189746
20
197.886597
11
94.750541
21
198.189924
0
LINE
8
boundary
62
5
39
2
10
94.750541
20
198.189924
11
93.941756
21
198.562478
0
LINE
8
boundary
62
5
39
2
10
93.941756
20
198.562478
11
93.428598
21
198.835092
0
LINE
8
boundary
62
5
39
2
10
93.428598
20
198.835092
11
92.969006
21
199.104514
0
LINE
8
boundary
62
5
39
2
10
92.969006
20
199.104514
11
92.456917
21
199.430087
0
LINE
8
boundary
62
5
39
2
10
92.456917
20
199.430087
11
91.756482
21
199.758478
0
LINE
8
boundary
62
5
39
2
10
91.756482
20
199.758478
11
91.168392
21
200.075519
0
LINE
8
boundary
62
5
39
2
10
91.168392
20
200.075519
11
90.458898
21
200.517593
0
LINE
8
boundary
62
5
39
2
10
90.458898
20
200.517593
11
89.718418
21
200.897058
0
LINE
8
boundary
62
5
39
2
10
89.718418
20
200.897058
11
88.908186
21
201.316627
0
LINE
8
boundary
62
5
39
2
10
88.908186
20
201.316627
11
88.318518
21
201.681433
0
LINE
8
boundary
62
5
39
2
10
88.318518
20
201.681433
11
87.778080
21
201.963629
0
LINE
8
boundary
62
5
39
2
10
87.778080
20
201.963629
11
87.150928
21
202.265404
0
LINE
8
boundary
62
5
39
2
10
87.150928
20
202.265404
11
86.647974
21
202.557409
0
LINE
8
boundary
62
5
39
2
10
86.647974
20
202.557409
11
86.179031
21
202.845266
0
LINE
8
boundary
62
5
39
2
10
86.179031
20
202.845266
11
85.517871
21
203.183954
0
LINE
8
boundary
62
5
39
2
10
85.517871
20
203.183954
11
84.949668
21
203.466598
0
LINE
8
boundary
62
5
39
2
10
84.949668
20
203.466598
11
84.387768
21
203.797815
0
LINE
8
boundary
62
5
39
2
10
84.387768
20
203.797815
11
83.588379
21
204.230267
0
LINE
8
boundary
62
5
39
2
10
83.588379
20
204.230267
11
82.943467
21
204.575418
0
LINE
8
boundary
62
5
39
2
10
82.943467
20
204.575418
11
82.127559
21
205.040549
0
LINE
8
boundary
62
5
39
2
10
82.127559
20
205.040549
11
81.321087
21
205.464992
0
LINE
8
boundary
62
5
39
2
10
81.321087
20
205.464992
11
80.432753
21
205.942057
0
LINE
8
boundary
62
5
39
2
10
80.432753
20
205.942057
11
79.867351
21
206.284204
0
LINE
8
boundary
62
5
39
2
10
79.867351
20
206.284204
11
79.143772
21
206.659815
0
LINE
8
boundary
62
5
39
2
10
79.143772
20
206.659815
11
78.236055
21
207.194668
0
LINE
8
boundary
62
5
39
2
10
78.236055
20
207.194668
11
77.793184
21
207.500615
0
LINE
8
boundary
62
5
39
2
10
77.793184
20
207.500615
11
76.986667
21
207.871608
0
LINE
8
boundary
62
5
39
2
10
76.986667
20
207.871608
11
76.477041
21
208.142199
0
LINE
8
boundary
62
5
39
2
10
76.477041
20
208.142199
11
76.015278
21
208.412642
0
LINE
8
boundary
62
5
39
2
10
76.015278
20
208.412642
11
75.502904
21
208.739088
0
LINE
8
boundary
62
5
39
2
10
75.502904
20
208.739088
11
74.801151
21
209.067431
0
LINE
8
boundary
62
5
39
2
10
74.801151
20
209.067431
11
74.216832
21
209.382164
0
LINE
8
boundary
62
5
39
2
10
74.216832
20
209.382164
11
73.501445
21
209.828282
0
LINE
8
boundary
62
5
39
2
10
73.501445
20
209.828282
11
72.767827
21
210.203649
0
LINE
8
boundary
62
5
39
2
10
72.767827
20
210.203649
11
71.956624
21
210.621315
0
LINE
8
boundary
62
5
39
2
10
71.956624
20
210.621315
11
71.357053
21
210.992123
0
LINE
8
boundary
62
5
39
2
10
71.357053
20
210.992123
11
70.826521
21
211.269345
0
LINE
8
boundary
62
5
39
2
10
70.826521
20
211.269345
11
70.194721
21
211.573164
0
LINE
8
boundary
62
5
39
2
10
70.194721
20
211.573164
11
69.696417
21
211.862535
0
LINE
8
boundary
62
5
39
2
10
69.696417
20
211.862535
11
69.219087
21
212.155956
0
LINE
8
boundary
62
5
39
2
10
69.219087
20
212.155956
11
68.566312
21
212.491178
0
LINE
8
boundary
62
5
39
2
10
68.566312
20
212.491178
11
67.994546
21
212.775516
0
LINE
8
boundary
62
5
39
2
10
67.994546
20
212.775516
11
67.436208
21
213.104794
0
LINE
8
boundary
62
5
39
2
10
67.436208
20
213.104794
11
66.633706
21
213.539302
0
LINE
8
boundary
62
5
39
2
10
66.633706
20
213.539302
11
65.991317
21
213.883077
0
LINE
8
boundary
62
5
39
2
10
65.991317
20
213.883077
11
65.176000
21
214.347527
0
LINE
8
boundary
62
5
39
2
10
65.176000
20
214.347527
11
64.366213
21
214.774553
0
LINE
8
boundary
62
5
39
2
10
64.366213
20
214.774553
11
63.483650
21
215.247233
0
LINE
8
boundary
62
5
39
2
10
63.483650
20
215.247233
11
62.915792
21
215.588811
0
LINE
8
boundary
62
5
39
2
10
62.915792
20
215.588811
11
62.186086
21
215.968391
0
LINE
8
boundary
62
5
39
2
10
62.186086
20
215.968391
11
61.281865
21
216.501042
0
LINE
8
boundary
62
5
39
2
10
61.281865
20
216.501042
11
60.834019
21
216.811305
0
LINE
8
boundary
62
5
39
2
10
60.834019
20
216.811305
11
60.029917
21
217.180378
0
LINE
8
boundary
62
5
39
2
10
60.029917
20
217.180378
11
59.525480
21
217.448191
0
LINE
8
boundary
62
5
39
2
10
59.525480
20
217.448191
11
59.061433
21
217.720285
0
LINE
8
boundary
62
5
39
2
10
59.061433
20
217.720285
11
58.548894
21
218.048121
0
LINE
8
boundary
62
5
39
2
10
58.548894
20
218.048121
11
57.846263
21
218.376610
0
LINE
8
boundary
62
5
39
2
10
57.846263
20
218.376610
11
57.265272
21
218.689588
0
LINE
8
boundary
62
5
39
2
10
57.265272
20
218.689588
11
56.544733
21
219.138973
0
LINE
8
boundary
62
5
39
2
10
56.544733
20
219.138973
11
55.817472
21
219.511344
0
LINE
8
boundary
62
5
39
2
10
55.817472
20
219.511344
11
55.005064
21
219.929177
0
LINE
8
boundary
62
5
39
2
10
55.005064
20
219.929177
11
54.385151
21
220.302807
0
LINE
8
boundary
62
5
39
2
10
54.385151
20
220.302807
11
53.874961
21
220.550139
0
LINE
8
boundary
62
5
39
2
10
53.874961
20
220.550139
11
53.371710
21
220.694523
0
LINE
8
boundary
62
5
39
2
10
53.371710
20
220.694523
11
52.744857
21
220.895885
0
LINE
8
boundary
62
5
39
2
10
52.744857
20
220.895885
11
52.216500
21
221.032309
0
LINE
8
boundary
62
5
39
2
10
52.216500
20
221.032309
11
51.614753
21
221.194854
0
LINE
8
boundary
62
5
39
2
10
51.614753
20
221.194854
11
50.823522
21
221.466653
0
LINE
8
boundary
62
5
39
2
10
50.823522
20
221.466653
11
50.326260
21
221.582554
0
LINE
8
boundary
62
5
39
2
10
50.326260
20
221.582554
11
49.645600
21
221.679634
0
LINE
8
boundary
62
5
39
2
10
49.645600
20
221.679634
11
48.910292
21
221.778377
0
LINE
8
boundary
62
5
39
2
10
48.910292
20
221.778377
11
48.224440
21
221.861321
0
LINE
8
boundary
62
5
39
2
10
48.224440
20
221.861321
11
47.372961
21
221.943393
0
LINE
8
boundary
62
5
39
2
10
47.372961
20
221.943393
11
46.688936
21
222.003453
0
LINE
8
boundary
62
5
39
2
10
46.688936
20
222.003453
11
45.964233
21
222.056073
0
LINE
8
boundary
62
5
39
2
10
45.964233
20
222.056073
11
45.277143
21
222.086744
0
LINE
8
boundary
62
5
39
2
10
45.277143
20
222.086744
11
44.369536
21
222.115689
0
LINE
8
boundary
62
5
39
2
10
44.369536
20
222.115689
11
43.704025
21
222.126394
0
LINE
8
boundary
62
5
39
2
10
43.704025
20
222.126394
11
43.037084
21
222.113052
0
LINE
8
boundary
62
5
39
2
10
43.037084
20
222.113052
11
42.135297
21
222.080013
0
LINE
8
boundary
62
5
39
2
10
42.135297
20
222.080013
11
41.443817
21
222.045713
0
LINE
8
boundary
62
5
39
2
10
41.443817
20
222.045713
11
40.712052
21
221.988179
0
LINE
8
boundary
62
5
39
2
10
40.712052
20
221.988179
11
40.055692
21
221.927593
0
LINE
8
boundary
62
5
39
2
10
40.055692
20
221.927593
11
39.549176
21
221.876831
0
LINE
8
boundary
62
5
39
2
10
39.549176
20
221.876831
11
38.783074
21
221.788217
0
LINE
8
boundary
62
5
39
2
10
38.783074
20
221.788217
11
38.053505
21
221.703706
0
LINE
8
boundary
62
5
39
2
10
38.053505
20
221.703706
11
37.038352
21
221.547807
0
LINE
8
boundary
62
5
39
2
10
37.038352
20
221.547807
11
36.183646
21
221.273752
0
LINE
8
boundary
62
5
39
2
10
36.183646
20
221.273752
11
35.296436
21
221.012091
0
LINE
8
boundary
62
5
39
2
10
35.296436
20
221.012091
11
34.663193
21
220.848215
0
LINE
8
boundary
62
5
39
2
10
34.663193
20
220.848215
11
34.053703
21
220.684011
0
LINE
8
boundary
62
5
39
2
10
34.053703
20
220.684011
11
33.533090
21
220.557351
0
LINE
8
boundary
62
5
39
2
10
33.533090
20
220.557351
11
32.819051
21
220.302807
0
LINE
8
boundary
62
5
39
2
10
32.819051
20
220.302807
11
31.869080
21
219.888458
0
LINE
8
boundary
62
5
39
2
10
31.869080
20
219.888458
11
31.272882
21
219.662694
0
LINE
8
boundary
62
5
39
2
10
31.272882
20
219.662694
11
30.390942
21
219.346286
0
LINE
8
boundary
62
5
39
2
10
30.390942
20
219.346286
11
29.901972
21
219.138973
0
LINE
8
boundary
62
5
39
2
10
29.901972
20
219.138973
11
29.012675
21
218.620181
0
LINE
8
boundary
62
5
39
2
10
29.012675
20
218.620181
11
28.493361
21
218.348001
0
LINE
8
boundary
62
5
39
2
10
28.493361
20
218.348001
11
27.882569
21
218.083048
0
LINE
8
boundary
62
5
39
2
10
27.882569
20
218.083048
11
27.267249
21
217.646143
0
LINE
8
boundary
62
5
39
2
10
27.267249
20
217.646143
11
26.752465
21
217.313845
0
LINE
8
boundary
62
5
39
2
10
26.752465
20
217.313845
11
26.015175
21
216.811305
0
LINE
8
boundary
62
5
39
2
10
26.015175
20
216.811305
11
25.246413
21
216.160608
0
LINE
8
boundary
62
5
39
2
10
25.246413
20
216.160608
11
24.547971
21
215.647465
0
LINE
8
boundary
62
5
39
2
10
24.547971
20
215.647465
11
23.973522
21
215.125311
0
LINE
8
boundary
62
5
39
2
10
23.973522
20
215.125311
11
23.362157
21
214.693690
0
LINE
8
boundary
62
5
39
2
10
23.362157
20
214.693690
11
22.622756
21
214.040883
0
LINE
8
boundary
62
5
39
2
10
22.622756
20
214.040883
11
22.232051
21
213.716109
0
LINE
8
boundary
62
5
39
2
10
22.232051
20
213.716109
11
21.741877
21
213.319790
0
LINE
8
boundary
62
5
39
2
10
21.741877
20
213.319790
11
21.101945
21
212.770116
0
LINE
8
boundary
62
5
39
2
10
21.101945
20
212.770116
11
20.350849
21
212.155957
0
LINE
8
boundary
62
5
39
2
10
20.350849
20
212.155957
11
19.609235
21
211.486457
0
LINE
8
boundary
62
5
39
2
10
19.609235
20
211.486457
11
18.957949
21
210.992122
0
LINE
8
boundary
62
5
39
2
10
18.957949
20
210.992122
11
18.351593
21
210.447391
0
LINE
8
boundary
62
5
39
2
10
18.351593
20
210.447391
11
17.711635
21
210.000532
0
LINE
8
boundary
62
5
39
2
10
17.711635
20
210.000532
11
17.000884
21
209.357743
0
LINE
8
boundary
62
5
39
2
10
17.000884
20
209.357743
11
16.581529
21
209.016088
0
LINE
8
boundary
62
5
39
2
10
16.581529
20
209.016088
11
16.147790
21
208.664449
0
LINE
8
boundary
62
5
39
2
10
16.147790
20
208.664449
11
15.451426
21
208.059998
0
LINE
8
boundary
62
5
39
2
10
15.451426
20
208.059998
11
14.766062
21
207.500614
0
LINE
8
boundary
62
5
39
2
10
14.766062
20
207.500614
11
14.321323
21
207.119562
0
LINE
8
boundary
62
5
39
2
10
14.321323
20
207.119562
11
13.851069
21
206.691509
0
LINE
8
boundary
62
5
39
2
10
13.851069
20
206.691509
11
13.372505
21
206.336775
0
LINE
8
boundary
62
5
39
2
10
13.372505
20
206.336775
11
12.732956
21
205.765942
0
LINE
8
boundary
62
5
39
2
10
12.732956
20
205.765942
11
12.313894
21
205.477972
0
LINE
8
boundary
62
5
39
2
10
12.313894
20
205.477972
11
11.670780
21
204.888467
0
LINE
8
boundary
62
5
39
2
10
11.670780
20
204.888467
11
11.215826
21
204.423976
0
LINE
8
boundary
62
5
39
2
10
11.215826
20
204.423976
11
10.799980
21
204.009107
0
LINE
8
boundary
62
5
39
2
10
10.799980
20
204.009107
11
10.480395
21
203.497392
0
LINE
8
boundary
62
5
39
2
10
10.480395
20
203.497392
11
9.967155
21
202.845267
0
LINE
8
boundary
62
5
39
2
10
9.967155
20
202.845267
11
9.492952
21
202.098377
0
LINE
8
boundary
62
5
39
2
10
9.492952
20
202.098377
11
8.920023
21
201.202412
0
LINE
8
boundary
62
5
39
2
10
8.920023
20
201.202412
11
8.593680
21
200.689835
0
LINE
8
boundary
62
5
39
2
10
8.593680
20
200.689835
11
8.377485
21
200.211563
0
LINE
8
boundary
62
5
39
2
10
8.377485
20
200.211563
11
8.025399
21
199.353758
0
LINE
8
boundary
62
5
39
2
10
8.025399
20
199.353758
11
7.809501
21
198.859977
0
LINE
8
boundary
62
5
39
2
10
7.809501
20
198.859977
11
7.540699
21
198.349825
0
LINE
8
boundary
62
5
39
2
10
7.540699
20
198.349825
11
7.290995
21
197.382658
0
LINE
8
boundary
62
5
39
2
10
7.290995
20
197.382658
11
7.128129
21
196.688576
0
LINE
8
boundary
62
5
39
2
10
7.128129
20
196.688576
11
6.953785
21
195.862251
0
LINE
8
boundary
62
5
39
2
10
6.953785
20
195.862251
11
6.874989
21
195.353343
0
LINE
8
boundary
62
5
39
2
10
6.874989
20
195.353343
11
6.773526
21
194.698416
0
LINE
8
boundary
62
5
39
2
10
6.773526
20
194.698416
11
6.726589
21
194.159045
0
LINE
8
boundary
62
5
39
2
10
6.726589
20
194.159045
11
6.670570
21
193.534576
0
LINE
8
boundary
62
5
39
2
10
6.670570
20
193.534576
11
6.668726
21
192.844265
0
LINE
8
boundary
62
5
39
2
10
6.668726
20
192.844265
11
6.667533
21
191.898412
0
LINE
8
boundary
62
5
39
2
10
6.667533
20
191.898412
11
6.667589
21
191.206908
0
LINE
8
boundary
62
5
39
2
10
6.667589
20
191.206908
11
6.667590
21
190.515489
0
LINE
8
boundary
62
5
39
2
10
6.667590
20
190.515489
11
6.667589
21
189.570648
0
LINE
8
boundary
62
5
39
2
10
6.667589
20
189.570648
11
6.667590
21
188.879234
0
LINE
8
boundary
62
5
39
2
10
6.667590
20
188.879234
11
6.667590
21
188.187821
0
LINE
8
boundary
62
5
39
2
10
6.667590
20
188.187821
11
6.667590
21
187.242975
0
LINE
8
boundary
62
5
39
2
10
6.667590
20
187.242975
11
6.667590
21
186.551560
0
LINE
8
boundary
62
5
39
2
10
6.667590
20
186.551560
11
6.667590
21
185.860147
0
LINE
8
boundary
62
5
39
2
10
6.667590
20
185.860147
11
6.667590
21
184.915306
0
LINE
8
boundary
62
5
39
2
10
6.667590
20
184.915306
11
6.667589
21
184.223886
0
LINE
8
boundary
62
5
39
2
10
6.667589
20
184.223886
11
6.667590
21
183.532473
0
LINE
8
boundary
62
5
39
2
10
6.667590
20
183.532473
11
6.667590
21
182.587632
0
LINE
8
boundary
62
5
39
2
10
6.667590
20
182.587632
11
6.667590
21
181.896218
0
LINE
8
boundary
62
5
39
2
10
6.667590
20
181.896218
11
6.667590
21
181.204803
0
LINE
8
boundary
62
5
39
2
10
6.667590
20
181.204803
11
6.667589
21
180.259957
0
LINE
8
boundary
62
5
39
2
10
6.667589
20
180.259957
11
6.667590
21
179.568544
0
LINE
8
boundary
62
5
39
2
10
6.667590
20
179.568544
11
6.667589
21
178.877130
0
LINE
8
boundary
62
5
39
2
10
6.667589
20
178.877130
11
6.667590
21
177.932289
0
LINE
8
boundary
62
5
39
2
10
6.667590
20
177.932289
11
6.667589
21
177.240870
0
LINE
8
boundary
62
5
39
2
10
6.667589
20
177.240870
11
6.667590
21
176.549457
0
LINE
8
boundary
62
5
39
2
10
6.667590
20
176.549457
11
6.667590
21
175.604615
0
LINE
8
boundary
62
5
39
2
10
6.667590
20
175.604615
11
6.667592
21
174.913202
0
LINE
8
boundary
62
5
39
2
10
6.667592
20
174.913202
11
6.667593
21
174.221785
0
LINE
8
boundary
62
5
39
2
10
6.667593
20
174.221785
11
6.667596
21
173.276938
0
LINE
8
boundary
62
5
39
2
10
6.667596
20
173.276938
11
6.667597
21
172.585528
0
LINE
8
boundary
62
5
39
2
10
6.667597
20
172.585528
11
6.667600
21
171.894120
0
LINE
8
boundary
62
5
39
2
10
6.667600
20
171.894120
11
6.667600
21
170.949263
0
LINE
8
boundary
62
5
39
2
10
6.667600
20
170.949263
11
6.667599
21
170.257854
0
LINE
8
boundary
62
5
39
2
10
6.667599
20
170.257854
11
6.667601
21
169.566447
0
LINE
8
boundary
62
5
39
2
10
6.667601
20
169.566447
11
6.667610
21
168.621589
0
LINE
8
boundary
62
5
39
2
10
6.667610
20
168.621589
11
6.667617
21
167.930186
0
LINE
8
boundary
62
5
39
2
10
6.667617
20
167.930186
11
6.667625
21
167.238792
0
LINE
8
boundary
62
5
39
2
10
6.667625
20
167.238792
11
6.667640
21
166.293900
0
LINE
8
boundary
62
5
39
2
10
6.667640
20
166.293900
11
6.667647
21
165.602512
0
LINE
8
boundary
62
5
39
2
10
6.667647
20
165.602512
11
6.667656
21
164.911131
0
LINE
8
boundary
62
5
39
2
10
6.667656
20
164.911131
11
6.667668
21
163.966213
0
LINE
8
boundary
62
5
39
2
10
6.667668
20
163.966213
11
6.667675
21
163.274838
0
LINE
8
boundary
62
5
39
2
10
6.667675
20
163.274838
11
6.667684
21
162.583475
0
LINE
8
boundary
62
5
39
2
10
6.667684
20
162.583475
11
6.667697
21
161.638525
0
LINE
8
boundary
62
5
39
2
10
6.667697
20
161.638525
11
6.667704
21
160.947167
0
LINE
8
boundary
62
5
39
2
10
6.667704
20
160.947167
11
6.667712
21
160.255817
0
LINE
8
boundary
62
5
39
2
10
6.667712
20
160.255817
11
6.667725
21
159.310837
0
LINE
8
boundary
62
5
39
2
10
6.667725
20
159.310837
11
6.667732
21
158.619493
0
LINE
8
boundary
62
5
39
2
10
6.667732
20
158.619493
11
6.667740
21
157.928161
0
LINE
8
boundary
62
5
39
2
10
6.667740
20
157.928161
11
6.667753
21
156.983149
0
LINE
8
boundary
62
5
39
2
10
6.667753
20
156.983149
11
6.667760
21
156.291822
0
LINE
8
boundary
62
5
39
2
10
6.667760
20
156.291822
11
6.667768
21
155.600505
0
LINE
8
boundary
62
5
39
2
10
6.667768
20
155.600505
11
6.667780
21
154.655462
0
LINE
8
boundary
62
5
39
2
10
6.667780
20
154.655462
11
6.667790
21
153.964151
0
LINE
8
boundary
62
5
39
2
10
6.667790
20
153.964151
11
6.667799
21
153.272847
0
LINE
8
boundary
62
5
39
2
10
6.667799
20
153.272847
11
6.667811
21
152.327775
0
LINE
8
boundary
62
5
39
2
10
6.667811
20
152.327775
11
6.667818
21
151.636477
0
LINE
8
boundary
62
5
39
2
10
6.667818
20
151.636477
11
6.667827
21
150.945190
0
LINE
8
boundary
62
5
39
2
10
6.667827
20
150.945190
11
6.667836
21
150.000087
0
LINE
8
boundary
62
5
39
2
10
6.667836
20
150.000087
11
6.667842
21
149.308805
0
LINE
8
boundary
62
5
39
2
10
6.667842
20
149.308805
11
6.667840
21
148.617525
0
LINE
8
boundary
62
5
39
2
10
6.667840
20
148.617525
11
6.667840
21
147.672412
0
LINE
8
boundary
62
5
39
2
10
6.667840
20
147.672412
11
6.667842
21
146.981131
0
LINE
8
boundary
62
5
39
2
10
6.667842
20
146.981131
11
6.667840
21
146.289854
0
LINE
8
boundary
62
5
39
2
10
6.667840
20
146.289854
11
6.667840
21
145.344739
0
LINE
8
boundary
62
5
39
2
10
6.667840
20
145.344739
11
6.667842
21
144.653460
0
LINE
8
boundary
62
5
39
2
10
6.667842
20
144.653460
11
6.667841
21
143.962182
0
LINE
8
boundary
62
5
39
2
10
6.667841
20
143.962182
11
6.667840
21
143.017067
0
LINE
8
boundary
62
5
39
2
10
6.667840
20
143.017067
11
6.667841
21
142.325786
0
LINE
8
boundary
62
5
39
2
10
6.667841
20
142.325786
11
6.667841
21
141.634509
0
LINE
8
boundary
62
5
39
2
10
6.667841
20
141.634509
11
6.667827
21
140.689415
0
LINE
8
boundary
62
5
39
2
10
6.667827
20
140.689415
11
6.667800
21
139.998116
0
LINE
8
boundary
62
5
39
2
10
6.667800
20
139.998116
11
6.667798
21
139.306770
0
LINE
8
boundary
62
5
39
2
10
6.667798
20
139.306770
11
6.667792
21
138.361787
0
LINE
8
boundary
62
5
39
2
10
6.667792
20
138.361787
11
6.667790
21
137.670441
0
LINE
8
boundary
62
5
39
2
10
6.667790
20
137.670441
11
6.667784
21
136.979092
0
LINE
8
boundary
62
5
39
2
10
6.667784
20
136.979092
11
6.667778
21
136.034122
0
LINE
8
boundary
62
5
39
2
10
6.667778
20
136.034122
11
6.667776
21
135.342769
0
LINE
8
boundary
62
5
39
2
10
6.667776
20
135.342769
11
6.668850
21
134.652792
0
LINE
8
boundary
62
5
39
2
10
6.668850
20
134.652792
11
6.669562
21
133.704358
0
LINE
8
boundary
62
5
39
2
10
6.669562
20
133.704358
11
6.669558
21
133.015098
0
LINE
8
boundary
62
5
39
2
10
6.669558
20
133.015098
11
6.669555
21
132.325833
0
LINE
8
boundary
62
5
39
2
10
6.669555
20
132.325833
11
6.669548
21
131.376692
0
LINE
8
boundary
62
5
39
2
10
6.669548
20
131.376692
11
6.669548
21
130.687425
0
LINE
8
boundary
62
5
39
2
10
6.669548
20
130.687425
11
6.669548
21
129.998157
0
LINE
8
boundary
62
5
39
2
10
6.669548
20
129.998157
11
6.669548
21
129.049021
0
LINE
8
boundary
62
5
39
2
10
6.669548
20
129.049021
11
6.669548
21
128.359753
0
LINE
8
boundary
62
5
39
2
10
6.669548
20
128.359753
11
6.669548
21
127.670484
0
LINE
8
boundary
62
5
39
2
10
6.669548
20
127.670484
11
6.669547
21
126.721348
0
LINE
8
boundary
62
5
39
2
10
6.669547
20
126.721348
11
6.669548
21
126.032079
0
LINE
8
boundary
62
5
39
2
10
6.669548
20
126.032079
11
6.669548
21
125.342812
0
LINE
8
boundary
62
5
39
2
10
6.669548
20
125.342812
11
6.669548
21
124.393675
0
LINE
8
boundary
62
5
39
2
10
6.669548
20
124.393675
11
6.669548
21
123.704408
0
LINE
8
boundary
62
5
39
2
10
6.669548
20
123.704408
11
6.669548
21
123.015139
0
LINE
8
boundary
62
5
39
2
10
6.669548
20
123.015139
11
6.669547
21
122.066003
0
LINE
8
boundary
62
5
39
2
10
6.669547
20
122.066003
11
6.669546
21
121.376735
0
LINE
8
boundary
62
5
39
2
10
6.669546
20
121.376735
11
6.668495
21
120.686128
0
LINE
8
boundary
62
5
39
2
10
6.668495
20
120.686128
11
6.667791
21
119.740369
0
LINE
8
boundary
62
5
39
2
10
6.667791
20
119.740369
11
6.667791
21
119.049063
0
LINE
8
boundary
62
5
39
2
10
6.667791
20
119.049063
11
6.667791
21
118.357757
0
LINE
8
boundary
62
5
39
2
10
6.667791
20
118.357757
11
6.667791
21
117.412696
0
LINE
8
boundary
62
5
39
2
10
6.667791
20
117.412696
11
6.667791
21
116.721391
0
LINE
8
boundary
62
5
39
2
10
6.667791
20
116.721391
11
6.667791
21
116.030084
0
LINE
8
boundary
62
5
39
2
10
6.667791
20
116.030084
11
6.667791
21
115.085024
0
LINE
8
boundary
62
5
39
2
10
6.667791
20
115.085024
11
6.667791
21
114.393718
0
LINE
8
boundary
62
5
39
2
10
6.667791
20
114.393718
11
6.667791
21
113.702412
0
LINE
8
boundary
62
5
39
2
10
6.667791
20
113.702412
11
6.667791
21
112.757352
0
LINE
8
boundary
62
5
39
2
10
6.667791
20
112.757352
11
6.667791
21
112.066045
0
LINE
8
boundary
62
5
39
2
10
6.667791
20
112.066045
11
6.667791
21
111.374739
0
LINE
8
boundary
62
5
39
2
10
6.667791
20
111.374739
11
6.667791
21
110.429679
0
LINE
8
boundary
62
5
39
2
10
6.667791
20
110.429679
11
6.667791
21
109.738373
0
LINE
8
boundary
62
5
39
2
10
6.667791
20
109.738373
11
6.667791
21
109.047067
0
LINE
8
boundary
62
5
39
2
10
6.667791
20
109.047067
11
6.667791
21
108.102007
0
LINE
8
boundary
62
5
39
2
10
6.667791
20
108.102007
11
6.667791
21
107.410700
0
LINE
8
boundary
62
5
39
2
10
6.667791
20
107.410700
11
6.667791
21
106.719395
0
LINE
8
boundary
62
5
39
2
10
6.667791
20
106.719395
11
6.667791
21
105.774335
0
LINE
8
boundary
62
5
39
2
10
6.667791
20
105.774335
11
6.667791
21
105.083028
0
LINE
8
boundary
62
5
39
2
10
6.667791
20
105.083028
11
6.667791
21
104.391722
0
LINE
8
boundary
62
5
39
2
10
6.667791
20
104.391722
11
6.667791
21
103.446662
0
LINE
8
boundary
62
5
39
2
10
6.667791
20
103.446662
11
6.667791
21
102.755356
0
LINE
8
boundary
62
5
39
2
10
6.667791
20
102.755356
11
6.667791
21
102.064050
0
LINE
8
boundary
62
5
39
2
10
6.667791
20
102.064050
11
6.667791
21
101.118990
0
LINE
8
boundary
62
5
39
2
10
6.667791
20
101.118990
11
6.667791
21
100.427684
0
LINE
8
boundary
62
5
39
2
10
6.667791
20
100.427684
11
6.667791
21
99.736377
0
LINE
8
boundary
62
5
39
2
10
6.667791
20
99.736377
11
6.667791
21
98.791318
0
LINE
8
boundary
62
5
39
2
10
6.667791
20
98.791318
11
6.667792
21
98.100011
0
LINE
8
boundary
62
5
39
2
10
6.667792
20
98.100011
11
6.667791
21
97.408705
0
LINE
8
boundary
62
5
39
2
10
6.667791
20
97.408705
11
6.667791
21
96.463645
0
LINE
8
boundary
62
5
39
2
10
6.667791
20
96.463645
11
6.667791
21
95.772339
0
LINE
8
boundary
62
5
39
2
10
6.667791
20
95.772339
11
6.667799
21
95.081039
0
LINE
8
boundary
62
5
39
2
10
6.667799
20
95.081039
11
6.667811
21
94.135963
0
LINE
8
boundary
62
5
39
2
10
6.667811
20
94.135963
11
6.667816
21
93.444667
0
LINE
8
boundary
62
5
39
2
10
6.667816
20
93.444667
11
6.667816
21
92.753373
0
LINE
8
boundary
62
5
39
2
10
6.667816
20
92.753373
11
6.667816
21
91.808285
0
LINE
8
boundary
62
5
39
2
10
6.667816
20
91.808285
11
6.667816
21
91.116993
0
LINE
8
boundary
62
5
39
2
10
6.667816
20
91.116993
11
6.667816
21
90.425700
0
LINE
8
boundary
62
5
39
2
10
6.667816
20
90.425700
11
6.667816
21
89.480614
0
LINE
8
boundary
62
5
39
2
10
6.667816
20
89.480614
11
6.667816
21
88.789322
0
LINE
8
boundary
62
5
39
2
10
6.667816
20
88.789322
11
6.667816
21
88.098028
0
LINE
8
boundary
62
5
39
2
10
6.667816
20
88.098028
11
6.667816
21
87.152943
0
LINE
8
boundary
62
5
39
2
10
6.667816
20
87.152943
11
6.667816
21
86.461652
0
LINE
8
boundary
62
5
39
2
10
6.667816
20
86.461652
11
6.667816
21
85.770357
0
LINE
8
boundary
62
5
39
2
10
6.667816
20
85.770357
11
6.667816
21
84.825270
0
LINE
8
boundary
62
5
39
2
10
6.667816
20
84.825270
11
6.667816
21
84.133978
0
LINE
8
boundary
62
5
39
2
10
6.667816
20
84.133978
11
6.667816
21
83.442685
0
LINE
8
boundary
62
5
39
2
10
6.667816
20
83.442685
11
6.667816
21
82.497598
0
LINE
8
boundary
62
5
39
2
10
6.667816
20
82.497598
11
6.667816
21
81.806306
0
LINE
8
boundary
62
5
39
2
10
6.667816
20
81.806306
11
6.667816
21
81.115012
0
LINE
8
boundary
62
5
39
2
10
6.667816
20
81.115012
11
6.667816
21
80.169927
0
LINE
8
boundary
62
5
39
2
10
6.667816
20
80.169927
11
6.667816
21
79.478629
0
LINE
8
boundary
62
5
39
2
10
6.667816
20
79.478629
11
6.667816
21
78.787338
0
LINE
8
boundary
62
5
39
2
10
6.667816
20
78.787338
11
6.667816
21
77.842251
0
LINE
8
boundary
62
5
39
2
10
6.667816
20
77.842251
11
6.667816
21
77.150958
0
LINE
8
boundary
62
5
39
2
10
6.667816
20
77.150958
11
6.667816
21
76.459664
0
LINE
8
boundary
62
5
39
2
10
6.667816
20
76.459664
11
6.667816
21
75.514579
0
LINE
8
boundary
62
5
39
2
10
6.667816
20
75.514579
11
6.667816
21
74.823284
0
LINE
8
boundary
62
5
39
2
10
6.667816
20
74.823284
11
6.667816
21
74.131993
0
LINE
8
boundary
62
5
39
2
10
6.667816
20
74.131993
11
6.667816
21
73.186905
0
LINE
8
boundary
62
5
39
2
10
6.667816
20
73.186905
11
6.667816
21
72.495613
0
LINE
8
boundary
62
5
39
2
10
6.667816
20
72.495613
11
6.667816
21
71.804321
0
LINE
8
boundary
62
5
39
2
10
6.667816
20
71.804321
11
6.667816
21
70.859234
0
LINE
8
boundary
62
5
39
2
10
6.667816
20
70.859234
11
6.667816
21
70.167942
0
LINE
8
boundary
62
5
39
2
10
6.667816
20
70.167942
11
6.667816
21
69.476647
0
LINE
8
boundary
62
5
39
2
10
6.667816
20
69.476647
11
6.667816
21
68.531563
0
LINE
8
boundary
62
5
39
2
10
6.667816
20
68.531563
11
6.667816
21
67.840268
0
LINE
8
boundary
62
5
39
2
10
6.667816
20
67.840268
11
6.667816
21
67.148976
0
LINE
8
boundary
62
5
39
2
10
6.667816
20
67.148976
11
6.667816
21
66.203889
0
LINE
8
boundary
62
5
39
2
10
6.667816
20
66.203889
11
6.667816
21
65.512597
0
LINE
8
boundary
62
5
39
2
10
6.667816
20
65.512597
11
6.667816
21
64.821303
0
LINE
8
boundary
62
5
39
2
10
6.667816
20
64.821303
11
6.667816
21
63.876218
0
LINE
8
boundary
62
5
39
2
10
6.667816
20
63.876218
11
6.667816
21
63.184926
0
LINE
8
boundary
62
5
39
2
10
6.667816
20
63.184926
11
6.667816
21
62.493634
0
LINE
8
boundary
62
5
39
2
10
6.667816
20
62.493634
11
6.667816
21
61.548545
0
LINE
8
boundary
62
5
39
2
10
6.667816
20
61.548545
11
6.667816
21
60.857252
0
LINE
8
boundary
62
5
39
2
10
6.667816
20
60.857252
11
6.667816
21
60.165960
0
LINE
8
boundary
62
5
39
2
10
6.667816
20
60.165960
11
6.667816
21
59.220871
0
LINE
8
boundary
62
5
39
2
10
6.667816
20
59.220871
11
6.667816
21
58.529578
0
LINE
8
boundary
62
5
39
2
10
6.667816
20
58.529578
11
6.667816
21
57.838286
0
LINE
8
boundary
62
5
39
2
10
6.667816
20
57.838286
11
6.667816
21
56.893201
0
LINE
8
boundary
62
5
39
2
10
6.667816
20
56.893201
11
6.667816
21
56.201910
0
LINE
8
boundary
62
5
39
2
10
6.667816
20
56.201910
11
6.667816
21
55.510612
0
LINE
8
boundary
62
5
39
2
10
6.667816
20
55.510612
11
6.667816
21
54.565528
0
LINE
8
boundary
62
5
39
2
10
6.667816
20
54.565528
11
6.667816
21
53.874236
0
LINE
8
boundary
62
5
39
2
10
6.667816
20
53.874236
11
6.667816
21
53.182943
0
LINE
8
boundary
62
5
39
2
10
6.667816
20
53.182943
11
6.667787
21
52.237893
0
LINE
8
boundary
62
5
39
2
10
6.667787
20
52.237893
11
6.667740
21
51.546562
0
LINE
8
boundary
62
5
39
2
10
6.667740
20
51.546562
11
6.707598
21
50.902341
0
LINE
8
boundary
62
5
39
2
10
6.707598
20
50.902341
11
6.738783
21
50.382728
0
LINE
8
boundary
62
5
39
2
10
6.738783
20
50.382728
11
6.829015
21
49.852605
0
LINE
8
boundary
62
5
39
2
10
6.829015
20
49.852605
11
6.931423
21
49.218888
0
LINE
8
boundary
62
5
39
2
10
6.931423
20
49.218888
11
7.121497
21
48.388984
0
LINE
8
boundary
62
5
39
2
10
7.121497
20
48.388984
11
7.317427
21
47.727991
0
LINE
8
boundary
62
5
39
2
10
7.317427
20
47.727991
11
7.540699
21
47.042252
0
LINE
8
boundary
62
5
39
2
10
7.540699
20
47.042252
11
7.794740
21
46.475824
0
LINE
8
boundary
62
5
39
2
10
7.794740
20
46.475824
11
8.111697
21
45.727380
0
LINE
8
boundary
62
5
39
2
10
8.111697
20
45.727380
11
8.330881
21
45.240305
0
LINE
8
boundary
62
5
39
2
10
8.330881
20
45.240305
11
8.511677
21
44.759064
0
LINE
8
boundary
62
5
39
2
10
8.511677
20
44.759064
11
9.034152
21
43.954222
0
LINE
8
boundary
62
5
39
2
10
9.034152
20
43.954222
11
9.394646
21
43.399712
0
LINE
8
boundary
62
5
39
2
10
9.394646
20
43.399712
11
9.800905
21
42.809596
0
LINE
8
boundary
62
5
39
2
10
9.800905
20
42.809596
11
10.254978
21
42.235872
0
LINE
8
boundary
62
5
39
2
10
10.254978
20
42.235872
11
10.633233
21
41.831429
0
LINE
8
boundary
62
5
39
2
10
10.633233
20
41.831429
11
11.128400
21
41.269850
0
LINE
8
boundary
62
5
39
2
10
11.128400
20
41.269850
11
11.686617
21
40.773449
0
LINE
8
boundary
62
5
39
2
10
11.686617
20
40.773449
11
12.061111
21
40.420483
0
LINE
8
boundary
62
5
39
2
10
12.061111
20
40.420483
11
12.468329
21
40.090468
0
LINE
8
boundary
62
5
39
2
10
12.468329
20
40.090468
11
12.993581
21
39.683797
0
LINE
8
boundary
62
5
39
2
10
12.993581
20
39.683797
11
13.595054
21
39.211146
0
LINE
8
boundary
62
5
39
2
10
13.595054
20
39.211146
11
14.117174
21
38.744364
0
LINE
8
boundary
62
5
39
2
10
14.117174
20
38.744364
11
14.603681
21
38.399009
0
LINE
8
boundary
62
5
39
2
10
14.603681
20
38.399009
11
15.451426
21
37.765107
0
LINE
8
boundary
62
5
39
2
10
15.451426
20
37.765107
11
16.152532
21
37.248533
0
LINE
8
boundary
62
5
39
2
10
16.152532
20
37.248533
11
16.581529
21
36.887058
0
LINE
8
boundary
62
5
39
2
10
16.581529
20
36.887058
11
17.163538
21
36.416696
0
LINE
8
boundary
62
5
39
2
10
17.163538
20
36.416696
11
17.711635
21
36.004481
0
LINE
8
boundary
62
5
39
2
10
17.711635
20
36.004481
11
18.602487
21
35.252856
0
LINE
8
boundary
62
5
39
2
10
18.602487
20
35.252856
11
19.141991
21
34.869618
0
LINE
8
boundary
62
5
39
2
10
19.141991
20
34.869618
11
19.971841
21
34.240051
0
LINE
8
boundary
62
5
39
2
10
19.971841
20
34.240051
11
20.649434
21
33.744875
0
LINE
8
boundary
62
5
39
2
10
20.649434
20
33.744875
11
21.101944
21
33.360484
0
LINE
8
boundary
62
5
39
2
10
21.101944
20
33.360484
11
21.638570
21
32.925181
0
LINE
8
boundary
62
5
39
2
10
21.638570
20
32.925181
11
22.232050
21
32.475967
0
LINE
8
boundary
62
5
39
2
10
22.232050
20
32.475967
11
22.733422
21
32.076150
0
LINE
8
boundary
62
5
39
2
10
22.733422
20
32.076150
11
23.192423
21
31.680177
0
LINE
8
boundary
62
5
39
2
10
23.192423
20
31.680177
11
23.678010
21
31.337269
0
LINE
8
boundary
62
5
39
2
10
23.678010
20
31.337269
11
24.492256
21
30.709474
0
LINE
8
boundary
62
5
39
2
10
24.492256
20
30.709474
11
25.143697
21
30.239250
0
LINE
8
boundary
62
5
39
2
10
25.143697
20
30.239250
11
25.622363
21
29.829861
0
LINE
8
boundary
62
5
39
2
10
25.622363
20
29.829861
11
26.110917
21
29.433674
0
LINE
8
boundary
62
5
39
2
10
26.110917
20
29.433674
11
26.752466
21
28.947439
0
LINE
8
boundary
62
5
39
2
10
26.752466
20
28.947439
11
27.238680
21
28.559524
0
LINE
8
boundary
62
5
39
2
10
27.238680
20
28.559524
11
27.694610
21
28.174515
0
LINE
8
boundary
62
5
39
2
10
27.694610
20
28.174515
11
28.208687
21
27.809807
0
LINE
8
boundary
62
5
39
2
10
28.208687
20
27.809807
11
29.012675
21
27.180221
0
LINE
8
boundary
62
5
39
2
10
29.012675
20
27.180221
11
29.640295
21
26.734059
0
LINE
8
boundary
62
5
39
2
10
29.640295
20
26.734059
11
30.142778
21
26.301956
0
LINE
8
boundary
62
5
39
2
10
30.142778
20
26.301956
11
30.585582
21
25.942165
0
LINE
8
boundary
62
5
39
2
10
30.585582
20
25.942165
11
31.021567
21
25.627364
0
LINE
8
boundary
62
5
39
2
10
31.021567
20
25.627364
11
31.743490
21
25.043547
0
LINE
8
boundary
62
5
39
2
10
31.743490
20
25.043547
11
32.197675
21
24.668387
0
LINE
8
boundary
62
5
39
2
10
32.197675
20
24.668387
11
32.735783
21
24.284888
0
LINE
8
boundary
62
5
39
2
10
32.735783
20
24.284888
11
33.533090
21
23.651322
0
LINE
8
boundary
62
5
39
2
10
33.533090
20
23.651322
11
34.136973
21
23.228248
0
LINE
8
boundary
62
5
39
2
10
34.136973
20
23.228248
11
34.663193
21
22.772581
0
LINE
8
boundary
62
5
39
2
10
34.663193
20
22.772581
11
35.059653
21
22.450657
0
LINE
8
boundary
62
5
39
2
10
35.059653
20
22.450657
11
35.529538
21
22.112556
0
LINE
8
boundary
62
5
39
2
10
35.529538
20
22.112556
11
36.248210
21
21.529030
0
LINE
8
boundary
62
5
39
2
10
36.248210
20
21.529030
11
36.702356
21
21.162472
0
LINE
8
boundary
62
5
39
2
10
36.702356
20
21.162472
11
37.259608
21
20.763176
0
LINE
8
boundary
62
5
39
2
10
37.259608
20
20.763176
11
38.053348
21
20.123099
0
LINE
8
boundary
62
5
39
2
10
38.053348
20
20.123099
11
38.635786
21
19.722548
0
LINE
8
boundary
62
5
39
2
10
38.635786
20
19.722548
11
39.183609
21
19.244752
0
LINE
8
boundary
62
5
39
2
10
39.183609
20
19.244752
11
39.955772
21
18.660288
0
LINE
8
boundary
62
5
39
2
10
39.955772
20
18.660288
11
40.750732
21
18.013157
0
LINE
8
boundary
62
5
39
2
10
40.750732
20
18.013157
11
41.206359
21
17.649360
0
LINE
8
boundary
62
5
39
2
10
41.206359
20
17.649360
11
41.783648
21
17.205125
0
LINE
8
boundary
62
5
39
2
10
41.783648
20
17.205125
11
42.432105
21
16.631481
0
LINE
8
boundary
62
5
39
2
10
42.432105
20
16.631481
11
43.103697
21
16.194007
0
LINE
8
boundary
62
5
39
2
10
43.103697
20
16.194007
11
43.704025
21
15.715755
0
LINE
8
boundary
62
5
39
2
10
43.704025
20
15.715755
11
44.450690
21
15.157181
0
LINE
8
boundary
62
5
39
2
10
44.450690
20
15.157181
11
45.254069
21
14.500165
0
LINE
8
boundary
62
5
39
2
10
45.254069
20
14.500165
11
45.777552
21
14.090953
0
LINE
8
boundary
62
5
39
2
10
45.777552
20
14.090953
11
46.382719
21
13.621579
0
LINE
8
boundary
62
5
39
2
10
46.382719
20
13.621579
11
46.918750
21
13.139967
0
LINE
8
boundary
62
5
39
2
10
46.918750
20
13.139967
11
47.357459
21
12.829175
0
LINE
8
boundary
62
5
39
2
10
47.357459
20
12.829175
11
48.224440
21
12.187011
0
LINE
8
boundary
62
5
39
2
10
48.224440
20
12.187011
11
48.942734
21
11.652603
0
LINE
8
boundary
62
5
39
2
10
48.942734
20
11.652603
11
49.354544
21
11.306331
0
LINE
8
boundary
62
5
39
2
10
49.354544
20
11.306331
11
49.754104
21
10.984940
0
LINE
8
boundary
62
5
39
2
10
49.754104
20
10.984940
11
50.285765
21
10.583806
0
LINE
8
boundary
62
5
39
2
10
50.285765
20
10.583806
11
50.893402
21
10.136101
0
LINE
8
boundary
62
5
39
2
10
50.893402
20
10.136101
11
51.481418
21
9.648453
0
LINE
8
boundary
62
5
39
2
10
51.481418
20
9.648453
11
52.281181
21
9.300257
0
LINE
8
boundary
62
5
39
2
10
52.281181
20
9.300257
11
52.744857
21
9.088724
0
LINE
8
boundary
62
5
39
2
10
52.744857
20
9.088724
11
53.296258
21
8.849391
0
LINE
8
boundary
62
5
39
2
10
53.296258
20
8.849391
11
53.874961
21
8.567173
0
LINE
8
boundary
62
5
39
2
10
53.874961
20
8.567173
11
54.671000
21
8.257096
0
LINE
8
boundary
62
5
39
2
10
54.671000
20
8.257096
11
55.321068
21
8.026384
0
LINE
8
boundary
62
5
39
2
10
55.321068
20
8.026384
11
56.135168
21
7.782867
0
LINE
8
boundary
62
5
39
2
10
56.135168
20
7.782867
11
56.653741
21
7.638041
0
LINE
8
boundary
62
5
39
2
10
56.653741
20
7.638041
11
57.265272
21
7.450628
0
LINE
8
boundary
62
5
39
2
10
57.265272
20
7.450628
11
58.166149
21
7.181411
0
LINE
8
boundary
62
5
39
2
10
58.166149
20
7.181411
11
58.836907
21
7.052287
0
LINE
8
boundary
62
5
39
2
10
58.836907
20
7.052287
11
59.525480
21
6.954122
0
LINE
8
boundary
62
5
39
2
10
59.525480
20
6.954122
11
60.386171
21
6.853195
0
LINE
8
boundary
62
5
39
2
10
60.386171
20
6.853195
11
61.061443
21
6.784533
0
LINE
8
boundary
62
5
39
2
10
61.061443
20
6.784533
11
61.785688
21
6.724917
0
LINE
8
boundary
62
5
39
2
10
61.785688
20
6.724917
11
62.468836
21
6.694240
0
LINE
8
boundary
62
5
39
2
10
62.468836
20
6.694240
11
63.380506
21
6.670575
0
LINE
8
boundary
62
5
39
2
10
63.380506
20
6.670575
11
64.045896
21
6.667500
0
LINE
8
boundary
62
5
39
2
10
64.045896
20
6.667500
11
64.722209
21
6.691131
0
LINE
8
boundary
62
5
39
2
10
64.722209
20
6.691131
11
65.592990
21
6.741672
0
LINE
8
boundary
62
5
39
2
10
65.592990
20
6.741672
11
66.306105
21
6.794956
0
LINE
8
boundary
62
5
39
2
10
66.306105
20
6.794956
11
67.100463
21
6.883464
0
LINE
8
boundary
62
5
39
2
10
67.100463
20
6.883464
11
67.861199
21
6.982292
0
LINE
8
boundary
62
5
39
2
10
67.861199
20
6.982292
11
68.566312
21
7.075672
0
LINE
8
boundary
62
5
39
2
10
68.566312
20
7.075672
11
69.498328
21
7.320785
0
LINE
8
boundary
62
5
39
2
10
69.498328
20
7.320785
11
70.353578
21
7.585836
0
LINE
8
boundary
62
5
39
2
10
70.353578
20
7.585836
11
71.228069
21
7.850935
0
LINE
8
boundary
62
5
39
2
10
71.228069
20
7.850935
11
71.956624
21
8.064231
0
LINE
8
boundary
62
5
39
2
10
71.956624
20
8.064231
11
72.857501
21
8.484619
0
LINE
8
boundary
62
5
39
2
10
72.857501
20
8.484619
11
73.538842
21
8.913889
0
LINE
8
boundary
62
5
39
2
10
73.538842
20
8.913889
11
74.216832
21
9.254207
0
LINE
8
boundary
62
5
39
2
10
74.216832
20
9.254207
11
74.990797
21
9.648453
0
LINE
8
boundary
62
5
39
2
10
74.990797
20
9.648453
11
75.900609
21
10.195125
0
LINE
8
boundary
62
5
39
2
10
75.900609
20
10.195125
11
76.477041
21
10.481888
0
LINE
8
boundary
62
5
39
2
10
76.477041
20
10.481888
11
77.117518
21
10.812299
0
LINE
8
boundary
62
5
39
2
10
77.117518
20
10.812299
11
77.607144
21
11.114043
0
LINE
8
boundary
62
5
39
2
10
77.607144
20
11.114043
11
78.098442
21
11.399639
0
LINE
8
boundary
62
5
39
2
10
78.098442
20
11.399639
11
78.737247
21
11.706605
0
LINE
8
boundary
62
5
39
2
10
78.737247
20
11.706605
11
79.249128
21
11.976133
0
LINE
8
boundary
62
5
39
2
10
79.249128
20
11.976133
11
79.867351
21
12.360546
0
LINE
8
boundary
62
5
39
2
10
79.867351
20
12.360546
11
80.507974
21
12.709916
0
LINE
8
boundary
62
5
39
2
10
80.507974
20
12.709916
11
80.997456
21
12.932280
0
LINE
8
boundary
62
5
39
2
10
80.997456
20
12.932280
11
81.699387
21
13.351729
0
LINE
8
boundary
62
5
39
2
10
81.699387
20
13.351729
11
82.508857
21
13.817943
0
LINE
8
boundary
62
5
39
2
10
82.508857
20
13.817943
11
82.986171
21
14.029997
0
LINE
8
boundary
62
5
39
2
10
82.986171
20
14.029997
11
83.522029
21
14.303807
0
LINE
8
boundary
62
5
39
2
10
83.522029
20
14.303807
11
84.387768
21
14.850717
0
LINE
8
boundary
62
5
39
2
10
84.387768
20
14.850717
11
84.870611
21
15.106984
0
LINE
8
boundary
62
5
39
2
10
84.870611
20
15.106984
11
85.517871
21
15.386731
0
LINE
8
boundary
62
5
39
2
10
85.517871
20
15.386731
11
86.132848
21
15.795356
0
LINE
8
boundary
62
5
39
2
10
86.132848
20
15.795356
11
86.647974
21
16.095827
0
LINE
8
boundary
62
5
39
2
10
86.647974
20
16.095827
11
87.638468
21
16.631481
0
LINE
8
boundary
62
5
39
2
10
87.638468
20
16.631481
11
88.318849
21
17.047862
0
LINE
8
boundary
62
5
39
2
10
88.318849
20
17.047862
11
88.908186
21
17.358021
0
LINE
8
boundary
62
5
39
2
10
88.908186
20
17.358021
11
89.763111
21
17.795315
0
LINE
8
boundary
62
5
39
2
10
89.763111
20
17.795315
11
90.477892
21
18.246928
0
LINE
8
boundary
62
5
39
2
10
90.477892
20
18.246928
11
91.168392
21
18.594410
0
LINE
8
boundary
62
5
39
2
10
91.168392
20
18.594410
11
91.883454
21
18.959149
0
LINE
8
boundary
62
5
39
2
10
91.883454
20
18.959149
11
92.825131
21
19.522941
0
LINE
8
boundary
62
5
39
2
10
92.825131
20
19.522941
11
93.428598
21
19.818029
0
LINE
8
boundary
62
5
39
2
10
93.428598
20
19.818029
11
94.015333
21
20.122989
0
LINE
8
boundary
62
5
39
2
10
94.015333
20
20.122989
11
94.558704
21
20.458913
0
LINE
8
boundary
62
5
39
2
10
94.558704
20
20.458913
11
95.024776
21
20.728358
0
LINE
8
boundary
62
5
39
2
10
95.024776
20
20.728358
11
95.688807
21
21.044326
0
LINE
8
boundary
62
5
39
2
10
95.688807
20
21.044326
11
96.378951
21
21.509833
0
LINE
8
boundary
62
5
39
2
10
96.378951
20
21.509833
11
96.818913
21
21.815882
0
LINE
8
boundary
62
5
39
2
10
96.818913
20
21.815882
11
97.215496
21
22.140065
0
LINE
8
boundary
62
5
39
2
10
97.215496
20
22.140065
11
97.650359
21
22.450657
0
LINE
8
boundary
62
5
39
2
10
97.650359
20
22.450657
11
98.312175
21
23.104937
0
LINE
8
annotation
62
1
39
211
10
27.368592
20
131.015876
11
27.368592
21
185.316947
0
LINE
8
annotation
62
1
39
211
10
27.368592
20
185.316947
11
15.296769
21
173.241718
0
LINE
8
frame
62
5
39
2
10
0.000000
20
0.000000
11
215.900000
21
0.000000
0
LINE
8
frame
62
5
39
2
10
215.900000
20
0.000000
11
215.900000
21
279.400000
0
LINE
8
frame
62
5
39
2
10
215.900000
20
279.400000
11
0.000000
21
279.400000
0
LINE
8
frame
62
5
39
2
10
0.000000
20
279.400000
11
0.000000
21
0.000000
0
ENDSEC
0
EOF
