0
SECTION
2
HEADER
9
$ACADVER
1
AC1009
0
ENDSEC
0
SECTION
2
TABLES
0
TABLE
2
VPORT
70
1
0
VPORT
2
ACTIVE
70
0
10
0.0
20
0.0
11
0.0
21
0.0
12
0.0
22
0.0
13
0.0
23
0.0
14
0.0
24
0.0
15
0.0
25
0.0
16
0.0
26
0.0
36
0.0
17
0.0
27
0.0
37
0.0
40
0.0
41
0.0
42
0.0
43
0.0
44
0.0
50
0.0
51
0.0
71
0
72
1000
73
1
74
3
75
0
76
0
77
0
78
0
0
ENDTAB
0
ENDSEC
0
SECTION
2
ENTITIES
0
LINE
8
hole
62
5
39
2
10
90.849442
20
119.325575
11
90.481522
21
118.817091
0
LINE
8
hole
62
5
39
2
10
90.481522
20
118.817091
11
90.035348
21
118.393824
0
LINE
8
hole
62
5
39
2
10
90.035348
20
118.393824
11
89.250370
21
118.184216
0
LINE
8
hole
62
5
39
2
10
89.250370
20
118.184216
11
88.575040
21
118.242970
0
LINE
8
hole
62
5
39
2
10
88.575040
20
118.242970
11
87.775130
21
118.670444
0
LINE
8
hole
62
5
39
2
10
87.775130
20
118.670444
11
87.235280
21
119.476250
0
LINE
8
hole
62
5
39
2
10
87.235280
20
119.476250
11
87.025245
21
120.206773
0
LINE
8
hole
62
5
39
2
10
87.025245
20
120.206773
11
87.282873
21
120.920889
0
LINE
8
hole
62
5
39
2
10
87.282873
20
120.920889
11
87.548122
21
121.370615
0
LINE
8
hole
62
5
39
2
10
87.548122
20
121.370615
11
88.284054
21
121.968619
0
LINE
8
hole
62
5
39
2
10
88.284054
20
121.968619
11
88.905239
21
122.253949
0
LINE
8
hole
62
5
39
2
10
88.905239
20
122.253949
11
89.440819
21
122.131655
0
LINE
8
hole
62
5
39
2
10
89.440819
20
122.131655
11
90.035348
21
121.953068
0
LINE
8
hole
62
5
39
2
10
90.035348
20
121.953068
11
90.463631
21
121.568309
0
LINE
8
hole
62
5
39
2
10
90.463631
20
121.568309
11
90.840300
21
121.074728
0
LINE
8
hole
62
5
39
2
10
90.840300
20
121.074728
11
91.030117
21
120.344333
0
LINE
8
hole
62
5
39
2
10
91.030117
20
120.344333
11
90.849442
21
119.325575
0
LINE
8
hole
62
5
39
2
10
47.541282
20
211.474916
11
46.814958
21
211.283445
0
LINE
8
hole
62
5
39
2
10
46.814958
20
211.283445
11
46.223322
21
211.330865
0
LINE
8
hole
62
5
39
2
10
46.223322
20
211.330865
11
45.564195
21
211.700263
0
LINE
8
hole
62
5
39
2
10
45.564195
20
211.700263
11
45.098597
21
212.150284
0
LINE
8
hole
62
5
39
2
10
45.098597
20
212.150284
11
44.831011
21
212.764170
0
LINE
8
hole
62
5
39
2
10
44.831011
20
212.764170
11
44.622447
21
213.314131
0
LINE
8
hole
62
5
39
2
10
44.622447
20
213.314131
11
44.831011
21
213.815282
0
LINE
8
hole
62
5
39
2
10
44.831011
20
213.815282
11
45.044325
21
214.280221
0
LINE
8
hole
62
5
39
2
10
45.044325
20
214.280221
11
45.484304
21
214.752913
0
LINE
8
hole
62
5
39
2
10
45.484304
20
214.752913
11
45.961120
21
215.127212
0
LINE
8
hole
62
5
39
2
10
45.961120
20
215.127212
11
46.539189
21
215.249494
0
LINE
8
hole
62
5
39
2
10
46.539189
20
215.249494
11
47.091228
21
215.342598
0
LINE
8
hole
62
5
39
2
10
47.091228
20
215.342598
11
47.675886
21
215.033234
0
LINE
8
hole
62
5
39
2
10
47.675886
20
215.033234
11
48.221337
21
214.612211
0
LINE
8
hole
62
5
39
2
10
48.221337
20
214.612211
11
48.575596
21
213.947662
0
LINE
8
hole
62
5
39
2
10
48.575596
20
213.947662
11
48.807760
21
213.314131
0
LINE
8
hole
62
5
39
2
10
48.807760
20
213.314131
11
48.608536
21
212.737278
0
LINE
8
hole
62
5
39
2
10
48.608536
20
212.737278
11
48.357386
21
212.150284
0
LINE
8
hole
62
5
39
2
10
48.357386
20
212.150284
11
47.711640
21
211.568199
0
LINE
8
hole
62
5
39
2
10
47.711640
20
211.568199
11
47.541282
21
211.474916
0
LINE
8
hole
62
5
39
2
10
87.178775
20
164.904880
11
86.645024
21
164.547268
0
LINE
8
hole
62
5
39
2
10
86.645024
20
164.547268
11
85.554160
21
164.432767
0
LINE
8
hole
62
5
39
2
10
85.554160
20
164.432767
11
84.872141
21
164.826946
0
LINE
8
hole
62
5
39
2
10
84.872141
20
164.826946
11
84.384806
21
165.339038
0
LINE
8
hole
62
5
39
2
10
84.384806
20
165.339038
11
84.092925
21
166.059386
0
LINE
8
hole
62
5
39
2
10
84.092925
20
166.059386
11
83.943954
21
166.760449
0
LINE
8
hole
62
5
39
2
10
83.943954
20
166.760449
11
84.384806
21
167.596685
0
LINE
8
hole
62
5
39
2
10
84.384806
20
167.596685
11
85.031421
21
168.199501
0
LINE
8
hole
62
5
39
2
10
85.031421
20
168.199501
11
85.514915
21
168.495015
0
LINE
8
hole
62
5
39
2
10
85.514915
20
168.495015
11
86.158287
21
168.455052
0
LINE
8
hole
62
5
39
2
10
86.158287
20
168.455052
11
87.064322
21
168.119178
0
LINE
8
hole
62
5
39
2
10
87.064322
20
168.119178
11
87.533255
21
167.686820
0
LINE
8
hole
62
5
39
2
10
87.533255
20
167.686820
11
87.885124
21
167.084695
0
LINE
8
hole
62
5
39
2
10
87.885124
20
167.084695
11
87.971039
21
166.366968
0
LINE
8
hole
62
5
39
2
10
87.971039
20
166.366968
11
87.802694
21
165.651973
0
LINE
8
hole
62
5
39
2
10
87.802694
20
165.651973
11
87.310408
21
165.017903
0
LINE
8
hole
62
5
39
2
10
87.310408
20
165.017903
11
87.178775
21
164.904880
0
LINE
8
hole
62
5
39
2
10
18.766779
20
136.500560
11
18.233456
21
136.161945
0
LINE
8
hole
62
5
39
2
10
18.233456
20
136.161945
11
17.708410
21
135.897569
0
LINE
8
hole
62
5
39
2
10
17.708410
20
135.897569
11
17.178593
21
136.034139
0
LINE
8
hole
62
5
39
2
10
17.178593
20
136.034139
11
16.578301
21
136.203670
0
LINE
8
hole
62
5
39
2
10
16.578301
20
136.203670
11
15.851913
21
136.856352
0
LINE
8
hole
62
5
39
2
10
15.851913
20
136.856352
11
15.448192
21
137.575708
0
LINE
8
hole
62
5
39
2
10
15.448192
20
137.575708
11
15.557415
21
138.668958
0
LINE
8
hole
62
5
39
2
10
15.557415
20
138.668958
11
15.919702
21
139.360624
0
LINE
8
hole
62
5
39
2
10
15.919702
20
139.360624
11
16.562749
21
139.973026
0
LINE
8
hole
62
5
39
2
10
16.562749
20
139.973026
11
17.361799
21
140.165963
0
LINE
8
hole
62
5
39
2
10
17.361799
20
140.165963
11
17.995431
21
140.092560
0
LINE
8
hole
62
5
39
2
10
17.995431
20
140.092560
11
18.619885
21
139.749607
0
LINE
8
hole
62
5
39
2
10
18.619885
20
139.749607
11
19.057865
21
139.285923
0
LINE
8
hole
62
5
39
2
10
19.057865
20
139.285923
11
19.384797
21
138.828243
0
LINE
8
hole
62
5
39
2
10
19.384797
20
138.828243
11
19.466159
21
138.110467
0
LINE
8
hole
62
5
39
2
10
19.466159
20
138.110467
11
19.213670
21
137.099331
0
LINE
8
hole
62
5
39
2
10
19.213670
20
137.099331
11
18.838519
21
136.564515
0
LINE
8
hole
62
5
39
2
10
18.838519
20
136.564515
11
18.766779
21
136.500560
0
LINE
8
hole
62
5
39
2
10
19.195799
20
195.301947
11
18.838519
21
194.811414
0
LINE
8
hole
62
5
39
2
10
18.838519
20
194.811414
11
18.192394
21
194.410672
0
LINE
8
hole
62
5
39
2
10
18.192394
20
194.410672
11
17.708410
21
194.188322
0
LINE
8
hole
62
5
39
2
10
17.708410
20
194.188322
11
17.167732
21
194.318731
0
LINE
8
hole
62
5
39
2
10
17.167732
20
194.318731
11
16.578301
21
194.486197
0
LINE
8
hole
62
5
39
2
10
16.578301
20
194.486197
11
15.912620
21
195.087678
0
LINE
8
hole
62
5
39
2
10
15.912620
20
195.087678
11
15.464211
21
195.838855
0
LINE
8
hole
62
5
39
2
10
15.464211
20
195.838855
11
15.541712
21
196.884173
0
LINE
8
hole
62
5
39
2
10
15.541712
20
196.884173
11
15.884133
21
197.594996
0
LINE
8
hole
62
5
39
2
10
15.884133
20
197.594996
11
16.450071
21
198.184180
0
LINE
8
hole
62
5
39
2
10
16.450071
20
198.184180
11
17.260092
21
198.448126
0
LINE
8
hole
62
5
39
2
10
17.260092
20
198.448126
11
18.091066
21
198.357920
0
LINE
8
hole
62
5
39
2
10
18.091066
20
198.357920
11
18.685915
21
198.013561
0
LINE
8
hole
62
5
39
2
10
18.685915
20
198.013561
11
19.128304
21
197.527845
0
LINE
8
hole
62
5
39
2
10
19.128304
20
197.527845
11
19.469594
21
197.020340
0
LINE
8
hole
62
5
39
2
10
19.469594
20
197.020340
11
19.496769
21
196.283350
0
LINE
8
hole
62
5
39
2
10
19.496769
20
196.283350
11
19.195799
21
195.301947
0
LINE
8
hole
62
5
39
2
10
17.821869
20
65.506201
11
17.209993
21
64.925982
0
LINE
8
hole
62
5
39
2
10
17.209993
20
64.925982
11
16.578301
21
64.572498
0
LINE
8
hole
62
5
39
2
10
16.578301
20
64.572498
11
15.749004
21
64.622064
0
LINE
8
hole
62
5
39
2
10
15.749004
20
64.622064
11
15.102903
21
64.899937
0
LINE
8
hole
62
5
39
2
10
15.102903
20
64.899937
11
14.447458
21
65.506202
0
LINE
8
hole
62
5
39
2
10
14.447458
20
65.506202
11
14.112884
21
66.243868
0
LINE
8
hole
62
5
39
2
10
14.112884
20
66.243868
11
14.117538
21
67.093000
0
LINE
8
hole
62
5
39
2
10
14.117538
20
67.093000
11
14.395576
21
67.709046
0
LINE
8
hole
62
5
39
2
10
14.395576
20
67.709046
11
14.791444
21
68.146060
0
LINE
8
hole
62
5
39
2
10
14.791444
20
68.146060
11
15.448192
21
68.678136
0
LINE
8
hole
62
5
39
2
10
15.448192
20
68.678136
11
16.286334
21
68.720977
0
LINE
8
hole
62
5
39
2
10
16.286334
20
68.720977
11
16.916202
21
68.544909
0
LINE
8
hole
62
5
39
2
10
16.916202
20
68.544909
11
17.708410
21
67.969875
0
LINE
8
hole
62
5
39
2
10
17.708410
20
67.969875
11
18.046876
21
67.320608
0
LINE
8
hole
62
5
39
2
10
18.046876
20
67.320608
11
18.285298
21
66.670044
0
LINE
8
hole
62
5
39
2
10
18.285298
20
66.670044
11
18.081812
21
66.099388
0
LINE
8
hole
62
5
39
2
10
18.081812
20
66.099388
11
17.821869
21
65.506201
0
LINE
8
hole
62
5
39
2
10
73.472949
20
25.935579
11
73.083722
21
25.569979
0
LINE
8
hole
62
5
39
2
10
73.083722
20
25.569979
11
72.580248
21
25.308668
0
LINE
8
hole
62
5
39
2
10
72.580248
20
25.308668
11
71.953614
21
25.081049
0
LINE
8
hole
62
5
39
2
10
71.953614
20
25.081049
11
71.322311
21
25.299137
0
LINE
8
hole
62
5
39
2
10
71.322311
20
25.299137
11
70.823504
21
25.551211
0
LINE
8
hole
62
5
39
2
10
70.823504
20
25.551211
11
70.427062
21
25.935579
0
LINE
8
hole
62
5
39
2
10
70.427062
20
25.935579
11
70.096851
21
26.511940
0
LINE
8
hole
62
5
39
2
10
70.096851
20
26.511940
11
69.878014
21
27.099419
0
LINE
8
hole
62
5
39
2
10
69.878014
20
27.099419
11
69.846683
21
28.048643
0
LINE
8
hole
62
5
39
2
10
69.846683
20
28.048643
11
69.825136
21
29.226843
0
LINE
8
hole
62
5
39
2
10
69.825136
20
29.226843
11
69.814927
21
30.402684
0
LINE
8
hole
62
5
39
2
10
69.814927
20
30.402684
11
69.811282
21
31.570459
0
LINE
8
hole
62
5
39
2
10
69.811282
20
31.570459
11
69.812779
21
32.731946
0
LINE
8
hole
62
5
39
2
10
69.812779
20
32.731946
11
69.813226
21
33.895432
0
LINE
8
hole
62
5
39
2
10
69.813226
20
33.895432
11
69.813231
21
35.059275
0
LINE
8
hole
62
5
39
2
10
69.813231
20
35.059275
11
69.814456
21
36.221423
0
LINE
8
hole
62
5
39
2
10
69.814456
20
36.221423
11
69.816328
21
37.382856
0
LINE
8
hole
62
5
39
2
10
69.816328
20
37.382856
11
69.817916
21
38.544749
0
LINE
8
hole
62
5
39
2
10
69.817916
20
38.544749
11
69.821833
21
39.703438
0
LINE
8
hole
62
5
39
2
10
69.821833
20
39.703438
11
69.825407
21
40.862989
0
LINE
8
hole
62
5
39
2
10
69.825407
20
40.862989
11
69.829835
21
42.021333
0
LINE
8
hole
62
5
39
2
10
69.829835
20
42.021333
11
69.836964
21
43.176377
0
LINE
8
hole
62
5
39
2
10
69.836964
20
43.176377
11
69.840254
21
44.336909
0
LINE
8
hole
62
5
39
2
10
69.840254
20
44.336909
11
69.845019
21
45.494901
0
LINE
8
hole
62
5
39
2
10
69.845019
20
45.494901
11
69.855285
21
46.646524
0
LINE
8
hole
62
5
39
2
10
69.855285
20
46.646524
11
69.869789
21
47.794740
0
LINE
8
hole
62
5
39
2
10
69.869789
20
47.794740
11
69.888034
21
48.308819
0
LINE
8
hole
62
5
39
2
10
69.888034
20
48.308819
11
69.902796
21
48.932439
0
LINE
8
hole
62
5
39
2
10
69.902796
20
48.932439
11
70.039862
21
49.571913
0
LINE
8
hole
62
5
39
2
10
70.039862
20
49.571913
11
70.345305
21
50.376256
0
LINE
8
hole
62
5
39
2
10
70.345305
20
50.376256
11
70.823505
21
50.830713
0
LINE
8
hole
62
5
39
2
10
70.823505
20
50.830713
11
71.470559
21
51.113720
0
LINE
8
hole
62
5
39
2
10
71.470559
20
51.113720
11
71.953614
21
51.272750
0
LINE
8
hole
62
5
39
2
10
71.953614
20
51.272750
11
72.449998
21
51.118779
0
LINE
8
hole
62
5
39
2
10
72.449998
20
51.118779
11
73.083723
21
50.852882
0
LINE
8
hole
62
5
39
2
10
73.083723
20
50.852882
11
73.570257
21
50.376256
0
LINE
8
hole
62
5
39
2
10
73.570257
20
50.376256
11
73.815064
21
49.787865
0
LINE
8
hole
62
5
39
2
10
73.815064
20
49.787865
11
73.972340
21
49.212416
0
LINE
8
hole
62
5
39
2
10
73.972340
20
49.212416
11
74.010835
21
48.316892
0
LINE
8
hole
62
5
39
2
10
74.010835
20
48.316892
11
74.032262
21
47.788857
0
LINE
8
hole
62
5
39
2
10
74.032262
20
47.788857
11
74.041736
21
47.130901
0
LINE
8
hole
62
5
39
2
10
74.041736
20
47.130901
11
74.060077
21
45.947177
0
LINE
8
hole
62
5
39
2
10
74.060077
20
45.947177
11
74.070008
21
44.772794
0
LINE
8
hole
62
5
39
2
10
74.070008
20
44.772794
11
74.072469
21
43.606709
0
LINE
8
hole
62
5
39
2
10
74.072469
20
43.606709
11
74.073692
21
42.441400
0
LINE
8
hole
62
5
39
2
10
74.073692
20
42.441400
11
74.073937
21
41.277389
0
LINE
8
hole
62
5
39
2
10
74.073937
20
41.277389
11
74.077545
21
40.108784
0
LINE
8
hole
62
5
39
2
10
74.077545
20
40.108784
11
74.078396
21
38.944346
0
LINE
8
hole
62
5
39
2
10
74.078396
20
38.944346
11
74.077776
21
37.781331
0
LINE
8
hole
62
5
39
2
10
74.077776
20
37.781331
11
74.074922
21
36.621174
0
LINE
8
hole
62
5
39
2
10
74.074922
20
36.621174
11
74.071459
21
35.461466
0
LINE
8
hole
62
5
39
2
10
74.071459
20
35.461466
11
74.067783
21
34.301978
0
LINE
8
hole
62
5
39
2
10
74.067783
20
34.301978
11
74.064474
21
33.141940
0
LINE
8
hole
62
5
39
2
10
74.064474
20
33.141940
11
74.060629
21
31.982604
0
LINE
8
hole
62
5
39
2
10
74.060629
20
31.982604
11
74.056053
21
30.824040
0
LINE
8
hole
62
5
39
2
10
74.056053
20
30.824040
11
74.052297
21
29.664283
0
LINE
8
hole
62
5
39
2
10
74.052297
20
29.664283
11
74.045874
21
28.507009
0
LINE
8
hole
62
5
39
2
10
74.045874
20
28.507009
11
73.995476
21
27.388522
0
LINE
8
hole
62
5
39
2
10
73.995476
20
27.388522
11
73.835171
21
26.743432
0
LINE
8
hole
62
5
39
2
10
73.835171
20
26.743432
11
73.472949
21
25.935579
0
LINE
8
hole
62
5
39
2
10
55.724694
20
155.441172
11
55.191349
21
154.926835
0
LINE
8
hole
62
5
39
2
10
55.191349
20
154.926835
11
54.692265
21
154.377263
0
LINE
8
hole
62
5
39
2
10
54.692265
20
154.377263
11
54.250971
21
153.958191
0
LINE
8
hole
62
5
39
2
10
54.250971
20
153.958191
11
53.871879
21
153.568271
0
LINE
8
hole
62
5
39
2
10
53.871879
20
153.568271
11
53.464138
21
153.113655
0
LINE
8
hole
62
5
39
2
10
53.464138
20
153.113655
11
52.930471
21
152.600389
0
LINE
8
hole
62
5
39
2
10
52.930471
20
152.600389
11
52.431276
21
152.051498
0
LINE
8
hole
62
5
39
2
10
52.431276
20
152.051498
11
51.987852
21
151.630505
0
LINE
8
hole
62
5
39
2
10
51.987852
20
151.630505
11
51.611662
21
151.242796
0
LINE
8
hole
62
5
39
2
10
51.611662
20
151.242796
11
51.203051
21
150.786500
0
LINE
8
hole
62
5
39
2
10
51.203051
20
150.786500
11
50.669705
21
150.272963
0
LINE
8
hole
62
5
39
2
10
50.669705
20
150.272963
11
50.170992
21
149.723756
0
LINE
8
hole
62
5
39
2
10
50.170992
20
149.723756
11
49.728027
21
149.302821
0
LINE
8
hole
62
5
39
2
10
49.728027
20
149.302821
11
49.351445
21
148.914565
0
LINE
8
hole
62
5
39
2
10
49.351445
20
148.914565
11
48.942255
21
148.459529
0
LINE
8
hole
62
5
39
2
10
48.942255
20
148.459529
11
48.407597
21
147.949213
0
LINE
8
hole
62
5
39
2
10
48.407597
20
147.949213
11
47.906848
21
147.403260
0
LINE
8
hole
62
5
39
2
10
47.906848
20
147.403260
11
47.450035
21
146.975135
0
LINE
8
hole
62
5
39
2
10
47.450035
20
146.975135
11
47.091228
21
146.609091
0
LINE
8
hole
62
5
39
2
10
47.091228
20
146.609091
11
46.667481
21
146.139737
0
LINE
8
hole
62
5
39
2
10
46.667481
20
146.139737
11
46.134552
21
145.634157
0
LINE
8
hole
62
5
39
2
10
46.134552
20
145.634157
11
45.638345
21
145.089981
0
LINE
8
hole
62
5
39
2
10
45.638345
20
145.089981
11
45.164321
21
144.647452
0
LINE
8
hole
62
5
39
2
10
45.164321
20
144.647452
11
44.499390
21
143.938908
0
LINE
8
hole
62
5
39
2
10
44.499390
20
143.938908
11
43.995321
21
143.483609
0
LINE
8
hole
62
5
39
2
10
43.995321
20
143.483609
11
43.315673
21
143.228246
0
LINE
8
hole
62
5
39
2
10
43.315673
20
143.228246
11
42.570795
21
143.292306
0
LINE
8
hole
62
5
39
2
10
42.570795
20
143.292306
11
41.947489
21
143.864830
0
LINE
8
hole
62
5
39
2
10
41.947489
20
143.864830
11
41.440685
21
144.427689
0
LINE
8
hole
62
5
39
2
10
41.440685
20
144.427689
11
40.803704
21
145.019736
0
LINE
8
hole
62
5
39
2
10
40.803704
20
145.019736
11
40.310578
21
145.567638
0
LINE
8
hole
62
5
39
2
10
40.310578
20
145.567638
11
39.663254
21
146.177190
0
LINE
8
hole
62
5
39
2
10
39.663254
20
146.177190
11
39.180470
21
146.718877
0
LINE
8
hole
62
5
39
2
10
39.180470
20
146.718877
11
38.530532
21
147.338912
0
LINE
8
hole
62
5
39
2
10
38.530532
20
147.338912
11
38.050360
21
147.880474
0
LINE
8
hole
62
5
39
2
10
38.050360
20
147.880474
11
37.398420
21
148.501323
0
LINE
8
hole
62
5
39
2
10
37.398420
20
148.501323
11
36.920252
21
149.038864
0
LINE
8
hole
62
5
39
2
10
36.920252
20
149.038864
11
36.264752
21
149.663003
0
LINE
8
hole
62
5
39
2
10
36.264752
20
149.663003
11
35.790144
21
150.196460
0
LINE
8
hole
62
5
39
2
10
35.790144
20
150.196460
11
35.132096
21
150.825390
0
LINE
8
hole
62
5
39
2
10
35.132096
20
150.825390
11
34.660035
21
151.357720
0
LINE
8
hole
62
5
39
2
10
34.660035
20
151.357720
11
34.001489
21
151.988532
0
LINE
8
hole
62
5
39
2
10
34.001489
20
151.988532
11
33.529928
21
152.519020
0
LINE
8
hole
62
5
39
2
10
33.529928
20
152.519020
11
32.868540
21
153.150841
0
LINE
8
hole
62
5
39
2
10
32.868540
20
153.150841
11
32.399817
21
153.677979
0
LINE
8
hole
62
5
39
2
10
32.399817
20
153.677979
11
31.737267
21
154.313841
0
LINE
8
hole
62
5
39
2
10
31.737267
20
154.313841
11
31.269710
21
154.840899
0
LINE
8
hole
62
5
39
2
10
31.269710
20
154.840899
11
30.606903
21
155.477713
0
LINE
8
hole
62
5
39
2
10
30.606903
20
155.477713
11
30.139602
21
156.005780
0
LINE
8
hole
62
5
39
2
10
30.139602
20
156.005780
11
29.478735
21
156.642794
0
LINE
8
hole
62
5
39
2
10
29.478735
20
156.642794
11
29.009495
21
157.174940
0
LINE
8
hole
62
5
39
2
10
29.009495
20
157.174940
11
28.352181
21
157.808872
0
LINE
8
hole
62
5
39
2
10
28.352181
20
157.808872
11
27.879385
21
158.345923
0
LINE
8
hole
62
5
39
2
10
27.879385
20
158.345923
11
27.225709
21
158.975083
0
LINE
8
hole
62
5
39
2
10
27.225709
20
158.975083
11
26.749276
21
159.516262
0
LINE
8
hole
62
5
39
2
10
26.749276
20
159.516262
11
26.098947
21
160.141144
0
LINE
8
hole
62
5
39
2
10
26.098947
20
160.141144
11
25.619170
21
160.686425
0
LINE
8
hole
62
5
39
2
10
25.619170
20
160.686425
11
24.972157
21
161.307200
0
LINE
8
hole
62
5
39
2
10
24.972157
20
161.307200
11
24.489061
21
161.856519
0
LINE
8
hole
62
5
39
2
10
24.489061
20
161.856519
11
23.844938
21
162.472980
0
LINE
8
hole
62
5
39
2
10
23.844938
20
162.472980
11
23.358949
21
163.025128
0
LINE
8
hole
62
5
39
2
10
23.358949
20
163.025128
11
22.716922
21
163.638556
0
LINE
8
hole
62
5
39
2
10
22.716922
20
163.638556
11
22.228843
21
164.194281
0
LINE
8
hole
62
5
39
2
10
22.228843
20
164.194281
11
21.591195
21
164.806155
0
LINE
8
hole
62
5
39
2
10
21.591195
20
164.806155
11
21.098734
21
165.373350
0
LINE
8
hole
62
5
39
2
10
21.098734
20
165.373350
11
20.475154
21
165.982055
0
LINE
8
hole
62
5
39
2
10
20.475154
20
165.982055
11
19.968625
21
166.586898
0
LINE
8
hole
62
5
39
2
10
19.968625
20
166.586898
11
19.754761
21
167.567638
0
LINE
8
hole
62
5
39
2
10
19.754761
20
167.567638
11
19.968625
21
168.178674
0
LINE
8
hole
62
5
39
2
10
19.968625
20
168.178674
11
20.317651
21
168.599053
0
LINE
8
hole
62
5
39
2
10
20.317651
20
168.599053
11
20.822112
21
169.088136
0
LINE
8
hole
62
5
39
2
10
20.822112
20
169.088136
11
21.436245
21
169.782282
0
LINE
8
hole
62
5
39
2
10
21.436245
20
169.782282
11
21.919998
21
170.251976
0
LINE
8
hole
62
5
39
2
10
21.919998
20
170.251976
11
22.556917
21
170.964184
0
LINE
8
hole
62
5
39
2
10
22.556917
20
170.964184
11
23.027713
21
171.415816
0
LINE
8
hole
62
5
39
2
10
23.027713
20
171.415816
11
23.683032
21
172.133654
0
LINE
8
hole
62
5
39
2
10
23.683032
20
172.133654
11
24.150925
21
172.579662
0
LINE
8
hole
62
5
39
2
10
24.150925
20
172.579662
11
24.809946
21
173.303978
0
LINE
8
hole
62
5
39
2
10
24.809946
20
173.303978
11
25.269978
21
173.743502
0
LINE
8
hole
62
5
39
2
10
25.269978
20
173.743502
11
25.937202
21
174.472816
0
LINE
8
hole
62
5
39
2
10
25.937202
20
174.472816
11
26.392921
21
174.907342
0
LINE
8
hole
62
5
39
2
10
26.392921
20
174.907342
11
26.749276
21
175.275979
0
LINE
8
hole
62
5
39
2
10
26.749276
20
175.275979
11
27.167061
21
175.746155
0
LINE
8
hole
62
5
39
2
10
27.167061
20
175.746155
11
27.697858
21
176.259188
0
LINE
8
hole
62
5
39
2
10
27.697858
20
176.259188
11
28.192922
21
176.808610
0
LINE
8
hole
62
5
39
2
10
28.192922
20
176.808610
11
28.639692
21
177.235028
0
LINE
8
hole
62
5
39
2
10
28.639692
20
177.235028
11
29.009494
21
177.617580
0
LINE
8
hole
62
5
39
2
10
29.009494
20
177.617580
11
29.419589
21
178.078252
0
LINE
8
hole
62
5
39
2
10
29.419589
20
178.078252
11
29.951623
21
178.593473
0
LINE
8
hole
62
5
39
2
10
29.951623
20
178.593473
11
30.449307
21
179.143728
0
LINE
8
hole
62
5
39
2
10
30.449307
20
179.143728
11
30.889033
21
179.562715
0
LINE
8
hole
62
5
39
2
10
30.889033
20
179.562715
11
31.269709
21
179.954896
0
LINE
8
hole
62
5
39
2
10
31.269709
20
179.954896
11
31.676032
21
180.407976
0
LINE
8
hole
62
5
39
2
10
31.676032
20
180.407976
11
32.209969
21
180.921517
0
LINE
8
hole
62
5
39
2
10
32.209969
20
180.921517
11
32.709875
21
181.470291
0
LINE
8
hole
62
5
39
2
10
32.709875
20
181.470291
11
33.153079
21
181.890394
0
LINE
8
hole
62
5
39
2
10
33.153079
20
181.890394
11
33.529928
21
182.277977
0
LINE
8
hole
62
5
39
2
10
33.529928
20
182.277977
11
33.939429
21
182.733882
0
LINE
8
hole
62
5
39
2
10
33.939429
20
182.733882
11
34.473213
21
183.245872
0
LINE
8
hole
62
5
39
2
10
34.473213
20
183.245872
11
34.972661
21
183.793509
0
LINE
8
hole
62
5
39
2
10
34.972661
20
183.793509
11
35.422819
21
184.218075
0
LINE
8
hole
62
5
39
2
10
35.422819
20
184.218075
11
35.790145
21
184.594084
0
LINE
8
hole
62
5
39
2
10
35.790145
20
184.594084
11
36.206926
21
185.057632
0
LINE
8
hole
62
5
39
2
10
36.206926
20
185.057632
11
36.739683
21
185.567300
0
LINE
8
hole
62
5
39
2
10
36.739683
20
185.567300
11
37.236357
21
186.114387
0
LINE
8
hole
62
5
39
2
10
37.236357
20
186.114387
11
37.692236
21
186.545761
0
LINE
8
hole
62
5
39
2
10
37.692236
20
186.545761
11
38.050359
21
186.914117
0
LINE
8
hole
62
5
39
2
10
38.050359
20
186.914117
11
38.470558
21
187.383252
0
LINE
8
hole
62
5
39
2
10
38.470558
20
187.383252
11
39.002444
21
187.892507
0
LINE
8
hole
62
5
39
2
10
39.002444
20
187.892507
11
39.498310
21
188.439058
0
LINE
8
hole
62
5
39
2
10
39.498310
20
188.439058
11
39.958326
21
188.873447
0
LINE
8
hole
62
5
39
2
10
39.958326
20
188.873447
11
40.631723
21
189.598324
0
LINE
8
hole
62
5
39
2
10
40.631723
20
189.598324
11
41.104613
21
190.037287
0
LINE
8
hole
62
5
39
2
10
41.104613
20
190.037287
11
41.774779
21
190.742169
0
LINE
8
hole
62
5
39
2
10
41.774779
20
190.742169
11
42.291726
21
191.201127
0
LINE
8
hole
62
5
39
2
10
42.291726
20
191.201127
11
42.992715
21
191.505135
0
LINE
8
hole
62
5
39
2
10
42.992715
20
191.505135
11
43.700903
21
191.568869
0
LINE
8
hole
62
5
39
2
10
43.700903
20
191.568869
11
44.069466
21
191.201127
0
LINE
8
hole
62
5
39
2
10
44.069466
20
191.201127
11
44.519304
21
190.778766
0
LINE
8
hole
62
5
39
2
10
44.519304
20
190.778766
11
45.019688
21
190.230926
0
LINE
8
hole
62
5
39
2
10
45.019688
20
190.230926
11
45.553682
21
189.718331
0
LINE
8
hole
62
5
39
2
10
45.553682
20
189.718331
11
45.961120
21
189.265446
0
LINE
8
hole
62
5
39
2
10
45.961120
20
189.265446
11
46.343278
21
188.873447
0
LINE
8
hole
62
5
39
2
10
46.343278
20
188.873447
11
46.783328
21
188.457292
0
LINE
8
hole
62
5
39
2
10
46.783328
20
188.457292
11
47.285235
21
187.908463
0
LINE
8
hole
62
5
39
2
10
47.285235
20
187.908463
11
47.820515
21
187.394327
0
LINE
8
hole
62
5
39
2
10
47.820515
20
187.394327
11
48.221337
21
186.949903
0
LINE
8
hole
62
5
39
2
10
48.221337
20
186.949903
11
48.615700
21
186.545761
0
LINE
8
hole
62
5
39
2
10
48.615700
20
186.545761
11
49.047553
21
186.137225
0
LINE
8
hole
62
5
39
2
10
49.047553
20
186.137225
11
49.551879
21
185.587329
0
LINE
8
hole
62
5
39
2
10
49.551879
20
185.587329
11
50.088225
21
185.070721
0
LINE
8
hole
62
5
39
2
10
50.088225
20
185.070721
11
50.481554
21
184.634542
0
LINE
8
hole
62
5
39
2
10
50.481554
20
184.634542
11
50.887077
21
184.218075
0
LINE
8
hole
62
5
39
2
10
50.887077
20
184.218075
11
51.310822
21
183.815520
0
LINE
8
hole
62
5
39
2
10
51.310822
20
183.815520
11
51.815778
21
183.264019
0
LINE
8
hole
62
5
39
2
10
51.815778
20
183.264019
11
52.352533
21
182.745412
0
LINE
8
hole
62
5
39
2
10
52.352533
20
182.745412
11
52.741770
21
182.314054
0
LINE
8
hole
62
5
39
2
10
52.741770
20
182.314054
11
53.155469
21
181.890395
0
LINE
8
hole
62
5
39
2
10
53.155469
20
181.890395
11
53.573949
21
181.493711
0
LINE
8
hole
62
5
39
2
10
53.573949
20
181.493711
11
54.081318
21
180.941587
0
LINE
8
hole
62
5
39
2
10
54.081318
20
180.941587
11
54.619202
21
180.421048
0
LINE
8
hole
62
5
39
2
10
54.619202
20
180.421048
11
55.001987
21
179.996728
0
LINE
8
hole
62
5
39
2
10
55.001987
20
179.996728
11
55.424386
21
179.562714
0
LINE
8
hole
62
5
39
2
10
55.424386
20
179.562714
11
55.835992
21
179.169903
0
LINE
8
hole
62
5
39
2
10
55.835992
20
179.169903
11
56.341826
21
178.615878
0
LINE
8
hole
62
5
39
2
10
56.341826
20
178.615878
11
56.877886
21
178.092691
0
LINE
8
hole
62
5
39
2
10
56.877886
20
178.092691
11
57.262204
21
177.662913
0
LINE
8
hole
62
5
39
2
10
57.262204
20
177.662913
11
57.675936
21
177.235028
0
LINE
8
hole
62
5
39
2
10
57.675936
20
177.235028
11
58.092755
21
176.835223
0
LINE
8
hole
62
5
39
2
10
58.092755
20
176.835223
11
58.595086
21
176.281553
0
LINE
8
hole
62
5
39
2
10
58.595086
20
176.281553
11
59.129427
21
175.760395
0
LINE
8
hole
62
5
39
2
10
59.129427
20
175.760395
11
59.522421
21
175.320027
0
LINE
8
hole
62
5
39
2
10
59.522421
20
175.320027
11
59.921674
21
174.907342
0
LINE
8
hole
62
5
39
2
10
59.921674
20
174.907342
11
60.348675
21
174.498983
0
LINE
8
hole
62
5
39
2
10
60.348675
20
174.498983
11
60.849337
21
173.947138
0
LINE
8
hole
62
5
39
2
10
60.849337
20
173.947138
11
61.382840
21
173.428803
0
LINE
8
hole
62
5
39
2
10
61.382840
20
173.428803
11
61.782638
21
172.980432
0
LINE
8
hole
62
5
39
2
10
61.782638
20
172.980432
11
62.169914
21
172.579662
0
LINE
8
hole
62
5
39
2
10
62.169914
20
172.579662
11
62.604886
21
172.163636
0
LINE
8
hole
62
5
39
2
10
62.604886
20
172.163636
11
63.102768
21
171.612762
0
LINE
8
hole
62
5
39
2
10
63.102768
20
171.612762
11
63.634308
21
171.096060
0
LINE
8
hole
62
5
39
2
10
63.634308
20
171.096060
11
64.042854
21
170.634947
0
LINE
8
hole
62
5
39
2
10
64.042854
20
170.634947
11
64.410376
21
170.251976
0
LINE
8
hole
62
5
39
2
10
64.410376
20
170.251976
11
64.856465
21
169.820295
0
LINE
8
hole
62
5
39
2
10
64.856465
20
169.820295
11
65.344277
21
169.268592
0
LINE
8
hole
62
5
39
2
10
65.344277
20
169.268592
11
65.867971
21
168.751599
0
LINE
8
hole
62
5
39
2
10
65.867971
20
168.751599
11
66.303071
21
168.241818
0
LINE
8
hole
62
5
39
2
10
66.303071
20
168.241818
11
66.598894
21
167.485177
0
LINE
8
hole
62
5
39
2
10
66.598894
20
167.485177
11
66.604175
21
166.760450
0
LINE
8
hole
62
5
39
2
10
66.604175
20
166.760450
11
65.976431
21
166.047164
0
LINE
8
hole
62
5
39
2
10
65.976431
20
166.047164
11
65.513594
21
165.596610
0
LINE
8
hole
62
5
39
2
10
65.513594
20
165.596610
11
64.854297
21
164.868172
0
LINE
8
hole
62
5
39
2
10
64.854297
20
164.868172
11
64.400478
21
164.432766
0
LINE
8
hole
62
5
39
2
10
64.400478
20
164.432766
11
64.042854
21
164.062364
0
LINE
8
hole
62
5
39
2
10
64.042854
20
164.062364
11
63.626034
21
163.593409
0
LINE
8
hole
62
5
39
2
10
63.626034
20
163.593409
11
63.095024
21
163.080341
0
LINE
8
hole
62
5
39
2
10
63.095024
20
163.080341
11
62.599517
21
162.531060
0
LINE
8
hole
62
5
39
2
10
62.599517
20
162.531060
11
62.152989
21
162.105080
0
LINE
8
hole
62
5
39
2
10
62.152989
20
162.105080
11
61.782638
21
161.722141
0
LINE
8
hole
62
5
39
2
10
61.782638
20
161.722141
11
61.372344
21
161.261953
0
LINE
8
hole
62
5
39
2
10
61.372344
20
161.261953
11
60.840061
21
160.747553
0
LINE
8
hole
62
5
39
2
10
60.840061
20
160.747553
11
60.342001
21
160.198100
0
LINE
8
hole
62
5
39
2
10
60.342001
20
160.198100
11
59.899307
21
159.777397
0
LINE
8
hole
62
5
39
2
10
59.899307
20
159.777397
11
59.522421
21
159.389816
0
LINE
8
hole
62
5
39
2
10
59.522421
20
159.389816
11
59.113363
21
158.933455
0
LINE
8
hole
62
5
39
2
10
59.113363
20
158.933455
11
58.580209
21
158.419910
0
LINE
8
hole
62
5
39
2
10
58.580209
20
158.419910
11
58.081778
21
157.870660
0
LINE
8
hole
62
5
39
2
10
58.081778
20
157.870660
11
57.639012
21
157.449717
0
LINE
8
hole
62
5
39
2
10
57.639012
20
157.449717
11
57.262204
21
157.061000
0
LINE
8
hole
62
5
39
2
10
57.262204
20
157.061000
11
56.854523
21
156.605247
0
LINE
8
hole
62
5
39
2
10
56.854523
20
156.605247
11
56.321174
21
156.091121
0
LINE
8
hole
62
5
39
2
10
56.321174
20
156.091121
11
55.822185
21
155.541635
0
LINE
8
hole
62
5
39
2
10
55.822185
20
155.541635
11
55.724694
21
155.441172
0
LINE
8
boundary
62
5
39
2
10
97.946105
20
23.494303
11
98.307799
21
23.874676
0
LINE
8
boundary
62
5
39
2
10
98.307799
20
23.874676
11
98.807192
21
24.384554
0
LINE
8
boundary
62
5
39
2
10
98.807192
20
24.384554
11
99.196701
21
24.771733
0
LINE
8
boundary
62
5
39
2
10
99.196701
20
24.771733
11
99.518043
21
25.289875
0
LINE
8
boundary
62
5
39
2
10
99.518043
20
25.289875
11
100.025421
21
25.935579
0
LINE
8
boundary
62
5
39
2
10
100.025421
20
25.935579
11
100.508484
21
26.692254
0
LINE
8
boundary
62
5
39
2
10
100.508484
20
26.692254
11
101.078918
21
27.585671
0
LINE
8
boundary
62
5
39
2
10
101.078918
20
27.585671
11
101.409111
21
28.099602
0
LINE
8
boundary
62
5
39
2
10
101.409111
20
28.099602
11
101.711379
21
28.838780
0
LINE
8
boundary
62
5
39
2
10
101.711379
20
28.838780
11
101.969504
21
29.427105
0
LINE
8
boundary
62
5
39
2
10
101.969504
20
29.427105
11
102.188889
21
29.928768
0
LINE
8
boundary
62
5
39
2
10
102.188889
20
29.928768
11
102.466542
21
30.453279
0
LINE
8
boundary
62
5
39
2
10
102.466542
20
30.453279
11
102.710547
21
31.416129
0
LINE
8
boundary
62
5
39
2
10
102.710547
20
31.416129
11
102.867705
21
32.090592
0
LINE
8
boundary
62
5
39
2
10
102.867705
20
32.090592
11
102.966951
21
32.589366
0
LINE
8
boundary
62
5
39
2
10
102.966951
20
32.589366
11
103.119099
21
33.418056
0
LINE
8
boundary
62
5
39
2
10
103.119099
20
33.418056
11
103.221481
21
34.082471
0
LINE
8
boundary
62
5
39
2
10
103.221481
20
34.082471
11
103.269279
21
34.633388
0
LINE
8
boundary
62
5
39
2
10
103.269279
20
34.633388
11
103.323908
21
35.246311
0
LINE
8
boundary
62
5
39
2
10
103.323908
20
35.246311
11
103.327460
21
35.923005
0
LINE
8
boundary
62
5
39
2
10
103.327460
20
35.923005
11
103.329889
21
36.894827
0
LINE
8
boundary
62
5
39
2
10
103.329889
20
36.894827
11
103.329821
21
37.573998
0
LINE
8
boundary
62
5
39
2
10
103.329821
20
37.573998
11
103.329817
21
38.253120
0
LINE
8
boundary
62
5
39
2
10
103.329817
20
38.253120
11
103.329814
21
39.222565
0
LINE
8
boundary
62
5
39
2
10
103.329814
20
39.222565
11
103.329811
21
39.901684
0
LINE
8
boundary
62
5
39
2
10
103.329811
20
39.901684
11
103.329812
21
40.580792
0
LINE
8
boundary
62
5
39
2
10
103.329812
20
40.580792
11
103.329816
21
41.550258
0
LINE
8
boundary
62
5
39
2
10
103.329816
20
41.550258
11
103.329818
21
42.229364
0
LINE
8
boundary
62
5
39
2
10
103.329818
20
42.229364
11
103.329819
21
42.908473
0
LINE
8
boundary
62
5
39
2
10
103.329819
20
42.908473
11
103.329824
21
43.877944
0
LINE
8
boundary
62
5
39
2
10
103.329824
20
43.877944
11
103.329824
21
44.557050
0
LINE
8
boundary
62
5
39
2
10
103.329824
20
44.557050
11
103.329824
21
45.236153
0
LINE
8
boundary
62
5
39
2
10
103.329824
20
45.236153
11
103.329828
21
46.205634
0
LINE
8
boundary
62
5
39
2
10
103.329828
20
46.205634
11
103.329831
21
46.884736
0
LINE
8
boundary
62
5
39
2
10
103.329831
20
46.884736
11
103.329832
21
47.563830
0
LINE
8
boundary
62
5
39
2
10
103.329832
20
47.563830
11
103.329835
21
48.533325
0
LINE
8
boundary
62
5
39
2
10
103.329835
20
48.533325
11
103.329837
21
49.212416
0
LINE
8
boundary
62
5
39
2
10
103.329837
20
49.212416
11
103.329836
21
49.891510
0
LINE
8
boundary
62
5
39
2
10
103.329836
20
49.891510
11
103.329840
21
50.861005
0
LINE
8
boundary
62
5
39
2
10
103.329840
20
50.861005
11
103.329843
21
51.540097
0
LINE
8
boundary
62
5
39
2
10
103.329843
20
51.540097
11
103.329844
21
52.219185
0
LINE
8
boundary
62
5
39
2
10
103.329844
20
52.219185
11
103.329848
21
53.188695
0
LINE
8
boundary
62
5
39
2
10
103.329848
20
53.188695
11
103.329849
21
53.867783
0
LINE
8
boundary
62
5
39
2
10
103.329849
20
53.867783
11
103.329849
21
54.546861
0
LINE
8
boundary
62
5
39
2
10
103.329849
20
54.546861
11
103.329853
21
55.516386
0
LINE
8
boundary
62
5
39
2
10
103.329853
20
55.516386
11
103.329856
21
56.195463
0
LINE
8
boundary
62
5
39
2
10
103.329856
20
56.195463
11
103.329856
21
56.874543
0
LINE
8
boundary
62
5
39
2
10
103.329856
20
56.874543
11
103.329861
21
57.844071
0
LINE
8
boundary
62
5
39
2
10
103.329861
20
57.844071
11
103.329862
21
58.523149
0
LINE
8
boundary
62
5
39
2
10
103.329862
20
58.523149
11
103.329864
21
59.202224
0
LINE
8
boundary
62
5
39
2
10
103.329864
20
59.202224
11
103.329993
21
60.171647
0
LINE
8
boundary
62
5
39
2
10
103.329993
20
60.171647
11
103.330169
21
60.850835
0
LINE
8
boundary
62
5
39
2
10
103.330169
20
60.850835
11
103.330374
21
61.530462
0
LINE
8
boundary
62
5
39
2
10
103.330374
20
61.530462
11
103.330672
21
62.498631
0
LINE
8
boundary
62
5
39
2
10
103.330672
20
62.498631
11
103.330880
21
63.178521
0
LINE
8
boundary
62
5
39
2
10
103.330880
20
63.178521
11
103.331088
21
63.858883
0
LINE
8
boundary
62
5
39
2
10
103.331088
20
63.858883
11
103.331386
21
64.825575
0
LINE
8
boundary
62
5
39
2
10
103.331386
20
64.825575
11
103.331592
21
65.506201
0
LINE
8
boundary
62
5
39
2
10
103.331592
20
65.506201
11
103.331612
21
66.187093
0
LINE
8
boundary
62
5
39
2
10
103.331612
20
66.187093
11
103.331631
21
67.152985
0
LINE
8
boundary
62
5
39
2
10
103.331631
20
67.152985
11
103.331632
21
67.833887
0
LINE
8
boundary
62
5
39
2
10
103.331632
20
67.833887
11
103.331632
21
68.514784
0
LINE
8
boundary
62
5
39
2
10
103.331632
20
68.514784
11
103.331636
21
69.480675
0
LINE
8
boundary
62
5
39
2
10
103.331636
20
69.480675
11
103.331639
21
70.161571
0
LINE
8
boundary
62
5
39
2
10
103.331639
20
70.161571
11
103.331640
21
70.842466
0
LINE
8
boundary
62
5
39
2
10
103.331640
20
70.842466
11
103.331641
21
71.808363
0
LINE
8
boundary
62
5
39
2
10
103.331641
20
71.808363
11
103.331643
21
72.489257
0
LINE
8
boundary
62
5
39
2
10
103.331643
20
72.489257
11
103.331641
21
73.170143
0
LINE
8
boundary
62
5
39
2
10
103.331641
20
73.170143
11
103.331642
21
74.136056
0
LINE
8
boundary
62
5
39
2
10
103.331642
20
74.136056
11
103.331645
21
74.816940
0
LINE
8
boundary
62
5
39
2
10
103.331645
20
74.816940
11
103.331644
21
75.497816
0
LINE
8
boundary
62
5
39
2
10
103.331644
20
75.497816
11
103.331645
21
76.463744
0
LINE
8
boundary
62
5
39
2
10
103.331645
20
76.463744
11
103.331647
21
77.144620
0
LINE
8
boundary
62
5
39
2
10
103.331647
20
77.144620
11
103.331646
21
77.825494
0
LINE
8
boundary
62
5
39
2
10
103.331646
20
77.825494
11
103.331649
21
78.791434
0
LINE
8
boundary
62
5
39
2
10
103.331649
20
78.791434
11
103.331650
21
79.472306
0
LINE
8
boundary
62
5
39
2
10
103.331650
20
79.472306
11
103.331649
21
80.153170
0
LINE
8
boundary
62
5
39
2
10
103.331649
20
80.153170
11
103.331650
21
81.119128
0
LINE
8
boundary
62
5
39
2
10
103.331650
20
81.119128
11
103.331653
21
81.799989
0
LINE
8
boundary
62
5
39
2
10
103.331653
20
81.799989
11
103.331653
21
82.480847
0
LINE
8
boundary
62
5
39
2
10
103.331653
20
82.480847
11
103.331655
21
83.446817
0
LINE
8
boundary
62
5
39
2
10
103.331655
20
83.446817
11
103.331658
21
84.127673
0
LINE
8
boundary
62
5
39
2
10
103.331658
20
84.127673
11
103.331658
21
84.808529
0
LINE
8
boundary
62
5
39
2
10
103.331658
20
84.808529
11
103.331662
21
85.774504
0
LINE
8
boundary
62
5
39
2
10
103.331662
20
85.774504
11
103.331662
21
86.455359
0
LINE
8
boundary
62
5
39
2
10
103.331662
20
86.455359
11
103.331663
21
87.136206
0
LINE
8
boundary
62
5
39
2
10
103.331663
20
87.136206
11
103.331666
21
88.102197
0
LINE
8
boundary
62
5
39
2
10
103.331666
20
88.102197
11
103.331665
21
88.783042
0
LINE
8
boundary
62
5
39
2
10
103.331665
20
88.783042
11
103.331666
21
89.463882
0
LINE
8
boundary
62
5
39
2
10
103.331666
20
89.463882
11
103.331668
21
90.429885
0
LINE
8
boundary
62
5
39
2
10
103.331668
20
90.429885
11
103.331669
21
91.110725
0
LINE
8
boundary
62
5
39
2
10
103.331669
20
91.110725
11
103.331670
21
91.791560
0
LINE
8
boundary
62
5
39
2
10
103.331670
20
91.791560
11
103.331672
21
92.757576
0
LINE
8
boundary
62
5
39
2
10
103.331672
20
92.757576
11
103.331674
21
93.438410
0
LINE
8
boundary
62
5
39
2
10
103.331674
20
93.438410
11
103.331675
21
94.119239
0
LINE
8
boundary
62
5
39
2
10
103.331675
20
94.119239
11
103.331676
21
95.085266
0
LINE
8
boundary
62
5
39
2
10
103.331676
20
95.085266
11
103.331677
21
95.766093
0
LINE
8
boundary
62
5
39
2
10
103.331677
20
95.766093
11
103.331684
21
96.446919
0
LINE
8
boundary
62
5
39
2
10
103.331684
20
96.446919
11
103.331698
21
97.412947
0
LINE
8
boundary
62
5
39
2
10
103.331698
20
97.412947
11
103.331708
21
98.093776
0
LINE
8
boundary
62
5
39
2
10
103.331708
20
98.093776
11
103.331720
21
98.774614
0
LINE
8
boundary
62
5
39
2
10
103.331720
20
98.774614
11
103.331737
21
99.740619
0
LINE
8
boundary
62
5
39
2
10
103.331737
20
99.740619
11
103.331746
21
100.421461
0
LINE
8
boundary
62
5
39
2
10
103.331746
20
100.421461
11
103.331766
21
101.102316
0
LINE
8
boundary
62
5
39
2
10
103.331766
20
101.102316
11
103.331774
21
102.068290
0
LINE
8
boundary
62
5
39
2
10
103.331774
20
102.068290
11
103.331766
21
102.749144
0
LINE
8
boundary
62
5
39
2
10
103.331766
20
102.749144
11
103.332029
21
103.430290
0
LINE
8
boundary
62
5
39
2
10
103.332029
20
103.430290
11
103.332429
21
104.395324
0
LINE
8
boundary
62
5
39
2
10
103.332429
20
104.395324
11
103.332731
21
105.076828
0
LINE
8
boundary
62
5
39
2
10
103.332731
20
105.076828
11
103.333045
21
105.759054
0
LINE
8
boundary
62
5
39
2
10
103.333045
20
105.759054
11
103.333373
21
106.721993
0
LINE
8
boundary
62
5
39
2
10
103.333373
20
106.721993
11
103.333525
21
107.404511
0
LINE
8
boundary
62
5
39
2
10
103.333525
20
107.404511
11
103.333517
21
108.087199
0
LINE
8
boundary
62
5
39
2
10
103.333517
20
108.087199
11
103.333514
21
109.049515
0
LINE
8
boundary
62
5
39
2
10
103.333514
20
109.049515
11
103.333512
21
109.732196
0
LINE
8
boundary
62
5
39
2
10
103.333512
20
109.732196
11
103.333507
21
110.414868
0
LINE
8
boundary
62
5
39
2
10
103.333507
20
110.414868
11
103.333502
21
111.377213
0
LINE
8
boundary
62
5
39
2
10
103.333502
20
111.377213
11
103.333499
21
112.059880
0
LINE
8
boundary
62
5
39
2
10
103.333499
20
112.059880
11
103.333497
21
112.742538
0
LINE
8
boundary
62
5
39
2
10
103.333497
20
112.742538
11
103.333492
21
113.704909
0
LINE
8
boundary
62
5
39
2
10
103.333492
20
113.704909
11
103.333488
21
114.387563
0
LINE
8
boundary
62
5
39
2
10
103.333488
20
114.387563
11
103.333484
21
115.070209
0
LINE
8
boundary
62
5
39
2
10
103.333484
20
115.070209
11
103.333480
21
116.032607
0
LINE
8
boundary
62
5
39
2
10
103.333480
20
116.032607
11
103.333477
21
116.715247
0
LINE
8
boundary
62
5
39
2
10
103.333477
20
116.715247
11
103.333472
21
117.397879
0
LINE
8
boundary
62
5
39
2
10
103.333472
20
117.397879
11
103.333470
21
118.360304
0
LINE
8
boundary
62
5
39
2
10
103.333470
20
118.360304
11
103.333465
21
119.042931
0
LINE
8
boundary
62
5
39
2
10
103.333465
20
119.042931
11
103.333462
21
119.725550
0
LINE
8
boundary
62
5
39
2
10
103.333462
20
119.725550
11
103.333457
21
120.688001
0
LINE
8
boundary
62
5
39
2
10
103.333457
20
120.688001
11
103.333453
21
121.370615
0
LINE
8
boundary
62
5
39
2
10
103.333453
20
121.370615
11
103.333449
21
122.053218
0
LINE
8
boundary
62
5
39
2
10
103.333449
20
122.053218
11
103.333443
21
123.015701
0
LINE
8
boundary
62
5
39
2
10
103.333443
20
123.015701
11
103.333439
21
123.698299
0
LINE
8
boundary
62
5
39
2
10
103.333439
20
123.698299
11
103.333435
21
124.380885
0
LINE
8
boundary
62
5
39
2
10
103.333435
20
124.380885
11
103.333429
21
125.343402
0
LINE
8
boundary
62
5
39
2
10
103.333429
20
125.343402
11
103.333425
21
126.025983
0
LINE
8
boundary
62
5
39
2
10
103.333425
20
126.025983
11
103.333421
21
126.708553
0
LINE
8
boundary
62
5
39
2
10
103.333421
20
126.708553
11
103.333415
21
127.671103
0
LINE
8
boundary
62
5
39
2
10
103.333415
20
127.671103
11
103.333411
21
128.353667
0
LINE
8
boundary
62
5
39
2
10
103.333411
20
128.353667
11
103.333408
21
129.036222
0
LINE
8
boundary
62
5
39
2
10
103.333408
20
129.036222
11
103.333402
21
129.998800
0
LINE
8
boundary
62
5
39
2
10
103.333402
20
129.998800
11
103.333400
21
130.681350
0
LINE
8
boundary
62
5
39
2
10
103.333400
20
130.681350
11
103.333395
21
131.363891
0
LINE
8
boundary
62
5
39
2
10
103.333395
20
131.363891
11
103.333393
21
132.326498
0
LINE
8
boundary
62
5
39
2
10
103.333393
20
132.326498
11
103.333389
21
133.009033
0
LINE
8
boundary
62
5
39
2
10
103.333389
20
133.009033
11
103.333386
21
133.691562
0
LINE
8
boundary
62
5
39
2
10
103.333386
20
133.691562
11
103.333381
21
134.654194
0
LINE
8
boundary
62
5
39
2
10
103.333381
20
134.654194
11
103.333377
21
135.336718
0
LINE
8
boundary
62
5
39
2
10
103.333377
20
135.336718
11
103.333373
21
136.019233
0
LINE
8
boundary
62
5
39
2
10
103.333373
20
136.019233
11
103.333367
21
136.981895
0
LINE
8
boundary
62
5
39
2
10
103.333367
20
136.981895
11
103.333360
21
137.664403
0
LINE
8
boundary
62
5
39
2
10
103.333360
20
137.664403
11
103.333357
21
138.346897
0
LINE
8
boundary
62
5
39
2
10
103.333357
20
138.346897
11
103.333373
21
139.309575
0
LINE
8
boundary
62
5
39
2
10
103.333373
20
139.309575
11
103.333398
21
139.992086
0
LINE
8
boundary
62
5
39
2
10
103.333398
20
139.992086
11
103.333445
21
140.674681
0
LINE
8
boundary
62
5
39
2
10
103.333445
20
140.674681
11
103.333518
21
141.637114
0
LINE
8
boundary
62
5
39
2
10
103.333518
20
141.637114
11
103.333568
21
142.319769
0
LINE
8
boundary
62
5
39
2
10
103.333568
20
142.319769
11
103.333619
21
143.002535
0
LINE
8
boundary
62
5
39
2
10
103.333619
20
143.002535
11
103.333692
21
143.964625
0
LINE
8
boundary
62
5
39
2
10
103.333692
20
143.964625
11
103.333745
21
144.647452
0
LINE
8
boundary
62
5
39
2
10
103.333745
20
144.647452
11
103.333795
21
145.330390
0
LINE
8
boundary
62
5
39
2
10
103.333795
20
145.330390
11
103.333871
21
146.292137
0
LINE
8
boundary
62
5
39
2
10
103.333871
20
146.292137
11
103.333920
21
146.975136
0
LINE
8
boundary
62
5
39
2
10
103.333920
20
146.975136
11
103.333972
21
147.658248
0
LINE
8
boundary
62
5
39
2
10
103.333972
20
147.658248
11
103.334045
21
148.619649
0
LINE
8
boundary
62
5
39
2
10
103.334045
20
148.619649
11
103.334096
21
149.302821
0
LINE
8
boundary
62
5
39
2
10
103.334096
20
149.302821
11
103.334146
21
149.986103
0
LINE
8
boundary
62
5
39
2
10
103.334146
20
149.986103
11
103.334221
21
150.947163
0
LINE
8
boundary
62
5
39
2
10
103.334221
20
150.947163
11
103.334271
21
151.630505
0
LINE
8
boundary
62
5
39
2
10
103.334271
20
151.630505
11
103.334322
21
152.313959
0
LINE
8
boundary
62
5
39
2
10
103.334322
20
152.313959
11
103.334395
21
153.274674
0
LINE
8
boundary
62
5
39
2
10
103.334395
20
153.274674
11
103.334448
21
153.958191
0
LINE
8
boundary
62
5
39
2
10
103.334448
20
153.958191
11
103.334496
21
154.641816
0
LINE
8
boundary
62
5
39
2
10
103.334496
20
154.641816
11
103.334572
21
155.602188
0
LINE
8
boundary
62
5
39
2
10
103.334572
20
155.602188
11
103.334622
21
156.285874
0
LINE
8
boundary
62
5
39
2
10
103.334622
20
156.285874
11
103.334675
21
156.969672
0
LINE
8
boundary
62
5
39
2
10
103.334675
20
156.969672
11
103.334748
21
157.929700
0
LINE
8
boundary
62
5
39
2
10
103.334748
20
157.929700
11
103.334798
21
158.613554
0
LINE
8
boundary
62
5
39
2
10
103.334798
20
158.613554
11
103.334849
21
159.297526
0
LINE
8
boundary
62
5
39
2
10
103.334849
20
159.297526
11
103.334922
21
160.257207
0
LINE
8
boundary
62
5
39
2
10
103.334922
20
160.257207
11
103.334973
21
160.941240
0
LINE
8
boundary
62
5
39
2
10
103.334973
20
160.941240
11
103.335023
21
161.625382
0
LINE
8
boundary
62
5
39
2
10
103.335023
20
161.625382
11
103.335098
21
162.584721
0
LINE
8
boundary
62
5
39
2
10
103.335098
20
162.584721
11
103.335150
21
163.268923
0
LINE
8
boundary
62
5
39
2
10
103.335150
20
163.268923
11
103.335197
21
163.953234
0
LINE
8
boundary
62
5
39
2
10
103.335197
20
163.953234
11
103.335231
21
164.912270
0
LINE
8
boundary
62
5
39
2
10
103.335231
20
164.912270
11
103.335231
21
165.596609
0
LINE
8
boundary
62
5
39
2
10
103.335231
20
165.596609
11
103.335227
21
166.280941
0
LINE
8
boundary
62
5
39
2
10
103.335227
20
166.280941
11
103.335222
21
167.239964
0
LINE
8
boundary
62
5
39
2
10
103.335222
20
167.239964
11
103.335218
21
167.924290
0
LINE
8
boundary
62
5
39
2
10
103.335218
20
167.924290
11
103.335214
21
168.608607
0
LINE
8
boundary
62
5
39
2
10
103.335214
20
168.608607
11
103.335208
21
169.567665
0
LINE
8
boundary
62
5
39
2
10
103.335208
20
169.567665
11
103.335205
21
170.251976
0
LINE
8
boundary
62
5
39
2
10
103.335205
20
170.251976
11
103.335201
21
170.936277
0
LINE
8
boundary
62
5
39
2
10
103.335201
20
170.936277
11
103.335195
21
171.895365
0
LINE
8
boundary
62
5
39
2
10
103.335195
20
171.895365
11
103.335193
21
172.579662
0
LINE
8
boundary
62
5
39
2
10
103.335193
20
172.579662
11
103.335187
21
173.263943
0
LINE
8
boundary
62
5
39
2
10
103.335187
20
173.263943
11
103.335185
21
174.223066
0
LINE
8
boundary
62
5
39
2
10
103.335185
20
174.223066
11
103.335179
21
174.907342
0
LINE
8
boundary
62
5
39
2
10
103.335179
20
174.907342
11
103.335177
21
175.591614
0
LINE
8
boundary
62
5
39
2
10
103.335177
20
175.591614
11
103.335171
21
176.550762
0
LINE
8
boundary
62
5
39
2
10
103.335171
20
176.550762
11
103.335167
21
177.235028
0
LINE
8
boundary
62
5
39
2
10
103.335167
20
177.235028
11
103.302548
21
177.747536
0
LINE
8
boundary
62
5
39
2
10
103.302548
20
177.747536
11
103.260782
21
178.398869
0
LINE
8
boundary
62
5
39
2
10
103.260782
20
178.398869
11
103.171864
21
178.921189
0
LINE
8
boundary
62
5
39
2
10
103.171864
20
178.921189
11
103.068473
21
179.562714
0
LINE
8
boundary
62
5
39
2
10
103.068473
20
179.562714
11
102.878130
21
180.395017
0
LINE
8
boundary
62
5
39
2
10
102.878130
20
180.395017
11
102.684688
21
181.048251
0
LINE
8
boundary
62
5
39
2
10
102.684688
20
181.048251
11
102.466542
21
181.718144
0
LINE
8
boundary
62
5
39
2
10
102.466542
20
181.718144
11
102.182151
21
182.352156
0
LINE
8
boundary
62
5
39
2
10
102.182151
20
182.352156
11
101.887355
21
183.054241
0
LINE
8
boundary
62
5
39
2
10
101.887355
20
183.054241
11
101.671196
21
183.534997
0
LINE
8
boundary
62
5
39
2
10
101.671196
20
183.534997
11
101.482349
21
184.037502
0
LINE
8
boundary
62
5
39
2
10
101.482349
20
184.037502
11
100.967088
21
184.822511
0
LINE
8
boundary
62
5
39
2
10
100.967088
20
184.822511
11
100.603405
21
185.381921
0
LINE
8
boundary
62
5
39
2
10
100.603405
20
185.381921
11
100.206324
21
185.958204
0
LINE
8
boundary
62
5
39
2
10
100.206324
20
185.958204
11
99.740325
21
186.545761
0
LINE
8
boundary
62
5
39
2
10
99.740325
20
186.545761
11
99.368808
21
186.943373
0
LINE
8
boundary
62
5
39
2
10
99.368808
20
186.943373
11
98.872902
21
187.505300
0
LINE
8
boundary
62
5
39
2
10
98.872902
20
187.505300
11
98.315324
21
188.003551
0
LINE
8
boundary
62
5
39
2
10
98.315324
20
188.003551
11
97.533557
21
188.686996
0
LINE
8
boundary
62
5
39
2
10
97.533557
20
188.686996
11
97.009774
21
189.093691
0
LINE
8
boundary
62
5
39
2
10
97.009774
20
189.093691
11
96.407315
21
189.564430
0
LINE
8
boundary
62
5
39
2
10
96.407315
20
189.564430
11
95.877337
21
190.037287
0
LINE
8
boundary
62
5
39
2
10
95.877337
20
190.037287
11
95.415871
21
190.363971
0
LINE
8
boundary
62
5
39
2
10
95.415871
20
190.363971
11
94.555781
21
191.003165
0
LINE
8
boundary
62
5
39
2
10
94.555781
20
191.003165
11
93.848292
21
191.527560
0
LINE
8
boundary
62
5
39
2
10
93.848292
20
191.527560
11
93.425675
21
191.884340
0
LINE
8
boundary
62
5
39
2
10
93.425675
20
191.884340
11
92.832727
21
192.364973
0
LINE
8
boundary
62
5
39
2
10
92.832727
20
192.364973
11
92.295566
21
192.769742
0
LINE
8
boundary
62
5
39
2
10
92.295566
20
192.769742
11
91.397083
21
193.528813
0
LINE
8
boundary
62
5
39
2
10
91.397083
20
193.528813
11
90.872796
21
193.901421
0
LINE
8
boundary
62
5
39
2
10
90.872796
20
193.901421
11
90.035348
21
194.535017
0
LINE
8
boundary
62
5
39
2
10
90.035348
20
194.535017
11
89.355400
21
195.032752
0
LINE
8
boundary
62
5
39
2
10
89.355400
20
195.032752
11
88.905239
21
195.414644
0
LINE
8
boundary
62
5
39
2
10
88.905239
20
195.414644
11
88.359020
21
195.856500
0
LINE
8
boundary
62
5
39
2
10
88.359020
20
195.856500
11
87.775130
21
196.296951
0
LINE
8
boundary
62
5
39
2
10
87.775130
20
196.296951
11
87.269023
21
196.700149
0
LINE
8
boundary
62
5
39
2
10
87.269023
20
196.700149
11
86.808971
21
197.098251
0
LINE
8
boundary
62
5
39
2
10
86.808971
20
197.098251
11
86.336847
21
197.431891
0
LINE
8
boundary
62
5
39
2
10
86.336847
20
197.431891
11
85.514915
21
198.064394
0
LINE
8
boundary
62
5
39
2
10
85.514915
20
198.064394
11
84.860356
21
198.537567
0
LINE
8
boundary
62
5
39
2
10
84.860356
20
198.537567
11
84.384806
21
198.943058
0
LINE
8
boundary
62
5
39
2
10
84.384806
20
198.943058
11
83.883732
21
199.348026
0
LINE
8
boundary
62
5
39
2
10
83.883732
20
199.348026
11
83.254700
21
199.823417
0
LINE
8
boundary
62
5
39
2
10
83.254700
20
199.823417
11
82.763011
21
200.216367
0
LINE
8
boundary
62
5
39
2
10
82.763011
20
200.216367
11
82.306995
21
200.603667
0
LINE
8
boundary
62
5
39
2
10
82.306995
20
200.603667
11
81.804939
21
200.960491
0
LINE
8
boundary
62
5
39
2
10
81.804939
20
200.960491
11
80.994482
21
201.594163
0
LINE
8
boundary
62
5
39
2
10
80.994482
20
201.594163
11
80.364892
21
202.043022
0
LINE
8
boundary
62
5
39
2
10
80.364892
20
202.043022
11
79.864372
21
202.472747
0
LINE
8
boundary
62
5
39
2
10
79.864372
20
202.472747
11
79.411517
21
202.839552
0
LINE
8
boundary
62
5
39
2
10
79.411517
20
202.839552
11
78.981894
21
203.149354
0
LINE
8
boundary
62
5
39
2
10
78.981894
20
203.149354
11
78.259108
21
203.733649
0
LINE
8
boundary
62
5
39
2
10
78.259108
20
203.733649
11
77.804797
21
204.110465
0
LINE
8
boundary
62
5
39
2
10
77.804797
20
204.110465
11
77.276942
21
204.486431
0
LINE
8
boundary
62
5
39
2
10
77.276942
20
204.486431
11
76.474047
21
205.121632
0
LINE
8
boundary
62
5
39
2
10
76.474047
20
205.121632
11
75.866845
21
205.548069
0
LINE
8
boundary
62
5
39
2
10
75.866845
20
205.548069
11
75.343939
21
206.000137
0
LINE
8
boundary
62
5
39
2
10
75.343939
20
206.000137
11
74.936521
21
206.331078
0
LINE
8
boundary
62
5
39
2
10
74.936521
20
206.331078
11
74.473629
21
206.664314
0
LINE
8
boundary
62
5
39
2
10
74.473629
20
206.664314
11
73.754060
21
207.248293
0
LINE
8
boundary
62
5
39
2
10
73.754060
20
207.248293
11
73.300013
21
207.616106
0
LINE
8
boundary
62
5
39
2
10
73.300013
20
207.616106
11
72.752426
21
208.008042
0
LINE
8
boundary
62
5
39
2
10
72.752426
20
208.008042
11
71.953613
21
208.649592
0
LINE
8
boundary
62
5
39
2
10
71.953613
20
208.649592
11
71.368706
21
209.053764
0
LINE
8
boundary
62
5
39
2
10
71.368706
20
209.053764
11
70.823504
21
209.528819
0
LINE
8
boundary
62
5
39
2
10
70.823504
20
209.528819
11
70.045739
21
210.117283
0
LINE
8
boundary
62
5
39
2
10
70.045739
20
210.117283
11
69.252148
21
210.765275
0
LINE
8
boundary
62
5
39
2
10
69.252148
20
210.765275
11
68.797615
21
211.130284
0
LINE
8
boundary
62
5
39
2
10
68.797615
20
211.130284
11
68.227911
21
211.568117
0
LINE
8
boundary
62
5
39
2
10
68.227911
20
211.568117
11
67.567304
21
212.150284
0
LINE
8
boundary
62
5
39
2
10
67.567304
20
212.150284
11
66.901209
21
212.581884
0
LINE
8
boundary
62
5
39
2
10
66.901209
20
212.581884
11
66.303071
21
213.057899
0
LINE
8
boundary
62
5
39
2
10
66.303071
20
213.057899
11
65.552757
21
213.620543
0
LINE
8
boundary
62
5
39
2
10
65.552757
20
213.620543
11
64.748240
21
214.278034
0
LINE
8
boundary
62
5
39
2
10
64.748240
20
214.278034
11
64.226182
21
214.687031
0
LINE
8
boundary
62
5
39
2
10
64.226182
20
214.687031
11
63.620521
21
215.156107
0
LINE
8
boundary
62
5
39
2
10
63.620521
20
215.156107
11
63.080744
21
215.641811
0
LINE
8
boundary
62
5
39
2
10
63.080744
20
215.641811
11
62.659333
21
215.939777
0
LINE
8
boundary
62
5
39
2
10
62.659333
20
215.939777
11
62.225913
21
216.215332
0
LINE
8
boundary
62
5
39
2
10
62.225913
20
216.215332
11
61.782638
21
216.584995
0
LINE
8
boundary
62
5
39
2
10
61.782638
20
216.584995
11
61.058631
21
217.124234
0
LINE
8
boundary
62
5
39
2
10
61.058631
20
217.124234
11
60.652529
21
217.465360
0
LINE
8
boundary
62
5
39
2
10
60.652529
20
217.465360
11
60.246914
21
217.791979
0
LINE
8
boundary
62
5
39
2
10
60.246914
20
217.791979
11
59.717165
21
218.193382
0
LINE
8
boundary
62
5
39
2
10
59.717165
20
218.193382
11
59.108711
21
218.640358
0
LINE
8
boundary
62
5
39
2
10
59.108711
20
218.640358
11
58.514462
21
219.133331
0
LINE
8
boundary
62
5
39
2
10
58.514462
20
219.133331
11
57.719425
21
219.476151
0
LINE
8
boundary
62
5
39
2
10
57.719425
20
219.476151
11
56.705401
21
219.926506
0
LINE
8
boundary
62
5
39
2
10
56.705401
20
219.926506
11
56.132096
21
220.205526
0
LINE
8
boundary
62
5
39
2
10
56.132096
20
220.205526
11
55.327248
21
220.520469
0
LINE
8
boundary
62
5
39
2
10
55.327248
20
220.520469
11
54.688178
21
220.746410
0
LINE
8
boundary
62
5
39
2
10
54.688178
20
220.746410
11
53.871879
21
220.989511
0
LINE
8
boundary
62
5
39
2
10
53.871879
20
220.989511
11
53.345981
21
221.136728
0
LINE
8
boundary
62
5
39
2
10
53.345981
20
221.136728
11
52.741770
21
221.321742
0
LINE
8
boundary
62
5
39
2
10
52.741770
20
221.321742
11
51.834281
21
221.595791
0
LINE
8
boundary
62
5
39
2
10
51.834281
20
221.595791
11
51.177068
21
221.722040
0
LINE
8
boundary
62
5
39
2
10
51.177068
20
221.722040
11
50.481554
21
221.820713
0
LINE
8
boundary
62
5
39
2
10
50.481554
20
221.820713
11
49.613775
21
221.920586
0
LINE
8
boundary
62
5
39
2
10
49.613775
20
221.920586
11
48.951776
21
221.987764
0
LINE
8
boundary
62
5
39
2
10
48.951776
20
221.987764
11
48.221336
21
222.048976
0
LINE
8
boundary
62
5
39
2
10
48.221336
20
222.048976
11
47.531550
21
222.079674
0
LINE
8
boundary
62
5
39
2
10
47.531550
20
222.079674
11
46.633977
21
222.102312
0
LINE
8
boundary
62
5
39
2
10
46.633977
20
222.102312
11
45.961120
21
222.104630
0
LINE
8
boundary
62
5
39
2
10
45.961120
20
222.104630
11
45.277051
21
222.080408
0
LINE
8
boundary
62
5
39
2
10
45.277051
20
222.080408
11
44.420779
21
222.030776
0
LINE
8
boundary
62
5
39
2
10
44.420779
20
222.030776
11
43.700903
21
221.977606
0
LINE
8
boundary
62
5
39
2
10
43.700903
20
221.977606
11
42.905853
21
221.890864
0
LINE
8
boundary
62
5
39
2
10
42.905853
20
221.890864
11
42.155243
21
221.793936
0
LINE
8
boundary
62
5
39
2
10
42.155243
20
221.793936
11
41.440685
21
221.699206
0
LINE
8
boundary
62
5
39
2
10
41.440685
20
221.699206
11
40.537674
21
221.461023
0
LINE
8
boundary
62
5
39
2
10
40.537674
20
221.461023
11
40.029245
21
221.301897
0
LINE
8
boundary
62
5
39
2
10
40.029245
20
221.301897
11
39.180470
21
221.059107
0
LINE
8
boundary
62
5
39
2
10
39.180470
20
221.059107
11
38.344609
21
220.800295
0
LINE
8
boundary
62
5
39
2
10
38.344609
20
220.800295
11
37.728580
21
220.551852
0
LINE
8
boundary
62
5
39
2
10
37.728580
20
220.551852
11
37.164491
21
220.297177
0
LINE
8
boundary
62
5
39
2
10
37.164491
20
220.297177
11
36.473584
21
219.863920
0
LINE
8
boundary
62
5
39
2
10
36.473584
20
219.863920
11
35.790144
21
219.522514
0
LINE
8
boundary
62
5
39
2
10
35.790144
20
219.522514
11
35.028069
21
219.133331
0
LINE
8
boundary
62
5
39
2
10
35.028069
20
219.133331
11
34.114473
21
218.583649
0
LINE
8
boundary
62
5
39
2
10
34.114473
20
218.583649
11
33.529928
21
218.294037
0
LINE
8
boundary
62
5
39
2
10
33.529928
20
218.294037
11
32.901680
21
217.969497
0
LINE
8
boundary
62
5
39
2
10
32.901680
20
217.969497
11
32.399817
21
217.659468
0
LINE
8
boundary
62
5
39
2
10
32.399817
20
217.659468
11
31.915821
21
217.378407
0
LINE
8
boundary
62
5
39
2
10
31.915821
20
217.378407
11
31.269709
21
217.069346
0
LINE
8
boundary
62
5
39
2
10
31.269709
20
217.069346
11
30.768773
21
216.805651
0
LINE
8
boundary
62
5
39
2
10
30.768773
20
216.805651
11
30.139602
21
216.414309
0
LINE
8
boundary
62
5
39
2
10
30.139602
20
216.414309
11
29.502068
21
216.066070
0
LINE
8
boundary
62
5
39
2
10
29.502068
20
216.066070
11
29.009494
21
215.842709
0
LINE
8
boundary
62
5
39
2
10
29.009494
20
215.842709
11
28.313931
21
215.424438
0
LINE
8
boundary
62
5
39
2
10
28.313931
20
215.424438
11
27.504677
21
214.958562
0
LINE
8
boundary
62
5
39
2
10
27.504677
20
214.958562
11
27.011133
21
214.740197
0
LINE
8
boundary
62
5
39
2
10
27.011133
20
214.740197
11
26.496943
21
214.477971
0
LINE
8
boundary
62
5
39
2
10
26.496943
20
214.477971
11
25.619170
21
213.922982
0
LINE
8
boundary
62
5
39
2
10
25.619170
20
213.922982
11
25.141098
21
213.669917
0
LINE
8
boundary
62
5
39
2
10
25.141098
20
213.669917
11
24.669027
21
213.473848
0
LINE
8
boundary
62
5
39
2
10
24.669027
20
213.473848
11
23.878132
21
212.982416
0
LINE
8
boundary
62
5
39
2
10
23.878132
20
212.982416
11
23.358949
21
212.680080
0
LINE
8
boundary
62
5
39
2
10
23.358949
20
212.680080
11
22.380238
21
212.150284
0
LINE
8
boundary
62
5
39
2
10
22.380238
20
212.150284
11
21.695655
21
211.729642
0
LINE
8
boundary
62
5
39
2
10
21.695655
20
211.729642
11
21.098734
21
211.415206
0
LINE
8
boundary
62
5
39
2
10
21.098734
20
211.415206
11
20.259146
21
210.986444
0
LINE
8
boundary
62
5
39
2
10
20.259146
20
210.986444
11
19.385829
21
210.458786
0
LINE
8
boundary
62
5
39
2
10
19.385829
20
210.458786
11
18.838519
21
210.181048
0
LINE
8
boundary
62
5
39
2
10
18.838519
20
210.181048
11
18.137032
21
209.822604
0
LINE
8
boundary
62
5
39
2
10
18.137032
20
209.822604
11
17.190886
21
209.254688
0
LINE
8
boundary
62
5
39
2
10
17.190886
20
209.254688
11
16.578301
21
208.956146
0
LINE
8
boundary
62
5
39
2
10
16.578301
20
208.956146
11
16.006013
21
208.658758
0
LINE
8
boundary
62
5
39
2
10
16.006013
20
208.658758
11
15.448191
21
208.314132
0
LINE
8
boundary
62
5
39
2
10
15.448191
20
208.314132
11
14.990336
21
208.049082
0
LINE
8
boundary
62
5
39
2
10
14.990336
20
208.049082
11
14.318086
21
207.729507
0
LINE
8
boundary
62
5
39
2
10
14.318086
20
207.729507
11
13.634305
21
207.265677
0
LINE
8
boundary
62
5
39
2
10
13.634305
20
207.265677
11
13.187973
21
206.955261
0
LINE
8
boundary
62
5
39
2
10
13.187973
20
206.955261
11
12.370567
21
206.331078
0
LINE
8
boundary
62
5
39
2
10
12.370567
20
206.331078
11
11.701183
21
205.671118
0
LINE
8
boundary
62
5
39
2
10
11.701183
20
205.671118
11
11.138642
21
205.167232
0
LINE
8
boundary
62
5
39
2
10
11.138642
20
205.167232
11
10.585582
21
204.493293
0
LINE
8
boundary
62
5
39
2
10
10.585582
20
204.493293
11
10.140025
21
204.003392
0
LINE
8
boundary
62
5
39
2
10
10.140025
20
204.003392
11
9.797649
21
203.565401
0
LINE
8
boundary
62
5
39
2
10
9.797649
20
203.565401
11
9.487746
21
203.093323
0
LINE
8
boundary
62
5
39
2
10
9.487746
20
203.093323
11
8.970269
21
202.321122
0
LINE
8
boundary
62
5
39
2
10
8.970269
20
202.321122
11
8.667540
21
201.911924
0
LINE
8
boundary
62
5
39
2
10
8.667540
20
201.911924
11
8.416502
21
201.405129
0
LINE
8
boundary
62
5
39
2
10
8.416502
20
201.405129
11
8.209258
21
200.887437
0
LINE
8
boundary
62
5
39
2
10
8.209258
20
200.887437
11
7.800997
21
200.021085
0
LINE
8
boundary
62
5
39
2
10
7.800997
20
200.021085
11
7.537434
21
199.543525
0
LINE
8
boundary
62
5
39
2
10
7.537434
20
199.543525
11
7.274356
21
198.583822
0
LINE
8
boundary
62
5
39
2
10
7.274356
20
198.583822
11
7.099924
21
197.865020
0
LINE
8
boundary
62
5
39
2
10
7.099924
20
197.865020
11
6.920613
21
197.020340
0
LINE
8
boundary
62
5
39
2
10
6.920613
20
197.020340
11
6.842298
21
196.492860
0
LINE
8
boundary
62
5
39
2
10
6.842298
20
196.492860
11
6.747155
21
195.856499
0
LINE
8
boundary
62
5
39
2
10
6.747155
20
195.856499
11
6.711500
21
195.327544
0
LINE
8
boundary
62
5
39
2
10
6.711500
20
195.327544
11
6.667500
21
194.692653
0
LINE
8
boundary
62
5
39
2
10
6.667500
20
194.692653
11
6.667566
21
194.006946
0
LINE
8
boundary
62
5
39
2
10
6.667566
20
194.006946
11
6.667664
21
193.050601
0
LINE
8
boundary
62
5
39
2
10
6.667664
20
193.050601
11
6.667730
21
192.364973
0
LINE
8
boundary
62
5
39
2
10
6.667730
20
192.364973
11
6.667795
21
191.679490
0
LINE
8
boundary
62
5
39
2
10
6.667795
20
191.679490
11
6.667889
21
190.722690
0
LINE
8
boundary
62
5
39
2
10
6.667889
20
190.722690
11
6.667957
21
190.037287
0
LINE
8
boundary
62
5
39
2
10
6.667957
20
190.037287
11
6.668022
21
189.352034
0
LINE
8
boundary
62
5
39
2
10
6.668022
20
189.352034
11
6.668118
21
188.394775
0
LINE
8
boundary
62
5
39
2
10
6.668118
20
188.394775
11
6.668185
21
187.709601
0
LINE
8
boundary
62
5
39
2
10
6.668185
20
187.709601
11
6.668249
21
187.024582
0
LINE
8
boundary
62
5
39
2
10
6.668249
20
187.024582
11
6.668345
21
186.066859
0
LINE
8
boundary
62
5
39
2
10
6.668345
20
186.066859
11
6.668412
21
185.381921
0
LINE
8
boundary
62
5
39
2
10
6.668412
20
185.381921
11
6.668476
21
184.697125
0
LINE
8
boundary
62
5
39
2
10
6.668476
20
184.697125
11
6.668572
21
183.738955
0
LINE
8
boundary
62
5
39
2
10
6.668572
20
183.738955
11
6.668639
21
183.054241
0
LINE
8
boundary
62
5
39
2
10
6.668639
20
183.054241
11
6.668706
21
182.369674
0
LINE
8
boundary
62
5
39
2
10
6.668706
20
182.369674
11
6.668799
21
181.411041
0
LINE
8
boundary
62
5
39
2
10
6.668799
20
181.411041
11
6.668868
21
180.726554
0
LINE
8
boundary
62
5
39
2
10
6.668868
20
180.726554
11
6.668933
21
180.042217
0
LINE
8
boundary
62
5
39
2
10
6.668933
20
180.042217
11
6.669029
21
179.083126
0
LINE
8
boundary
62
5
39
2
10
6.669029
20
179.083126
11
6.669094
21
178.398869
0
LINE
8
boundary
62
5
39
2
10
6.669094
20
178.398869
11
6.669160
21
177.714765
0
LINE
8
boundary
62
5
39
2
10
6.669160
20
177.714765
11
6.669256
21
176.755212
0
LINE
8
boundary
62
5
39
2
10
6.669256
20
176.755212
11
6.669323
21
176.071188
0
LINE
8
boundary
62
5
39
2
10
6.669323
20
176.071188
11
6.669390
21
175.387307
0
LINE
8
boundary
62
5
39
2
10
6.669390
20
175.387307
11
6.669483
21
174.427302
0
LINE
8
boundary
62
5
39
2
10
6.669483
20
174.427302
11
6.669550
21
173.743502
0
LINE
8
boundary
62
5
39
2
10
6.669550
20
173.743502
11
6.669621
21
173.059855
0
LINE
8
boundary
62
5
39
2
10
6.669621
20
173.059855
11
6.669683
21
172.099416
0
LINE
8
boundary
62
5
39
2
10
6.669683
20
172.099416
11
6.669696
21
171.415816
0
LINE
8
boundary
62
5
39
2
10
6.669696
20
171.415816
11
6.669700
21
170.732240
0
LINE
8
boundary
62
5
39
2
10
6.669700
20
170.732240
11
6.669707
21
169.771705
0
LINE
8
boundary
62
5
39
2
10
6.669707
20
169.771705
11
6.669712
21
169.088136
0
LINE
8
boundary
62
5
39
2
10
6.669712
20
169.088136
11
6.669715
21
168.404572
0
LINE
8
boundary
62
5
39
2
10
6.669715
20
168.404572
11
6.669721
21
167.444002
0
LINE
8
boundary
62
5
39
2
10
6.669721
20
167.444002
11
6.669726
21
166.760450
0
LINE
8
boundary
62
5
39
2
10
6.669726
20
166.760450
11
6.669729
21
166.076908
0
LINE
8
boundary
62
5
39
2
10
6.669729
20
166.076908
11
6.669735
21
165.116305
0
LINE
8
boundary
62
5
39
2
10
6.669735
20
165.116305
11
6.669742
21
164.432767
0
LINE
8
boundary
62
5
39
2
10
6.669742
20
164.432767
11
6.669744
21
163.749237
0
LINE
8
boundary
62
5
39
2
10
6.669744
20
163.749237
11
6.669752
21
162.788604
0
LINE
8
boundary
62
5
39
2
10
6.669752
20
162.788604
11
6.669756
21
162.105080
0
LINE
8
boundary
62
5
39
2
10
6.669756
20
162.105080
11
6.669761
21
161.421571
0
LINE
8
boundary
62
5
39
2
10
6.669761
20
161.421571
11
6.669766
21
160.460901
0
LINE
8
boundary
62
5
39
2
10
6.669766
20
160.460901
11
6.669772
21
159.777397
0
LINE
8
boundary
62
5
39
2
10
6.669772
20
159.777397
11
6.669775
21
159.093905
0
LINE
8
boundary
62
5
39
2
10
6.669775
20
159.093905
11
6.669781
21
158.133202
0
LINE
8
boundary
62
5
39
2
10
6.669781
20
158.133202
11
6.669786
21
157.449717
0
LINE
8
boundary
62
5
39
2
10
6.669786
20
157.449717
11
6.669790
21
156.766240
0
LINE
8
boundary
62
5
39
2
10
6.669790
20
156.766240
11
6.669795
21
155.805503
0
LINE
8
boundary
62
5
39
2
10
6.669795
20
155.805503
11
6.669802
21
155.122031
0
LINE
8
boundary
62
5
39
2
10
6.669802
20
155.122031
11
6.669864
21
154.438638
0
LINE
8
boundary
62
5
39
2
10
6.669864
20
154.438638
11
6.669969
21
153.477654
0
LINE
8
boundary
62
5
39
2
10
6.669969
20
153.477654
11
6.670051
21
152.794348
0
LINE
8
boundary
62
5
39
2
10
6.670051
20
152.794348
11
6.670133
21
152.111223
0
LINE
8
boundary
62
5
39
2
10
6.670133
20
152.111223
11
6.670255
21
151.149687
0
LINE
8
boundary
62
5
39
2
10
6.670255
20
151.149687
11
6.670335
21
150.466662
0
LINE
8
boundary
62
5
39
2
10
6.670335
20
150.466662
11
6.670417
21
149.783823
0
LINE
8
boundary
62
5
39
2
10
6.670417
20
149.783823
11
6.670535
21
148.821718
0
LINE
8
boundary
62
5
39
2
10
6.670535
20
148.821718
11
6.670618
21
148.138978
0
LINE
8
boundary
62
5
39
2
10
6.670618
20
148.138978
11
6.670702
21
147.456422
0
LINE
8
boundary
62
5
39
2
10
6.670702
20
147.456422
11
6.670819
21
146.493752
0
LINE
8
boundary
62
5
39
2
10
6.670819
20
146.493752
11
6.670902
21
145.811295
0
LINE
8
boundary
62
5
39
2
10
6.670902
20
145.811295
11
6.670985
21
145.129019
0
LINE
8
boundary
62
5
39
2
10
6.670985
20
145.129019
11
6.671104
21
144.165786
0
LINE
8
boundary
62
5
39
2
10
6.671104
20
144.165786
11
6.671186
21
143.483609
0
LINE
8
boundary
62
5
39
2
10
6.671186
20
143.483609
11
6.671267
21
142.801618
0
LINE
8
boundary
62
5
39
2
10
6.671267
20
142.801618
11
6.671387
21
141.837821
0
LINE
8
boundary
62
5
39
2
10
6.671387
20
141.837821
11
6.671469
21
141.155929
0
LINE
8
boundary
62
5
39
2
10
6.671469
20
141.155929
11
6.671552
21
140.474217
0
LINE
8
boundary
62
5
39
2
10
6.671552
20
140.474217
11
6.671672
21
139.509854
0
LINE
8
boundary
62
5
39
2
10
6.671672
20
139.509854
11
6.671753
21
138.828243
0
LINE
8
boundary
62
5
39
2
10
6.671753
20
138.828243
11
6.671834
21
138.146815
0
LINE
8
boundary
62
5
39
2
10
6.671834
20
138.146815
11
6.671916
21
137.181918
0
LINE
8
boundary
62
5
39
2
10
6.671916
20
137.181918
11
6.671948
21
136.500560
0
LINE
8
boundary
62
5
39
2
10
6.671948
20
136.500560
11
6.671950
21
135.819247
0
LINE
8
boundary
62
5
39
2
10
6.671950
20
135.819247
11
6.671958
21
134.854184
0
LINE
8
boundary
62
5
39
2
10
6.671958
20
134.854184
11
6.671963
21
134.172877
0
LINE
8
boundary
62
5
39
2
10
6.671963
20
134.172877
11
6.671970
21
133.491579
0
LINE
8
boundary
62
5
39
2
10
6.671970
20
133.491579
11
6.671976
21
132.526483
0
LINE
8
boundary
62
5
39
2
10
6.671976
20
132.526483
11
6.671979
21
131.845192
0
LINE
8
boundary
62
5
39
2
10
6.671979
20
131.845192
11
6.671984
21
131.163913
0
LINE
8
boundary
62
5
39
2
10
6.671984
20
131.163913
11
6.671990
21
130.198780
0
LINE
8
boundary
62
5
39
2
10
6.671990
20
130.198780
11
6.671995
21
129.517507
0
LINE
8
boundary
62
5
39
2
10
6.671995
20
129.517507
11
6.672007
21
128.836253
0
LINE
8
boundary
62
5
39
2
10
6.672007
20
128.836253
11
6.672018
21
127.871073
0
LINE
8
boundary
62
5
39
2
10
6.672018
20
127.871073
11
6.672023
21
127.189824
0
LINE
8
boundary
62
5
39
2
10
6.672023
20
127.189824
11
6.672027
21
126.508588
0
LINE
8
boundary
62
5
39
2
10
6.672027
20
126.508588
11
6.672033
21
125.543372
0
LINE
8
boundary
62
5
39
2
10
6.672033
20
125.543372
11
6.672038
21
124.862141
0
LINE
8
boundary
62
5
39
2
10
6.672038
20
124.862141
11
6.672044
21
124.180921
0
LINE
8
boundary
62
5
39
2
10
6.672044
20
124.180921
11
6.672050
21
123.215670
0
LINE
8
boundary
62
5
39
2
10
6.672050
20
123.215670
11
6.672054
21
122.534457
0
LINE
8
boundary
62
5
39
2
10
6.672054
20
122.534457
11
6.672059
21
121.853255
0
LINE
8
boundary
62
5
39
2
10
6.672059
20
121.853255
11
6.672065
21
120.887969
0
LINE
8
boundary
62
5
39
2
10
6.672065
20
120.887969
11
6.672069
21
120.206773
0
LINE
8
boundary
62
5
39
2
10
6.672069
20
120.206773
11
6.672073
21
119.525588
0
LINE
8
boundary
62
5
39
2
10
6.672073
20
119.525588
11
6.672079
21
118.560268
0
LINE
8
boundary
62
5
39
2
10
6.672079
20
118.560268
11
6.672085
21
117.879089
0
LINE
8
boundary
62
5
39
2
10
6.672085
20
117.879089
11
6.672088
21
117.197922
0
LINE
8
boundary
62
5
39
2
10
6.672088
20
117.197922
11
6.672096
21
116.232567
0
LINE
8
boundary
62
5
39
2
10
6.672096
20
116.232567
11
6.672099
21
115.551406
0
LINE
8
boundary
62
5
39
2
10
6.672099
20
115.551406
11
6.672105
21
114.870255
0
LINE
8
boundary
62
5
39
2
10
6.672105
20
114.870255
11
6.672111
21
113.904866
0
LINE
8
boundary
62
5
39
2
10
6.672111
20
113.904866
11
6.672115
21
113.223722
0
LINE
8
boundary
62
5
39
2
10
6.672115
20
113.223722
11
6.672119
21
112.542589
0
LINE
8
boundary
62
5
39
2
10
6.672119
20
112.542589
11
6.672125
21
111.577165
0
LINE
8
boundary
62
5
39
2
10
6.672125
20
111.577165
11
6.672131
21
110.896038
0
LINE
8
boundary
62
5
39
2
10
6.672131
20
110.896038
11
6.672134
21
110.214922
0
LINE
8
boundary
62
5
39
2
10
6.672134
20
110.214922
11
6.672140
21
109.249463
0
LINE
8
boundary
62
5
39
2
10
6.672140
20
109.249463
11
6.672145
21
108.568354
0
LINE
8
boundary
62
5
39
2
10
6.672145
20
108.568354
11
6.675292
21
107.891163
0
LINE
8
boundary
62
5
39
2
10
6.675292
20
107.891163
11
6.677502
21
106.915676
0
LINE
8
boundary
62
5
39
2
10
6.677502
20
106.915676
11
6.677514
21
106.240671
0
LINE
8
boundary
62
5
39
2
10
6.677514
20
106.240671
11
6.677519
21
105.565685
0
LINE
8
boundary
62
5
39
2
10
6.677519
20
105.565685
11
6.677525
21
104.587965
0
LINE
8
boundary
62
5
39
2
10
6.677525
20
104.587965
11
6.677531
21
103.912986
0
LINE
8
boundary
62
5
39
2
10
6.677531
20
103.912986
11
6.677534
21
103.238017
0
LINE
8
boundary
62
5
39
2
10
6.677534
20
103.238017
11
6.677573
21
102.260241
0
LINE
8
boundary
62
5
39
2
10
6.677573
20
102.260241
11
6.677620
21
101.585302
0
LINE
8
boundary
62
5
39
2
10
6.677620
20
101.585302
11
6.677752
21
100.910555
0
LINE
8
boundary
62
5
39
2
10
6.677752
20
100.910555
11
6.677949
21
99.932203
0
LINE
8
boundary
62
5
39
2
10
6.677949
20
99.932203
11
6.678083
21
99.257619
0
LINE
8
boundary
62
5
39
2
10
6.678083
20
99.257619
11
6.678217
21
98.583318
0
LINE
8
boundary
62
5
39
2
10
6.678217
20
98.583318
11
6.678411
21
97.604072
0
LINE
8
boundary
62
5
39
2
10
6.678411
20
97.604072
11
6.678544
21
96.929934
0
LINE
8
boundary
62
5
39
2
10
6.678544
20
96.929934
11
6.678678
21
96.256081
0
LINE
8
boundary
62
5
39
2
10
6.678678
20
96.256081
11
6.678873
21
95.275941
0
LINE
8
boundary
62
5
39
2
10
6.678873
20
95.275941
11
6.679007
21
94.602251
0
LINE
8
boundary
62
5
39
2
10
6.679007
20
94.602251
11
6.679140
21
93.928845
0
LINE
8
boundary
62
5
39
2
10
6.679140
20
93.928845
11
6.679337
21
92.947810
0
LINE
8
boundary
62
5
39
2
10
6.679337
20
92.947810
11
6.679469
21
92.274567
0
LINE
8
boundary
62
5
39
2
10
6.679469
20
92.274567
11
6.679459
21
91.601401
0
LINE
8
boundary
62
5
39
2
10
6.679459
20
91.601401
11
6.679534
21
90.619983
0
LINE
8
boundary
62
5
39
2
10
6.679534
20
90.619983
11
6.679651
21
89.946884
0
LINE
8
boundary
62
5
39
2
10
6.679651
20
89.946884
11
6.679655
21
89.273969
0
LINE
8
boundary
62
5
39
2
10
6.679655
20
89.273969
11
6.679661
21
88.292110
0
LINE
8
boundary
62
5
39
2
10
6.679661
20
88.292110
11
6.679663
21
87.619199
0
LINE
8
boundary
62
5
39
2
10
6.679663
20
87.619199
11
6.679670
21
86.946303
0
LINE
8
boundary
62
5
39
2
10
6.679670
20
86.946303
11
6.679679
21
85.964404
0
LINE
8
boundary
62
5
39
2
10
6.679679
20
85.964404
11
6.679684
21
85.291516
0
LINE
8
boundary
62
5
39
2
10
6.679684
20
85.291516
11
6.679688
21
84.618638
0
LINE
8
boundary
62
5
39
2
10
6.679688
20
84.618638
11
6.679694
21
83.636703
0
LINE
8
boundary
62
5
39
2
10
6.679694
20
83.636703
11
6.679699
21
82.963833
0
LINE
8
boundary
62
5
39
2
10
6.679699
20
82.963833
11
6.679702
21
82.290968
0
LINE
8
boundary
62
5
39
2
10
6.679702
20
82.290968
11
6.679707
21
81.309005
0
LINE
8
boundary
62
5
39
2
10
6.679707
20
81.309005
11
6.679713
21
80.636146
0
LINE
8
boundary
62
5
39
2
10
6.679713
20
80.636146
11
6.679715
21
79.963300
0
LINE
8
boundary
62
5
39
2
10
6.679715
20
79.963300
11
6.679721
21
78.981303
0
LINE
8
boundary
62
5
39
2
10
6.679721
20
78.981303
11
6.679729
21
78.308463
0
LINE
8
boundary
62
5
39
2
10
6.679729
20
78.308463
11
6.679738
21
77.635639
0
LINE
8
boundary
62
5
39
2
10
6.679738
20
77.635639
11
6.679732
21
76.653614
0
LINE
8
boundary
62
5
39
2
10
6.679732
20
76.653614
11
6.679718
21
75.980780
0
LINE
8
boundary
62
5
39
2
10
6.679718
20
75.980780
11
6.679723
21
75.307923
0
LINE
8
boundary
62
5
39
2
10
6.679723
20
75.307923
11
6.679729
21
74.325949
0
LINE
8
boundary
62
5
39
2
10
6.679729
20
74.325949
11
6.679732
21
73.653097
0
LINE
8
boundary
62
5
39
2
10
6.679732
20
73.653097
11
6.679737
21
72.980258
0
LINE
8
boundary
62
5
39
2
10
6.679737
20
72.980258
11
6.679743
21
71.998247
0
LINE
8
boundary
62
5
39
2
10
6.679743
20
71.998247
11
6.679748
21
71.325414
0
LINE
8
boundary
62
5
39
2
10
6.679748
20
71.325414
11
6.679751
21
70.652590
0
LINE
8
boundary
62
5
39
2
10
6.679751
20
70.652590
11
6.679757
21
69.670548
0
LINE
8
boundary
62
5
39
2
10
6.679757
20
69.670548
11
6.679762
21
68.997728
0
LINE
8
boundary
62
5
39
2
10
6.679762
20
68.997728
11
6.679765
21
68.324920
0
LINE
8
boundary
62
5
39
2
10
6.679765
20
68.324920
11
6.679770
21
67.342846
0
LINE
8
boundary
62
5
39
2
10
6.679770
20
67.342846
11
6.679776
21
66.670044
0
LINE
8
boundary
62
5
39
2
10
6.679776
20
66.670044
11
6.679779
21
65.997252
0
LINE
8
boundary
62
5
39
2
10
6.679779
20
65.997252
11
6.679767
21
65.015174
0
LINE
8
boundary
62
5
39
2
10
6.679767
20
65.015174
11
6.679741
21
64.342361
0
LINE
8
boundary
62
5
39
2
10
6.679741
20
64.342361
11
6.679729
21
63.669486
0
LINE
8
boundary
62
5
39
2
10
6.679729
20
63.669486
11
6.679755
21
62.687517
0
LINE
8
boundary
62
5
39
2
10
6.679755
20
62.687517
11
6.679807
21
62.014675
0
LINE
8
boundary
62
5
39
2
10
6.679807
20
62.014675
11
6.679811
21
61.341922
0
LINE
8
boundary
62
5
39
2
10
6.679811
20
61.341922
11
6.679818
21
60.359741
0
LINE
8
boundary
62
5
39
2
10
6.679818
20
60.359741
11
6.679825
21
59.686989
0
LINE
8
boundary
62
5
39
2
10
6.679825
20
59.686989
11
6.679905
21
59.014331
0
LINE
8
boundary
62
5
39
2
10
6.679905
20
59.014331
11
6.680057
21
58.031845
0
LINE
8
boundary
62
5
39
2
10
6.680057
20
58.031845
11
6.680177
21
57.359309
0
LINE
8
boundary
62
5
39
2
10
6.680177
20
57.359309
11
6.680294
21
56.687023
0
LINE
8
boundary
62
5
39
2
10
6.680294
20
56.687023
11
6.680476
21
55.703760
0
LINE
8
boundary
62
5
39
2
10
6.680476
20
55.703760
11
6.680596
21
55.031623
0
LINE
8
boundary
62
5
39
2
10
6.680596
20
55.031623
11
6.680715
21
54.359742
0
LINE
8
boundary
62
5
39
2
10
6.680715
20
54.359742
11
6.680898
21
53.375670
0
LINE
8
boundary
62
5
39
2
10
6.680898
20
53.375670
11
6.681016
21
52.703937
0
LINE
8
boundary
62
5
39
2
10
6.681016
20
52.703937
11
6.681134
21
52.032464
0
LINE
8
boundary
62
5
39
2
10
6.681134
20
52.032464
11
6.681317
21
51.047581
0
LINE
8
boundary
62
5
39
2
10
6.681317
20
51.047581
11
6.681436
21
50.376256
0
LINE
8
boundary
62
5
39
2
10
6.681436
20
50.376256
11
6.681556
21
49.705187
0
LINE
8
boundary
62
5
39
2
10
6.681556
20
49.705187
11
6.681732
21
48.719505
0
LINE
8
boundary
62
5
39
2
10
6.681732
20
48.719505
11
6.681845
21
48.048576
0
LINE
8
boundary
62
5
39
2
10
6.681845
20
48.048576
11
6.681885
21
47.377812
0
LINE
8
boundary
62
5
39
2
10
6.681885
20
47.377812
11
6.681909
21
46.391645
0
LINE
8
boundary
62
5
39
2
10
6.681909
20
46.391645
11
6.681896
21
45.720890
0
LINE
8
boundary
62
5
39
2
10
6.681896
20
45.720890
11
6.681899
21
45.050123
0
LINE
8
boundary
62
5
39
2
10
6.681899
20
45.050123
11
6.687961
21
44.058079
0
LINE
8
boundary
62
5
39
2
10
6.687961
20
44.058079
11
6.696183
21
43.393210
0
LINE
8
boundary
62
5
39
2
10
6.696183
20
43.393210
11
6.768840
21
42.813128
0
LINE
8
boundary
62
5
39
2
10
6.768840
20
42.813128
11
6.840285
21
42.229364
0
LINE
8
boundary
62
5
39
2
10
6.840285
20
42.229364
11
6.980149
21
41.511885
0
LINE
8
boundary
62
5
39
2
10
6.980149
20
41.511885
11
7.144838
21
40.757257
0
LINE
8
boundary
62
5
39
2
10
7.144838
20
40.757257
11
7.259950
21
40.247594
0
LINE
8
boundary
62
5
39
2
10
7.259950
20
40.247594
11
7.426439
21
39.689650
0
LINE
8
boundary
62
5
39
2
10
7.426439
20
39.689650
11
7.683425
21
39.104059
0
LINE
8
boundary
62
5
39
2
10
7.683425
20
39.104059
11
8.103182
21
38.214043
0
LINE
8
boundary
62
5
39
2
10
8.103182
20
38.214043
11
8.369922
21
37.573997
0
LINE
8
boundary
62
5
39
2
10
8.369922
20
37.573997
11
8.667540
21
37.005854
0
LINE
8
boundary
62
5
39
2
10
8.667540
20
37.005854
11
9.048676
21
36.410158
0
LINE
8
boundary
62
5
39
2
10
9.048676
20
36.410158
11
9.416805
21
35.846382
0
LINE
8
boundary
62
5
39
2
10
9.416805
20
35.846382
11
9.731063
21
35.246311
0
LINE
8
boundary
62
5
39
2
10
9.731063
20
35.246311
11
10.268812
21
34.679532
0
LINE
8
boundary
62
5
39
2
10
10.268812
20
34.679532
11
10.715207
21
34.082471
0
LINE
8
boundary
62
5
39
2
10
10.715207
20
34.082471
11
11.252157
21
33.553441
0
LINE
8
boundary
62
5
39
2
10
11.252157
20
33.553441
11
11.853351
21
32.918631
0
LINE
8
boundary
62
5
39
2
10
11.853351
20
32.918631
11
12.348420
21
32.543413
0
LINE
8
boundary
62
5
39
2
10
12.348420
20
32.543413
11
13.187973
21
31.914672
0
LINE
8
boundary
62
5
39
2
10
13.187973
20
31.914672
11
13.941704
21
31.449498
0
LINE
8
boundary
62
5
39
2
10
13.941704
20
31.449498
11
14.825044
21
30.905812
0
LINE
8
boundary
62
5
39
2
10
14.825044
20
30.905812
11
15.277765
21
30.590945
0
LINE
8
boundary
62
5
39
2
10
15.277765
20
30.590945
11
16.078693
21
30.226179
0
LINE
8
boundary
62
5
39
2
10
16.078693
20
30.226179
11
16.578301
21
29.961403
0
LINE
8
boundary
62
5
39
2
10
16.578301
20
29.961403
11
17.046347
21
29.686884
0
LINE
8
boundary
62
5
39
2
10
17.046347
20
29.686884
11
17.560103
21
29.356430
0
LINE
8
boundary
62
5
39
2
10
17.560103
20
29.356430
11
18.262246
21
29.030841
0
LINE
8
boundary
62
5
39
2
10
18.262246
20
29.030841
11
18.838519
21
28.721213
0
LINE
8
boundary
62
5
39
2
10
18.838519
20
28.721213
11
19.570757
21
28.263259
0
LINE
8
boundary
62
5
39
2
10
19.570757
20
28.263259
11
20.279897
21
27.900671
0
LINE
8
boundary
62
5
39
2
10
20.279897
20
27.900671
11
21.098734
21
27.480862
0
LINE
8
boundary
62
5
39
2
10
21.098734
20
27.480862
11
21.713221
21
27.099419
0
LINE
8
boundary
62
5
39
2
10
21.713221
20
27.099419
11
22.228843
21
26.829519
0
LINE
8
boundary
62
5
39
2
10
22.228843
20
26.829519
11
22.869606
21
26.523928
0
LINE
8
boundary
62
5
39
2
10
22.869606
20
26.523928
11
23.358949
21
26.240291
0
LINE
8
boundary
62
5
39
2
10
23.358949
20
26.240291
11
23.853415
21
25.935579
0
LINE
8
boundary
62
5
39
2
10
23.853415
20
25.935579
11
24.489061
21
25.608829
0
LINE
8
boundary
62
5
39
2
10
24.489061
20
25.608829
11
25.071982
21
25.322181
0
LINE
8
boundary
62
5
39
2
10
25.071982
20
25.322181
11
25.619170
21
25.000123
0
LINE
8
boundary
62
5
39
2
10
25.619170
20
25.000123
11
26.432389
21
24.556683
0
LINE
8
boundary
62
5
39
2
10
26.432389
20
24.556683
11
27.060598
21
24.220993
0
LINE
8
boundary
62
5
39
2
10
27.060598
20
24.220993
11
27.879385
21
23.758093
0
LINE
8
boundary
62
5
39
2
10
27.879385
20
23.758093
11
28.703228
21
23.322569
0
LINE
8
boundary
62
5
39
2
10
28.703228
20
23.322569
11
29.561387
21
22.862518
0
LINE
8
boundary
62
5
39
2
10
29.561387
20
22.862518
11
30.139602
21
22.515471
0
LINE
8
boundary
62
5
39
2
10
30.139602
20
22.515471
11
30.877779
21
22.128155
0
LINE
8
boundary
62
5
39
2
10
30.877779
20
22.128155
11
31.778459
21
21.597552
0
LINE
8
boundary
62
5
39
2
10
31.778459
20
21.597552
11
32.234890
21
21.280207
0
LINE
8
boundary
62
5
39
2
10
32.234890
20
21.280207
11
33.033836
21
20.916853
0
LINE
8
boundary
62
5
39
2
10
33.033836
20
20.916853
11
33.529928
21
20.653886
0
LINE
8
boundary
62
5
39
2
10
33.529928
20
20.653886
11
33.999661
21
20.378142
0
LINE
8
boundary
62
5
39
2
10
33.999661
20
20.378142
11
34.513379
21
20.046860
0
LINE
8
boundary
62
5
39
2
10
34.513379
20
20.046860
11
35.216863
21
19.721576
0
LINE
8
boundary
62
5
39
2
10
35.216863
20
19.721576
11
35.790145
21
19.414540
0
LINE
8
boundary
62
5
39
2
10
35.790145
20
19.414540
11
36.530140
21
18.952520
0
LINE
8
boundary
62
5
39
2
10
36.530140
20
18.952520
11
37.229741
21
18.595100
0
LINE
8
boundary
62
5
39
2
10
37.229741
20
18.595100
11
38.050360
21
18.174958
0
LINE
8
boundary
62
5
39
2
10
38.050360
20
18.174958
11
38.671753
21
17.788680
0
LINE
8
boundary
62
5
39
2
10
38.671753
20
17.788680
11
39.180470
21
17.521947
0
LINE
8
boundary
62
5
39
2
10
39.180470
20
17.521947
11
39.824221
21
17.215254
0
LINE
8
boundary
62
5
39
2
10
39.824221
20
17.215254
11
40.310578
21
16.933471
0
LINE
8
boundary
62
5
39
2
10
40.310578
20
16.933471
11
40.810914
21
16.624846
0
LINE
8
boundary
62
5
39
2
10
40.810914
20
16.624846
11
41.440685
21
16.300703
0
LINE
8
boundary
62
5
39
2
10
41.440685
20
16.300703
11
42.026417
21
16.012863
0
LINE
8
boundary
62
5
39
2
10
42.026417
20
16.012863
11
42.570795
21
15.692858
0
LINE
8
boundary
62
5
39
2
10
42.570795
20
15.692858
11
43.388407
21
15.248011
0
LINE
8
boundary
62
5
39
2
10
43.388407
20
15.248011
11
44.013043
21
14.914819
0
LINE
8
boundary
62
5
39
2
10
44.013043
20
14.914819
11
44.831011
21
14.453217
0
LINE
8
boundary
62
5
39
2
10
44.831011
20
14.453217
11
45.659024
21
14.013250
0
LINE
8
boundary
62
5
39
2
10
45.659024
20
14.013250
11
46.510299
21
13.556751
0
LINE
8
boundary
62
5
39
2
10
46.510299
20
13.556751
11
47.091228
21
13.208713
0
LINE
8
boundary
62
5
39
2
10
47.091228
20
13.208713
11
47.832220
21
12.818539
0
LINE
8
boundary
62
5
39
2
10
47.832220
20
12.818539
11
48.731375
21
12.288570
0
LINE
8
boundary
62
5
39
2
10
48.731375
20
12.288570
11
49.189900
21
11.969474
0
LINE
8
boundary
62
5
39
2
10
49.189900
20
11.969474
11
49.988114
21
11.607196
0
LINE
8
boundary
62
5
39
2
10
49.988114
20
11.607196
11
50.481553
21
11.346119
0
LINE
8
boundary
62
5
39
2
10
50.481553
20
11.346119
11
50.953119
21
11.069967
0
LINE
8
boundary
62
5
39
2
10
50.953119
20
11.069967
11
51.467662
21
10.737776
0
LINE
8
boundary
62
5
39
2
10
51.467662
20
10.737776
11
52.172459
21
10.412439
0
LINE
8
boundary
62
5
39
2
10
52.172459
20
10.412439
11
52.741770
21
10.107400
0
LINE
8
boundary
62
5
39
2
10
52.741770
20
10.107400
11
53.486783
21
9.641794
0
LINE
8
boundary
62
5
39
2
10
53.486783
20
9.641794
11
54.179987
21
9.288022
0
LINE
8
boundary
62
5
39
2
10
54.179987
20
9.288022
11
55.001987
21
8.869485
0
LINE
8
boundary
62
5
39
2
10
55.001987
20
8.869485
11
55.648749
21
8.477948
0
LINE
8
boundary
62
5
39
2
10
55.648749
20
8.477948
11
56.132096
21
8.242797
0
LINE
8
boundary
62
5
39
2
10
56.132096
20
8.242797
11
56.652850
21
8.094321
0
LINE
8
boundary
62
5
39
2
10
56.652850
20
8.094321
11
57.262204
21
7.898332
0
LINE
8
boundary
62
5
39
2
10
57.262204
20
7.898332
11
57.779747
21
7.765006
0
LINE
8
boundary
62
5
39
2
10
57.779747
20
7.765006
11
58.392313
21
7.600998
0
LINE
8
boundary
62
5
39
2
10
58.392313
20
7.600998
11
59.222491
21
7.314102
0
LINE
8
boundary
62
5
39
2
10
59.222491
20
7.314102
11
60.372032
21
7.110085
0
LINE
8
boundary
62
5
39
2
10
60.372032
20
7.110085
11
61.096397
21
7.013063
0
LINE
8
boundary
62
5
39
2
10
61.096397
20
7.013063
11
61.782638
21
6.930257
0
LINE
8
boundary
62
5
39
2
10
61.782638
20
6.930257
11
62.642606
21
6.848419
0
LINE
8
boundary
62
5
39
2
10
62.642606
20
6.848419
11
63.311250
21
6.790386
0
LINE
8
boundary
62
5
39
2
10
63.311250
20
6.790386
11
64.042854
21
6.737506
0
LINE
8
boundary
62
5
39
2
10
64.042854
20
6.737506
11
64.737913
21
6.706632
0
LINE
8
boundary
62
5
39
2
10
64.737913
20
6.706632
11
65.628932
21
6.678240
0
LINE
8
boundary
62
5
39
2
10
65.628932
20
6.678240
11
66.303071
21
6.667500
0
LINE
8
boundary
62
5
39
2
10
66.303071
20
6.667500
11
66.978439
21
6.680556
0
LINE
8
boundary
62
5
39
2
10
66.978439
20
6.680556
11
67.864030
21
6.713133
0
LINE
8
boundary
62
5
39
2
10
67.864030
20
6.713133
11
68.563288
21
6.748341
0
LINE
8
boundary
62
5
39
2
10
68.563288
20
6.748341
11
69.301858
21
6.805914
0
LINE
8
boundary
62
5
39
2
10
69.301858
20
6.805914
11
69.943233
21
6.864477
0
LINE
8
boundary
62
5
39
2
10
69.943233
20
6.864477
11
70.457415
21
6.915731
0
LINE
8
boundary
62
5
39
2
10
70.457415
20
6.915731
11
71.206828
21
7.001725
0
LINE
8
boundary
62
5
39
2
10
71.206828
20
7.001725
11
71.953613
21
7.087413
0
LINE
8
boundary
62
5
39
2
10
71.953613
20
7.087413
11
72.985886
21
7.245448
0
LINE
8
boundary
62
5
39
2
10
72.985886
20
7.245448
11
73.810954
21
7.517778
0
LINE
8
boundary
62
5
39
2
10
73.810954
20
7.517778
11
74.701129
21
7.779995
0
LINE
8
boundary
62
5
39
2
10
74.701129
20
7.779995
11
75.343939
21
7.944724
0
LINE
8
boundary
62
5
39
2
10
75.343939
20
7.944724
11
75.935683
21
8.103906
0
LINE
8
boundary
62
5
39
2
10
75.935683
20
8.103906
11
76.474047
21
8.233684
0
LINE
8
boundary
62
5
39
2
10
76.474047
20
8.233684
11
77.156149
21
8.477948
0
LINE
8
boundary
62
5
39
2
10
77.156149
20
8.477948
11
78.127102
21
8.902936
0
LINE
8
boundary
62
5
39
2
10
78.127102
20
8.902936
11
78.734265
21
9.131353
0
LINE
8
boundary
62
5
39
2
10
78.734265
20
9.131353
11
79.631043
21
9.449683
0
LINE
8
boundary
62
5
39
2
10
79.631043
20
9.449683
11
80.515028
21
9.916741
0
LINE
8
boundary
62
5
39
2
10
80.515028
20
9.916741
11
80.994481
21
10.175543
0
LINE
8
boundary
62
5
39
2
10
80.994481
20
10.175543
11
81.501548
21
10.440153
0
LINE
8
boundary
62
5
39
2
10
81.501548
20
10.440153
11
82.124591
21
10.707746
0
LINE
8
boundary
62
5
39
2
10
82.124591
20
10.707746
11
82.733793
21
11.144060
0
LINE
8
boundary
62
5
39
2
10
82.733793
20
11.144060
11
83.254700
21
11.479831
0
LINE
8
boundary
62
5
39
2
10
83.254700
20
11.479831
11
83.975044
21
11.969474
0
LINE
8
boundary
62
5
39
2
10
83.975044
20
11.969474
11
84.384806
21
12.291130
0
LINE
8
boundary
62
5
39
2
10
84.384806
20
12.291130
11
84.909478
21
12.752305
0
LINE
8
boundary
62
5
39
2
10
84.909478
20
12.752305
11
85.444566
21
13.133320
0
LINE
8
boundary
62
5
39
2
10
85.444566
20
13.133320
11
86.025036
21
13.659701
0
LINE
8
boundary
62
5
39
2
10
86.025036
20
13.659701
11
86.645024
21
14.094344
0
LINE
8
boundary
62
5
39
2
10
86.645024
20
14.094344
11
87.377920
21
14.745889
0
LINE
8
boundary
62
5
39
2
10
87.377920
20
14.745889
11
87.775130
21
15.075187
0
LINE
8
boundary
62
5
39
2
10
87.775130
20
15.075187
11
88.249841
21
15.461000
0
LINE
8
boundary
62
5
39
2
10
88.249841
20
15.461000
11
88.905239
21
16.026799
0
LINE
8
boundary
62
5
39
2
10
88.905239
20
16.026799
11
89.636498
21
16.624846
0
LINE
8
boundary
62
5
39
2
10
89.636498
20
16.624846
11
90.035348
21
16.966779
0
LINE
8
boundary
62
5
39
2
10
90.035348
20
16.966779
11
90.531073
21
17.421284
0
LINE
8
boundary
62
5
39
2
10
90.531073
20
17.421284
11
91.029743
21
17.788680
0
LINE
8
boundary
62
5
39
2
10
91.029743
20
17.788680
11
91.644540
21
18.340395
0
LINE
8
boundary
62
5
39
2
10
91.644540
20
18.340395
11
92.295566
21
18.792044
0
LINE
8
boundary
62
5
39
2
10
92.295566
20
18.792044
11
92.997966
21
19.431481
0
LINE
8
boundary
62
5
39
2
10
92.997966
20
19.431481
11
93.425675
21
19.777721
0
LINE
8
boundary
62
5
39
2
10
93.425675
20
19.777721
11
93.842963
21
20.116367
0
LINE
8
boundary
62
5
39
2
10
93.842963
20
20.116367
11
94.555781
21
20.737208
0
LINE
8
boundary
62
5
39
2
10
94.555781
20
20.737208
11
95.219619
21
21.280207
0
LINE
8
boundary
62
5
39
2
10
95.219619
20
21.280207
11
95.685890
21
21.681014
0
LINE
8
boundary
62
5
39
2
10
95.685890
20
21.681014
11
96.144277
21
22.097815
0
LINE
8
boundary
62
5
39
2
10
96.144277
20
22.097815
11
96.611802
21
22.444053
0
LINE
8
boundary
62
5
39
2
10
96.611802
20
22.444053
11
97.263737
21
23.022786
0
LINE
8
boundary
62
5
39
2
10
97.263737
20
23.022786
11
97.710180
21
23.327169
0
LINE
8
boundary
62
5
39
2
10
97.710180
20
23.327169
11
97.946105
21
23.494303
0
LINE
8
annotation
62
1
39
211
10
62.754473
20
42.449800
11
62.754473
21
112.258411
0
LINE
8
annotation
62
1
39
211
10
62.754473
20
112.258411
11
47.235125
21
96.734685
0
LINE
8
frame
62
5
39
2
10
0.000000
20
0.000000
11
215.900000
21
0.000000
0
LINE
8
frame
62
5
39
2
10
215.900000
20
0.000000
11
215.900000
21
279.400000
0
LINE
8
frame
62
5
39
2
10
215.900000
20
279.400000
11
0.000000
21
279.400000
0
LINE
8
frame
62
5
39
2
10
0.000000
20
279.400000
11
0.000000
21
0.000000
0
ENDSEC
0
EOF
