0
SECTION
2
HEADER
9
$ACADVER
1
AC1009
0
ENDSEC
0
SECTION
2
TABLES
0
TABLE
2
VPORT
70
1
0
VPORT
2
ACTIVE
70
0
10
0.0
20
0.0
11
0.0
21
0.0
12
0.0
22
0.0
13
0.0
23
0.0
14
0.0
24
0.0
15
0.0
25
0.0
16
0.0
26
0.0
36
0.0
17
0.0
27
0.0
37
0.0
40
0.0
41
0.0
42
0.0
43
0.0
44
0.0
50
0.0
51
0.0
71
0
72
1000
73
1
74
3
75
0
76
0
77
0
78
0
0
ENDTAB
0
ENDSEC
0
SECTION
2
ENTITIES
0
LINE
8
hole
62
5
39
2
10
67.531017
20
45.140923
11
66.785216
21
44.828200
0
LINE
8
hole
62
5
39
2
10
66.785216
20
44.828200
11
66.113314
21
45.052683
0
LINE
8
hole
62
5
39
2
10
66.113314
20
45.052683
11
65.640702
21
45.571587
0
LINE
8
hole
62
5
39
2
10
65.640702
20
45.571587
11
65.422398
21
46.131080
0
LINE
8
hole
62
5
39
2
10
65.422398
20
46.131080
11
65.464788
21
46.695087
0
LINE
8
hole
62
5
39
2
10
65.464788
20
46.695087
11
65.709058
21
47.150850
0
LINE
8
hole
62
5
39
2
10
65.709058
20
47.150850
11
66.113314
21
47.496084
0
LINE
8
hole
62
5
39
2
10
66.113314
20
47.496084
11
66.704550
21
47.687805
0
LINE
8
hole
62
5
39
2
10
66.704550
20
47.687805
11
67.295785
21
47.562949
0
LINE
8
hole
62
5
39
2
10
67.295785
20
47.562949
11
67.794194
21
47.150850
0
LINE
8
hole
62
5
39
2
10
67.794194
20
47.150850
11
68.120714
21
46.558098
0
LINE
8
hole
62
5
39
2
10
68.120714
20
46.558098
11
68.109199
21
45.965346
0
LINE
8
hole
62
5
39
2
10
68.109199
20
45.965346
11
67.853171
21
45.462228
0
LINE
8
hole
62
5
39
2
10
67.853171
20
45.462228
11
67.531017
21
45.140923
0
LINE
8
hole
62
5
39
2
10
45.018212
20
19.596439
11
44.613265
21
18.929549
0
LINE
8
hole
62
5
39
2
10
44.613265
20
18.929549
11
43.935054
21
18.505718
0
LINE
8
hole
62
5
39
2
10
43.935054
20
18.505718
11
43.416903
21
18.498039
0
LINE
8
hole
62
5
39
2
10
43.416903
20
18.498039
11
42.710527
21
18.930077
0
LINE
8
hole
62
5
39
2
10
42.710527
20
18.930077
11
42.297193
21
19.622717
0
LINE
8
hole
62
5
39
2
10
42.297193
20
19.622717
11
42.291506
21
20.148324
0
LINE
8
hole
62
5
39
2
10
42.291506
20
20.148324
11
42.704036
21
20.814762
0
LINE
8
hole
62
5
39
2
10
42.704036
20
20.814762
11
43.376764
21
21.243975
0
LINE
8
hole
62
5
39
2
10
43.376764
20
21.243975
11
43.926403
21
21.256396
0
LINE
8
hole
62
5
39
2
10
43.926403
20
21.256396
11
44.589482
21
20.845795
0
LINE
8
hole
62
5
39
2
10
44.589482
20
20.845795
11
45.013153
21
20.167469
0
LINE
8
hole
62
5
39
2
10
45.013153
20
20.167469
11
45.032034
21
19.653859
0
LINE
8
hole
62
5
39
2
10
45.032034
20
19.653859
11
45.018212
21
19.596439
0
LINE
8
hole
62
5
39
2
10
33.192462
20
51.796346
11
32.684856
21
51.685975
0
LINE
8
hole
62
5
39
2
10
32.684856
20
51.685975
11
31.954948
21
51.892867
0
LINE
8
hole
62
5
39
2
10
31.954948
20
51.892867
11
31.554596
21
52.235488
0
LINE
8
hole
62
5
39
2
10
31.554596
20
52.235488
11
31.230393
21
52.895646
0
LINE
8
hole
62
5
39
2
10
31.230393
20
52.895646
11
31.284632
21
53.547147
0
LINE
8
hole
62
5
39
2
10
31.284632
20
53.547147
11
31.688849
21
54.263876
0
LINE
8
hole
62
5
39
2
10
31.688849
20
54.263876
11
32.050261
21
54.637351
0
LINE
8
hole
62
5
39
2
10
32.050261
20
54.637351
11
32.544157
21
54.942986
0
LINE
8
hole
62
5
39
2
10
32.544157
20
54.942986
11
33.225377
21
54.993472
0
LINE
8
hole
62
5
39
2
10
33.225377
20
54.993472
11
33.896219
21
54.565821
0
LINE
8
hole
62
5
39
2
10
33.896219
20
54.565821
11
34.293007
21
53.861676
0
LINE
8
hole
62
5
39
2
10
34.293007
20
53.861676
11
34.265861
21
53.207448
0
LINE
8
hole
62
5
39
2
10
34.265861
20
53.207448
11
34.056678
21
52.701561
0
LINE
8
hole
62
5
39
2
10
34.056678
20
52.701561
11
33.595336
21
52.055574
0
LINE
8
hole
62
5
39
2
10
33.595336
20
52.055574
11
33.192462
21
51.796346
0
LINE
8
hole
62
5
39
2
10
78.911643
20
12.374965
11
78.256876
21
11.962681
0
LINE
8
hole
62
5
39
2
10
78.256876
20
11.962681
11
77.678311
21
11.793522
0
LINE
8
hole
62
5
39
2
10
77.678311
20
11.793522
11
77.085223
21
11.761155
0
LINE
8
hole
62
5
39
2
10
77.085223
20
11.761155
11
76.470548
21
11.856973
0
LINE
8
hole
62
5
39
2
10
76.470548
20
11.856973
11
75.940655
21
12.054856
0
LINE
8
hole
62
5
39
2
10
75.940655
20
12.054856
11
75.327050
21
12.507570
0
LINE
8
hole
62
5
39
2
10
75.327050
20
12.507570
11
74.981851
21
12.884940
0
LINE
8
hole
62
5
39
2
10
74.981851
20
12.884940
11
74.658587
21
13.363980
0
LINE
8
hole
62
5
39
2
10
74.658587
20
13.363980
11
74.421483
21
13.956731
0
LINE
8
hole
62
5
39
2
10
74.421483
20
13.956731
11
74.320399
21
14.549485
0
LINE
8
hole
62
5
39
2
10
74.320399
20
14.549485
11
74.410437
21
15.084576
0
LINE
8
hole
62
5
39
2
10
74.410437
20
15.084576
11
74.653333
21
15.734987
0
LINE
8
hole
62
5
39
2
10
74.653333
20
15.734987
11
74.981851
21
16.240063
0
LINE
8
hole
62
5
39
2
10
74.981851
20
16.240063
11
75.573088
21
16.818685
0
LINE
8
hole
62
5
39
2
10
75.573088
20
16.818685
11
76.164325
21
17.162551
0
LINE
8
hole
62
5
39
2
10
76.164325
20
17.162551
11
76.755562
21
17.328928
0
LINE
8
hole
62
5
39
2
10
76.755562
20
17.328928
11
77.346796
21
17.356130
0
LINE
8
hole
62
5
39
2
10
77.346796
20
17.356130
11
77.938033
21
17.249459
0
LINE
8
hole
62
5
39
2
10
77.938033
20
17.249459
11
78.529267
21
16.989311
0
LINE
8
hole
62
5
39
2
10
78.529267
20
16.989311
11
79.120504
21
16.551523
0
LINE
8
hole
62
5
39
2
10
79.120504
20
16.551523
11
79.480239
21
16.128959
0
LINE
8
hole
62
5
39
2
10
79.480239
20
16.128959
11
79.872511
21
15.405874
0
LINE
8
hole
62
5
39
2
10
79.872511
20
15.405874
11
79.993470
21
14.860998
0
LINE
8
hole
62
5
39
2
10
79.993470
20
14.860998
11
79.996191
21
14.268244
0
LINE
8
hole
62
5
39
2
10
79.996191
20
14.268244
11
79.880805
21
13.727002
0
LINE
8
hole
62
5
39
2
10
79.880805
20
13.727002
11
79.498751
21
12.996166
0
LINE
8
hole
62
5
39
2
10
79.498751
20
12.996166
11
79.120504
21
12.545651
0
LINE
8
hole
62
5
39
2
10
79.120504
20
12.545651
11
78.911643
21
12.374965
0
LINE
8
hole
62
5
39
2
10
19.662150
20
11.992322
11
19.155069
21
11.773398
0
LINE
8
hole
62
5
39
2
10
19.155069
20
11.773398
11
18.644835
21
11.667014
0
LINE
8
hole
62
5
39
2
10
18.644835
20
11.667014
11
18.050073
21
11.684984
0
LINE
8
hole
62
5
39
2
10
18.050073
20
11.684984
11
17.347217
21
11.875450
0
LINE
8
hole
62
5
39
2
10
17.347217
20
11.875450
11
16.879000
21
12.118671
0
LINE
8
hole
62
5
39
2
10
16.879000
20
12.118671
11
16.449496
21
12.461738
0
LINE
8
hole
62
5
39
2
10
16.449496
20
12.461738
11
16.046141
21
12.934045
0
LINE
8
hole
62
5
39
2
10
16.046141
20
12.934045
11
15.774809
21
13.363980
0
LINE
8
hole
62
5
39
2
10
15.774809
20
13.363980
11
15.549735
21
13.956731
0
LINE
8
hole
62
5
39
2
10
15.549735
20
13.956731
11
15.487802
21
14.549485
0
LINE
8
hole
62
5
39
2
10
15.487802
20
14.549485
11
15.575728
21
15.142236
0
LINE
8
hole
62
5
39
2
10
15.575728
20
15.142236
11
15.836304
21
15.734987
0
LINE
8
hole
62
5
39
2
10
15.836304
20
15.734987
11
16.254640
21
16.327738
0
LINE
8
hole
62
5
39
2
10
16.254640
20
16.327738
11
16.652793
21
16.689278
0
LINE
8
hole
62
5
39
2
10
16.652793
20
16.689278
11
17.344967
21
17.111800
0
LINE
8
hole
62
5
39
2
10
17.344967
20
17.111800
11
17.915689
21
17.273921
0
LINE
8
hole
62
5
39
2
10
17.915689
20
17.273921
11
18.517567
21
17.309394
0
LINE
8
hole
62
5
39
2
10
18.517567
20
17.309394
11
19.080257
21
17.212993
0
LINE
8
hole
62
5
39
2
10
19.080257
20
17.212993
11
19.598685
21
17.018570
0
LINE
8
hole
62
5
39
2
10
19.598685
20
17.018570
11
20.235295
21
16.585275
0
LINE
8
hole
62
5
39
2
10
20.235295
20
16.585275
11
20.588145
21
16.204875
0
LINE
8
hole
62
5
39
2
10
20.588145
20
16.204875
11
20.899245
21
15.734987
0
LINE
8
hole
62
5
39
2
10
20.899245
20
15.734987
11
21.128061
21
15.142236
0
LINE
8
hole
62
5
39
2
10
21.128061
20
15.142236
11
21.207475
21
14.615114
0
LINE
8
hole
62
5
39
2
10
21.207475
20
14.615114
11
21.158789
21
14.012383
0
LINE
8
hole
62
5
39
2
10
21.158789
20
14.012383
11
20.949931
21
13.363980
0
LINE
8
hole
62
5
39
2
10
20.949931
20
13.363980
11
20.588145
21
12.783183
0
LINE
8
hole
62
5
39
2
10
20.588145
20
12.783183
11
19.996911
21
12.207285
0
LINE
8
hole
62
5
39
2
10
19.996911
20
12.207285
11
19.662150
21
11.992322
0
LINE
8
hole
62
5
39
2
10
49.918599
20
82.331593
11
49.558707
21
81.958799
0
LINE
8
hole
62
5
39
2
10
49.558707
20
81.958799
11
48.967471
21
81.569703
0
LINE
8
hole
62
5
39
2
10
48.967471
20
81.569703
11
48.376235
21
81.339858
0
LINE
8
hole
62
5
39
2
10
48.376235
20
81.339858
11
47.785000
21
81.268489
0
LINE
8
hole
62
5
39
2
10
47.785000
20
81.268489
11
47.193764
21
81.341324
0
LINE
8
hole
62
5
39
2
10
47.193764
20
81.341324
11
46.692079
21
81.530474
0
LINE
8
hole
62
5
39
2
10
46.692079
20
81.530474
11
46.230731
21
81.775946
0
LINE
8
hole
62
5
39
2
10
46.230731
20
81.775946
11
45.796955
21
82.123225
0
LINE
8
hole
62
5
39
2
10
45.796955
20
82.123225
11
45.420056
21
82.574772
0
LINE
8
hole
62
5
39
2
10
45.420056
20
82.574772
11
45.149199
21
83.048312
0
LINE
8
hole
62
5
39
2
10
45.149199
20
83.048312
11
44.977354
21
83.547477
0
LINE
8
hole
62
5
39
2
10
44.977354
20
83.547477
11
44.912319
21
84.069121
0
LINE
8
hole
62
5
39
2
10
44.912319
20
84.069121
11
44.995386
21
84.829407
0
LINE
8
hole
62
5
39
2
10
44.995386
20
84.829407
11
45.200107
21
85.346076
0
LINE
8
hole
62
5
39
2
10
45.200107
20
85.346076
11
45.666796
21
86.012352
0
LINE
8
hole
62
5
39
2
10
45.666796
20
86.012352
11
46.289973
21
86.536381
0
LINE
8
hole
62
5
39
2
10
46.289973
20
86.536381
11
46.759681
21
86.792213
0
LINE
8
hole
62
5
39
2
10
46.759681
20
86.792213
11
47.386059
21
86.993175
0
LINE
8
hole
62
5
39
2
10
47.386059
20
86.993175
11
48.005456
21
87.002963
0
LINE
8
hole
62
5
39
2
10
48.005456
20
87.002963
11
48.494777
21
86.865244
0
LINE
8
hole
62
5
39
2
10
48.494777
20
86.865244
11
48.967471
21
86.676584
0
LINE
8
hole
62
5
39
2
10
48.967471
20
86.676584
11
49.482735
21
86.334661
0
LINE
8
hole
62
5
39
2
10
49.482735
20
86.334661
11
49.860960
21
85.986237
0
LINE
8
hole
62
5
39
2
10
49.860960
20
85.986237
11
50.303511
21
85.355958
0
LINE
8
hole
62
5
39
2
10
50.303511
20
85.355958
11
50.506529
21
84.817974
0
LINE
8
hole
62
5
39
2
10
50.506529
20
84.817974
11
50.588752
21
84.255549
0
LINE
8
hole
62
5
39
2
10
50.588752
20
84.255549
11
50.547547
21
83.598726
0
LINE
8
hole
62
5
39
2
10
50.547547
20
83.598726
11
50.380015
21
83.051922
0
LINE
8
hole
62
5
39
2
10
50.380015
20
83.051922
11
49.935092
21
82.351141
0
LINE
8
hole
62
5
39
2
10
49.935092
20
82.351141
11
49.918599
21
82.331593
0
LINE
8
hole
62
5
39
2
10
58.075814
20
37.313330
11
57.836011
21
36.532219
0
LINE
8
hole
62
5
39
2
10
57.836011
20
36.532219
11
57.603596
21
35.888559
0
LINE
8
hole
62
5
39
2
10
57.603596
20
35.888559
11
57.346076
21
35.295807
0
LINE
8
hole
62
5
39
2
10
57.346076
20
35.295807
11
57.035227
21
34.703056
0
LINE
8
hole
62
5
39
2
10
57.035227
20
34.703056
11
56.688187
21
34.110303
0
LINE
8
hole
62
5
39
2
10
56.688187
20
34.110303
11
56.287132
21
33.517551
0
LINE
8
hole
62
5
39
2
10
56.287132
20
33.517551
11
55.976410
21
33.111051
0
LINE
8
hole
62
5
39
2
10
55.976410
20
33.111051
11
55.471067
21
32.487773
0
LINE
8
hole
62
5
39
2
10
55.471067
20
32.487773
11
55.120479
21
32.107592
0
LINE
8
hole
62
5
39
2
10
55.120479
20
32.107592
11
54.719464
21
31.739295
0
LINE
8
hole
62
5
39
2
10
54.719464
20
31.739295
11
54.288595
21
31.384998
0
LINE
8
hole
62
5
39
2
10
54.288595
20
31.384998
11
53.880031
21
31.073819
0
LINE
8
hole
62
5
39
2
10
53.880031
20
31.073819
11
53.461332
21
30.775539
0
LINE
8
hole
62
5
39
2
10
53.461332
20
30.775539
11
53.011339
21
30.499522
0
LINE
8
hole
62
5
39
2
10
53.011339
20
30.499522
11
52.514887
21
30.217882
0
LINE
8
hole
62
5
39
2
10
52.514887
20
30.217882
11
51.962659
21
29.961038
0
LINE
8
hole
62
5
39
2
10
51.962659
20
29.961038
11
51.332415
21
29.692831
0
LINE
8
hole
62
5
39
2
10
51.332415
20
29.692831
11
50.741179
21
29.521688
0
LINE
8
hole
62
5
39
2
10
50.741179
20
29.521688
11
50.204677
21
29.368287
0
LINE
8
hole
62
5
39
2
10
50.204677
20
29.368287
11
49.558707
21
29.197991
0
LINE
8
hole
62
5
39
2
10
49.558707
20
29.197991
11
48.967471
21
29.115671
0
LINE
8
hole
62
5
39
2
10
48.967471
20
29.115671
11
48.376236
21
29.061620
0
LINE
8
hole
62
5
39
2
10
48.376236
20
29.061620
11
47.785000
21
29.044882
0
LINE
8
hole
62
5
39
2
10
47.785000
20
29.044882
11
47.193764
21
29.052930
0
LINE
8
hole
62
5
39
2
10
47.193764
20
29.052930
11
46.602528
21
29.095027
0
LINE
8
hole
62
5
39
2
10
46.602528
20
29.095027
11
46.011292
21
29.182688
0
LINE
8
hole
62
5
39
2
10
46.011292
20
29.182688
11
45.420056
21
29.324081
0
LINE
8
hole
62
5
39
2
10
45.420056
20
29.324081
11
44.828820
21
29.515796
0
LINE
8
hole
62
5
39
2
10
44.828820
20
29.515796
11
44.237584
21
29.689233
0
LINE
8
hole
62
5
39
2
10
44.237584
20
29.689233
11
43.646348
21
29.943637
0
LINE
8
hole
62
5
39
2
10
43.646348
20
29.943637
11
43.055112
21
30.215731
0
LINE
8
hole
62
5
39
2
10
43.055112
20
30.215731
11
42.583247
21
30.485087
0
LINE
8
hole
62
5
39
2
10
42.583247
20
30.485087
11
42.108263
21
30.775741
0
LINE
8
hole
62
5
39
2
10
42.108263
20
30.775741
11
41.688308
21
31.070513
0
LINE
8
hole
62
5
39
2
10
41.688308
20
31.070513
11
41.090960
21
31.517383
0
LINE
8
hole
62
5
39
2
10
41.090960
20
31.517383
11
40.690169
21
31.860671
0
LINE
8
hole
62
5
39
2
10
40.690169
20
31.860671
11
40.212269
21
32.332046
0
LINE
8
hole
62
5
39
2
10
40.212269
20
32.332046
11
39.866396
21
32.712721
0
LINE
8
hole
62
5
39
2
10
39.866396
20
32.712721
11
39.507696
21
33.169548
0
LINE
8
hole
62
5
39
2
10
39.507696
20
33.169548
11
39.125329
21
33.694689
0
LINE
8
hole
62
5
39
2
10
39.125329
20
33.694689
11
38.718636
21
34.355273
0
LINE
8
hole
62
5
39
2
10
38.718636
20
34.355273
11
38.424613
21
34.903222
0
LINE
8
hole
62
5
39
2
10
38.424613
20
34.903222
11
38.098062
21
35.563118
0
LINE
8
hole
62
5
39
2
10
38.098062
20
35.563118
11
37.873292
21
36.122839
0
LINE
8
hole
62
5
39
2
10
37.873292
20
36.122839
11
37.604886
21
36.853850
0
LINE
8
hole
62
5
39
2
10
37.604886
20
36.853850
11
37.457385
21
37.404888
0
LINE
8
hole
62
5
39
2
10
37.457385
20
37.404888
11
37.366785
21
37.945346
0
LINE
8
hole
62
5
39
2
10
37.366785
20
37.945346
11
37.324575
21
38.524431
0
LINE
8
hole
62
5
39
2
10
37.324575
20
38.524431
11
37.310862
21
39.107887
0
LINE
8
hole
62
5
39
2
10
37.310862
20
39.107887
11
37.300897
21
39.692977
0
LINE
8
hole
62
5
39
2
10
37.300897
20
39.692977
11
37.301585
21
40.285150
0
LINE
8
hole
62
5
39
2
10
37.301585
20
40.285150
11
37.313578
21
40.886875
0
LINE
8
hole
62
5
39
2
10
37.313578
20
40.886875
11
37.329568
21
41.489644
0
LINE
8
hole
62
5
39
2
10
37.329568
20
41.489644
11
37.377034
21
42.042919
0
LINE
8
hole
62
5
39
2
10
37.377034
20
42.042919
11
37.509841
21
42.648420
0
LINE
8
hole
62
5
39
2
10
37.509841
20
42.648420
11
37.679672
21
43.139686
0
LINE
8
hole
62
5
39
2
10
37.679672
20
43.139686
11
37.940812
21
43.879000
0
LINE
8
hole
62
5
39
2
10
37.940812
20
43.879000
11
38.164960
21
44.424186
0
LINE
8
hole
62
5
39
2
10
38.164960
20
44.424186
11
38.474403
21
45.049234
0
LINE
8
hole
62
5
39
2
10
38.474403
20
45.049234
11
38.772740
21
45.609236
0
LINE
8
hole
62
5
39
2
10
38.772740
20
45.609236
11
39.187431
21
46.246292
0
LINE
8
hole
62
5
39
2
10
39.187431
20
46.246292
11
39.507696
21
46.662477
0
LINE
8
hole
62
5
39
2
10
39.507696
20
46.662477
11
39.898227
21
47.150850
0
LINE
8
hole
62
5
39
2
10
39.898227
20
47.150850
11
40.273501
21
47.550562
0
LINE
8
hole
62
5
39
2
10
40.273501
20
47.550562
11
40.690169
21
47.956291
0
LINE
8
hole
62
5
39
2
10
40.690169
20
47.956291
11
41.132735
21
48.336354
0
LINE
8
hole
62
5
39
2
10
41.132735
20
48.336354
11
41.524470
21
48.662628
0
LINE
8
hole
62
5
39
2
10
41.524470
20
48.662628
11
42.243099
21
49.160204
0
LINE
8
hole
62
5
39
2
10
42.243099
20
49.160204
11
42.875822
21
49.521859
0
LINE
8
hole
62
5
39
2
10
42.875822
20
49.521859
11
43.355300
21
49.779057
0
LINE
8
hole
62
5
39
2
10
43.355300
20
49.779057
11
43.853491
21
50.006768
0
LINE
8
hole
62
5
39
2
10
43.853491
20
50.006768
11
44.545253
21
50.299643
0
LINE
8
hole
62
5
39
2
10
44.545253
20
50.299643
11
45.115083
21
50.459602
0
LINE
8
hole
62
5
39
2
10
45.115083
20
50.459602
11
45.640566
21
50.583379
0
LINE
8
hole
62
5
39
2
10
45.640566
20
50.583379
11
46.389608
21
50.707363
0
LINE
8
hole
62
5
39
2
10
46.389608
20
50.707363
11
47.088380
21
50.761149
0
LINE
8
hole
62
5
39
2
10
47.088380
20
50.761149
11
47.643461
21
50.785049
0
LINE
8
hole
62
5
39
2
10
47.643461
20
50.785049
11
48.254468
21
50.774568
0
LINE
8
hole
62
5
39
2
10
48.254468
20
50.774568
11
48.889549
21
50.747841
0
LINE
8
hole
62
5
39
2
10
48.889549
20
50.747841
11
49.491418
21
50.682388
0
LINE
8
hole
62
5
39
2
10
49.491418
20
50.682388
11
50.149943
21
50.525744
0
LINE
8
hole
62
5
39
2
10
50.149943
20
50.525744
11
50.741179
21
50.377389
0
LINE
8
hole
62
5
39
2
10
50.741179
20
50.377389
11
51.332415
21
50.155153
0
LINE
8
hole
62
5
39
2
10
51.332415
20
50.155153
11
51.923651
21
49.906072
0
LINE
8
hole
62
5
39
2
10
51.923651
20
49.906072
11
52.514887
21
49.630354
0
LINE
8
hole
62
5
39
2
10
52.514887
20
49.630354
11
53.106123
21
49.294808
0
LINE
8
hole
62
5
39
2
10
53.106123
20
49.294808
11
53.671222
21
48.929107
0
LINE
8
hole
62
5
39
2
10
53.671222
20
48.929107
11
54.288595
21
48.456797
0
LINE
8
hole
62
5
39
2
10
54.288595
20
48.456797
11
54.687310
21
48.115738
0
LINE
8
hole
62
5
39
2
10
54.687310
20
48.115738
11
55.080865
21
47.743602
0
LINE
8
hole
62
5
39
2
10
55.080865
20
47.743602
11
55.471067
21
47.340599
0
LINE
8
hole
62
5
39
2
10
55.471067
20
47.340599
11
55.824327
21
46.941754
0
LINE
8
hole
62
5
39
2
10
55.824327
20
46.941754
11
56.356732
21
46.261496
0
LINE
8
hole
62
5
39
2
10
56.356732
20
46.261496
11
56.653539
21
45.814907
0
LINE
8
hole
62
5
39
2
10
56.653539
20
45.814907
11
56.928731
21
45.372594
0
LINE
8
hole
62
5
39
2
10
56.928731
20
45.372594
11
57.232006
21
44.779841
0
LINE
8
hole
62
5
39
2
10
57.232006
20
44.779841
11
57.527345
21
44.187089
0
LINE
8
hole
62
5
39
2
10
57.527345
20
44.187089
11
57.740287
21
43.594337
0
LINE
8
hole
62
5
39
2
10
57.740287
20
43.594337
11
57.944658
21
43.001585
0
LINE
8
hole
62
5
39
2
10
57.944658
20
43.001585
11
58.105413
21
42.408833
0
LINE
8
hole
62
5
39
2
10
58.105413
20
42.408833
11
58.202813
21
41.816081
0
LINE
8
hole
62
5
39
2
10
58.202813
20
41.816081
11
58.277455
21
41.223329
0
LINE
8
hole
62
5
39
2
10
58.277455
20
41.223329
11
58.346864
21
40.630577
0
LINE
8
hole
62
5
39
2
10
58.346864
20
40.630577
11
58.369767
21
40.037824
0
LINE
8
hole
62
5
39
2
10
58.369767
20
40.037824
11
58.356007
21
39.445072
0
LINE
8
hole
62
5
39
2
10
58.356007
20
39.445072
11
58.291188
21
38.852320
0
LINE
8
hole
62
5
39
2
10
58.291188
20
38.852320
11
58.236451
21
38.259567
0
LINE
8
hole
62
5
39
2
10
58.236451
20
38.259567
11
58.144492
21
37.666816
0
LINE
8
hole
62
5
39
2
10
58.144492
20
37.666816
11
58.075814
21
37.313330
0
LINE
8
boundary
62
5
39
2
10
88.152434
20
6.843708
11
88.580279
21
7.151878
0
LINE
8
boundary
62
5
39
2
10
88.580279
20
7.151878
11
88.873320
21
7.717697
0
LINE
8
boundary
62
5
39
2
10
88.873320
20
7.717697
11
88.924895
21
8.310448
0
LINE
8
boundary
62
5
39
2
10
88.924895
20
8.310448
11
88.924892
21
8.903202
0
LINE
8
boundary
62
5
39
2
10
88.924892
20
8.903202
11
88.924889
21
9.495953
0
LINE
8
boundary
62
5
39
2
10
88.924889
20
9.495953
11
88.924978
21
10.088704
0
LINE
8
boundary
62
5
39
2
10
88.924978
20
10.088704
11
88.925187
21
10.681454
0
LINE
8
boundary
62
5
39
2
10
88.925187
20
10.681454
11
88.925428
21
11.274208
0
LINE
8
boundary
62
5
39
2
10
88.925428
20
11.274208
11
88.925663
21
11.866959
0
LINE
8
boundary
62
5
39
2
10
88.925663
20
11.866959
11
88.925880
21
12.459713
0
LINE
8
boundary
62
5
39
2
10
88.925880
20
12.459713
11
88.925964
21
13.052464
0
LINE
8
boundary
62
5
39
2
10
88.925964
20
13.052464
11
88.925924
21
13.645218
0
LINE
8
boundary
62
5
39
2
10
88.925924
20
13.645218
11
88.925885
21
14.237969
0
LINE
8
boundary
62
5
39
2
10
88.925885
20
14.237969
11
88.925768
21
14.830723
0
LINE
8
boundary
62
5
39
2
10
88.925768
20
14.830723
11
88.925439
21
15.423474
0
LINE
8
boundary
62
5
39
2
10
88.925439
20
15.423474
11
88.924959
21
16.016225
0
LINE
8
boundary
62
5
39
2
10
88.924959
20
16.016225
11
88.924744
21
16.608978
0
LINE
8
boundary
62
5
39
2
10
88.924744
20
16.608978
11
88.924839
21
17.201729
0
LINE
8
boundary
62
5
39
2
10
88.924839
20
17.201729
11
88.924963
21
17.794483
0
LINE
8
boundary
62
5
39
2
10
88.924963
20
17.794483
11
88.925089
21
18.387234
0
LINE
8
boundary
62
5
39
2
10
88.925089
20
18.387234
11
88.925212
21
18.979988
0
LINE
8
boundary
62
5
39
2
10
88.925212
20
18.979988
11
88.925335
21
19.572739
0
LINE
8
boundary
62
5
39
2
10
88.925335
20
19.572739
11
88.925456
21
20.165493
0
LINE
8
boundary
62
5
39
2
10
88.925456
20
20.165493
11
88.925582
21
20.758244
0
LINE
8
boundary
62
5
39
2
10
88.925582
20
20.758244
11
88.925705
21
21.350995
0
LINE
8
boundary
62
5
39
2
10
88.925705
20
21.350995
11
88.925829
21
21.943745
0
LINE
8
boundary
62
5
39
2
10
88.925829
20
21.943745
11
88.925952
21
22.536499
0
LINE
8
boundary
62
5
39
2
10
88.925952
20
22.536499
11
88.926075
21
23.129250
0
LINE
8
boundary
62
5
39
2
10
88.926075
20
23.129250
11
88.926198
21
23.722004
0
LINE
8
boundary
62
5
39
2
10
88.926198
20
23.722004
11
88.926321
21
24.314755
0
LINE
8
boundary
62
5
39
2
10
88.926321
20
24.314755
11
88.926445
21
24.907509
0
LINE
8
boundary
62
5
39
2
10
88.926445
20
24.907509
11
88.926565
21
25.500260
0
LINE
8
boundary
62
5
39
2
10
88.926565
20
25.500260
11
88.926550
21
26.093012
0
LINE
8
boundary
62
5
39
2
10
88.926550
20
26.093012
11
88.926235
21
26.685763
0
LINE
8
boundary
62
5
39
2
10
88.926235
20
26.685763
11
88.925756
21
27.278517
0
LINE
8
boundary
62
5
39
2
10
88.925756
20
27.278517
11
88.925606
21
27.871268
0
LINE
8
boundary
62
5
39
2
10
88.925606
20
27.871268
11
88.926047
21
28.464022
0
LINE
8
boundary
62
5
39
2
10
88.926047
20
28.464022
11
88.926728
21
29.056773
0
LINE
8
boundary
62
5
39
2
10
88.926728
20
29.056773
11
88.927179
21
29.649525
0
LINE
8
boundary
62
5
39
2
10
88.927179
20
29.649525
11
88.927303
21
30.242277
0
LINE
8
boundary
62
5
39
2
10
88.927303
20
30.242277
11
88.927345
21
30.835030
0
LINE
8
boundary
62
5
39
2
10
88.927345
20
30.835030
11
88.927387
21
31.427782
0
LINE
8
boundary
62
5
39
2
10
88.927387
20
31.427782
11
88.927432
21
32.020533
0
LINE
8
boundary
62
5
39
2
10
88.927432
20
32.020533
11
88.927473
21
32.613286
0
LINE
8
boundary
62
5
39
2
10
88.927473
20
32.613286
11
88.927515
21
33.206038
0
LINE
8
boundary
62
5
39
2
10
88.927515
20
33.206038
11
88.927557
21
33.798790
0
LINE
8
boundary
62
5
39
2
10
88.927557
20
33.798790
11
88.927599
21
34.391543
0
LINE
8
boundary
62
5
39
2
10
88.927599
20
34.391543
11
88.927641
21
34.984294
0
LINE
8
boundary
62
5
39
2
10
88.927641
20
34.984294
11
88.927683
21
35.577046
0
LINE
8
boundary
62
5
39
2
10
88.927683
20
35.577046
11
88.927725
21
36.169798
0
LINE
8
boundary
62
5
39
2
10
88.927725
20
36.169798
11
88.927767
21
36.762551
0
LINE
8
boundary
62
5
39
2
10
88.927767
20
36.762551
11
88.927809
21
37.355303
0
LINE
8
boundary
62
5
39
2
10
88.927809
20
37.355303
11
88.927851
21
37.948054
0
LINE
8
boundary
62
5
39
2
10
88.927851
20
37.948054
11
88.927893
21
38.540806
0
LINE
8
boundary
62
5
39
2
10
88.927893
20
38.540806
11
88.927932
21
39.133559
0
LINE
8
boundary
62
5
39
2
10
88.927932
20
39.133559
11
88.927976
21
39.726311
0
LINE
8
boundary
62
5
39
2
10
88.927976
20
39.726311
11
88.928012
21
40.319063
0
LINE
8
boundary
62
5
39
2
10
88.928012
20
40.319063
11
88.928028
21
40.911815
0
LINE
8
boundary
62
5
39
2
10
88.928028
20
40.911815
11
88.928019
21
41.504568
0
LINE
8
boundary
62
5
39
2
10
88.928019
20
41.504568
11
88.928004
21
42.097319
0
LINE
8
boundary
62
5
39
2
10
88.928004
20
42.097319
11
88.927982
21
42.690072
0
LINE
8
boundary
62
5
39
2
10
88.927982
20
42.690072
11
88.927926
21
43.282823
0
LINE
8
boundary
62
5
39
2
10
88.927926
20
43.282823
11
88.927835
21
43.875576
0
LINE
8
boundary
62
5
39
2
10
88.927835
20
43.875576
11
88.927748
21
44.468328
0
LINE
8
boundary
62
5
39
2
10
88.927748
20
44.468328
11
88.927660
21
45.061080
0
LINE
8
boundary
62
5
39
2
10
88.927660
20
45.061080
11
88.927569
21
45.653832
0
LINE
8
boundary
62
5
39
2
10
88.927569
20
45.653832
11
88.927481
21
46.246584
0
LINE
8
boundary
62
5
39
2
10
88.927481
20
46.246584
11
88.927391
21
46.839337
0
LINE
8
boundary
62
5
39
2
10
88.927391
20
46.839337
11
88.927300
21
47.432089
0
LINE
8
boundary
62
5
39
2
10
88.927300
20
47.432089
11
88.854300
21
48.049604
0
LINE
8
boundary
62
5
39
2
10
88.854300
20
48.049604
11
88.668868
21
48.534358
0
LINE
8
boundary
62
5
39
2
10
88.668868
20
48.534358
11
88.242524
21
49.153234
0
LINE
8
boundary
62
5
39
2
10
88.242524
20
49.153234
11
87.936239
21
49.581667
0
LINE
8
boundary
62
5
39
2
10
87.936239
20
49.581667
11
87.519257
21
50.114611
0
LINE
8
boundary
62
5
39
2
10
87.519257
20
50.114611
11
87.092112
21
50.707363
0
LINE
8
boundary
62
5
39
2
10
87.092112
20
50.707363
11
86.737973
21
51.208503
0
LINE
8
boundary
62
5
39
2
10
86.737973
20
51.208503
11
86.333906
21
51.752016
0
LINE
8
boundary
62
5
39
2
10
86.333906
20
51.752016
11
85.967496
21
52.228732
0
LINE
8
boundary
62
5
39
2
10
85.967496
20
52.228732
11
85.624101
21
52.709185
0
LINE
8
boundary
62
5
39
2
10
85.624101
20
52.709185
11
85.182536
21
53.304585
0
LINE
8
boundary
62
5
39
2
10
85.182536
20
53.304585
11
84.717801
21
53.928362
0
LINE
8
boundary
62
5
39
2
10
84.717801
20
53.928362
11
84.209729
21
54.622010
0
LINE
8
boundary
62
5
39
2
10
84.209729
20
54.622010
11
83.850393
21
55.133675
0
LINE
8
boundary
62
5
39
2
10
83.850393
20
55.133675
11
83.476569
21
55.631338
0
LINE
8
boundary
62
5
39
2
10
83.476569
20
55.631338
11
83.175724
21
56.042132
0
LINE
8
boundary
62
5
39
2
10
83.175724
20
56.042132
11
82.727208
21
56.634884
0
LINE
8
boundary
62
5
39
2
10
82.727208
20
56.634884
11
82.297499
21
57.227636
0
LINE
8
boundary
62
5
39
2
10
82.297499
20
57.227636
11
81.862919
21
57.820389
0
LINE
8
boundary
62
5
39
2
10
81.862919
20
57.820389
11
81.485448
21
58.341222
0
LINE
8
boundary
62
5
39
2
10
81.485448
20
58.341222
11
80.973575
21
59.005893
0
LINE
8
boundary
62
5
39
2
10
80.973575
20
59.005893
11
80.543582
21
59.598645
0
LINE
8
boundary
62
5
39
2
10
80.543582
20
59.598645
11
80.208382
21
60.064711
0
LINE
8
boundary
62
5
39
2
10
80.208382
20
60.064711
11
79.711741
21
60.745236
0
LINE
8
boundary
62
5
39
2
10
79.711741
20
60.745236
11
79.220050
21
61.376902
0
LINE
8
boundary
62
5
39
2
10
79.220050
20
61.376902
11
78.791726
21
61.969654
0
LINE
8
boundary
62
5
39
2
10
78.791726
20
61.969654
11
78.447571
21
62.453160
0
LINE
8
boundary
62
5
39
2
10
78.447571
20
62.453160
11
77.938033
21
63.151373
0
LINE
8
boundary
62
5
39
2
10
77.938033
20
63.151373
11
77.467514
21
63.747910
0
LINE
8
boundary
62
5
39
2
10
77.467514
20
63.747910
11
77.040725
21
64.340662
0
LINE
8
boundary
62
5
39
2
10
77.040725
20
64.340662
11
76.687242
21
64.842285
0
LINE
8
boundary
62
5
39
2
10
76.687242
20
64.842285
11
76.284090
21
65.383778
0
LINE
8
boundary
62
5
39
2
10
76.284090
20
65.383778
11
75.916160
21
65.862266
0
LINE
8
boundary
62
5
39
2
10
75.916160
20
65.862266
11
75.573088
21
66.343831
0
LINE
8
boundary
62
5
39
2
10
75.573088
20
66.343831
11
75.176123
21
66.876816
0
LINE
8
boundary
62
5
39
2
10
75.176123
20
66.876816
11
74.870382
21
67.304424
0
LINE
8
boundary
62
5
39
2
10
74.870382
20
67.304424
11
74.430364
21
67.897175
0
LINE
8
boundary
62
5
39
2
10
74.430364
20
67.897175
11
73.986007
21
68.489927
0
LINE
8
boundary
62
5
39
2
10
73.986007
20
68.489927
11
73.550059
21
69.082680
0
LINE
8
boundary
62
5
39
2
10
73.550059
20
69.082680
11
73.208147
21
69.564442
0
LINE
8
boundary
62
5
39
2
10
73.208147
20
69.564442
11
72.894012
21
69.963784
0
LINE
8
boundary
62
5
39
2
10
72.894012
20
69.963784
11
72.397145
21
70.643730
0
LINE
8
boundary
62
5
39
2
10
72.397145
20
70.643730
11
72.025674
21
71.174868
0
LINE
8
boundary
62
5
39
2
10
72.025674
20
71.174868
11
71.665943
21
71.651983
0
LINE
8
boundary
62
5
39
2
10
71.665943
20
71.651983
11
71.140021
21
72.342258
0
LINE
8
boundary
62
5
39
2
10
71.140021
20
72.342258
11
70.843202
21
72.755895
0
LINE
8
boundary
62
5
39
2
10
70.843202
20
72.755895
11
70.497427
21
73.231943
0
LINE
8
boundary
62
5
39
2
10
70.497427
20
73.231943
11
70.160524
21
73.702439
0
LINE
8
boundary
62
5
39
2
10
70.160524
20
73.702439
11
69.660731
21
74.387456
0
LINE
8
boundary
62
5
39
2
10
69.660731
20
74.387456
11
69.174004
21
75.010201
0
LINE
8
boundary
62
5
39
2
10
69.174004
20
75.010201
11
68.746145
21
75.602951
0
LINE
8
boundary
62
5
39
2
10
68.746145
20
75.602951
11
68.399957
21
76.091266
0
LINE
8
boundary
62
5
39
2
10
68.399957
20
76.091266
11
67.912711
21
76.756478
0
LINE
8
boundary
62
5
39
2
10
67.912711
20
76.756478
11
67.446210
21
77.381209
0
LINE
8
boundary
62
5
39
2
10
67.446210
20
77.381209
11
67.002895
21
77.973960
0
LINE
8
boundary
62
5
39
2
10
67.002895
20
77.973960
11
66.704549
21
78.393666
0
LINE
8
boundary
62
5
39
2
10
66.704549
20
78.393666
11
66.381050
21
78.812265
0
LINE
8
boundary
62
5
39
2
10
66.381050
20
78.812265
11
65.868558
21
79.499972
0
LINE
8
boundary
62
5
39
2
10
65.868558
20
79.499972
11
65.522077
21
79.988989
0
LINE
8
boundary
62
5
39
2
10
65.522077
20
79.988989
11
65.129234
21
80.514750
0
LINE
8
boundary
62
5
39
2
10
65.129234
20
80.514750
11
64.827577
21
80.937723
0
LINE
8
boundary
62
5
39
2
10
64.827577
20
80.937723
11
64.385410
21
81.530474
0
LINE
8
boundary
62
5
39
2
10
64.385410
20
81.530474
11
63.941982
21
82.123225
0
LINE
8
boundary
62
5
39
2
10
63.941982
20
82.123225
11
63.506806
21
82.715979
0
LINE
8
boundary
62
5
39
2
10
63.506806
20
82.715979
11
63.157134
21
83.207971
0
LINE
8
boundary
62
5
39
2
10
63.157134
20
83.207971
11
62.825687
21
83.630608
0
LINE
8
boundary
62
5
39
2
10
62.825687
20
83.630608
11
62.348403
21
84.281353
0
LINE
8
boundary
62
5
39
2
10
62.348403
20
84.281353
11
61.974662
21
84.817216
0
LINE
8
boundary
62
5
39
2
10
61.974662
20
84.817216
11
61.617388
21
85.289161
0
LINE
8
boundary
62
5
39
2
10
61.617388
20
85.289161
11
61.090672
21
85.979524
0
LINE
8
boundary
62
5
39
2
10
61.090672
20
85.979524
11
60.792191
21
86.395386
0
LINE
8
boundary
62
5
39
2
10
60.792191
20
86.395386
11
60.449975
21
86.865244
0
LINE
8
boundary
62
5
39
2
10
60.449975
20
86.865244
11
60.109151
21
87.336892
0
LINE
8
boundary
62
5
39
2
10
60.109151
20
87.336892
11
59.609718
21
88.010546
0
LINE
8
boundary
62
5
39
2
10
59.609718
20
88.010546
11
59.110195
21
88.643500
0
LINE
8
boundary
62
5
39
2
10
59.110195
20
88.643500
11
58.801814
21
89.054015
0
LINE
8
boundary
62
5
39
2
10
58.801814
20
89.054015
11
58.427247
21
89.582911
0
LINE
8
boundary
62
5
39
2
10
58.427247
20
89.582911
11
58.074512
21
90.037404
0
LINE
8
boundary
62
5
39
2
10
58.074512
20
90.037404
11
57.537445
21
90.709707
0
LINE
8
boundary
62
5
39
2
10
57.537445
20
90.709707
11
57.012132
21
91.366485
0
LINE
8
boundary
62
5
39
2
10
57.012132
20
91.366485
11
56.653539
21
91.833133
0
LINE
8
boundary
62
5
39
2
10
56.653539
20
91.833133
11
56.158315
21
92.385654
0
LINE
8
boundary
62
5
39
2
10
56.158315
20
92.385654
11
55.749670
21
92.792765
0
LINE
8
boundary
62
5
39
2
10
55.749670
20
92.792765
11
55.292412
21
93.189009
0
LINE
8
boundary
62
5
39
2
10
55.292412
20
93.189009
11
54.879832
21
93.539152
0
LINE
8
boundary
62
5
39
2
10
54.879832
20
93.539152
11
54.444035
21
93.845315
0
LINE
8
boundary
62
5
39
2
10
54.444035
20
93.845315
11
53.904176
21
94.182445
0
LINE
8
boundary
62
5
39
2
10
53.904176
20
94.182445
11
53.235288
21
94.571021
0
LINE
8
boundary
62
5
39
2
10
53.235288
20
94.571021
11
52.747804
21
94.800282
0
LINE
8
boundary
62
5
39
2
10
52.747804
20
94.800282
11
52.275427
21
95.012489
0
LINE
8
boundary
62
5
39
2
10
52.275427
20
95.012489
11
51.559182
21
95.297060
0
LINE
8
boundary
62
5
39
2
10
51.559182
20
95.297060
11
51.056606
21
95.448647
0
LINE
8
boundary
62
5
39
2
10
51.056606
20
95.448647
11
50.485380
21
95.578691
0
LINE
8
boundary
62
5
39
2
10
50.485380
20
95.578691
11
49.636609
21
95.756525
0
LINE
8
boundary
62
5
39
2
10
49.636609
20
95.756525
11
49.115107
21
95.821157
0
LINE
8
boundary
62
5
39
2
10
49.115107
20
95.821157
11
48.604067
21
95.887996
0
LINE
8
boundary
62
5
39
2
10
48.604067
20
95.887996
11
48.035463
21
95.923985
0
LINE
8
boundary
62
5
39
2
10
48.035463
20
95.923985
11
47.439880
21
95.919758
0
LINE
8
boundary
62
5
39
2
10
47.439880
20
95.919758
11
46.825766
21
95.895056
0
LINE
8
boundary
62
5
39
2
10
46.825766
20
95.895056
11
46.082878
21
95.792125
0
LINE
8
boundary
62
5
39
2
10
46.082878
20
95.792125
11
45.552446
21
95.690641
0
LINE
8
boundary
62
5
39
2
10
45.552446
20
95.690641
11
44.828820
21
95.526151
0
LINE
8
boundary
62
5
39
2
10
44.828820
20
95.526151
11
44.237584
21
95.386476
0
LINE
8
boundary
62
5
39
2
10
44.237584
20
95.386476
11
43.646348
21
95.180035
0
LINE
8
boundary
62
5
39
2
10
43.646348
20
95.180035
11
43.055112
21
94.936803
0
LINE
8
boundary
62
5
39
2
10
43.055112
20
94.936803
11
42.463876
21
94.658498
0
LINE
8
boundary
62
5
39
2
10
42.463876
20
94.658498
11
41.872640
21
94.337686
0
LINE
8
boundary
62
5
39
2
10
41.872640
20
94.337686
11
41.414505
21
94.076538
0
LINE
8
boundary
62
5
39
2
10
41.414505
20
94.076538
11
40.930666
21
93.738920
0
LINE
8
boundary
62
5
39
2
10
40.930666
20
93.738920
11
40.435287
21
93.385516
0
LINE
8
boundary
62
5
39
2
10
40.435287
20
93.385516
11
39.940104
21
92.969902
0
LINE
8
boundary
62
5
39
2
10
39.940104
20
92.969902
11
39.507696
21
92.575266
0
LINE
8
boundary
62
5
39
2
10
39.507696
20
92.575266
11
39.017127
21
92.005651
0
LINE
8
boundary
62
5
39
2
10
39.017127
20
92.005651
11
38.558666
21
91.397840
0
LINE
8
boundary
62
5
39
2
10
38.558666
20
91.397840
11
38.045760
21
90.731880
0
LINE
8
boundary
62
5
39
2
10
38.045760
20
90.731880
11
37.523666
21
90.052122
0
LINE
8
boundary
62
5
39
2
10
37.523666
20
90.052122
11
37.142752
21
89.552941
0
LINE
8
boundary
62
5
39
2
10
37.142752
20
89.552941
11
36.776443
21
89.037532
0
LINE
8
boundary
62
5
39
2
10
36.776443
20
89.037532
11
36.264623
21
88.356575
0
LINE
8
boundary
62
5
39
2
10
36.264623
20
88.356575
11
35.751005
21
87.679296
0
LINE
8
boundary
62
5
39
2
10
35.751005
20
87.679296
11
35.369045
21
87.176702
0
LINE
8
boundary
62
5
39
2
10
35.369045
20
87.176702
11
35.004824
21
86.664239
0
LINE
8
boundary
62
5
39
2
10
35.004824
20
86.664239
11
34.497166
21
85.988865
0
LINE
8
boundary
62
5
39
2
10
34.497166
20
85.988865
11
33.980217
21
85.304460
0
LINE
8
boundary
62
5
39
2
10
33.980217
20
85.304460
11
33.595336
21
84.794048
0
LINE
8
boundary
62
5
39
2
10
33.595336
20
84.794048
11
33.237718
21
84.286189
0
LINE
8
boundary
62
5
39
2
10
33.237718
20
84.286189
11
32.750085
21
83.633904
0
LINE
8
boundary
62
5
39
2
10
32.750085
20
83.633904
11
32.412865
21
83.205529
0
LINE
8
boundary
62
5
39
2
10
32.412865
20
83.205529
11
32.063549
21
82.715979
0
LINE
8
boundary
62
5
39
2
10
32.063549
20
82.715979
11
31.747699
21
82.290289
0
LINE
8
boundary
62
5
39
2
10
31.747699
20
82.290289
11
31.230393
21
81.595512
0
LINE
8
boundary
62
5
39
2
10
31.230393
20
81.595512
11
30.739459
21
80.937723
0
LINE
8
boundary
62
5
39
2
10
30.739459
20
80.937723
11
30.439433
21
80.517505
0
LINE
8
boundary
62
5
39
2
10
30.439433
20
80.517505
11
30.047921
21
79.997595
0
LINE
8
boundary
62
5
39
2
10
30.047921
20
79.997595
11
29.710298
21
79.519501
0
LINE
8
boundary
62
5
39
2
10
29.710298
20
79.519501
11
29.293234
21
78.970007
0
LINE
8
boundary
62
5
39
2
10
29.293234
20
78.970007
11
28.926468
21
78.486020
0
LINE
8
boundary
62
5
39
2
10
28.926468
20
78.486020
11
28.558583
21
77.973959
0
LINE
8
boundary
62
5
39
2
10
28.558583
20
77.973959
11
28.219822
21
77.526130
0
LINE
8
boundary
62
5
39
2
10
28.219822
20
77.526130
11
27.682978
21
76.805794
0
LINE
8
boundary
62
5
39
2
10
27.682978
20
76.805794
11
27.235336
21
76.195705
0
LINE
8
boundary
62
5
39
2
10
27.235336
20
76.195705
11
26.804245
21
75.602951
0
LINE
8
boundary
62
5
39
2
10
26.804245
20
75.602951
11
26.428899
21
75.107784
0
LINE
8
boundary
62
5
39
2
10
26.428899
20
75.107784
11
25.991898
21
74.512816
0
LINE
8
boundary
62
5
39
2
10
25.991898
20
74.512816
11
25.677931
21
74.073497
0
LINE
8
boundary
62
5
39
2
10
25.677931
20
74.073497
11
25.318033
21
73.604025
0
LINE
8
boundary
62
5
39
2
10
25.318033
20
73.604025
11
24.890333
21
72.987622
0
LINE
8
boundary
62
5
39
2
10
24.890333
20
72.987622
11
24.424351
21
72.354779
0
LINE
8
boundary
62
5
39
2
10
24.424351
20
72.354779
11
23.918385
21
71.684416
0
LINE
8
boundary
62
5
39
2
10
23.918385
20
71.684416
11
23.544327
21
71.188901
0
LINE
8
boundary
62
5
39
2
10
23.544327
20
71.188901
11
23.176021
21
70.664925
0
LINE
8
boundary
62
5
39
2
10
23.176021
20
70.664925
11
22.668181
21
69.982297
0
LINE
8
boundary
62
5
39
2
10
22.668181
20
69.982297
11
22.156247
21
69.298772
0
LINE
8
boundary
62
5
39
2
10
22.156247
20
69.298772
11
21.770616
21
68.784888
0
LINE
8
boundary
62
5
39
2
10
21.770616
20
68.784888
11
21.415393
21
68.279223
0
LINE
8
boundary
62
5
39
2
10
21.415393
20
68.279223
11
20.936210
21
67.637081
0
LINE
8
boundary
62
5
39
2
10
20.936210
20
67.637081
11
20.588145
21
67.190294
0
LINE
8
boundary
62
5
39
2
10
20.588145
20
67.190294
11
20.248363
21
66.711670
0
LINE
8
boundary
62
5
39
2
10
20.248363
20
66.711670
11
19.928087
21
66.280668
0
LINE
8
boundary
62
5
39
2
10
19.928087
20
66.280668
11
19.405674
21
65.576814
0
LINE
8
boundary
62
5
39
2
10
19.405674
20
65.576814
11
18.929972
21
64.933414
0
LINE
8
boundary
62
5
39
2
10
18.929972
20
64.933414
11
18.634376
21
64.519729
0
LINE
8
boundary
62
5
39
2
10
18.634376
20
64.519729
11
18.223200
21
63.971481
0
LINE
8
boundary
62
5
39
2
10
18.223200
20
63.971481
11
17.894268
21
63.503474
0
LINE
8
boundary
62
5
39
2
10
17.894268
20
63.503474
11
17.542869
21
63.046761
0
LINE
8
boundary
62
5
39
2
10
17.542869
20
63.046761
11
17.185599
21
62.562405
0
LINE
8
boundary
62
5
39
2
10
17.185599
20
62.562405
11
16.764346
21
61.969654
0
LINE
8
boundary
62
5
39
2
10
16.764346
20
61.969654
11
16.449496
21
61.534064
0
LINE
8
boundary
62
5
39
2
10
16.449496
20
61.534064
11
16.140478
21
61.103419
0
LINE
8
boundary
62
5
39
2
10
16.140478
20
61.103419
11
15.630353
21
60.436663
0
LINE
8
boundary
62
5
39
2
10
15.630353
20
60.436663
11
15.267022
21
59.959914
0
LINE
8
boundary
62
5
39
2
10
15.267022
20
59.959914
11
14.845147
21
59.350247
0
LINE
8
boundary
62
5
39
2
10
14.845147
20
59.350247
11
14.378680
21
58.714294
0
LINE
8
boundary
62
5
39
2
10
14.378680
20
58.714294
11
13.874540
21
58.042192
0
LINE
8
boundary
62
5
39
2
10
13.874540
20
58.042192
11
13.493314
21
57.534461
0
LINE
8
boundary
62
5
39
2
10
13.493314
20
57.534461
11
13.133664
21
57.022086
0
LINE
8
boundary
62
5
39
2
10
13.133664
20
57.022086
11
12.644009
21
56.364526
0
LINE
8
boundary
62
5
39
2
10
12.644009
20
56.364526
11
12.310843
21
55.940538
0
LINE
8
boundary
62
5
39
2
10
12.310843
20
55.940538
11
11.961980
21
55.449380
0
LINE
8
boundary
62
5
39
2
10
11.961980
20
55.449380
11
11.646523
21
55.022914
0
LINE
8
boundary
62
5
39
2
10
11.646523
20
55.022914
11
11.128369
21
54.324606
0
LINE
8
boundary
62
5
39
2
10
11.128369
20
54.324606
11
10.643555
21
53.671124
0
LINE
8
boundary
62
5
39
2
10
10.643555
20
53.671124
11
10.341320
21
53.247133
0
LINE
8
boundary
62
5
39
2
10
10.341320
20
53.247133
11
9.945899
21
52.720138
0
LINE
8
boundary
62
5
39
2
10
9.945899
20
52.720138
11
9.612954
21
52.246756
0
LINE
8
boundary
62
5
39
2
10
9.612954
20
52.246756
11
9.229191
21
51.743319
0
LINE
8
boundary
62
5
39
2
10
9.229191
20
51.743319
11
8.899025
21
51.300115
0
LINE
8
boundary
62
5
39
2
10
8.899025
20
51.300115
11
8.470507
21
50.707363
0
LINE
8
boundary
62
5
39
2
10
8.470507
20
50.707363
11
8.098791
21
50.214963
0
LINE
8
boundary
62
5
39
2
10
8.098791
20
50.214963
11
7.625928
21
49.574276
0
LINE
8
boundary
62
5
39
2
10
7.625928
20
49.574276
11
7.330135
21
49.153493
0
LINE
8
boundary
62
5
39
2
10
7.330135
20
49.153493
11
6.989717
21
48.690471
0
LINE
8
boundary
62
5
39
2
10
6.989717
20
48.690471
11
6.740405
21
48.106020
0
LINE
8
boundary
62
5
39
2
10
6.740405
20
48.106020
11
6.667582
21
47.462364
0
LINE
8
boundary
62
5
39
2
10
6.667582
20
47.462364
11
6.667756
21
46.869612
0
LINE
8
boundary
62
5
39
2
10
6.667756
20
46.869612
11
6.667925
21
46.276860
0
LINE
8
boundary
62
5
39
2
10
6.667925
20
46.276860
11
6.668096
21
45.684107
0
LINE
8
boundary
62
5
39
2
10
6.668096
20
45.684107
11
6.668268
21
45.091355
0
LINE
8
boundary
62
5
39
2
10
6.668268
20
45.091355
11
6.668436
21
44.498603
0
LINE
8
boundary
62
5
39
2
10
6.668436
20
44.498603
11
6.668610
21
43.905851
0
LINE
8
boundary
62
5
39
2
10
6.668610
20
43.905851
11
6.668782
21
43.313098
0
LINE
8
boundary
62
5
39
2
10
6.668782
20
43.313098
11
6.668953
21
42.720347
0
LINE
8
boundary
62
5
39
2
10
6.668953
20
42.720347
11
6.669128
21
42.127594
0
LINE
8
boundary
62
5
39
2
10
6.669128
20
42.127594
11
6.669302
21
41.534843
0
LINE
8
boundary
62
5
39
2
10
6.669302
20
41.534843
11
6.669476
21
40.942090
0
LINE
8
boundary
62
5
39
2
10
6.669476
20
40.942090
11
6.669614
21
40.349338
0
LINE
8
boundary
62
5
39
2
10
6.669614
20
40.349338
11
6.669706
21
39.756586
0
LINE
8
boundary
62
5
39
2
10
6.669706
20
39.756586
11
6.669796
21
39.163834
0
LINE
8
boundary
62
5
39
2
10
6.669796
20
39.163834
11
6.669884
21
38.571082
0
LINE
8
boundary
62
5
39
2
10
6.669884
20
38.571082
11
6.669974
21
37.978329
0
LINE
8
boundary
62
5
39
2
10
6.669974
20
37.978329
11
6.670064
21
37.385578
0
LINE
8
boundary
62
5
39
2
10
6.670064
20
37.385578
11
6.670154
21
36.792826
0
LINE
8
boundary
62
5
39
2
10
6.670154
20
36.792826
11
6.670244
21
36.200074
0
LINE
8
boundary
62
5
39
2
10
6.670244
20
36.200074
11
6.670334
21
35.607321
0
LINE
8
boundary
62
5
39
2
10
6.670334
20
35.607321
11
6.670424
21
35.014569
0
LINE
8
boundary
62
5
39
2
10
6.670424
20
35.014569
11
6.670514
21
34.421818
0
LINE
8
boundary
62
5
39
2
10
6.670514
20
34.421818
11
6.670604
21
33.829065
0
LINE
8
boundary
62
5
39
2
10
6.670604
20
33.829065
11
6.670694
21
33.236313
0
LINE
8
boundary
62
5
39
2
10
6.670694
20
33.236313
11
6.670784
21
32.643561
0
LINE
8
boundary
62
5
39
2
10
6.670784
20
32.643561
11
6.670874
21
32.050808
0
LINE
8
boundary
62
5
39
2
10
6.670874
20
32.050808
11
6.670965
21
31.458057
0
LINE
8
boundary
62
5
39
2
10
6.670965
20
31.458057
11
6.671058
21
30.865305
0
LINE
8
boundary
62
5
39
2
10
6.671058
20
30.865305
11
6.671148
21
30.272553
0
LINE
8
boundary
62
5
39
2
10
6.671148
20
30.272553
11
6.671244
21
29.679800
0
LINE
8
boundary
62
5
39
2
10
6.671244
20
29.679800
11
6.671380
21
29.087048
0
LINE
8
boundary
62
5
39
2
10
6.671380
20
29.087048
11
6.671560
21
28.494297
0
LINE
8
boundary
62
5
39
2
10
6.671560
20
28.494297
11
6.671741
21
27.901543
0
LINE
8
boundary
62
5
39
2
10
6.671741
20
27.901543
11
6.671916
21
27.308792
0
LINE
8
boundary
62
5
39
2
10
6.671916
20
27.308792
11
6.672090
21
26.716038
0
LINE
8
boundary
62
5
39
2
10
6.672090
20
26.716038
11
6.672268
21
26.123287
0
LINE
8
boundary
62
5
39
2
10
6.672268
20
26.123287
11
6.672448
21
25.530535
0
LINE
8
boundary
62
5
39
2
10
6.672448
20
25.530535
11
6.672626
21
24.937784
0
LINE
8
boundary
62
5
39
2
10
6.672626
20
24.937784
11
6.672803
21
24.345030
0
LINE
8
boundary
62
5
39
2
10
6.672803
20
24.345030
11
6.672981
21
23.752279
0
LINE
8
boundary
62
5
39
2
10
6.672981
20
23.752279
11
6.673158
21
23.159525
0
LINE
8
boundary
62
5
39
2
10
6.673158
20
23.159525
11
6.673338
21
22.566774
0
LINE
8
boundary
62
5
39
2
10
6.673338
20
22.566774
11
6.673516
21
21.974021
0
LINE
8
boundary
62
5
39
2
10
6.673516
20
21.974021
11
6.673693
21
21.381270
0
LINE
8
boundary
62
5
39
2
10
6.673693
20
21.381270
11
6.673874
21
20.788519
0
LINE
8
boundary
62
5
39
2
10
6.673874
20
20.788519
11
6.674051
21
20.195768
0
LINE
8
boundary
62
5
39
2
10
6.674051
20
20.195768
11
6.674232
21
19.603014
0
LINE
8
boundary
62
5
39
2
10
6.674232
20
19.603014
11
6.674409
21
19.010263
0
LINE
8
boundary
62
5
39
2
10
6.674409
20
19.010263
11
6.674587
21
18.417509
0
LINE
8
boundary
62
5
39
2
10
6.674587
20
18.417509
11
6.674767
21
17.824758
0
LINE
8
boundary
62
5
39
2
10
6.674767
20
17.824758
11
6.674948
21
17.232004
0
LINE
8
boundary
62
5
39
2
10
6.674948
20
17.232004
11
6.675125
21
16.639253
0
LINE
8
boundary
62
5
39
2
10
6.675125
20
16.639253
11
6.675306
21
16.046499
0
LINE
8
boundary
62
5
39
2
10
6.675306
20
16.046499
11
6.675486
21
15.453749
0
LINE
8
boundary
62
5
39
2
10
6.675486
20
15.453749
11
6.675667
21
14.860998
0
LINE
8
boundary
62
5
39
2
10
6.675667
20
14.860998
11
6.675847
21
14.268244
0
LINE
8
boundary
62
5
39
2
10
6.675847
20
14.268244
11
6.676030
21
13.675493
0
LINE
8
boundary
62
5
39
2
10
6.676030
20
13.675493
11
6.676214
21
13.082739
0
LINE
8
boundary
62
5
39
2
10
6.676214
20
13.082739
11
6.676397
21
12.489988
0
LINE
8
boundary
62
5
39
2
10
6.676397
20
12.489988
11
6.676578
21
11.897234
0
LINE
8
boundary
62
5
39
2
10
6.676578
20
11.897234
11
6.676761
21
11.304483
0
LINE
8
boundary
62
5
39
2
10
6.676761
20
11.304483
11
6.676945
21
10.711730
0
LINE
8
boundary
62
5
39
2
10
6.676945
20
10.711730
11
6.677128
21
10.118979
0
LINE
8
boundary
62
5
39
2
10
6.677128
20
10.118979
11
6.677309
21
9.526228
0
LINE
8
boundary
62
5
39
2
10
6.677309
20
9.526228
11
6.677492
21
8.933477
0
LINE
8
boundary
62
5
39
2
10
6.677492
20
8.933477
11
6.677676
21
8.340723
0
LINE
8
boundary
62
5
39
2
10
6.677676
20
8.340723
11
6.707192
21
7.747972
0
LINE
8
boundary
62
5
39
2
10
6.707192
20
7.747972
11
6.894344
21
7.238628
0
LINE
8
boundary
62
5
39
2
10
6.894344
20
7.238628
11
7.308354
21
6.843708
0
LINE
8
boundary
62
5
39
2
10
7.308354
20
6.843708
11
7.834635
21
6.673882
0
LINE
8
boundary
62
5
39
2
10
7.834635
20
6.673882
11
8.431697
21
6.667635
0
LINE
8
boundary
62
5
39
2
10
8.431697
20
6.667635
11
9.022779
21
6.667940
0
LINE
8
boundary
62
5
39
2
10
9.022779
20
6.667940
11
9.613863
21
6.668237
0
LINE
8
boundary
62
5
39
2
10
9.613863
20
6.668237
11
10.204947
21
6.668537
0
LINE
8
boundary
62
5
39
2
10
10.204947
20
6.668537
11
10.796029
21
6.668843
0
LINE
8
boundary
62
5
39
2
10
10.796029
20
6.668843
11
11.387109
21
6.669141
0
LINE
8
boundary
62
5
39
2
10
11.387109
20
6.669141
11
11.978191
21
6.669441
0
LINE
8
boundary
62
5
39
2
10
11.978191
20
6.669441
11
12.569270
21
6.669744
0
LINE
8
boundary
62
5
39
2
10
12.569270
20
6.669744
11
13.160351
21
6.670045
0
LINE
8
boundary
62
5
39
2
10
13.160351
20
6.670045
11
13.751423
21
6.670365
0
LINE
8
boundary
62
5
39
2
10
13.751423
20
6.670365
11
14.342478
21
6.670701
0
LINE
8
boundary
62
5
39
2
10
14.342478
20
6.670701
11
14.933523
21
6.671049
0
LINE
8
boundary
62
5
39
2
10
14.933523
20
6.671049
11
15.524571
21
6.671392
0
LINE
8
boundary
62
5
39
2
10
15.524571
20
6.671392
11
16.115615
21
6.671741
0
LINE
8
boundary
62
5
39
2
10
16.115615
20
6.671741
11
16.706662
21
6.672084
0
LINE
8
boundary
62
5
39
2
10
16.706662
20
6.672084
11
17.297707
21
6.672433
0
LINE
8
boundary
62
5
39
2
10
17.297707
20
6.672433
11
17.888752
21
6.672779
0
LINE
8
boundary
62
5
39
2
10
17.888752
20
6.672779
11
18.479793
21
6.673128
0
LINE
8
boundary
62
5
39
2
10
18.479793
20
6.673128
11
19.070837
21
6.673472
0
LINE
8
boundary
62
5
39
2
10
19.070837
20
6.673472
11
19.661878
21
6.673821
0
LINE
8
boundary
62
5
39
2
10
19.661878
20
6.673821
11
20.252920
21
6.674170
0
LINE
8
boundary
62
5
39
2
10
20.252920
20
6.674170
11
20.843961
21
6.674514
0
LINE
8
boundary
62
5
39
2
10
20.843961
20
6.674514
11
21.435003
21
6.674864
0
LINE
8
boundary
62
5
39
2
10
21.435003
20
6.674864
11
22.026043
21
6.675213
0
LINE
8
boundary
62
5
39
2
10
22.026043
20
6.675213
11
22.617080
21
6.675560
0
LINE
8
boundary
62
5
39
2
10
22.617080
20
6.675560
11
23.208119
21
6.675910
0
LINE
8
boundary
62
5
39
2
10
23.208119
20
6.675910
11
23.799156
21
6.676260
0
LINE
8
boundary
62
5
39
2
10
23.799156
20
6.676260
11
24.390193
21
6.676610
0
LINE
8
boundary
62
5
39
2
10
24.390193
20
6.676610
11
24.981229
21
6.676960
0
LINE
8
boundary
62
5
39
2
10
24.981229
20
6.676960
11
25.572265
21
6.677305
0
LINE
8
boundary
62
5
39
2
10
25.572265
20
6.677305
11
26.163298
21
6.677655
0
LINE
8
boundary
62
5
39
2
10
26.163298
20
6.677655
11
26.754333
21
6.678006
0
LINE
8
boundary
62
5
39
2
10
26.754333
20
6.678006
11
27.345368
21
6.678355
0
LINE
8
boundary
62
5
39
2
10
27.345368
20
6.678355
11
27.936418
21
6.678676
0
LINE
8
boundary
62
5
39
2
10
27.936418
20
6.678676
11
28.527489
21
6.678980
0
LINE
8
boundary
62
5
39
2
10
28.527489
20
6.678980
11
29.118558
21
6.679278
0
LINE
8
boundary
62
5
39
2
10
29.118558
20
6.679278
11
29.709627
21
6.679578
0
LINE
8
boundary
62
5
39
2
10
29.709627
20
6.679578
11
30.300697
21
6.679878
0
LINE
8
boundary
62
5
39
2
10
30.300697
20
6.679878
11
30.891765
21
6.680175
0
LINE
8
boundary
62
5
39
2
10
30.891765
20
6.680175
11
31.482832
21
6.680476
0
LINE
8
boundary
62
5
39
2
10
31.482832
20
6.680476
11
32.073900
21
6.680776
0
LINE
8
boundary
62
5
39
2
10
32.073900
20
6.680776
11
32.664966
21
6.681077
0
LINE
8
boundary
62
5
39
2
10
32.664966
20
6.681077
11
33.256032
21
6.681374
0
LINE
8
boundary
62
5
39
2
10
33.256032
20
6.681374
11
33.847098
21
6.681680
0
LINE
8
boundary
62
5
39
2
10
33.847098
20
6.681680
11
34.438164
21
6.681981
0
LINE
8
boundary
62
5
39
2
10
34.438164
20
6.681981
11
35.029228
21
6.682279
0
LINE
8
boundary
62
5
39
2
10
35.029228
20
6.682279
11
35.620292
21
6.682580
0
LINE
8
boundary
62
5
39
2
10
35.620292
20
6.682580
11
36.211355
21
6.682881
0
LINE
8
boundary
62
5
39
2
10
36.211355
20
6.682881
11
36.802418
21
6.683185
0
LINE
8
boundary
62
5
39
2
10
36.802418
20
6.683185
11
37.393480
21
6.683486
0
LINE
8
boundary
62
5
39
2
10
37.393480
20
6.683486
11
37.984541
21
6.683787
0
LINE
8
boundary
62
5
39
2
10
37.984541
20
6.683787
11
38.575602
21
6.684086
0
LINE
8
boundary
62
5
39
2
10
38.575602
20
6.684086
11
39.166663
21
6.684393
0
LINE
8
boundary
62
5
39
2
10
39.166663
20
6.684393
11
39.757723
21
6.684692
0
LINE
8
boundary
62
5
39
2
10
39.757723
20
6.684692
11
40.348783
21
6.684993
0
LINE
8
boundary
62
5
39
2
10
40.348783
20
6.684993
11
40.939842
21
6.685300
0
LINE
8
boundary
62
5
39
2
10
40.939842
20
6.685300
11
41.530899
21
6.685600
0
LINE
8
boundary
62
5
39
2
10
41.530899
20
6.685600
11
42.121957
21
6.685907
0
LINE
8
boundary
62
5
39
2
10
42.121957
20
6.685907
11
42.713014
21
6.686209
0
LINE
8
boundary
62
5
39
2
10
42.713014
20
6.686209
11
43.304071
21
6.686513
0
LINE
8
boundary
62
5
39
2
10
43.304071
20
6.686513
11
43.895127
21
6.686816
0
LINE
8
boundary
62
5
39
2
10
43.895127
20
6.686816
11
44.486182
21
6.687121
0
LINE
8
boundary
62
5
39
2
10
44.486182
20
6.687121
11
45.077236
21
6.687423
0
LINE
8
boundary
62
5
39
2
10
45.077236
20
6.687423
11
45.668290
21
6.687728
0
LINE
8
boundary
62
5
39
2
10
45.668290
20
6.687728
11
46.259344
21
6.688031
0
LINE
8
boundary
62
5
39
2
10
46.259344
20
6.688031
11
46.850382
21
6.688356
0
LINE
8
boundary
62
5
39
2
10
46.850382
20
6.688356
11
47.441396
21
6.688713
0
LINE
8
boundary
62
5
39
2
10
47.441396
20
6.688713
11
48.032409
21
6.689065
0
LINE
8
boundary
62
5
39
2
10
48.032409
20
6.689065
11
48.623422
21
6.689417
0
LINE
8
boundary
62
5
39
2
10
48.623422
20
6.689417
11
49.214433
21
6.689770
0
LINE
8
boundary
62
5
39
2
10
49.214433
20
6.689770
11
49.805444
21
6.690123
0
LINE
8
boundary
62
5
39
2
10
49.805444
20
6.690123
11
50.396455
21
6.690475
0
LINE
8
boundary
62
5
39
2
10
50.396455
20
6.690475
11
50.987464
21
6.690830
0
LINE
8
boundary
62
5
39
2
10
50.987464
20
6.690830
11
51.578473
21
6.691183
0
LINE
8
boundary
62
5
39
2
10
51.578473
20
6.691183
11
52.169480
21
6.691539
0
LINE
8
boundary
62
5
39
2
10
52.169480
20
6.691539
11
52.760487
21
6.691892
0
LINE
8
boundary
62
5
39
2
10
52.760487
20
6.691892
11
53.351493
21
6.692248
0
LINE
8
boundary
62
5
39
2
10
53.351493
20
6.692248
11
53.942499
21
6.692601
0
LINE
8
boundary
62
5
39
2
10
53.942499
20
6.692601
11
54.533503
21
6.692954
0
LINE
8
boundary
62
5
39
2
10
54.533503
20
6.692954
11
55.124507
21
6.693313
0
LINE
8
boundary
62
5
39
2
10
55.124507
20
6.693313
11
55.715510
21
6.693666
0
LINE
8
boundary
62
5
39
2
10
55.715510
20
6.693666
11
56.306511
21
6.694020
0
LINE
8
boundary
62
5
39
2
10
56.306511
20
6.694020
11
56.897512
21
6.694379
0
LINE
8
boundary
62
5
39
2
10
56.897512
20
6.694379
11
57.488513
21
6.694733
0
LINE
8
boundary
62
5
39
2
10
57.488513
20
6.694733
11
58.079512
21
6.695092
0
LINE
8
boundary
62
5
39
2
10
58.079512
20
6.695092
11
58.670510
21
6.695446
0
LINE
8
boundary
62
5
39
2
10
58.670510
20
6.695446
11
59.261508
21
6.695803
0
LINE
8
boundary
62
5
39
2
10
59.261508
20
6.695803
11
59.852505
21
6.696158
0
LINE
8
boundary
62
5
39
2
10
59.852505
20
6.696158
11
60.443500
21
6.696517
0
LINE
8
boundary
62
5
39
2
10
60.443500
20
6.696517
11
61.034496
21
6.696872
0
LINE
8
boundary
62
5
39
2
10
61.034496
20
6.696872
11
61.625490
21
6.697232
0
LINE
8
boundary
62
5
39
2
10
61.625490
20
6.697232
11
62.216483
21
6.697587
0
LINE
8
boundary
62
5
39
2
10
62.216483
20
6.697587
11
62.807476
21
6.697944
0
LINE
8
boundary
62
5
39
2
10
62.807476
20
6.697944
11
63.398467
21
6.698304
0
LINE
8
boundary
62
5
39
2
10
63.398467
20
6.698304
11
63.989457
21
6.698660
0
LINE
8
boundary
62
5
39
2
10
63.989457
20
6.698660
11
64.580447
21
6.699020
0
LINE
8
boundary
62
5
39
2
10
64.580447
20
6.699020
11
65.171436
21
6.699380
0
LINE
8
boundary
62
5
39
2
10
65.171436
20
6.699380
11
65.762432
21
6.699726
0
LINE
8
boundary
62
5
39
2
10
65.762432
20
6.699726
11
66.353448
21
6.700053
0
LINE
8
boundary
62
5
39
2
10
66.353448
20
6.700053
11
66.944462
21
6.700379
0
LINE
8
boundary
62
5
39
2
10
66.944462
20
6.700379
11
67.535475
21
6.700705
0
LINE
8
boundary
62
5
39
2
10
67.535475
20
6.700705
11
68.126489
21
6.701030
0
LINE
8
boundary
62
5
39
2
10
68.126489
20
6.701030
11
68.717501
21
6.701357
0
LINE
8
boundary
62
5
39
2
10
68.717501
20
6.701357
11
69.308513
21
6.701684
0
LINE
8
boundary
62
5
39
2
10
69.308513
20
6.701684
11
69.899525
21
6.702010
0
LINE
8
boundary
62
5
39
2
10
69.899525
20
6.702010
11
70.490533
21
6.702337
0
LINE
8
boundary
62
5
39
2
10
70.490533
20
6.702337
11
71.081554
21
6.702648
0
LINE
8
boundary
62
5
39
2
10
71.081554
20
6.702648
11
71.672634
21
6.702886
0
LINE
8
boundary
62
5
39
2
10
71.672634
20
6.702886
11
72.263771
21
6.703063
0
LINE
8
boundary
62
5
39
2
10
72.263771
20
6.703063
11
72.854802
21
6.703381
0
LINE
8
boundary
62
5
39
2
10
72.854802
20
6.703381
11
73.445669
21
6.703868
0
LINE
8
boundary
62
5
39
2
10
73.445669
20
6.703868
11
74.036536
21
6.704358
0
LINE
8
boundary
62
5
39
2
10
74.036536
20
6.704358
11
74.627402
21
6.704843
0
LINE
8
boundary
62
5
39
2
10
74.627402
20
6.704843
11
75.218287
21
6.705301
0
LINE
8
boundary
62
5
39
2
10
75.218287
20
6.705301
11
75.809283
21
6.705619
0
LINE
8
boundary
62
5
39
2
10
75.809283
20
6.705619
11
76.400430
21
6.705783
0
LINE
8
boundary
62
5
39
2
10
76.400430
20
6.705783
11
76.991573
21
6.705952
0
LINE
8
boundary
62
5
39
2
10
76.991573
20
6.705952
11
77.582720
21
6.706122
0
LINE
8
boundary
62
5
39
2
10
77.582720
20
6.706122
11
78.173862
21
6.706292
0
LINE
8
boundary
62
5
39
2
10
78.173862
20
6.706292
11
78.765006
21
6.706462
0
LINE
8
boundary
62
5
39
2
10
78.765006
20
6.706462
11
79.356147
21
6.706632
0
LINE
8
boundary
62
5
39
2
10
79.356147
20
6.706632
11
79.947229
21
6.706883
0
LINE
8
boundary
62
5
39
2
10
79.947229
20
6.706883
11
80.538167
21
6.707283
0
LINE
8
boundary
62
5
39
2
10
80.538167
20
6.707283
11
81.129072
21
6.707722
0
LINE
8
boundary
62
5
39
2
10
81.129072
20
6.707722
11
81.719971
21
6.708154
0
LINE
8
boundary
62
5
39
2
10
81.719971
20
6.708154
11
82.302121
21
6.722138
0
LINE
8
boundary
62
5
39
2
10
82.302121
20
6.722138
11
82.871280
21
6.742289
0
LINE
8
boundary
62
5
39
2
10
82.871280
20
6.742289
11
83.461058
21
6.743560
0
LINE
8
boundary
62
5
39
2
10
83.461058
20
6.743560
11
84.051971
21
6.743875
0
LINE
8
boundary
62
5
39
2
10
84.051971
20
6.743875
11
84.642889
21
6.744191
0
LINE
8
boundary
62
5
39
2
10
84.642889
20
6.744191
11
85.233800
21
6.744505
0
LINE
8
boundary
62
5
39
2
10
85.233800
20
6.744505
11
85.824713
21
6.744821
0
LINE
8
boundary
62
5
39
2
10
85.824713
20
6.744821
11
86.415622
21
6.745135
0
LINE
8
boundary
62
5
39
2
10
86.415622
20
6.745135
11
87.006596
21
6.745373
0
LINE
8
boundary
62
5
39
2
10
87.006596
20
6.745373
11
87.592836
21
6.750775
0
LINE
8
boundary
62
5
39
2
10
87.592836
20
6.750775
11
88.152434
21
6.843708
0
LINE
8
annotation
62
1
39
211
10
29.731384
20
25.888618
11
29.731384
21
51.597114
0
LINE
8
annotation
62
1
39
211
10
29.731384
20
51.597114
11
24.016056
21
45.880174
0
LINE
8
frame
62
5
39
2
10
0.000000
20
0.000000
11
215.900000
21
0.000000
0
LINE
8
frame
62
5
39
2
10
215.900000
20
0.000000
11
215.900000
21
279.400000
0
LINE
8
frame
62
5
39
2
10
215.900000
20
279.400000
11
0.000000
21
279.400000
0
LINE
8
frame
62
5
39
2
10
0.000000
20
279.400000
11
0.000000
21
0.000000
0
ENDSEC
0
EOF
