999
dxfrw 0.6.3
  0
SECTION
  2
HEADER
  9
$ACADVER
  1
AC1021
  9
$DWGCODEPAGE
  3
ANSI_1252
  9
$INSBASE
 10
0
 20
0
 30
0
  9
$EXTMIN
 10
0
 20
0
 30
0
  9
$EXTMAX
 10
215.9
 20
279.4
 30
0
  9
$LIMMIN
 10
0
 20
0
  9
$LIMMAX
 10
420
 20
297
  9
$ORTHOMODE
 70
    0
  9
$REGENMODE
 70
    1
  9
$FILLMODE
 70
    1
  9
$QTEXTMODE
 70
    0
  9
$MIRRTEXT
 70
    0
  9
$LTSCALE
 40
1
  9
$ATTMODE
 70
    0
  9
$TEXTSIZE
 40
2.5
  9
$TRACEWID
 40
15.68
  9
$TEXTSTYLE
  7
STANDARD
  9
$CLAYER
  8
0
  9
$CELTYPE
  6
BYLAYER
  9
$CECOLOR
 62
  256
  9
$CELTSCALE
 40
1
  9
$DISPSILH
 70
    0
  9
$DIMSCALE
 40
2.5
  9
$DIMASZ
 40
2.5
  9
$DIMEXO
 40
0.625
  9
$DIMDLI
 40
3.75
  9
$DIMRND
 40
0
  9
$DIMDLE
 40
0
  9
$DIMEXE
 40
1.25
  9
$DIMTP
 40
0
  9
$DIMTM
 40
0
  9
$DIMTXT
 40
2.5
  9
$DIMCEN
 40
2.5
  9
$DIMTSZ
 40
0
  9
$DIMTOL
 70
    0
  9
$DIMLIM
 70
    0
  9
$DIMTIH
 70
    0
  9
$DIMTOH
 70
    0
  9
$DIMSE1
 70
    0
  9
$DIMSE2
 70
    0
  9
$DIMTAD
 70
    1
  9
$DIMZIN
 70
    8
  9
$DIMBLK
  1

  9
$DIMASO
 70
    1
  9
$DIMSHO
 70
    1
  9
$DIMPOST
  1

  9
$DIMAPOST
  1

  9
$DIMALT
 70
    0
  9
$DIMALTD
 70
    3
  9
$DIMALTF
 40
0.03937
  9
$DIMLFAC
 40
1
  9
$DIMTOFL
 70
    1
  9
$DIMTVP
 40
0
  9
$DIMTIX
 70
    0
  9
$DIMSOXD
 70
    0
  9
$DIMSAH
 70
    0
  9
$DIMBLK1
  1

  9
$DIMBLK2
  1

  9
$DIMSTYLE
  2
Standard
  9
$DIMCLRD
 70
    0
  9
$DIMCLRE
 70
    0
  9
$DIMCLRT
 70
    0
  9
$DIMTFAC
 40
1
  9
$DIMGAP
 40
0.625
  9
$DIMJUST
 70
    0
  9
$DIMSD1
 70
    0
  9
$DIMSD2
 70
    0
  9
$DIMTOLJ
 70
    0
  9
$DIMTZIN
 70
    8
  9
$DIMALTZ
 70
    0
  9
$DIMALTTZ
 70
    0
  9
$DIMUPT
 70
    0
  9
$DIMDEC
 70
    2
  9
$DIMTDEC
 70
    2
  9
$DIMALTU
 70
    2
  9
$DIMALTTD
 70
    3
  9
$DIMTXSTY
  7
STANDARD
  9
$DIMAUNIT
 70
    0
  9
$DIMADEC
 70
    0
  9
$DIMALTRND
 40
0
  9
$DIMAZIN
 70
    0
  9
$DIMDSEP
 70
   44
  9
$DIMATFIT
 70
    3
  9
$DIMFRAC
 70
    0
  9
$DIMLDRBLK
  1
STANDARD
  9
$DIMLUNIT
 70
    2
  9
$DIMLWD
 70
   -2
  9
$DIMLWE
 70
   -2
  9
$DIMTMOVE
 70
    0
  9
$DIMFXL
 40
1
  9
$DIMFXLON
 70
    0
  9
$DIMJOGANG
 40
0.7854
  9
$DIMTFILL
 70
    0
  9
$DIMTFILLCLR
 70
    0
  9
$DIMARCSYM
 70
    0
  9
$DIMLTYPE
  6

  9
$DIMLTEX1
  6

  9
$DIMLTEX2
  6

  9
$LUNITS
 70
    2
  9
$LUPREC
 70
    4
  9
$SKETCHINC
 40
1
  9
$FILLETRAD
 40
0
  9
$AUNITS
 70
    0
  9
$AUPREC
 70
    2
  9
$MENU
  1
.
  9
$ELEVATION
 40
0
  9
$PELEVATION
 40
0
  9
$THICKNESS
 40
0
  9
$LIMCHECK
 70
    0
  9
$CHAMFERA
 40
0
  9
$CHAMFERB
 40
0
  9
$CHAMFERC
 40
0
  9
$CHAMFERD
 40
0
  9
$SKPOLY
 70
    0
  9
$USRTIMER
 70
    1
  9
$ANGBASE
 50
0
  9
$ANGDIR
 70
    0
  9
$PDMODE
 70
   34
  9
$PDSIZE
 40
0
  9
$PLINEWID
 40
0
  9
$SPLFRAME
 70
    0
  9
$SPLINETYPE
 70
    2
  9
$SPLINESEGS
 70
    8
  9
$HANDSEED
  5
20000
  9
$SURFTAB1
 70
    6
  9
$SURFTAB2
 70
    6
  9
$SURFTYPE
 70
    6
  9
$SURFU
 70
    6
  9
$SURFV
 70
    6
  9
$UCSBASE
  2

  9
$UCSNAME
  2

  9
$UCSORG
 10
0
 20
0
 30
0
  9
$UCSXDIR
 10
1
 20
0
 30
0
  9
$UCSYDIR
 10
0
 20
1
 30
0
  9
$UCSORTHOREF
  2

  9
$UCSORTHOVIEW
 70
    0
  9
$UCSORGTOP
 10
0
 20
0
 30
0
  9
$UCSORGBOTTOM
 10
0
 20
0
 30
0
  9
$UCSORGLEFT
 10
0
 20
0
 30
0
  9
$UCSORGRIGHT
 10
0
 20
0
 30
0
  9
$UCSORGFRONT
 10
0
 20
0
 30
0
  9
$UCSORGBACK
 10
0
 20
0
 30
0
  9
$PUCSBASE
  2

  9
$PUCSNAME
  2

  9
$PUCSORG
 10
0
 20
0
 30
0
  9
$PUCSXDIR
 10
1
 20
0
 30
0
  9
$PUCSYDIR
 10
0
 20
1
 30
0
  9
$PUCSORTHOREF
  2

  9
$PUCSORTHOVIEW
 70
    0
  9
$PUCSORGTOP
 10
0
 20
0
 30
0
  9
$PUCSORGBOTTOM
 10
0
 20
0
 30
0
  9
$PUCSORGLEFT
 10
0
 20
0
 30
0
  9
$PUCSORGRIGHT
 10
0
 20
0
 30
0
  9
$PUCSORGFRONT
 10
0
 20
0
 30
0
  9
$PUCSORGBACK
 10
0
 20
0
 30
0
  9
$USERI1
 70
    0
  9
$USERI2
 70
    0
  9
$USERI3
 70
    0
  9
$USERI4
 70
    0
  9
$USERI5
 70
    0
  9
$USERR1
 40
0
  9
$USERR2
 40
0
  9
$USERR3
 40
0
  9
$USERR4
 40
0
  9
$USERR5
 40
0
  9
$WORLDVIEW
 70
    1
  9
$SHADEDGE
 70
    3
  9
$SHADEDIF
 70
   70
  9
$TILEMODE
 70
    1
  9
$MAXACTVP
 70
   64
  9
$PINSBASE
 10
0
 20
0
 30
0
  9
$PLIMCHECK
 70
    0
  9
$PEXTMIN
 10
0
 20
0
 30
0
  9
$PEXTMAX
 10
0
 20
0
 30
0
  9
$SNAPSTYLE
 70
    0
  9
$PLIMMIN
 10
0
 20
0
  9
$PLIMMAX
 10
210
 20
297
  9
$UNITMODE
 70
    0
  9
$VISRETAIN
 70
    1
  9
$PLINEGEN
 70
    0
  9
$PSLTSCALE
 70
    1
  9
$TREEDEPTH
 70
 3020
  9
$CMLSTYLE
  2
Standard
  9
$CMLJUST
 70
    0
  9
$CMLSCALE
 40
20
  9
$PROXYGRAPHICS
 70
    1
  9
$MEASUREMENT
 70
    1
  9
$CELWEIGHT
370
   -1
  9
$ENDCAPS
280
    0
  9
$JOINSTYLE
280
    0
  9
$LWDISPLAY
290
    0
  9
$INSUNITS
 70
    4
  9
$HYPERLINKBASE
  1

  9
$STYLESHEET
  1

  9
$XEDIT
290
    1
  9
$CEPSNTYPE
380
    0
  9
$PSTYLEMODE
290
    1
  9
$EXTNAMES
290
    1
  9
$PSVPSCALE
 40
1
  9
$OLESTARTUP
290
    0
  9
$SORTENTS
280
  127
  9
$INDEXCTL
280
    0
  9
$HIDETEXT
280
    1
  9
$XCLIPFRAME
290
    0
  9
$HALOGAP
280
    0
  9
$OBSCOLOR
 70
  257
  9
$OBSLTYPE
280
    0
  9
$INTERSECTIONDISPLAY
280
    0
  9
$INTERSECTIONCOLOR
 70
  257
  9
$DIMASSOC
280
    1
  9
$PROJECTNAME
  1

  9
$CAMERADISPLAY
290
    0
  9
$LENSLENGTH
 40
50
  9
$CAMERAHEIGHT
 40
0
  9
$STEPSPERSEC
 40
2
  9
$STEPSIZE
 40
50
  9
$3DDWFPREC
 40
2
  9
$PSOLWIDTH
 40
5
  9
$PSOLHEIGHT
 40
80
  9
$LOFTANG1
 40
1.570796326794897
  9
$LOFTANG2
 40
1.570796326794897
  9
$LOFTMAG1
 40
0
  9
$LOFTMAG2
 40
0
  9
$LOFTPARAM
 70
    7
  9
$LOFTNORMALS
280
    1
  9
$LATITUDE
 40
1
  9
$LONGITUDE
 40
1
  9
$NORTHDIRECTION
 40
0
  9
$TIMEZONE
 70
-8000
  9
$LIGHTGLYPHDISPLAY
280
    1
  9
$TILEMODELIGHTSYNCH
280
    1
  9
$SOLIDHIST
280
    1
  9
$SHOWHIST
280
    1
  9
$DWFFRAME
280
    2
  9
$DGNFRAME
280
    0
  9
$REALWORLDSCALE
290
    1
  9
$INTERFERECOLOR
 62
    1
  9
$CSHADOW
280
    0
  9
$SHADOWPLANELOCATION
 40
0
  0
ENDSEC
  0
SECTION
  2
CLASSES
  0
ENDSEC
  0
SECTION
  2
TABLES
  0
TABLE
  2
VPORT
  5
8
330
0
100
AcDbSymbolTable
 70
    1
  0
VPORT
  5
31
330
2
100
AcDbSymbolTableRecord
100
AcDbViewportTableRecord
  2
*ACTIVE
 70
    0
 10
0
 20
0
 11
1
 21
1
 12
360.307604123402
 22
174.9167729320004
 13
0
 23
0
 14
10
 24
10
 15
10
 25
10
 16
0
 26
0
 36
1
 17
0
 27
0
 37
0
 40
592.1334269314824
 41
1.870283018867924
 42
50
 43
0
 44
0
 50
0
 51
0
 71
    0
 72
  100
 73
    1
 74
    3
 75
    0
 76
    1
 77
    0
 78
    0
281
    0
 65
    1
110
0
120
0
130
0
111
1
121
0
131
0
112
0
122
1
132
0
 79
    0
146
0
348
10020
 60
    7
 61
    5
292
1
282
    1
141
0
142
0
 63
  250
421
3358443
  0
ENDTAB
  0
TABLE
  2
LTYPE
  5
5
330
0
100
AcDbSymbolTable
 70
    4
  0
LTYPE
  5
14
330
5
100
AcDbSymbolTableRecord
100
AcDbLinetypeTableRecord
  2
ByBlock
 70
    0
  3

 72
   65
 73
    0
 40
0
  0
LTYPE
  5
15
330
5
100
AcDbSymbolTableRecord
100
AcDbLinetypeTableRecord
  2
ByLayer
 70
    0
  3

 72
   65
 73
    0
 40
0
  0
LTYPE
  5
16
330
5
100
AcDbSymbolTableRecord
100
AcDbLinetypeTableRecord
  2
Continuous
 70
    0
  3
Solid line
 72
   65
 73
    0
 40
0
  0
LTYPE
  5
32
330
5
100
AcDbSymbolTableRecord
100
AcDbLinetypeTableRecord
  2
DOT
 70
    0
  3
Dot . . . . . . . . . . . . . . . . . . . . . .
 72
   65
 73
    2
 40
6.35
 49
0
 74
    0
 49
-6.35
 74
    0
  0
LTYPE
  5
33
330
5
100
AcDbSymbolTableRecord
100
AcDbLinetypeTableRecord
  2
DOTTINY
 70
    0
  3
Dot (.15x) .....................................
 72
   65
 73
    2
 40
0.9525
 49
0
 74
    0
 49
-0.9525
 74
    0
  0
LTYPE
  5
34
330
5
100
AcDbSymbolTableRecord
100
AcDbLinetypeTableRecord
  2
DOT2
 70
    0
  3
Dot (.5x) .....................................
 72
   65
 73
    2
 40
3.175
 49
0
 74
    0
 49
-3.175
 74
    0
  0
LTYPE
  5
35
330
5
100
AcDbSymbolTableRecord
100
AcDbLinetypeTableRecord
  2
DOTX2
 70
    0
  3
Dot (2x) .  .  .  .  .  .  .  .  .  .  .  .  .
 72
   65
 73
    2
 40
12.7
 49
0
 74
    0
 49
-12.7
 74
    0
  0
LTYPE
  5
36
330
5
100
AcDbSymbolTableRecord
100
AcDbLinetypeTableRecord
  2
DASHED
 70
    0
  3
Dashed _ _ _ _ _ _ _ _ _ _ _ _ _ _ _ _ _
 72
   65
 73
    2
 40
19.05
 49
12.7
 74
    0
 49
-6.35
 74
    0
  0
LTYPE
  5
37
330
5
100
AcDbSymbolTableRecord
100
AcDbLinetypeTableRecord
  2
DASHEDTINY
 70
    0
  3
Dashed (.15x) _ _ _ _ _ _ _ _ _ _ _ _ _ _ _ _ _
 72
   65
 73
    2
 40
2.8575
 49
1.905
 74
    0
 49
-0.9525
 74
    0
  0
LTYPE
  5
38
330
5
100
AcDbSymbolTableRecord
100
AcDbLinetypeTableRecord
  2
DASHED2
 70
    0
  3
Dashed (.5x) _ _ _ _ _ _ _ _ _ _ _ _ _ _ _ _ _
 72
   65
 73
    2
 40
9.524999999999999
 49
6.35
 74
    0
 49
-3.175
 74
    0
  0
LTYPE
  5
39
330
5
100
AcDbSymbolTableRecord
100
AcDbLinetypeTableRecord
  2
DASHEDX2
 70
    0
  3
Dashed (2x) ____  ____  ____  ____  ____  ___
 72
   65
 73
    2
 40
38.09999999999999
 49
25.4
 74
    0
 49
-12.7
 74
    0
  0
LTYPE
  5
3A
330
5
100
AcDbSymbolTableRecord
100
AcDbLinetypeTableRecord
  2
DASHDOT
 70
    0
  3
Dash dot __ . __ . __ . __ . __ . __ . __ . __
 72
   65
 73
    4
 40
25.4
 49
12.7
 74
    0
 49
-6.35
 74
    0
 49
0
 74
    0
 49
-6.35
 74
    0
  0
LTYPE
  5
3B
330
5
100
AcDbSymbolTableRecord
100
AcDbLinetypeTableRecord
  2
DASHDOTTINY
 70
    0
  3
Dash dot (.15x) _._._._._._._._._._._._._._._.
 72
   65
 73
    4
 40
3.81
 49
1.905
 74
    0
 49
-0.9525
 74
    0
 49
0
 74
    0
 49
-0.9525
 74
    0
  0
LTYPE
  5
3C
330
5
100
AcDbSymbolTableRecord
100
AcDbLinetypeTableRecord
  2
DASHDOT2
 70
    0
  3
Dash dot (.5x) _._._._._._._._._._._._._._._.
 72
   65
 73
    4
 40
12.7
 49
6.35
 74
    0
 49
-3.175
 74
    0
 49
0
 74
    0
 49
-3.175
 74
    0
  0
LTYPE
  5
3D
330
5
100
AcDbSymbolTableRecord
100
AcDbLinetypeTableRecord
  2
DASHDOTX2
 70
    0
  3
Dash dot (2x) ____  .  ____  .  ____  .  ___
 72
   65
 73
    4
 40
50.8
 49
25.4
 74
    0
 49
-12.7
 74
    0
 49
0
 74
    0
 49
-12.7
 74
    0
  0
LTYPE
  5
3E
330
5
100
AcDbSymbolTableRecord
100
AcDbLinetypeTableRecord
  2
DIVIDE
 70
    0
  3
Divide ____ . . ____ . . ____ . . ____ . . ____
 72
   65
 73
    6
 40
31.75
 49
12.7
 74
    0
 49
-6.35
 74
    0
 49
0
 74
    0
 49
-6.35
 74
    0
 49
0
 74
    0
 49
-6.35
 74
    0
  0
LTYPE
  5
3F
330
5
100
AcDbSymbolTableRecord
100
AcDbLinetypeTableRecord
  2
DIVIDETINY
 70
    0
  3
Divide (.15x) __..__..__..__..__..__..__..__.._
 72
   65
 73
    6
 40
4.7625
 49
1.905
 74
    0
 49
-0.9525
 74
    0
 49
0
 74
    0
 49
-0.9525
 74
    0
 49
0
 74
    0
 49
-0.9525
 74
    0
  0
LTYPE
  5
40
330
5
100
AcDbSymbolTableRecord
100
AcDbLinetypeTableRecord
  2
DIVIDE2
 70
    0
  3
Divide (.5x) __..__..__..__..__..__..__..__.._
 72
   65
 73
    6
 40
15.875
 49
6.35
 74
    0
 49
-3.175
 74
    0
 49
0
 74
    0
 49
-3.175
 74
    0
 49
0
 74
    0
 49
-3.175
 74
    0
  0
LTYPE
  5
41
330
5
100
AcDbSymbolTableRecord
100
AcDbLinetypeTableRecord
  2
DIVIDEX2
 70
    0
  3
Divide (2x) ________  .  .  ________  .  .  _
 72
   65
 73
    6
 40
63.5
 49
25.4
 74
    0
 49
-12.7
 74
    0
 49
0
 74
    0
 49
-12.7
 74
    0
 49
0
 74
    0
 49
-12.7
 74
    0
  0
LTYPE
  5
42
330
5
100
AcDbSymbolTableRecord
100
AcDbLinetypeTableRecord
  2
BORDER
 70
    0
  3
Border __ __ . __ __ . __ __ . __ __ . __ __ .
 72
   65
 73
    6
 40
44.45
 49
12.7
 74
    0
 49
-6.35
 74
    0
 49
12.7
 74
    0
 49
-6.35
 74
    0
 49
0
 74
    0
 49
-6.35
 74
    0
  0
LTYPE
  5
43
330
5
100
AcDbSymbolTableRecord
100
AcDbLinetypeTableRecord
  2
BORDERTINY
 70
    0
  3
Border (.15x) __.__.__.__.__.__.__.__.__.__.__.
 72
   65
 73
    6
 40
6.6675
 49
1.905
 74
    0
 49
-0.9525
 74
    0
 49
1.905
 74
    0
 49
-0.9525
 74
    0
 49
0
 74
    0
 49
-0.9525
 74
    0
  0
LTYPE
  5
44
330
5
100
AcDbSymbolTableRecord
100
AcDbLinetypeTableRecord
  2
BORDER2
 70
    0
  3
Border (.5x) __.__.__.__.__.__.__.__.__.__.__.
 72
   65
 73
    6
 40
22.225
 49
6.35
 74
    0
 49
-3.175
 74
    0
 49
6.35
 74
    0
 49
-3.175
 74
    0
 49
0
 74
    0
 49
-3.175
 74
    0
  0
LTYPE
  5
45
330
5
100
AcDbSymbolTableRecord
100
AcDbLinetypeTableRecord
  2
BORDERX2
 70
    0
  3
Border (2x) ____  ____  .  ____  ____  .  ___
 72
   65
 73
    6
 40
88.89999999999999
 49
25.4
 74
    0
 49
-12.7
 74
    0
 49
25.4
 74
    0
 49
-12.7
 74
    0
 49
0
 74
    0
 49
-12.7
 74
    0
  0
LTYPE
  5
46
330
5
100
AcDbSymbolTableRecord
100
AcDbLinetypeTableRecord
  2
CENTER
 70
    0
  3
Center ____ _ ____ _ ____ _ ____ _ ____ _ ____
 72
   65
 73
    4
 40
50.8
 49
31.75
 74
    0
 49
-6.35
 74
    0
 49
6.35
 74
    0
 49
-6.35
 74
    0
  0
LTYPE
  5
47
330
5
100
AcDbSymbolTableRecord
100
AcDbLinetypeTableRecord
  2
CENTERTINY
 70
    0
  3
Center (.15x) ___ _ ___ _ ___ _ ___ _ ___ _ ___
 72
   65
 73
    4
 40
7.62
 49
4.7625
 74
    0
 49
-0.9525
 74
    0
 49
0.9525
 74
    0
 49
-0.9525
 74
    0
  0
LTYPE
  5
48
330
5
100
AcDbSymbolTableRecord
100
AcDbLinetypeTableRecord
  2
CENTER2
 70
    0
  3
Center (.5x) ___ _ ___ _ ___ _ ___ _ ___ _ ___
 72
   65
 73
    4
 40
28.575
 49
19.05
 74
    0
 49
-3.175
 74
    0
 49
3.175
 74
    0
 49
-3.175
 74
    0
  0
LTYPE
  5
49
330
5
100
AcDbSymbolTableRecord
100
AcDbLinetypeTableRecord
  2
CENTERX2
 70
    0
  3
Center (2x) ________  __  ________  __  _____
 72
   65
 73
    4
 40
101.6
 49
63.5
 74
    0
 49
-12.7
 74
    0
 49
12.7
 74
    0
 49
-12.7
 74
    0
  0
ENDTAB
  0
TABLE
  2
LAYER
  5
2
330
0
100
AcDbSymbolTable
 70
    1
  0
LAYER
  5
10
330
2
100
AcDbSymbolTableRecord
100
AcDbLayerTableRecord
  2
0
 70
    0
 62
    7
  6
CONTINUOUS
370
    0
390
F
  0
LAYER
  5
4A
330
2
100
AcDbSymbolTableRecord
100
AcDbLayerTableRecord
  2
annotation
 70
    0
 62
    7
  6
CONTINUOUS
370
   -3
390
F
  0
LAYER
  5
4B
330
2
100
AcDbSymbolTableRecord
100
AcDbLayerTableRecord
  2
boundary
 70
    0
 62
    7
  6
CONTINUOUS
370
   -3
390
F
  0
LAYER
  5
4C
330
2
100
AcDbSymbolTableRecord
100
AcDbLayerTableRecord
  2
frame
 70
    0
 62
    7
  6
CONTINUOUS
370
   -3
390
F
  0
LAYER
  5
4D
330
2
100
AcDbSymbolTableRecord
100
AcDbLayerTableRecord
  2
hole
 70
    0
 62
    7
  6
CONTINUOUS
370
   -3
390
F
  0
ENDTAB
  0
TABLE
  2
STYLE
  5
3
330
0
100
AcDbSymbolTable
 70
    3
  0
STYLE
  5
4E
330
2
100
AcDbSymbolTableRecord
100
AcDbTextStyleTableRecord
  2
Standard
 70
    0
 40
0
 41
1
 50
0
 71
    0
 42
1
  3
txt
  4

  0
ENDTAB
  0
TABLE
  2
VIEW
  5
6
330
0
100
AcDbSymbolTable
 70
    0
  0
ENDTAB
  0
TABLE
  2
UCS
  5
7
330
0
100
AcDbSymbolTable
 70
    0
  0
ENDTAB
  0
TABLE
  2
APPID
  5
9
330
0
100
AcDbSymbolTable
 70
    1
  0
APPID
  5
12
330
9
100
AcDbSymbolTableRecord
100
AcDbRegAppTableRecord
  2
ACAD
 70
    0
  0
APPID
  5
4F
330
9
100
AcDbSymbolTableRecord
100
AcDbRegAppTableRecord
  2
LibreCad
 70
    0
  0
ENDTAB
  0
TABLE
  2
DIMSTYLE
  5
A
330
0
100
AcDbSymbolTable
 70
    1
100
AcDbDimStyleTable
 71
    1
  0
DIMSTYLE
105
50
330
A
100
AcDbSymbolTableRecord
100
AcDbDimStyleTableRecord
  2
Standard
 70
    0
 40
1
 41
2.5
 42
0.625
 43
0.38
 44
1.25
 45
0
 46
0
 47
0
 48
0
 49
1
140
2.5
141
0.09
142
2.5
143
25.4
144
1
145
0
146
1
147
0.625
148
0
 71
    0
 72
    0
 73
    0
 74
    1
 75
    0
 76
    0
 77
    0
 78
    1
 79
    0
170
    0
171
    2
172
    0
173
    0
174
    0
175
    0
176
    0
177
    0
178
    0
179
    0
271
    2
272
    4
273
    2
274
    2
275
    0
276
    0
277
    2
278
    0
279
    0
280
    0
281
    0
282
    0
283
    1
284
    0
285
    0
286
    0
288
    0
289
    3
340
standard
341

371
   -2
372
   -2
  0
ENDTAB
  0
TABLE
  2
BLOCK_RECORD
  5
1
330
0
100
AcDbSymbolTable
 70
    2
  0
BLOCK_RECORD
  5
1F
330
1
100
AcDbSymbolTableRecord
100
AcDbBlockTableRecord
  2
*Model_Space
 70
    0
280
    1
281
    0
  0
BLOCK_RECORD
  5
1E
330
1
100
AcDbSymbolTableRecord
100
AcDbBlockTableRecord
  2
*Paper_Space
 70
    0
280
    1
281
    0
  0
ENDTAB
  0
ENDSEC
  0
SECTION
  2
BLOCKS
  0
BLOCK
  5
20
330
1F
100
AcDbEntity
  8
0
100
AcDbBlockBegin
  2
*Model_Space
 70
    0
 10
0
 20
0
 30
0
  3
*Model_Space
  1

  0
ENDBLK
  5
21
330
1F
100
AcDbEntity
  8
0
100
AcDbBlockEnd
  0
BLOCK
  5
1C
330
1B
100
AcDbEntity
  8
0
100
AcDbBlockBegin
  2
*Paper_Space
 70
    0
 10
0
 20
0
 30
0
  3
*Paper_Space
  1

  0
ENDBLK
  5
1D
330
1F
100
AcDbEntity
  8
0
100
AcDbBlockEnd
  0
ENDSEC
  0
SECTION
  2
ENTITIES
  0
LINE
  5
51
100
AcDbEntity
  8
hole
  6
ByLayer
 62
    5
370
   -1
100
AcDbLine
 10
67.53101700000001
 20
45.140923
 11
66.78521600000001
 21
44.8282
  0
LINE
  5
52
100
AcDbEntity
  8
hole
  6
ByLayer
 62
    5
370
   -1
100
AcDbLine
 10
66.78521600000001
 20
44.8282
 11
66.113314
 21
45.052683
  0
LINE
  5
53
100
AcDbEntity
  8
hole
  6
ByLayer
 62
    5
370
   -1
100
AcDbLine
 10
66.113314
 20
45.052683
 11
65.640702
 21
45.571587
  0
LINE
  5
54
100
AcDbEntity
  8
hole
  6
ByLayer
 62
    5
370
   -1
100
AcDbLine
 10
65.640702
 20
45.571587
 11
65.422398
 21
46.13108
  0
LINE
  5
55
100
AcDbEntity
  8
hole
  6
ByLayer
 62
    5
370
   -1
100
AcDbLine
 10
65.422398
 20
46.13108
 11
65.464788
 21
46.695087
  0
LINE
  5
56
100
AcDbEntity
  8
hole
  6
ByLayer
 62
    5
370
   -1
100
AcDbLine
 10
65.464788
 20
46.695087
 11
65.709058
 21
47.15085
  0
LINE
  5
57
100
AcDbEntity
  8
hole
  6
ByLayer
 62
    5
370
   -1
100
AcDbLine
 10
65.709058
 20
47.15085
 11
66.113314
 21
47.496084
  0
LINE
  5
58
100
AcDbEntity
  8
hole
  6
ByLayer
 62
    5
370
   -1
100
AcDbLine
 10
66.113314
 20
47.496084
 11
66.70455
 21
47.687805
  0
LINE
  5
59
100
AcDbEntity
  8
hole
  6
ByLayer
 62
    5
370
   -1
100
AcDbLine
 10
66.70455
 20
47.687805
 11
67.295785
 21
47.562949
  0
LINE
  5
5A
100
AcDbEntity
  8
hole
  6
ByLayer
 62
    5
370
   -1
100
AcDbLine
 10
67.295785
 20
47.562949
 11
67.794194
 21
47.15085
  0
LINE
  5
5B
100
AcDbEntity
  8
hole
  6
ByLayer
 62
    5
370
   -1
100
AcDbLine
 10
67.794194
 20
47.15085
 11
68.12071400000001
 21
46.558098
  0
LINE
  5
5C
100
AcDbEntity
  8
hole
  6
ByLayer
 62
    5
370
   -1
100
AcDbLine
 10
68.12071400000001
 20
46.558098
 11
68.109199
 21
45.965346
  0
LINE
  5
5D
100
AcDbEntity
  8
hole
  6
ByLayer
 62
    5
370
   -1
100
AcDbLine
 10
68.109199
 20
45.965346
 11
67.853171
 21
45.462228
  0
LINE
  5
5E
100
AcDbEntity
  8
hole
  6
ByLayer
 62
    5
370
   -1
100
AcDbLine
 10
67.853171
 20
45.462228
 11
67.53101700000001
 21
45.140923
  0
LINE
  5
5F
100
AcDbEntity
  8
hole
  6
ByLayer
 62
    5
370
   -1
100
AcDbLine
 10
45.018212
 20
19.596439
 11
44.613265
 21
18.929549
  0
LINE
  5
60
100
AcDbEntity
  8
hole
  6
ByLayer
 62
    5
370
   -1
100
AcDbLine
 10
44.613265
 20
18.929549
 11
43.935054
 21
18.505718
  0
LINE
  5
61
100
AcDbEntity
  8
hole
  6
ByLayer
 62
    5
370
   -1
100
AcDbLine
 10
43.935054
 20
18.505718
 11
43.416903
 21
18.498039
  0
LINE
  5
62
100
AcDbEntity
  8
hole
  6
ByLayer
 62
    5
370
   -1
100
AcDbLine
 10
43.416903
 20
18.498039
 11
42.710527
 21
18.930077
  0
LINE
  5
63
100
AcDbEntity
  8
hole
  6
ByLayer
 62
    5
370
   -1
100
AcDbLine
 10
42.710527
 20
18.930077
 11
42.297193
 21
19.622717
  0
LINE
  5
64
100
AcDbEntity
  8
hole
  6
ByLayer
 62
    5
370
   -1
100
AcDbLine
 10
42.297193
 20
19.622717
 11
42.291506
 21
20.148324
  0
LINE
  5
65
100
AcDbEntity
  8
hole
  6
ByLayer
 62
    5
370
   -1
100
AcDbLine
 10
42.291506
 20
20.148324
 11
42.704036
 21
20.814762
  0
LINE
  5
66
100
AcDbEntity
  8
hole
  6
ByLayer
 62
    5
370
   -1
100
AcDbLine
 10
42.704036
 20
20.814762
 11
43.376764
 21
21.243975
  0
LINE
  5
67
100
AcDbEntity
  8
hole
  6
ByLayer
 62
    5
370
   -1
100
AcDbLine
 10
43.376764
 20
21.243975
 11
43.926403
 21
21.256396
  0
LINE
  5
68
100
AcDbEntity
  8
hole
  6
ByLayer
 62
    5
370
   -1
100
AcDbLine
 10
43.926403
 20
21.256396
 11
44.589482
 21
20.845795
  0
LINE
  5
69
100
AcDbEntity
  8
hole
  6
ByLayer
 62
    5
370
   -1
100
AcDbLine
 10
44.589482
 20
20.845795
 11
45.013153
 21
20.167469
  0
LINE
  5
6A
100
AcDbEntity
  8
hole
  6
ByLayer
 62
    5
370
   -1
100
AcDbLine
 10
45.013153
 20
20.167469
 11
45.032034
 21
19.653859
  0
LINE
  5
6B
100
AcDbEntity
  8
hole
  6
ByLayer
 62
    5
370
   -1
100
AcDbLine
 10
45.032034
 20
19.653859
 11
45.018212
 21
19.596439
  0
LINE
  5
6C
100
AcDbEntity
  8
hole
  6
ByLayer
 62
    5
370
   -1
100
AcDbLine
 10
33.192462
 20
51.796346
 11
32.684856
 21
51.685975
  0
LINE
  5
6D
100
AcDbEntity
  8
hole
  6
ByLayer
 62
    5
370
   -1
100
AcDbLine
 10
32.684856
 20
51.685975
 11
31.954948
 21
51.892867
  0
LINE
  5
6E
100
AcDbEntity
  8
hole
  6
ByLayer
 62
    5
370
   -1
100
AcDbLine
 10
31.954948
 20
51.892867
 11
31.554596
 21
52.235488
  0
LINE
  5
6F
100
AcDbEntity
  8
hole
  6
ByLayer
 62
    5
370
   -1
100
AcDbLine
 10
31.554596
 20
52.235488
 11
31.230393
 21
52.895646
  0
LINE
  5
70
100
AcDbEntity
  8
hole
  6
ByLayer
 62
    5
370
   -1
100
AcDbLine
 10
31.230393
 20
52.895646
 11
31.284632
 21
53.547147
  0
LINE
  5
71
100
AcDbEntity
  8
hole
  6
ByLayer
 62
    5
370
   -1
100
AcDbLine
 10
31.284632
 20
53.547147
 11
31.688849
 21
54.263876
  0
LINE
  5
72
100
AcDbEntity
  8
hole
  6
ByLayer
 62
    5
370
   -1
100
AcDbLine
 10
31.688849
 20
54.263876
 11
32.050261
 21
54.637351
  0
LINE
  5
73
100
AcDbEntity
  8
hole
  6
ByLayer
 62
    5
370
   -1
100
AcDbLine
 10
32.050261
 20
54.637351
 11
32.544157
 21
54.942986
  0
LINE
  5
74
100
AcDbEntity
  8
hole
  6
ByLayer
 62
    5
370
   -1
100
AcDbLine
 10
32.544157
 20
54.942986
 11
33.225377
 21
54.993472
  0
LINE
  5
75
100
AcDbEntity
  8
hole
  6
ByLayer
 62
    5
370
   -1
100
AcDbLine
 10
33.225377
 20
54.993472
 11
33.896219
 21
54.565821
  0
LINE
  5
76
100
AcDbEntity
  8
hole
  6
ByLayer
 62
    5
370
   -1
100
AcDbLine
 10
33.896219
 20
54.565821
 11
34.293007
 21
53.861676
  0
LINE
  5
77
100
AcDbEntity
  8
hole
  6
ByLayer
 62
    5
370
   -1
100
AcDbLine
 10
34.293007
 20
53.861676
 11
34.265861
 21
53.207448
  0
LINE
  5
78
100
AcDbEntity
  8
hole
  6
ByLayer
 62
    5
370
   -1
100
AcDbLine
 10
34.265861
 20
53.207448
 11
34.056678
 21
52.701561
  0
LINE
  5
79
100
AcDbEntity
  8
hole
  6
ByLayer
 62
    5
370
   -1
100
AcDbLine
 10
34.056678
 20
52.701561
 11
33.595336
 21
52.055574
  0
LINE
  5
7A
100
AcDbEntity
  8
hole
  6
ByLayer
 62
    5
370
   -1
100
AcDbLine
 10
33.595336
 20
52.055574
 11
33.192462
 21
51.796346
  0
LINE
  5
7B
100
AcDbEntity
  8
hole
  6
ByLayer
 62
    5
370
   -1
100
AcDbLine
 10
78.911643
 20
12.374965
 11
78.25687600000001
 21
11.962681
  0
LINE
  5
7C
100
AcDbEntity
  8
hole
  6
ByLayer
 62
    5
370
   -1
100
AcDbLine
 10
78.25687600000001
 20
11.962681
 11
77.67831099999999
 21
11.793522
  0
LINE
  5
7D
100
AcDbEntity
  8
hole
  6
ByLayer
 62
    5
370
   -1
100
AcDbLine
 10
77.67831099999999
 20
11.793522
 11
77.085223
 21
11.761155
  0
LINE
  5
7E
100
AcDbEntity
  8
hole
  6
ByLayer
 62
    5
370
   -1
100
AcDbLine
 10
77.085223
 20
11.761155
 11
76.47054799999999
 21
11.856973
  0
LINE
  5
7F
100
AcDbEntity
  8
hole
  6
ByLayer
 62
    5
370
   -1
100
AcDbLine
 10
76.47054799999999
 20
11.856973
 11
75.94065500000001
 21
12.054856
  0
LINE
  5
80
100
AcDbEntity
  8
hole
  6
ByLayer
 62
    5
370
   -1
100
AcDbLine
 10
75.94065500000001
 20
12.054856
 11
75.32705
 21
12.50757
  0
LINE
  5
81
100
AcDbEntity
  8
hole
  6
ByLayer
 62
    5
370
   -1
100
AcDbLine
 10
75.32705
 20
12.50757
 11
74.98185100000001
 21
12.88494
  0
LINE
  5
82
100
AcDbEntity
  8
hole
  6
ByLayer
 62
    5
370
   -1
100
AcDbLine
 10
74.98185100000001
 20
12.88494
 11
74.658587
 21
13.36398
  0
LINE
  5
83
100
AcDbEntity
  8
hole
  6
ByLayer
 62
    5
370
   -1
100
AcDbLine
 10
74.658587
 20
13.36398
 11
74.42148299999999
 21
13.956731
  0
LINE
  5
84
100
AcDbEntity
  8
hole
  6
ByLayer
 62
    5
370
   -1
100
AcDbLine
 10
74.42148299999999
 20
13.956731
 11
74.32039899999999
 21
14.549485
  0
LINE
  5
85
100
AcDbEntity
  8
hole
  6
ByLayer
 62
    5
370
   -1
100
AcDbLine
 10
74.32039899999999
 20
14.549485
 11
74.410437
 21
15.084576
  0
LINE
  5
86
100
AcDbEntity
  8
hole
  6
ByLayer
 62
    5
370
   -1
100
AcDbLine
 10
74.410437
 20
15.084576
 11
74.653333
 21
15.734987
  0
LINE
  5
87
100
AcDbEntity
  8
hole
  6
ByLayer
 62
    5
370
   -1
100
AcDbLine
 10
74.653333
 20
15.734987
 11
74.98185100000001
 21
16.240063
  0
LINE
  5
88
100
AcDbEntity
  8
hole
  6
ByLayer
 62
    5
370
   -1
100
AcDbLine
 10
74.98185100000001
 20
16.240063
 11
75.573088
 21
16.818685
  0
LINE
  5
89
100
AcDbEntity
  8
hole
  6
ByLayer
 62
    5
370
   -1
100
AcDbLine
 10
75.573088
 20
16.818685
 11
76.16432500000001
 21
17.162551
  0
LINE
  5
8A
100
AcDbEntity
  8
hole
  6
ByLayer
 62
    5
370
   -1
100
AcDbLine
 10
76.16432500000001
 20
17.162551
 11
76.755562
 21
17.328928
  0
LINE
  5
8B
100
AcDbEntity
  8
hole
  6
ByLayer
 62
    5
370
   -1
100
AcDbLine
 10
76.755562
 20
17.328928
 11
77.346796
 21
17.35613
  0
LINE
  5
8C
100
AcDbEntity
  8
hole
  6
ByLayer
 62
    5
370
   -1
100
AcDbLine
 10
77.346796
 20
17.35613
 11
77.938033
 21
17.249459
  0
LINE
  5
8D
100
AcDbEntity
  8
hole
  6
ByLayer
 62
    5
370
   -1
100
AcDbLine
 10
77.938033
 20
17.249459
 11
78.529267
 21
16.989311
  0
LINE
  5
8E
100
AcDbEntity
  8
hole
  6
ByLayer
 62
    5
370
   -1
100
AcDbLine
 10
78.529267
 20
16.989311
 11
79.120504
 21
16.551523
  0
LINE
  5
8F
100
AcDbEntity
  8
hole
  6
ByLayer
 62
    5
370
   -1
100
AcDbLine
 10
79.120504
 20
16.551523
 11
79.480239
 21
16.128959
  0
LINE
  5
90
100
AcDbEntity
  8
hole
  6
ByLayer
 62
    5
370
   -1
100
AcDbLine
 10
79.480239
 20
16.128959
 11
79.872511
 21
15.405874
  0
LINE
  5
91
100
AcDbEntity
  8
hole
  6
ByLayer
 62
    5
370
   -1
100
AcDbLine
 10
79.872511
 20
15.405874
 11
79.99347
 21
14.860998
  0
LINE
  5
92
100
AcDbEntity
  8
hole
  6
ByLayer
 62
    5
370
   -1
100
AcDbLine
 10
79.99347
 20
14.860998
 11
79.996191
 21
14.268244
  0
LINE
  5
93
100
AcDbEntity
  8
hole
  6
ByLayer
 62
    5
370
   -1
100
AcDbLine
 10
79.996191
 20
14.268244
 11
79.880805
 21
13.727002
  0
LINE
  5
94
100
AcDbEntity
  8
hole
  6
ByLayer
 62
    5
370
   -1
100
AcDbLine
 10
79.880805
 20
13.727002
 11
79.498751
 21
12.996166
  0
LINE
  5
95
100
AcDbEntity
  8
hole
  6
ByLayer
 62
    5
370
   -1
100
AcDbLine
 10
79.498751
 20
12.996166
 11
79.120504
 21
12.545651
  0
LINE
  5
96
100
AcDbEntity
  8
hole
  6
ByLayer
 62
    5
370
   -1
100
AcDbLine
 10
79.120504
 20
12.545651
 11
78.911643
 21
12.374965
  0
LINE
  5
97
100
AcDbEntity
  8
hole
  6
ByLayer
 62
    5
370
   -1
100
AcDbLine
 10
19.66215
 20
11.992322
 11
19.155069
 21
11.773398
  0
LINE
  5
98
100
AcDbEntity
  8
hole
  6
ByLayer
 62
    5
370
   -1
100
AcDbLine
 10
19.155069
 20
11.773398
 11
18.644835
 21
11.667014
  0
LINE
  5
99
100
AcDbEntity
  8
hole
  6
ByLayer
 62
    5
370
   -1
100
AcDbLine
 10
18.644835
 20
11.667014
 11
18.050073
 21
11.684984
  0
LINE
  5
9A
100
AcDbEntity
  8
hole
  6
ByLayer
 62
    5
370
   -1
100
AcDbLine
 10
18.050073
 20
11.684984
 11
17.347217
 21
11.87545
  0
LINE
  5
9B
100
AcDbEntity
  8
hole
  6
ByLayer
 62
    5
370
   -1
100
AcDbLine
 10
17.347217
 20
11.87545
 11
16.879
 21
12.118671
  0
LINE
  5
9C
100
AcDbEntity
  8
hole
  6
ByLayer
 62
    5
370
   -1
100
AcDbLine
 10
16.879
 20
12.118671
 11
16.449496
 21
12.461738
  0
LINE
  5
9D
100
AcDbEntity
  8
hole
  6
ByLayer
 62
    5
370
   -1
100
AcDbLine
 10
16.449496
 20
12.461738
 11
16.046141
 21
12.934045
  0
LINE
  5
9E
100
AcDbEntity
  8
hole
  6
ByLayer
 62
    5
370
   -1
100
AcDbLine
 10
16.046141
 20
12.934045
 11
15.774809
 21
13.36398
  0
LINE
  5
9F
100
AcDbEntity
  8
hole
  6
ByLayer
 62
    5
370
   -1
100
AcDbLine
 10
15.774809
 20
13.36398
 11
15.549735
 21
13.956731
  0
LINE
  5
A0
100
AcDbEntity
  8
hole
  6
ByLayer
 62
    5
370
   -1
100
AcDbLine
 10
15.549735
 20
13.956731
 11
15.487802
 21
14.549485
  0
LINE
  5
A1
100
AcDbEntity
  8
hole
  6
ByLayer
 62
    5
370
   -1
100
AcDbLine
 10
15.487802
 20
14.549485
 11
15.575728
 21
15.142236
  0
LINE
  5
A2
100
AcDbEntity
  8
hole
  6
ByLayer
 62
    5
370
   -1
100
AcDbLine
 10
15.575728
 20
15.142236
 11
15.836304
 21
15.734987
  0
LINE
  5
A3
100
AcDbEntity
  8
hole
  6
ByLayer
 62
    5
370
   -1
100
AcDbLine
 10
15.836304
 20
15.734987
 11
16.25464
 21
16.327738
  0
LINE
  5
A4
100
AcDbEntity
  8
hole
  6
ByLayer
 62
    5
370
   -1
100
AcDbLine
 10
16.25464
 20
16.327738
 11
16.652793
 21
16.689278
  0
LINE
  5
A5
100
AcDbEntity
  8
hole
  6
ByLayer
 62
    5
370
   -1
100
AcDbLine
 10
16.652793
 20
16.689278
 11
17.344967
 21
17.1118
  0
LINE
  5
A6
100
AcDbEntity
  8
hole
  6
ByLayer
 62
    5
370
   -1
100
AcDbLine
 10
17.344967
 20
17.1118
 11
17.915689
 21
17.273921
  0
LINE
  5
A7
100
AcDbEntity
  8
hole
  6
ByLayer
 62
    5
370
   -1
100
AcDbLine
 10
17.915689
 20
17.273921
 11
18.517567
 21
17.309394
  0
LINE
  5
A8
100
AcDbEntity
  8
hole
  6
ByLayer
 62
    5
370
   -1
100
AcDbLine
 10
18.517567
 20
17.309394
 11
19.080257
 21
17.212993
  0
LINE
  5
A9
100
AcDbEntity
  8
hole
  6
ByLayer
 62
    5
370
   -1
100
AcDbLine
 10
19.080257
 20
17.212993
 11
19.598685
 21
17.01857
  0
LINE
  5
AA
100
AcDbEntity
  8
hole
  6
ByLayer
 62
    5
370
   -1
100
AcDbLine
 10
19.598685
 20
17.01857
 11
20.235295
 21
16.585275
  0
LINE
  5
AB
100
AcDbEntity
  8
hole
  6
ByLayer
 62
    5
370
   -1
100
AcDbLine
 10
20.235295
 20
16.585275
 11
20.588145
 21
16.204875
  0
LINE
  5
AC
100
AcDbEntity
  8
hole
  6
ByLayer
 62
    5
370
   -1
100
AcDbLine
 10
20.588145
 20
16.204875
 11
20.899245
 21
15.734987
  0
LINE
  5
AD
100
AcDbEntity
  8
hole
  6
ByLayer
 62
    5
370
   -1
100
AcDbLine
 10
20.899245
 20
15.734987
 11
21.128061
 21
15.142236
  0
LINE
  5
AE
100
AcDbEntity
  8
hole
  6
ByLayer
 62
    5
370
   -1
100
AcDbLine
 10
21.128061
 20
15.142236
 11
21.207475
 21
14.615114
  0
LINE
  5
AF
100
AcDbEntity
  8
hole
  6
ByLayer
 62
    5
370
   -1
100
AcDbLine
 10
21.207475
 20
14.615114
 11
21.158789
 21
14.012383
  0
LINE
  5
B0
100
AcDbEntity
  8
hole
  6
ByLayer
 62
    5
370
   -1
100
AcDbLine
 10
21.158789
 20
14.012383
 11
20.949931
 21
13.36398
  0
LINE
  5
B1
100
AcDbEntity
  8
hole
  6
ByLayer
 62
    5
370
   -1
100
AcDbLine
 10
20.949931
 20
13.36398
 11
20.588145
 21
12.783183
  0
LINE
  5
B2
100
AcDbEntity
  8
hole
  6
ByLayer
 62
    5
370
   -1
100
AcDbLine
 10
20.588145
 20
12.783183
 11
19.996911
 21
12.207285
  0
LINE
  5
B3
100
AcDbEntity
  8
hole
  6
ByLayer
 62
    5
370
   -1
100
AcDbLine
 10
19.996911
 20
12.207285
 11
19.66215
 21
11.992322
  0
LINE
  5
B4
100
AcDbEntity
  8
hole
  6
ByLayer
 62
    5
370
   -1
100
AcDbLine
 10
49.918599
 20
82.331593
 11
49.558707
 21
81.958799
  0
LINE
  5
B5
100
AcDbEntity
  8
hole
  6
ByLayer
 62
    5
370
   -1
100
AcDbLine
 10
49.558707
 20
81.958799
 11
48.967471
 21
81.569703
  0
LINE
  5
B6
100
AcDbEntity
  8
hole
  6
ByLayer
 62
    5
370
   -1
100
AcDbLine
 10
48.967471
 20
81.569703
 11
48.376235
 21
81.33985800000001
  0
LINE
  5
B7
100
AcDbEntity
  8
hole
  6
ByLayer
 62
    5
370
   -1
100
AcDbLine
 10
48.376235
 20
81.33985800000001
 11
47.785
 21
81.268489
  0
LINE
  5
B8
100
AcDbEntity
  8
hole
  6
ByLayer
 62
    5
370
   -1
100
AcDbLine
 10
47.785
 20
81.268489
 11
47.193764
 21
81.341324
  0
LINE
  5
B9
100
AcDbEntity
  8
hole
  6
ByLayer
 62
    5
370
   -1
100
AcDbLine
 10
47.193764
 20
81.341324
 11
46.692079
 21
81.530474
  0
LINE
  5
BA
100
AcDbEntity
  8
hole
  6
ByLayer
 62
    5
370
   -1
100
AcDbLine
 10
46.692079
 20
81.530474
 11
46.230731
 21
81.775946
  0
LINE
  5
BB
100
AcDbEntity
  8
hole
  6
ByLayer
 62
    5
370
   -1
100
AcDbLine
 10
46.230731
 20
81.775946
 11
45.796955
 21
82.12322500000001
  0
LINE
  5
BC
100
AcDbEntity
  8
hole
  6
ByLayer
 62
    5
370
   -1
100
AcDbLine
 10
45.796955
 20
82.12322500000001
 11
45.420056
 21
82.574772
  0
LINE
  5
BD
100
AcDbEntity
  8
hole
  6
ByLayer
 62
    5
370
   -1
100
AcDbLine
 10
45.420056
 20
82.574772
 11
45.149199
 21
83.048312
  0
LINE
  5
BE
100
AcDbEntity
  8
hole
  6
ByLayer
 62
    5
370
   -1
100
AcDbLine
 10
45.149199
 20
83.048312
 11
44.977354
 21
83.547477
  0
LINE
  5
BF
100
AcDbEntity
  8
hole
  6
ByLayer
 62
    5
370
   -1
100
AcDbLine
 10
44.977354
 20
83.547477
 11
44.912319
 21
84.069121
  0
LINE
  5
C0
100
AcDbEntity
  8
hole
  6
ByLayer
 62
    5
370
   -1
100
AcDbLine
 10
44.912319
 20
84.069121
 11
44.995386
 21
84.829407
  0
LINE
  5
C1
100
AcDbEntity
  8
hole
  6
ByLayer
 62
    5
370
   -1
100
AcDbLine
 10
44.995386
 20
84.829407
 11
45.200107
 21
85.346076
  0
LINE
  5
C2
100
AcDbEntity
  8
hole
  6
ByLayer
 62
    5
370
   -1
100
AcDbLine
 10
45.200107
 20
85.346076
 11
45.666796
 21
86.01235200000001
  0
LINE
  5
C3
100
AcDbEntity
  8
hole
  6
ByLayer
 62
    5
370
   -1
100
AcDbLine
 10
45.666796
 20
86.01235200000001
 11
46.289973
 21
86.53638100000001
  0
LINE
  5
C4
100
AcDbEntity
  8
hole
  6
ByLayer
 62
    5
370
   -1
100
AcDbLine
 10
46.289973
 20
86.53638100000001
 11
46.759681
 21
86.792213
  0
LINE
  5
C5
100
AcDbEntity
  8
hole
  6
ByLayer
 62
    5
370
   -1
100
AcDbLine
 10
46.759681
 20
86.792213
 11
47.386059
 21
86.99317499999999
  0
LINE
  5
C6
100
AcDbEntity
  8
hole
  6
ByLayer
 62
    5
370
   -1
100
AcDbLine
 10
47.386059
 20
86.99317499999999
 11
48.005456
 21
87.00296299999999
  0
LINE
  5
C7
100
AcDbEntity
  8
hole
  6
ByLayer
 62
    5
370
   -1
100
AcDbLine
 10
48.005456
 20
87.00296299999999
 11
48.494777
 21
86.865244
  0
LINE
  5
C8
100
AcDbEntity
  8
hole
  6
ByLayer
 62
    5
370
   -1
100
AcDbLine
 10
48.494777
 20
86.865244
 11
48.967471
 21
86.67658400000001
  0
LINE
  5
C9
100
AcDbEntity
  8
hole
  6
ByLayer
 62
    5
370
   -1
100
AcDbLine
 10
48.967471
 20
86.67658400000001
 11
49.482735
 21
86.334661
  0
LINE
  5
CA
100
AcDbEntity
  8
hole
  6
ByLayer
 62
    5
370
   -1
100
AcDbLine
 10
49.482735
 20
86.334661
 11
49.86096
 21
85.986237
  0
LINE
  5
CB
100
AcDbEntity
  8
hole
  6
ByLayer
 62
    5
370
   -1
100
AcDbLine
 10
49.86096
 20
85.986237
 11
50.303511
 21
85.355958
  0
LINE
  5
CC
100
AcDbEntity
  8
hole
  6
ByLayer
 62
    5
370
   -1
100
AcDbLine
 10
50.303511
 20
85.355958
 11
50.506529
 21
84.81797400000001
  0
LINE
  5
CD
100
AcDbEntity
  8
hole
  6
ByLayer
 62
    5
370
   -1
100
AcDbLine
 10
50.506529
 20
84.81797400000001
 11
50.588752
 21
84.255549
  0
LINE
  5
CE
100
AcDbEntity
  8
hole
  6
ByLayer
 62
    5
370
   -1
100
AcDbLine
 10
50.588752
 20
84.255549
 11
50.547547
 21
83.598726
  0
LINE
  5
CF
100
AcDbEntity
  8
hole
  6
ByLayer
 62
    5
370
   -1
100
AcDbLine
 10
50.547547
 20
83.598726
 11
50.380015
 21
83.051922
  0
LINE
  5
D0
100
AcDbEntity
  8
hole
  6
ByLayer
 62
    5
370
   -1
100
AcDbLine
 10
50.380015
 20
83.051922
 11
49.935092
 21
82.351141
  0
LINE
  5
D1
100
AcDbEntity
  8
hole
  6
ByLayer
 62
    5
370
   -1
100
AcDbLine
 10
49.935092
 20
82.351141
 11
49.918599
 21
82.331593
  0
LINE
  5
D2
100
AcDbEntity
  8
hole
  6
ByLayer
 62
    5
370
   -1
100
AcDbLine
 10
58.075814
 20
37.31333
 11
57.836011
 21
36.532219
  0
LINE
  5
D3
100
AcDbEntity
  8
hole
  6
ByLayer
 62
    5
370
   -1
100
AcDbLine
 10
57.836011
 20
36.532219
 11
57.603596
 21
35.888559
  0
LINE
  5
D4
100
AcDbEntity
  8
hole
  6
ByLayer
 62
    5
370
   -1
100
AcDbLine
 10
57.603596
 20
35.888559
 11
57.346076
 21
35.295807
  0
LINE
  5
D5
100
AcDbEntity
  8
hole
  6
ByLayer
 62
    5
370
   -1
100
AcDbLine
 10
57.346076
 20
35.295807
 11
57.035227
 21
34.703056
  0
LINE
  5
D6
100
AcDbEntity
  8
hole
  6
ByLayer
 62
    5
370
   -1
100
AcDbLine
 10
57.035227
 20
34.703056
 11
56.688187
 21
34.110303
  0
LINE
  5
D7
100
AcDbEntity
  8
hole
  6
ByLayer
 62
    5
370
   -1
100
AcDbLine
 10
56.688187
 20
34.110303
 11
56.287132
 21
33.517551
  0
LINE
  5
D8
100
AcDbEntity
  8
hole
  6
ByLayer
 62
    5
370
   -1
100
AcDbLine
 10
56.287132
 20
33.517551
 11
55.97641
 21
33.111051
  0
LINE
  5
D9
100
AcDbEntity
  8
hole
  6
ByLayer
 62
    5
370
   -1
100
AcDbLine
 10
55.97641
 20
33.111051
 11
55.471067
 21
32.487773
  0
LINE
  5
DA
100
AcDbEntity
  8
hole
  6
ByLayer
 62
    5
370
   -1
100
AcDbLine
 10
55.471067
 20
32.487773
 11
55.120479
 21
32.107592
  0
LINE
  5
DB
100
AcDbEntity
  8
hole
  6
ByLayer
 62
    5
370
   -1
100
AcDbLine
 10
55.120479
 20
32.107592
 11
54.719464
 21
31.739295
  0
LINE
  5
DC
100
AcDbEntity
  8
hole
  6
ByLayer
 62
    5
370
   -1
100
AcDbLine
 10
54.719464
 20
31.739295
 11
54.288595
 21
31.384998
  0
LINE
  5
DD
100
AcDbEntity
  8
hole
  6
ByLayer
 62
    5
370
   -1
100
AcDbLine
 10
54.288595
 20
31.384998
 11
53.880031
 21
31.073819
  0
LINE
  5
DE
100
AcDbEntity
  8
hole
  6
ByLayer
 62
    5
370
   -1
100
AcDbLine
 10
53.880031
 20
31.073819
 11
53.461332
 21
30.775539
  0
LINE
  5
DF
100
AcDbEntity
  8
hole
  6
ByLayer
 62
    5
370
   -1
100
AcDbLine
 10
53.461332
 20
30.775539
 11
53.011339
 21
30.499522
  0
LINE
  5
E0
100
AcDbEntity
  8
hole
  6
ByLayer
 62
    5
370
   -1
100
AcDbLine
 10
53.011339
 20
30.499522
 11
52.514887
 21
30.217882
  0
LINE
  5
E1
100
AcDbEntity
  8
hole
  6
ByLayer
 62
    5
370
   -1
100
AcDbLine
 10
52.514887
 20
30.217882
 11
51.962659
 21
29.961038
  0
LINE
  5
E2
100
AcDbEntity
  8
hole
  6
ByLayer
 62
    5
370
   -1
100
AcDbLine
 10
51.962659
 20
29.961038
 11
51.332415
 21
29.692831
  0
LINE
  5
E3
100
AcDbEntity
  8
hole
  6
ByLayer
 62
    5
370
   -1
100
AcDbLine
 10
51.332415
 20
29.692831
 11
50.741179
 21
29.521688
  0
LINE
  5
E4
100
AcDbEntity
  8
hole
  6
ByLayer
 62
    5
370
   -1
100
AcDbLine
 10
50.741179
 20
29.521688
 11
50.204677
 21
29.368287
  0
LINE
  5
E5
100
AcDbEntity
  8
hole
  6
ByLayer
 62
    5
370
   -1
100
AcDbLine
 10
50.204677
 20
29.368287
 11
49.558707
 21
29.197991
  0
LINE
  5
E6
100
AcDbEntity
  8
hole
  6
ByLayer
 62
    5
370
   -1
100
AcDbLine
 10
49.558707
 20
29.197991
 11
48.967471
 21
29.115671
  0
LINE
  5
E7
100
AcDbEntity
  8
hole
  6
ByLayer
 62
    5
370
   -1
100
AcDbLine
 10
48.967471
 20
29.115671
 11
48.376236
 21
29.06162
  0
LINE
  5
E8
100
AcDbEntity
  8
hole
  6
ByLayer
 62
    5
370
   -1
100
AcDbLine
 10
48.376236
 20
29.06162
 11
47.785
 21
29.044882
  0
LINE
  5
E9
100
AcDbEntity
  8
hole
  6
ByLayer
 62
    5
370
   -1
100
AcDbLine
 10
47.785
 20
29.044882
 11
47.193764
 21
29.05293
  0
LINE
  5
EA
100
AcDbEntity
  8
hole
  6
ByLayer
 62
    5
370
   -1
100
AcDbLine
 10
47.193764
 20
29.05293
 11
46.602528
 21
29.095027
  0
LINE
  5
EB
100
AcDbEntity
  8
hole
  6
ByLayer
 62
    5
370
   -1
100
AcDbLine
 10
46.602528
 20
29.095027
 11
46.011292
 21
29.182688
  0
LINE
  5
EC
100
AcDbEntity
  8
hole
  6
ByLayer
 62
    5
370
   -1
100
AcDbLine
 10
46.011292
 20
29.182688
 11
45.420056
 21
29.324081
  0
LINE
  5
ED
100
AcDbEntity
  8
hole
  6
ByLayer
 62
    5
370
   -1
100
AcDbLine
 10
45.420056
 20
29.324081
 11
44.82882
 21
29.515796
  0
LINE
  5
EE
100
AcDbEntity
  8
hole
  6
ByLayer
 62
    5
370
   -1
100
AcDbLine
 10
44.82882
 20
29.515796
 11
44.237584
 21
29.689233
  0
LINE
  5
EF
100
AcDbEntity
  8
hole
  6
ByLayer
 62
    5
370
   -1
100
AcDbLine
 10
44.237584
 20
29.689233
 11
43.646348
 21
29.943637
  0
LINE
  5
F0
100
AcDbEntity
  8
hole
  6
ByLayer
 62
    5
370
   -1
100
AcDbLine
 10
43.646348
 20
29.943637
 11
43.055112
 21
30.215731
  0
LINE
  5
F1
100
AcDbEntity
  8
hole
  6
ByLayer
 62
    5
370
   -1
100
AcDbLine
 10
43.055112
 20
30.215731
 11
42.583247
 21
30.485087
  0
LINE
  5
F2
100
AcDbEntity
  8
hole
  6
ByLayer
 62
    5
370
   -1
100
AcDbLine
 10
42.583247
 20
30.485087
 11
42.108263
 21
30.775741
  0
LINE
  5
F3
100
AcDbEntity
  8
hole
  6
ByLayer
 62
    5
370
   -1
100
AcDbLine
 10
42.108263
 20
30.775741
 11
41.688308
 21
31.070513
  0
LINE
  5
F4
100
AcDbEntity
  8
hole
  6
ByLayer
 62
    5
370
   -1
100
AcDbLine
 10
41.688308
 20
31.070513
 11
41.09096
 21
31.517383
  0
LINE
  5
F5
100
AcDbEntity
  8
hole
  6
ByLayer
 62
    5
370
   -1
100
AcDbLine
 10
41.09096
 20
31.517383
 11
40.690169
 21
31.860671
  0
LINE
  5
F6
100
AcDbEntity
  8
hole
  6
ByLayer
 62
    5
370
   -1
100
AcDbLine
 10
40.690169
 20
31.860671
 11
40.212269
 21
32.332046
  0
LINE
  5
F7
100
AcDbEntity
  8
hole
  6
ByLayer
 62
    5
370
   -1
100
AcDbLine
 10
40.212269
 20
32.332046
 11
39.866396
 21
32.712721
  0
LINE
  5
F8
100
AcDbEntity
  8
hole
  6
ByLayer
 62
    5
370
   -1
100
AcDbLine
 10
39.866396
 20
32.712721
 11
39.507696
 21
33.169548
  0
LINE
  5
F9
100
AcDbEntity
  8
hole
  6
ByLayer
 62
    5
370
   -1
100
AcDbLine
 10
39.507696
 20
33.169548
 11
39.125329
 21
33.694689
  0
LINE
  5
FA
100
AcDbEntity
  8
hole
  6
ByLayer
 62
    5
370
   -1
100
AcDbLine
 10
39.125329
 20
33.694689
 11
38.718636
 21
34.355273
  0
LINE
  5
FB
100
AcDbEntity
  8
hole
  6
ByLayer
 62
    5
370
   -1
100
AcDbLine
 10
38.718636
 20
34.355273
 11
38.424613
 21
34.903222
  0
LINE
  5
FC
100
AcDbEntity
  8
hole
  6
ByLayer
 62
    5
370
   -1
100
AcDbLine
 10
38.424613
 20
34.903222
 11
38.098062
 21
35.563118
  0
LINE
  5
FD
100
AcDbEntity
  8
hole
  6
ByLayer
 62
    5
370
   -1
100
AcDbLine
 10
38.098062
 20
35.563118
 11
37.873292
 21
36.122839
  0
LINE
  5
FE
100
AcDbEntity
  8
hole
  6
ByLayer
 62
    5
370
   -1
100
AcDbLine
 10
37.873292
 20
36.122839
 11
37.604886
 21
36.85385
  0
LINE
  5
FF
100
AcDbEntity
  8
hole
  6
ByLayer
 62
    5
370
   -1
100
AcDbLine
 10
37.604886
 20
36.85385
 11
37.457385
 21
37.404888
  0
LINE
  5
100
100
AcDbEntity
  8
hole
  6
ByLayer
 62
    5
370
   -1
100
AcDbLine
 10
37.457385
 20
37.404888
 11
37.366785
 21
37.945346
  0
LINE
  5
101
100
AcDbEntity
  8
hole
  6
ByLayer
 62
    5
370
   -1
100
AcDbLine
 10
37.366785
 20
37.945346
 11
37.324575
 21
38.524431
  0
LINE
  5
102
100
AcDbEntity
  8
hole
  6
ByLayer
 62
    5
370
   -1
100
AcDbLine
 10
37.324575
 20
38.524431
 11
37.310862
 21
39.107887
  0
LINE
  5
103
100
AcDbEntity
  8
hole
  6
ByLayer
 62
    5
370
   -1
100
AcDbLine
 10
37.310862
 20
39.107887
 11
37.300897
 21
39.692977
  0
LINE
  5
104
100
AcDbEntity
  8
hole
  6
ByLayer
 62
    5
370
   -1
100
AcDbLine
 10
37.300897
 20
39.692977
 11
37.301585
 21
40.28515
  0
LINE
  5
105
100
AcDbEntity
  8
hole
  6
ByLayer
 62
    5
370
   -1
100
AcDbLine
 10
37.301585
 20
40.28515
 11
37.313578
 21
40.886875
  0
LINE
  5
106
100
AcDbEntity
  8
hole
  6
ByLayer
 62
    5
370
   -1
100
AcDbLine
 10
37.313578
 20
40.886875
 11
37.329568
 21
41.489644
  0
LINE
  5
107
100
AcDbEntity
  8
hole
  6
ByLayer
 62
    5
370
   -1
100
AcDbLine
 10
37.329568
 20
41.489644
 11
37.377034
 21
42.042919
  0
LINE
  5
108
100
AcDbEntity
  8
hole
  6
ByLayer
 62
    5
370
   -1
100
AcDbLine
 10
37.377034
 20
42.042919
 11
37.509841
 21
42.64842
  0
LINE
  5
109
100
AcDbEntity
  8
hole
  6
ByLayer
 62
    5
370
   -1
100
AcDbLine
 10
37.509841
 20
42.64842
 11
37.679672
 21
43.139686
  0
LINE
  5
10A
100
AcDbEntity
  8
hole
  6
ByLayer
 62
    5
370
   -1
100
AcDbLine
 10
37.679672
 20
43.139686
 11
37.940812
 21
43.879
  0
LINE
  5
10B
100
AcDbEntity
  8
hole
  6
ByLayer
 62
    5
370
   -1
100
AcDbLine
 10
37.940812
 20
43.879
 11
38.16496
 21
44.424186
  0
LINE
  5
10C
100
AcDbEntity
  8
hole
  6
ByLayer
 62
    5
370
   -1
100
AcDbLine
 10
38.16496
 20
44.424186
 11
38.474403
 21
45.049234
  0
LINE
  5
10D
100
AcDbEntity
  8
hole
  6
ByLayer
 62
    5
370
   -1
100
AcDbLine
 10
38.474403
 20
45.049234
 11
38.77274
 21
45.609236
  0
LINE
  5
10E
100
AcDbEntity
  8
hole
  6
ByLayer
 62
    5
370
   -1
100
AcDbLine
 10
38.77274
 20
45.609236
 11
39.187431
 21
46.246292
  0
LINE
  5
10F
100
AcDbEntity
  8
hole
  6
ByLayer
 62
    5
370
   -1
100
AcDbLine
 10
39.187431
 20
46.246292
 11
39.507696
 21
46.662477
  0
LINE
  5
110
100
AcDbEntity
  8
hole
  6
ByLayer
 62
    5
370
   -1
100
AcDbLine
 10
39.507696
 20
46.662477
 11
39.898227
 21
47.15085
  0
LINE
  5
111
100
AcDbEntity
  8
hole
  6
ByLayer
 62
    5
370
   -1
100
AcDbLine
 10
39.898227
 20
47.15085
 11
40.273501
 21
47.550562
  0
LINE
  5
112
100
AcDbEntity
  8
hole
  6
ByLayer
 62
    5
370
   -1
100
AcDbLine
 10
40.273501
 20
47.550562
 11
40.690169
 21
47.956291
  0
LINE
  5
113
100
AcDbEntity
  8
hole
  6
ByLayer
 62
    5
370
   -1
100
AcDbLine
 10
40.690169
 20
47.956291
 11
41.132735
 21
48.336354
  0
LINE
  5
114
100
AcDbEntity
  8
hole
  6
ByLayer
 62
    5
370
   -1
100
AcDbLine
 10
41.132735
 20
48.336354
 11
41.52447
 21
48.662628
  0
LINE
  5
115
100
AcDbEntity
  8
hole
  6
ByLayer
 62
    5
370
   -1
100
AcDbLine
 10
41.52447
 20
48.662628
 11
42.243099
 21
49.160204
  0
LINE
  5
116
100
AcDbEntity
  8
hole
  6
ByLayer
 62
    5
370
   -1
100
AcDbLine
 10
42.243099
 20
49.160204
 11
42.875822
 21
49.521859
  0
LINE
  5
117
100
AcDbEntity
  8
hole
  6
ByLayer
 62
    5
370
   -1
100
AcDbLine
 10
42.875822
 20
49.521859
 11
43.3553
 21
49.779057
  0
LINE
  5
118
100
AcDbEntity
  8
hole
  6
ByLayer
 62
    5
370
   -1
100
AcDbLine
 10
43.3553
 20
49.779057
 11
43.853491
 21
50.006768
  0
LINE
  5
119
100
AcDbEntity
  8
hole
  6
ByLayer
 62
    5
370
   -1
100
AcDbLine
 10
43.853491
 20
50.006768
 11
44.545253
 21
50.299643
  0
LINE
  5
11A
100
AcDbEntity
  8
hole
  6
ByLayer
 62
    5
370
   -1
100
AcDbLine
 10
44.545253
 20
50.299643
 11
45.115083
 21
50.459602
  0
LINE
  5
11B
100
AcDbEntity
  8
hole
  6
ByLayer
 62
    5
370
   -1
100
AcDbLine
 10
45.115083
 20
50.459602
 11
45.640566
 21
50.583379
  0
LINE
  5
11C
100
AcDbEntity
  8
hole
  6
ByLayer
 62
    5
370
   -1
100
AcDbLine
 10
45.640566
 20
50.583379
 11
46.389608
 21
50.707363
  0
LINE
  5
11D
100
AcDbEntity
  8
hole
  6
ByLayer
 62
    5
370
   -1
100
AcDbLine
 10
46.389608
 20
50.707363
 11
47.08838
 21
50.761149
  0
LINE
  5
11E
100
AcDbEntity
  8
hole
  6
ByLayer
 62
    5
370
   -1
100
AcDbLine
 10
47.08838
 20
50.761149
 11
47.643461
 21
50.785049
  0
LINE
  5
11F
100
AcDbEntity
  8
hole
  6
ByLayer
 62
    5
370
   -1
100
AcDbLine
 10
47.643461
 20
50.785049
 11
48.254468
 21
50.774568
  0
LINE
  5
120
100
AcDbEntity
  8
hole
  6
ByLayer
 62
    5
370
   -1
100
AcDbLine
 10
48.254468
 20
50.774568
 11
48.889549
 21
50.747841
  0
LINE
  5
121
100
AcDbEntity
  8
hole
  6
ByLayer
 62
    5
370
   -1
100
AcDbLine
 10
48.889549
 20
50.747841
 11
49.491418
 21
50.682388
  0
LINE
  5
122
100
AcDbEntity
  8
hole
  6
ByLayer
 62
    5
370
   -1
100
AcDbLine
 10
49.491418
 20
50.682388
 11
50.149943
 21
50.525744
  0
LINE
  5
123
100
AcDbEntity
  8
hole
  6
ByLayer
 62
    5
370
   -1
100
AcDbLine
 10
50.149943
 20
50.525744
 11
50.741179
 21
50.377389
  0
LINE
  5
124
100
AcDbEntity
  8
hole
  6
ByLayer
 62
    5
370
   -1
100
AcDbLine
 10
50.741179
 20
50.377389
 11
51.332415
 21
50.155153
  0
LINE
  5
125
100
AcDbEntity
  8
hole
  6
ByLayer
 62
    5
370
   -1
100
AcDbLine
 10
51.332415
 20
50.155153
 11
51.923651
 21
49.906072
  0
LINE
  5
126
100
AcDbEntity
  8
hole
  6
ByLayer
 62
    5
370
   -1
100
AcDbLine
 10
51.923651
 20
49.906072
 11
52.514887
 21
49.630354
  0
LINE
  5
127
100
AcDbEntity
  8
hole
  6
ByLayer
 62
    5
370
   -1
100
AcDbLine
 10
52.514887
 20
49.630354
 11
53.106123
 21
49.294808
  0
LINE
  5
128
100
AcDbEntity
  8
hole
  6
ByLayer
 62
    5
370
   -1
100
AcDbLine
 10
53.106123
 20
49.294808
 11
53.671222
 21
48.929107
  0
LINE
  5
129
100
AcDbEntity
  8
hole
  6
ByLayer
 62
    5
370
   -1
100
AcDbLine
 10
53.671222
 20
48.929107
 11
54.288595
 21
48.456797
  0
LINE
  5
12A
100
AcDbEntity
  8
hole
  6
ByLayer
 62
    5
370
   -1
100
AcDbLine
 10
54.288595
 20
48.456797
 11
54.68731
 21
48.115738
  0
LINE
  5
12B
100
AcDbEntity
  8
hole
  6
ByLayer
 62
    5
370
   -1
100
AcDbLine
 10
54.68731
 20
48.115738
 11
55.080865
 21
47.743602
  0
LINE
  5
12C
100
AcDbEntity
  8
hole
  6
ByLayer
 62
    5
370
   -1
100
AcDbLine
 10
55.080865
 20
47.743602
 11
55.471067
 21
47.340599
  0
LINE
  5
12D
100
AcDbEntity
  8
hole
  6
ByLayer
 62
    5
370
   -1
100
AcDbLine
 10
55.471067
 20
47.340599
 11
55.824327
 21
46.941754
  0
LINE
  5
12E
100
AcDbEntity
  8
hole
  6
ByLayer
 62
    5
370
   -1
100
AcDbLine
 10
55.824327
 20
46.941754
 11
56.356732
 21
46.261496
  0
LINE
  5
12F
100
AcDbEntity
  8
hole
  6
ByLayer
 62
    5
370
   -1
100
AcDbLine
 10
56.356732
 20
46.261496
 11
56.653539
 21
45.814907
  0
LINE
  5
130
100
AcDbEntity
  8
hole
  6
ByLayer
 62
    5
370
   -1
100
AcDbLine
 10
56.653539
 20
45.814907
 11
56.928731
 21
45.372594
  0
LINE
  5
131
100
AcDbEntity
  8
hole
  6
ByLayer
 62
    5
370
   -1
100
AcDbLine
 10
56.928731
 20
45.372594
 11
57.232006
 21
44.779841
  0
LINE
  5
132
100
AcDbEntity
  8
hole
  6
ByLayer
 62
    5
370
   -1
100
AcDbLine
 10
57.232006
 20
44.779841
 11
57.527345
 21
44.187089
  0
LINE
  5
133
100
AcDbEntity
  8
hole
  6
ByLayer
 62
    5
370
   -1
100
AcDbLine
 10
57.527345
 20
44.187089
 11
57.740287
 21
43.594337
  0
LINE
  5
134
100
AcDbEntity
  8
hole
  6
ByLayer
 62
    5
370
   -1
100
AcDbLine
 10
57.740287
 20
43.594337
 11
57.944658
 21
43.001585
  0
LINE
  5
135
100
AcDbEntity
  8
hole
  6
ByLayer
 62
    5
370
   -1
100
AcDbLine
 10
57.944658
 20
43.001585
 11
58.105413
 21
42.408833
  0
LINE
  5
136
100
AcDbEntity
  8
hole
  6
ByLayer
 62
    5
370
   -1
100
AcDbLine
 10
58.105413
 20
42.408833
 11
58.202813
 21
41.816081
  0
LINE
  5
137
100
AcDbEntity
  8
hole
  6
ByLayer
 62
    5
370
   -1
100
AcDbLine
 10
58.202813
 20
41.816081
 11
58.277455
 21
41.223329
  0
LINE
  5
138
100
AcDbEntity
  8
hole
  6
ByLayer
 62
    5
370
   -1
100
AcDbLine
 10
58.277455
 20
41.223329
 11
58.346864
 21
40.630577
  0
LINE
  5
139
100
AcDbEntity
  8
hole
  6
ByLayer
 62
    5
370
   -1
100
AcDbLine
 10
58.346864
 20
40.630577
 11
58.369767
 21
40.037824
  0
LINE
  5
13A
100
AcDbEntity
  8
hole
  6
ByLayer
 62
    5
370
   -1
100
AcDbLine
 10
58.369767
 20
40.037824
 11
58.356007
 21
39.445072
  0
LINE
  5
13B
100
AcDbEntity
  8
hole
  6
ByLayer
 62
    5
370
   -1
100
AcDbLine
 10
58.356007
 20
39.445072
 11
58.291188
 21
38.85232
  0
LINE
  5
13C
100
AcDbEntity
  8
hole
  6
ByLayer
 62
    5
370
   -1
100
AcDbLine
 10
58.291188
 20
38.85232
 11
58.236451
 21
38.259567
  0
LINE
  5
13D
100
AcDbEntity
  8
hole
  6
ByLayer
 62
    5
370
   -1
100
AcDbLine
 10
58.236451
 20
38.259567
 11
58.144492
 21
37.666816
  0
LINE
  5
13E
100
AcDbEntity
  8
hole
  6
ByLayer
 62
    5
370
   -1
100
AcDbLine
 10
58.144492
 20
37.666816
 11
58.075814
 21
37.31333
  0
LINE
  5
13F
100
AcDbEntity
  8
boundary
  6
ByLayer
 62
    5
370
   -1
100
AcDbLine
 10
88.152434
 20
6.843708
 11
88.580279
 21
7.151878
  0
LINE
  5
140
100
AcDbEntity
  8
boundary
  6
ByLayer
 62
    5
370
   -1
100
AcDbLine
 10
88.580279
 20
7.151878
 11
88.87332000000001
 21
7.717697
  0
LINE
  5
141
100
AcDbEntity
  8
boundary
  6
ByLayer
 62
    5
370
   -1
100
AcDbLine
 10
88.87332000000001
 20
7.717697
 11
88.92489500000001
 21
8.310447999999999
  0
LINE
  5
142
100
AcDbEntity
  8
boundary
  6
ByLayer
 62
    5
370
   -1
100
AcDbLine
 10
88.92489500000001
 20
8.310447999999999
 11
88.924892
 21
8.903202
  0
LINE
  5
143
100
AcDbEntity
  8
boundary
  6
ByLayer
 62
    5
370
   -1
100
AcDbLine
 10
88.924892
 20
8.903202
 11
88.92488899999999
 21
9.495953
  0
LINE
  5
144
100
AcDbEntity
  8
boundary
  6
ByLayer
 62
    5
370
   -1
100
AcDbLine
 10
88.92488899999999
 20
9.495953
 11
88.924978
 21
10.088704
  0
LINE
  5
145
100
AcDbEntity
  8
boundary
  6
ByLayer
 62
    5
370
   -1
100
AcDbLine
 10
88.924978
 20
10.088704
 11
88.92518699999999
 21
10.681454
  0
LINE
  5
146
100
AcDbEntity
  8
boundary
  6
ByLayer
 62
    5
370
   -1
100
AcDbLine
 10
88.92518699999999
 20
10.681454
 11
88.925428
 21
11.274208
  0
LINE
  5
147
100
AcDbEntity
  8
boundary
  6
ByLayer
 62
    5
370
   -1
100
AcDbLine
 10
88.925428
 20
11.274208
 11
88.925663
 21
11.866959
  0
LINE
  5
148
100
AcDbEntity
  8
boundary
  6
ByLayer
 62
    5
370
   -1
100
AcDbLine
 10
88.925663
 20
11.866959
 11
88.92588000000001
 21
12.459713
  0
LINE
  5
149
100
AcDbEntity
  8
boundary
  6
ByLayer
 62
    5
370
   -1
100
AcDbLine
 10
88.92588000000001
 20
12.459713
 11
88.92596399999999
 21
13.052464
  0
LINE
  5
14A
100
AcDbEntity
  8
boundary
  6
ByLayer
 62
    5
370
   -1
100
AcDbLine
 10
88.92596399999999
 20
13.052464
 11
88.92592399999999
 21
13.645218
  0
LINE
  5
14B
100
AcDbEntity
  8
boundary
  6
ByLayer
 62
    5
370
   -1
100
AcDbLine
 10
88.92592399999999
 20
13.645218
 11
88.92588499999999
 21
14.237969
  0
LINE
  5
14C
100
AcDbEntity
  8
boundary
  6
ByLayer
 62
    5
370
   -1
100
AcDbLine
 10
88.92588499999999
 20
14.237969
 11
88.92576800000001
 21
14.830723
  0
LINE
  5
14D
100
AcDbEntity
  8
boundary
  6
ByLayer
 62
    5
370
   -1
100
AcDbLine
 10
88.92576800000001
 20
14.830723
 11
88.925439
 21
15.423474
  0
LINE
  5
14E
100
AcDbEntity
  8
boundary
  6
ByLayer
 62
    5
370
   -1
100
AcDbLine
 10
88.925439
 20
15.423474
 11
88.924959
 21
16.016225
  0
LINE
  5
14F
100
AcDbEntity
  8
boundary
  6
ByLayer
 62
    5
370
   -1
100
AcDbLine
 10
88.924959
 20
16.016225
 11
88.924744
 21
16.608978
  0
LINE
  5
150
100
AcDbEntity
  8
boundary
  6
ByLayer
 62
    5
370
   -1
100
AcDbLine
 10
88.924744
 20
16.608978
 11
88.92483900000001
 21
17.201729
  0
LINE
  5
151
100
AcDbEntity
  8
boundary
  6
ByLayer
 62
    5
370
   -1
100
AcDbLine
 10
88.92483900000001
 20
17.201729
 11
88.92496300000001
 21
17.794483
  0
LINE
  5
152
100
AcDbEntity
  8
boundary
  6
ByLayer
 62
    5
370
   -1
100
AcDbLine
 10
88.92496300000001
 20
17.794483
 11
88.925089
 21
18.387234
  0
LINE
  5
153
100
AcDbEntity
  8
boundary
  6
ByLayer
 62
    5
370
   -1
100
AcDbLine
 10
88.925089
 20
18.387234
 11
88.925212
 21
18.979988
  0
LINE
  5
154
100
AcDbEntity
  8
boundary
  6
ByLayer
 62
    5
370
   -1
100
AcDbLine
 10
88.925212
 20
18.979988
 11
88.925335
 21
19.572739
  0
LINE
  5
155
100
AcDbEntity
  8
boundary
  6
ByLayer
 62
    5
370
   -1
100
AcDbLine
 10
88.925335
 20
19.572739
 11
88.925456
 21
20.165493
  0
LINE
  5
156
100
AcDbEntity
  8
boundary
  6
ByLayer
 62
    5
370
   -1
100
AcDbLine
 10
88.925456
 20
20.165493
 11
88.92558200000001
 21
20.758244
  0
LINE
  5
157
100
AcDbEntity
  8
boundary
  6
ByLayer
 62
    5
370
   -1
100
AcDbLine
 10
88.92558200000001
 20
20.758244
 11
88.92570499999999
 21
21.350995
  0
LINE
  5
158
100
AcDbEntity
  8
boundary
  6
ByLayer
 62
    5
370
   -1
100
AcDbLine
 10
88.92570499999999
 20
21.350995
 11
88.92582899999999
 21
21.943745
  0
LINE
  5
159
100
AcDbEntity
  8
boundary
  6
ByLayer
 62
    5
370
   -1
100
AcDbLine
 10
88.92582899999999
 20
21.943745
 11
88.925952
 21
22.536499
  0
LINE
  5
15A
100
AcDbEntity
  8
boundary
  6
ByLayer
 62
    5
370
   -1
100
AcDbLine
 10
88.925952
 20
22.536499
 11
88.926075
 21
23.12925
  0
LINE
  5
15B
100
AcDbEntity
  8
boundary
  6
ByLayer
 62
    5
370
   -1
100
AcDbLine
 10
88.926075
 20
23.12925
 11
88.926198
 21
23.722004
  0
LINE
  5
15C
100
AcDbEntity
  8
boundary
  6
ByLayer
 62
    5
370
   -1
100
AcDbLine
 10
88.926198
 20
23.722004
 11
88.926321
 21
24.314755
  0
LINE
  5
15D
100
AcDbEntity
  8
boundary
  6
ByLayer
 62
    5
370
   -1
100
AcDbLine
 10
88.926321
 20
24.314755
 11
88.926445
 21
24.907509
  0
LINE
  5
15E
100
AcDbEntity
  8
boundary
  6
ByLayer
 62
    5
370
   -1
100
AcDbLine
 10
88.926445
 20
24.907509
 11
88.926565
 21
25.50026
  0
LINE
  5
15F
100
AcDbEntity
  8
boundary
  6
ByLayer
 62
    5
370
   -1
100
AcDbLine
 10
88.926565
 20
25.50026
 11
88.92655000000001
 21
26.093012
  0
LINE
  5
160
100
AcDbEntity
  8
boundary
  6
ByLayer
 62
    5
370
   -1
100
AcDbLine
 10
88.92655000000001
 20
26.093012
 11
88.92623500000001
 21
26.685763
  0
LINE
  5
161
100
AcDbEntity
  8
boundary
  6
ByLayer
 62
    5
370
   -1
100
AcDbLine
 10
88.92623500000001
 20
26.685763
 11
88.92575600000001
 21
27.278517
  0
LINE
  5
162
100
AcDbEntity
  8
boundary
  6
ByLayer
 62
    5
370
   -1
100
AcDbLine
 10
88.92575600000001
 20
27.278517
 11
88.925606
 21
27.871268
  0
LINE
  5
163
100
AcDbEntity
  8
boundary
  6
ByLayer
 62
    5
370
   -1
100
AcDbLine
 10
88.925606
 20
27.871268
 11
88.926047
 21
28.464022
  0
LINE
  5
164
100
AcDbEntity
  8
boundary
  6
ByLayer
 62
    5
370
   -1
100
AcDbLine
 10
88.926047
 20
28.464022
 11
88.926728
 21
29.056773
  0
LINE
  5
165
100
AcDbEntity
  8
boundary
  6
ByLayer
 62
    5
370
   -1
100
AcDbLine
 10
88.926728
 20
29.056773
 11
88.927179
 21
29.649525
  0
LINE
  5
166
100
AcDbEntity
  8
boundary
  6
ByLayer
 62
    5
370
   -1
100
AcDbLine
 10
88.927179
 20
29.649525
 11
88.92730299999999
 21
30.242277
  0
LINE
  5
167
100
AcDbEntity
  8
boundary
  6
ByLayer
 62
    5
370
   -1
100
AcDbLine
 10
88.92730299999999
 20
30.242277
 11
88.927345
 21
30.83503
  0
LINE
  5
168
100
AcDbEntity
  8
boundary
  6
ByLayer
 62
    5
370
   -1
100
AcDbLine
 10
88.927345
 20
30.83503
 11
88.927387
 21
31.427782
  0
LINE
  5
169
100
AcDbEntity
  8
boundary
  6
ByLayer
 62
    5
370
   -1
100
AcDbLine
 10
88.927387
 20
31.427782
 11
88.927432
 21
32.020533
  0
LINE
  5
16A
100
AcDbEntity
  8
boundary
  6
ByLayer
 62
    5
370
   -1
100
AcDbLine
 10
88.927432
 20
32.020533
 11
88.92747300000001
 21
32.613286
  0
LINE
  5
16B
100
AcDbEntity
  8
boundary
  6
ByLayer
 62
    5
370
   -1
100
AcDbLine
 10
88.92747300000001
 20
32.613286
 11
88.927515
 21
33.206038
  0
LINE
  5
16C
100
AcDbEntity
  8
boundary
  6
ByLayer
 62
    5
370
   -1
100
AcDbLine
 10
88.927515
 20
33.206038
 11
88.92755699999999
 21
33.79879
  0
LINE
  5
16D
100
AcDbEntity
  8
boundary
  6
ByLayer
 62
    5
370
   -1
100
AcDbLine
 10
88.92755699999999
 20
33.79879
 11
88.927599
 21
34.391543
  0
LINE
  5
16E
100
AcDbEntity
  8
boundary
  6
ByLayer
 62
    5
370
   -1
100
AcDbLine
 10
88.927599
 20
34.391543
 11
88.92764099999999
 21
34.984294
  0
LINE
  5
16F
100
AcDbEntity
  8
boundary
  6
ByLayer
 62
    5
370
   -1
100
AcDbLine
 10
88.92764099999999
 20
34.984294
 11
88.927683
 21
35.577046
  0
LINE
  5
170
100
AcDbEntity
  8
boundary
  6
ByLayer
 62
    5
370
   -1
100
AcDbLine
 10
88.927683
 20
35.577046
 11
88.927725
 21
36.169798
  0
LINE
  5
171
100
AcDbEntity
  8
boundary
  6
ByLayer
 62
    5
370
   -1
100
AcDbLine
 10
88.927725
 20
36.169798
 11
88.927767
 21
36.762551
  0
LINE
  5
172
100
AcDbEntity
  8
boundary
  6
ByLayer
 62
    5
370
   -1
100
AcDbLine
 10
88.927767
 20
36.762551
 11
88.927809
 21
37.355303
  0
LINE
  5
173
100
AcDbEntity
  8
boundary
  6
ByLayer
 62
    5
370
   -1
100
AcDbLine
 10
88.927809
 20
37.355303
 11
88.927851
 21
37.948054
  0
LINE
  5
174
100
AcDbEntity
  8
boundary
  6
ByLayer
 62
    5
370
   -1
100
AcDbLine
 10
88.927851
 20
37.948054
 11
88.927893
 21
38.540806
  0
LINE
  5
175
100
AcDbEntity
  8
boundary
  6
ByLayer
 62
    5
370
   -1
100
AcDbLine
 10
88.927893
 20
38.540806
 11
88.927932
 21
39.133559
  0
LINE
  5
176
100
AcDbEntity
  8
boundary
  6
ByLayer
 62
    5
370
   -1
100
AcDbLine
 10
88.927932
 20
39.133559
 11
88.927976
 21
39.726311
  0
LINE
  5
177
100
AcDbEntity
  8
boundary
  6
ByLayer
 62
    5
370
   -1
100
AcDbLine
 10
88.927976
 20
39.726311
 11
88.928012
 21
40.319063
  0
LINE
  5
178
100
AcDbEntity
  8
boundary
  6
ByLayer
 62
    5
370
   -1
100
AcDbLine
 10
88.928012
 20
40.319063
 11
88.928028
 21
40.911815
  0
LINE
  5
179
100
AcDbEntity
  8
boundary
  6
ByLayer
 62
    5
370
   -1
100
AcDbLine
 10
88.928028
 20
40.911815
 11
88.92801900000001
 21
41.504568
  0
LINE
  5
17A
100
AcDbEntity
  8
boundary
  6
ByLayer
 62
    5
370
   -1
100
AcDbLine
 10
88.92801900000001
 20
41.504568
 11
88.928004
 21
42.097319
  0
LINE
  5
17B
100
AcDbEntity
  8
boundary
  6
ByLayer
 62
    5
370
   -1
100
AcDbLine
 10
88.928004
 20
42.097319
 11
88.927982
 21
42.690072
  0
LINE
  5
17C
100
AcDbEntity
  8
boundary
  6
ByLayer
 62
    5
370
   -1
100
AcDbLine
 10
88.927982
 20
42.690072
 11
88.927926
 21
43.282823
  0
LINE
  5
17D
100
AcDbEntity
  8
boundary
  6
ByLayer
 62
    5
370
   -1
100
AcDbLine
 10
88.927926
 20
43.282823
 11
88.927835
 21
43.875576
  0
LINE
  5
17E
100
AcDbEntity
  8
boundary
  6
ByLayer
 62
    5
370
   -1
100
AcDbLine
 10
88.927835
 20
43.875576
 11
88.92774799999999
 21
44.468328
  0
LINE
  5
17F
100
AcDbEntity
  8
boundary
  6
ByLayer
 62
    5
370
   -1
100
AcDbLine
 10
88.92774799999999
 20
44.468328
 11
88.92766
 21
45.06108
  0
LINE
  5
180
100
AcDbEntity
  8
boundary
  6
ByLayer
 62
    5
370
   -1
100
AcDbLine
 10
88.92766
 20
45.06108
 11
88.92756900000001
 21
45.653832
  0
LINE
  5
181
100
AcDbEntity
  8
boundary
  6
ByLayer
 62
    5
370
   -1
100
AcDbLine
 10
88.92756900000001
 20
45.653832
 11
88.927481
 21
46.246584
  0
LINE
  5
182
100
AcDbEntity
  8
boundary
  6
ByLayer
 62
    5
370
   -1
100
AcDbLine
 10
88.927481
 20
46.246584
 11
88.927391
 21
46.839337
  0
LINE
  5
183
100
AcDbEntity
  8
boundary
  6
ByLayer
 62
    5
370
   -1
100
AcDbLine
 10
88.927391
 20
46.839337
 11
88.9273
 21
47.432089
  0
LINE
  5
184
100
AcDbEntity
  8
boundary
  6
ByLayer
 62
    5
370
   -1
100
AcDbLine
 10
88.9273
 20
47.432089
 11
88.85429999999999
 21
48.049604
  0
LINE
  5
185
100
AcDbEntity
  8
boundary
  6
ByLayer
 62
    5
370
   -1
100
AcDbLine
 10
88.85429999999999
 20
48.049604
 11
88.668868
 21
48.534358
  0
LINE
  5
186
100
AcDbEntity
  8
boundary
  6
ByLayer
 62
    5
370
   -1
100
AcDbLine
 10
88.668868
 20
48.534358
 11
88.242524
 21
49.153234
  0
LINE
  5
187
100
AcDbEntity
  8
boundary
  6
ByLayer
 62
    5
370
   -1
100
AcDbLine
 10
88.242524
 20
49.153234
 11
87.936239
 21
49.581667
  0
LINE
  5
188
100
AcDbEntity
  8
boundary
  6
ByLayer
 62
    5
370
   -1
100
AcDbLine
 10
87.936239
 20
49.581667
 11
87.519257
 21
50.114611
  0
LINE
  5
189
100
AcDbEntity
  8
boundary
  6
ByLayer
 62
    5
370
   -1
100
AcDbLine
 10
87.519257
 20
50.114611
 11
87.092112
 21
50.707363
  0
LINE
  5
18A
100
AcDbEntity
  8
boundary
  6
ByLayer
 62
    5
370
   -1
100
AcDbLine
 10
87.092112
 20
50.707363
 11
86.737973
 21
51.208503
  0
LINE
  5
18B
100
AcDbEntity
  8
boundary
  6
ByLayer
 62
    5
370
   -1
100
AcDbLine
 10
86.737973
 20
51.208503
 11
86.333906
 21
51.752016
  0
LINE
  5
18C
100
AcDbEntity
  8
boundary
  6
ByLayer
 62
    5
370
   -1
100
AcDbLine
 10
86.333906
 20
51.752016
 11
85.967496
 21
52.228732
  0
LINE
  5
18D
100
AcDbEntity
  8
boundary
  6
ByLayer
 62
    5
370
   -1
100
AcDbLine
 10
85.967496
 20
52.228732
 11
85.624101
 21
52.709185
  0
LINE
  5
18E
100
AcDbEntity
  8
boundary
  6
ByLayer
 62
    5
370
   -1
100
AcDbLine
 10
85.624101
 20
52.709185
 11
85.182536
 21
53.304585
  0
LINE
  5
18F
100
AcDbEntity
  8
boundary
  6
ByLayer
 62
    5
370
   -1
100
AcDbLine
 10
85.182536
 20
53.304585
 11
84.71780099999999
 21
53.928362
  0
LINE
  5
190
100
AcDbEntity
  8
boundary
  6
ByLayer
 62
    5
370
   -1
100
AcDbLine
 10
84.71780099999999
 20
53.928362
 11
84.209729
 21
54.62201
  0
LINE
  5
191
100
AcDbEntity
  8
boundary
  6
ByLayer
 62
    5
370
   -1
100
AcDbLine
 10
84.209729
 20
54.62201
 11
83.850393
 21
55.133675
  0
LINE
  5
192
100
AcDbEntity
  8
boundary
  6
ByLayer
 62
    5
370
   -1
100
AcDbLine
 10
83.850393
 20
55.133675
 11
83.476569
 21
55.631338
  0
LINE
  5
193
100
AcDbEntity
  8
boundary
  6
ByLayer
 62
    5
370
   -1
100
AcDbLine
 10
83.476569
 20
55.631338
 11
83.175724
 21
56.042132
  0
LINE
  5
194
100
AcDbEntity
  8
boundary
  6
ByLayer
 62
    5
370
   -1
100
AcDbLine
 10
83.175724
 20
56.042132
 11
82.727208
 21
56.634884
  0
LINE
  5
195
100
AcDbEntity
  8
boundary
  6
ByLayer
 62
    5
370
   -1
100
AcDbLine
 10
82.727208
 20
56.634884
 11
82.297499
 21
57.227636
  0
LINE
  5
196
100
AcDbEntity
  8
boundary
  6
ByLayer
 62
    5
370
   -1
100
AcDbLine
 10
82.297499
 20
57.227636
 11
81.86291900000001
 21
57.820389
  0
LINE
  5
197
100
AcDbEntity
  8
boundary
  6
ByLayer
 62
    5
370
   -1
100
AcDbLine
 10
81.86291900000001
 20
57.820389
 11
81.48544800000001
 21
58.341222
  0
LINE
  5
198
100
AcDbEntity
  8
boundary
  6
ByLayer
 62
    5
370
   -1
100
AcDbLine
 10
81.48544800000001
 20
58.341222
 11
80.973575
 21
59.005893
  0
LINE
  5
199
100
AcDbEntity
  8
boundary
  6
ByLayer
 62
    5
370
   -1
100
AcDbLine
 10
80.973575
 20
59.005893
 11
80.543582
 21
59.598645
  0
LINE
  5
19A
100
AcDbEntity
  8
boundary
  6
ByLayer
 62
    5
370
   -1
100
AcDbLine
 10
80.543582
 20
59.598645
 11
80.208382
 21
60.064711
  0
LINE
  5
19B
100
AcDbEntity
  8
boundary
  6
ByLayer
 62
    5
370
   -1
100
AcDbLine
 10
80.208382
 20
60.064711
 11
79.711741
 21
60.745236
  0
LINE
  5
19C
100
AcDbEntity
  8
boundary
  6
ByLayer
 62
    5
370
   -1
100
AcDbLine
 10
79.711741
 20
60.745236
 11
79.22005
 21
61.376902
  0
LINE
  5
19D
100
AcDbEntity
  8
boundary
  6
ByLayer
 62
    5
370
   -1
100
AcDbLine
 10
79.22005
 20
61.376902
 11
78.791726
 21
61.969654
  0
LINE
  5
19E
100
AcDbEntity
  8
boundary
  6
ByLayer
 62
    5
370
   -1
100
AcDbLine
 10
78.791726
 20
61.969654
 11
78.447571
 21
62.45316
  0
LINE
  5
19F
100
AcDbEntity
  8
boundary
  6
ByLayer
 62
    5
370
   -1
100
AcDbLine
 10
78.447571
 20
62.45316
 11
77.938033
 21
63.151373
  0
LINE
  5
1A0
100
AcDbEntity
  8
boundary
  6
ByLayer
 62
    5
370
   -1
100
AcDbLine
 10
77.938033
 20
63.151373
 11
77.46751399999999
 21
63.74791
  0
LINE
  5
1A1
100
AcDbEntity
  8
boundary
  6
ByLayer
 62
    5
370
   -1
100
AcDbLine
 10
77.46751399999999
 20
63.74791
 11
77.04072499999999
 21
64.34066199999999
  0
LINE
  5
1A2
100
AcDbEntity
  8
boundary
  6
ByLayer
 62
    5
370
   -1
100
AcDbLine
 10
77.04072499999999
 20
64.34066199999999
 11
76.687242
 21
64.842285
  0
LINE
  5
1A3
100
AcDbEntity
  8
boundary
  6
ByLayer
 62
    5
370
   -1
100
AcDbLine
 10
76.687242
 20
64.842285
 11
76.28409000000001
 21
65.38377800000001
  0
LINE
  5
1A4
100
AcDbEntity
  8
boundary
  6
ByLayer
 62
    5
370
   -1
100
AcDbLine
 10
76.28409000000001
 20
65.38377800000001
 11
75.91616
 21
65.86226600000001
  0
LINE
  5
1A5
100
AcDbEntity
  8
boundary
  6
ByLayer
 62
    5
370
   -1
100
AcDbLine
 10
75.91616
 20
65.86226600000001
 11
75.573088
 21
66.34383099999999
  0
LINE
  5
1A6
100
AcDbEntity
  8
boundary
  6
ByLayer
 62
    5
370
   -1
100
AcDbLine
 10
75.573088
 20
66.34383099999999
 11
75.176123
 21
66.87681600000001
  0
LINE
  5
1A7
100
AcDbEntity
  8
boundary
  6
ByLayer
 62
    5
370
   -1
100
AcDbLine
 10
75.176123
 20
66.87681600000001
 11
74.87038200000001
 21
67.304424
  0
LINE
  5
1A8
100
AcDbEntity
  8
boundary
  6
ByLayer
 62
    5
370
   -1
100
AcDbLine
 10
74.87038200000001
 20
67.304424
 11
74.430364
 21
67.897175
  0
LINE
  5
1A9
100
AcDbEntity
  8
boundary
  6
ByLayer
 62
    5
370
   -1
100
AcDbLine
 10
74.430364
 20
67.897175
 11
73.986007
 21
68.48992699999999
  0
LINE
  5
1AA
100
AcDbEntity
  8
boundary
  6
ByLayer
 62
    5
370
   -1
100
AcDbLine
 10
73.986007
 20
68.48992699999999
 11
73.550059
 21
69.08268
  0
LINE
  5
1AB
100
AcDbEntity
  8
boundary
  6
ByLayer
 62
    5
370
   -1
100
AcDbLine
 10
73.550059
 20
69.08268
 11
73.208147
 21
69.564442
  0
LINE
  5
1AC
100
AcDbEntity
  8
boundary
  6
ByLayer
 62
    5
370
   -1
100
AcDbLine
 10
73.208147
 20
69.564442
 11
72.894012
 21
69.963784
  0
LINE
  5
1AD
100
AcDbEntity
  8
boundary
  6
ByLayer
 62
    5
370
   -1
100
AcDbLine
 10
72.894012
 20
69.963784
 11
72.39714499999999
 21
70.64373000000001
  0
LINE
  5
1AE
100
AcDbEntity
  8
boundary
  6
ByLayer
 62
    5
370
   -1
100
AcDbLine
 10
72.39714499999999
 20
70.64373000000001
 11
72.025674
 21
71.174868
  0
LINE
  5
1AF
100
AcDbEntity
  8
boundary
  6
ByLayer
 62
    5
370
   -1
100
AcDbLine
 10
72.025674
 20
71.174868
 11
71.665943
 21
71.651983
  0
LINE
  5
1B0
100
AcDbEntity
  8
boundary
  6
ByLayer
 62
    5
370
   -1
100
AcDbLine
 10
71.665943
 20
71.651983
 11
71.140021
 21
72.342258
  0
LINE
  5
1B1
100
AcDbEntity
  8
boundary
  6
ByLayer
 62
    5
370
   -1
100
AcDbLine
 10
71.140021
 20
72.342258
 11
70.84320200000001
 21
72.755895
  0
LINE
  5
1B2
100
AcDbEntity
  8
boundary
  6
ByLayer
 62
    5
370
   -1
100
AcDbLine
 10
70.84320200000001
 20
72.755895
 11
70.497427
 21
73.231943
  0
LINE
  5
1B3
100
AcDbEntity
  8
boundary
  6
ByLayer
 62
    5
370
   -1
100
AcDbLine
 10
70.497427
 20
73.231943
 11
70.160524
 21
73.702439
  0
LINE
  5
1B4
100
AcDbEntity
  8
boundary
  6
ByLayer
 62
    5
370
   -1
100
AcDbLine
 10
70.160524
 20
73.702439
 11
69.660731
 21
74.387456
  0
LINE
  5
1B5
100
AcDbEntity
  8
boundary
  6
ByLayer
 62
    5
370
   -1
100
AcDbLine
 10
69.660731
 20
74.387456
 11
69.174004
 21
75.010201
  0
LINE
  5
1B6
100
AcDbEntity
  8
boundary
  6
ByLayer
 62
    5
370
   -1
100
AcDbLine
 10
69.174004
 20
75.010201
 11
68.746145
 21
75.602951
  0
LINE
  5
1B7
100
AcDbEntity
  8
boundary
  6
ByLayer
 62
    5
370
   -1
100
AcDbLine
 10
68.746145
 20
75.602951
 11
68.399957
 21
76.091266
  0
LINE
  5
1B8
100
AcDbEntity
  8
boundary
  6
ByLayer
 62
    5
370
   -1
100
AcDbLine
 10
68.399957
 20
76.091266
 11
67.912711
 21
76.756478
  0
LINE
  5
1B9
100
AcDbEntity
  8
boundary
  6
ByLayer
 62
    5
370
   -1
100
AcDbLine
 10
67.912711
 20
76.756478
 11
67.44620999999999
 21
77.381209
  0
LINE
  5
1BA
100
AcDbEntity
  8
boundary
  6
ByLayer
 62
    5
370
   -1
100
AcDbLine
 10
67.44620999999999
 20
77.381209
 11
67.002895
 21
77.97396000000001
  0
LINE
  5
1BB
100
AcDbEntity
  8
boundary
  6
ByLayer
 62
    5
370
   -1
100
AcDbLine
 10
67.002895
 20
77.97396000000001
 11
66.704549
 21
78.393666
  0
LINE
  5
1BC
100
AcDbEntity
  8
boundary
  6
ByLayer
 62
    5
370
   -1
100
AcDbLine
 10
66.704549
 20
78.393666
 11
66.38105
 21
78.812265
  0
LINE
  5
1BD
100
AcDbEntity
  8
boundary
  6
ByLayer
 62
    5
370
   -1
100
AcDbLine
 10
66.38105
 20
78.812265
 11
65.86855799999999
 21
79.499972
  0
LINE
  5
1BE
100
AcDbEntity
  8
boundary
  6
ByLayer
 62
    5
370
   -1
100
AcDbLine
 10
65.86855799999999
 20
79.499972
 11
65.522077
 21
79.988989
  0
LINE
  5
1BF
100
AcDbEntity
  8
boundary
  6
ByLayer
 62
    5
370
   -1
100
AcDbLine
 10
65.522077
 20
79.988989
 11
65.129234
 21
80.51475000000001
  0
LINE
  5
1C0
100
AcDbEntity
  8
boundary
  6
ByLayer
 62
    5
370
   -1
100
AcDbLine
 10
65.129234
 20
80.51475000000001
 11
64.82757700000001
 21
80.93772300000001
  0
LINE
  5
1C1
100
AcDbEntity
  8
boundary
  6
ByLayer
 62
    5
370
   -1
100
AcDbLine
 10
64.82757700000001
 20
80.93772300000001
 11
64.38540999999999
 21
81.530474
  0
LINE
  5
1C2
100
AcDbEntity
  8
boundary
  6
ByLayer
 62
    5
370
   -1
100
AcDbLine
 10
64.38540999999999
 20
81.530474
 11
63.941982
 21
82.12322500000001
  0
LINE
  5
1C3
100
AcDbEntity
  8
boundary
  6
ByLayer
 62
    5
370
   -1
100
AcDbLine
 10
63.941982
 20
82.12322500000001
 11
63.506806
 21
82.715979
  0
LINE
  5
1C4
100
AcDbEntity
  8
boundary
  6
ByLayer
 62
    5
370
   -1
100
AcDbLine
 10
63.506806
 20
82.715979
 11
63.157134
 21
83.207971
  0
LINE
  5
1C5
100
AcDbEntity
  8
boundary
  6
ByLayer
 62
    5
370
   -1
100
AcDbLine
 10
63.157134
 20
83.207971
 11
62.825687
 21
83.630608
  0
LINE
  5
1C6
100
AcDbEntity
  8
boundary
  6
ByLayer
 62
    5
370
   -1
100
AcDbLine
 10
62.825687
 20
83.630608
 11
62.348403
 21
84.281353
  0
LINE
  5
1C7
100
AcDbEntity
  8
boundary
  6
ByLayer
 62
    5
370
   -1
100
AcDbLine
 10
62.348403
 20
84.281353
 11
61.974662
 21
84.817216
  0
LINE
  5
1C8
100
AcDbEntity
  8
boundary
  6
ByLayer
 62
    5
370
   -1
100
AcDbLine
 10
61.974662
 20
84.817216
 11
61.617388
 21
85.28916099999999
  0
LINE
  5
1C9
100
AcDbEntity
  8
boundary
  6
ByLayer
 62
    5
370
   -1
100
AcDbLine
 10
61.617388
 20
85.28916099999999
 11
61.090672
 21
85.979524
  0
LINE
  5
1CA
100
AcDbEntity
  8
boundary
  6
ByLayer
 62
    5
370
   -1
100
AcDbLine
 10
61.090672
 20
85.979524
 11
60.792191
 21
86.395386
  0
LINE
  5
1CB
100
AcDbEntity
  8
boundary
  6
ByLayer
 62
    5
370
   -1
100
AcDbLine
 10
60.792191
 20
86.395386
 11
60.449975
 21
86.865244
  0
LINE
  5
1CC
100
AcDbEntity
  8
boundary
  6
ByLayer
 62
    5
370
   -1
100
AcDbLine
 10
60.449975
 20
86.865244
 11
60.109151
 21
87.33689200000001
  0
LINE
  5
1CD
100
AcDbEntity
  8
boundary
  6
ByLayer
 62
    5
370
   -1
100
AcDbLine
 10
60.109151
 20
87.33689200000001
 11
59.609718
 21
88.01054600000001
  0
LINE
  5
1CE
100
AcDbEntity
  8
boundary
  6
ByLayer
 62
    5
370
   -1
100
AcDbLine
 10
59.609718
 20
88.01054600000001
 11
59.110195
 21
88.6435
  0
LINE
  5
1CF
100
AcDbEntity
  8
boundary
  6
ByLayer
 62
    5
370
   -1
100
AcDbLine
 10
59.110195
 20
88.6435
 11
58.801814
 21
89.05401500000001
  0
LINE
  5
1D0
100
AcDbEntity
  8
boundary
  6
ByLayer
 62
    5
370
   -1
100
AcDbLine
 10
58.801814
 20
89.05401500000001
 11
58.427247
 21
89.582911
  0
LINE
  5
1D1
100
AcDbEntity
  8
boundary
  6
ByLayer
 62
    5
370
   -1
100
AcDbLine
 10
58.427247
 20
89.582911
 11
58.074512
 21
90.037404
  0
LINE
  5
1D2
100
AcDbEntity
  8
boundary
  6
ByLayer
 62
    5
370
   -1
100
AcDbLine
 10
58.074512
 20
90.037404
 11
57.537445
 21
90.70970699999999
  0
LINE
  5
1D3
100
AcDbEntity
  8
boundary
  6
ByLayer
 62
    5
370
   -1
100
AcDbLine
 10
57.537445
 20
90.70970699999999
 11
57.012132
 21
91.366485
  0
LINE
  5
1D4
100
AcDbEntity
  8
boundary
  6
ByLayer
 62
    5
370
   -1
100
AcDbLine
 10
57.012132
 20
91.366485
 11
56.653539
 21
91.833133
  0
LINE
  5
1D5
100
AcDbEntity
  8
boundary
  6
ByLayer
 62
    5
370
   -1
100
AcDbLine
 10
56.653539
 20
91.833133
 11
56.158315
 21
92.385654
  0
LINE
  5
1D6
100
AcDbEntity
  8
boundary
  6
ByLayer
 62
    5
370
   -1
100
AcDbLine
 10
56.158315
 20
92.385654
 11
55.74967
 21
92.792765
  0
LINE
  5
1D7
100
AcDbEntity
  8
boundary
  6
ByLayer
 62
    5
370
   -1
100
AcDbLine
 10
55.74967
 20
92.792765
 11
55.292412
 21
93.189009
  0
LINE
  5
1D8
100
AcDbEntity
  8
boundary
  6
ByLayer
 62
    5
370
   -1
100
AcDbLine
 10
55.292412
 20
93.189009
 11
54.879832
 21
93.539152
  0
LINE
  5
1D9
100
AcDbEntity
  8
boundary
  6
ByLayer
 62
    5
370
   -1
100
AcDbLine
 10
54.879832
 20
93.539152
 11
54.444035
 21
93.845315
  0
LINE
  5
1DA
100
AcDbEntity
  8
boundary
  6
ByLayer
 62
    5
370
   -1
100
AcDbLine
 10
54.444035
 20
93.845315
 11
53.904176
 21
94.182445
  0
LINE
  5
1DB
100
AcDbEntity
  8
boundary
  6
ByLayer
 62
    5
370
   -1
100
AcDbLine
 10
53.904176
 20
94.182445
 11
53.235288
 21
94.571021
  0
LINE
  5
1DC
100
AcDbEntity
  8
boundary
  6
ByLayer
 62
    5
370
   -1
100
AcDbLine
 10
53.235288
 20
94.571021
 11
52.747804
 21
94.800282
  0
LINE
  5
1DD
100
AcDbEntity
  8
boundary
  6
ByLayer
 62
    5
370
   -1
100
AcDbLine
 10
52.747804
 20
94.800282
 11
52.275427
 21
95.012489
  0
LINE
  5
1DE
100
AcDbEntity
  8
boundary
  6
ByLayer
 62
    5
370
   -1
100
AcDbLine
 10
52.275427
 20
95.012489
 11
51.559182
 21
95.29706
  0
LINE
  5
1DF
100
AcDbEntity
  8
boundary
  6
ByLayer
 62
    5
370
   -1
100
AcDbLine
 10
51.559182
 20
95.29706
 11
51.056606
 21
95.44864699999999
  0
LINE
  5
1E0
100
AcDbEntity
  8
boundary
  6
ByLayer
 62
    5
370
   -1
100
AcDbLine
 10
51.056606
 20
95.44864699999999
 11
50.48538
 21
95.57869100000001
  0
LINE
  5
1E1
100
AcDbEntity
  8
boundary
  6
ByLayer
 62
    5
370
   -1
100
AcDbLine
 10
50.48538
 20
95.57869100000001
 11
49.636609
 21
95.756525
  0
LINE
  5
1E2
100
AcDbEntity
  8
boundary
  6
ByLayer
 62
    5
370
   -1
100
AcDbLine
 10
49.636609
 20
95.756525
 11
49.115107
 21
95.821157
  0
LINE
  5
1E3
100
AcDbEntity
  8
boundary
  6
ByLayer
 62
    5
370
   -1
100
AcDbLine
 10
49.115107
 20
95.821157
 11
48.604067
 21
95.887996
  0
LINE
  5
1E4
100
AcDbEntity
  8
boundary
  6
ByLayer
 62
    5
370
   -1
100
AcDbLine
 10
48.604067
 20
95.887996
 11
48.035463
 21
95.923985
  0
LINE
  5
1E5
100
AcDbEntity
  8
boundary
  6
ByLayer
 62
    5
370
   -1
100
AcDbLine
 10
48.035463
 20
95.923985
 11
47.43988
 21
95.919758
  0
LINE
  5
1E6
100
AcDbEntity
  8
boundary
  6
ByLayer
 62
    5
370
   -1
100
AcDbLine
 10
47.43988
 20
95.919758
 11
46.825766
 21
95.895056
  0
LINE
  5
1E7
100
AcDbEntity
  8
boundary
  6
ByLayer
 62
    5
370
   -1
100
AcDbLine
 10
46.825766
 20
95.895056
 11
46.082878
 21
95.792125
  0
LINE
  5
1E8
100
AcDbEntity
  8
boundary
  6
ByLayer
 62
    5
370
   -1
100
AcDbLine
 10
46.082878
 20
95.792125
 11
45.552446
 21
95.690641
  0
LINE
  5
1E9
100
AcDbEntity
  8
boundary
  6
ByLayer
 62
    5
370
   -1
100
AcDbLine
 10
45.552446
 20
95.690641
 11
44.82882
 21
95.526151
  0
LINE
  5
1EA
100
AcDbEntity
  8
boundary
  6
ByLayer
 62
    5
370
   -1
100
AcDbLine
 10
44.82882
 20
95.526151
 11
44.237584
 21
95.386476
  0
LINE
  5
1EB
100
AcDbEntity
  8
boundary
  6
ByLayer
 62
    5
370
   -1
100
AcDbLine
 10
44.237584
 20
95.386476
 11
43.646348
 21
95.180035
  0
LINE
  5
1EC
100
AcDbEntity
  8
boundary
  6
ByLayer
 62
    5
370
   -1
100
AcDbLine
 10
43.646348
 20
95.180035
 11
43.055112
 21
94.936803
  0
LINE
  5
1ED
100
AcDbEntity
  8
boundary
  6
ByLayer
 62
    5
370
   -1
100
AcDbLine
 10
43.055112
 20
94.936803
 11
42.463876
 21
94.65849799999999
  0
LINE
  5
1EE
100
AcDbEntity
  8
boundary
  6
ByLayer
 62
    5
370
   -1
100
AcDbLine
 10
42.463876
 20
94.65849799999999
 11
41.87264
 21
94.33768600000001
  0
LINE
  5
1EF
100
AcDbEntity
  8
boundary
  6
ByLayer
 62
    5
370
   -1
100
AcDbLine
 10
41.87264
 20
94.33768600000001
 11
41.414505
 21
94.076538
  0
LINE
  5
1F0
100
AcDbEntity
  8
boundary
  6
ByLayer
 62
    5
370
   -1
100
AcDbLine
 10
41.414505
 20
94.076538
 11
40.930666
 21
93.73891999999999
  0
LINE
  5
1F1
100
AcDbEntity
  8
boundary
  6
ByLayer
 62
    5
370
   -1
100
AcDbLine
 10
40.930666
 20
93.73891999999999
 11
40.435287
 21
93.385516
  0
LINE
  5
1F2
100
AcDbEntity
  8
boundary
  6
ByLayer
 62
    5
370
   -1
100
AcDbLine
 10
40.435287
 20
93.385516
 11
39.940104
 21
92.969902
  0
LINE
  5
1F3
100
AcDbEntity
  8
boundary
  6
ByLayer
 62
    5
370
   -1
100
AcDbLine
 10
39.940104
 20
92.969902
 11
39.507696
 21
92.575266
  0
LINE
  5
1F4
100
AcDbEntity
  8
boundary
  6
ByLayer
 62
    5
370
   -1
100
AcDbLine
 10
39.507696
 20
92.575266
 11
39.017127
 21
92.005651
  0
LINE
  5
1F5
100
AcDbEntity
  8
boundary
  6
ByLayer
 62
    5
370
   -1
100
AcDbLine
 10
39.017127
 20
92.005651
 11
38.558666
 21
91.39784
  0
LINE
  5
1F6
100
AcDbEntity
  8
boundary
  6
ByLayer
 62
    5
370
   -1
100
AcDbLine
 10
38.558666
 20
91.39784
 11
38.04576
 21
90.73188
  0
LINE
  5
1F7
100
AcDbEntity
  8
boundary
  6
ByLayer
 62
    5
370
   -1
100
AcDbLine
 10
38.04576
 20
90.73188
 11
37.523666
 21
90.052122
  0
LINE
  5
1F8
100
AcDbEntity
  8
boundary
  6
ByLayer
 62
    5
370
   -1
100
AcDbLine
 10
37.523666
 20
90.052122
 11
37.142752
 21
89.552941
  0
LINE
  5
1F9
100
AcDbEntity
  8
boundary
  6
ByLayer
 62
    5
370
   -1
100
AcDbLine
 10
37.142752
 20
89.552941
 11
36.776443
 21
89.037532
  0
LINE
  5
1FA
100
AcDbEntity
  8
boundary
  6
ByLayer
 62
    5
370
   -1
100
AcDbLine
 10
36.776443
 20
89.037532
 11
36.264623
 21
88.35657500000001
  0
LINE
  5
1FB
100
AcDbEntity
  8
boundary
  6
ByLayer
 62
    5
370
   -1
100
AcDbLine
 10
36.264623
 20
88.35657500000001
 11
35.751005
 21
87.67929599999999
  0
LINE
  5
1FC
100
AcDbEntity
  8
boundary
  6
ByLayer
 62
    5
370
   -1
100
AcDbLine
 10
35.751005
 20
87.67929599999999
 11
35.369045
 21
87.17670200000001
  0
LINE
  5
1FD
100
AcDbEntity
  8
boundary
  6
ByLayer
 62
    5
370
   -1
100
AcDbLine
 10
35.369045
 20
87.17670200000001
 11
35.004824
 21
86.66423899999999
  0
LINE
  5
1FE
100
AcDbEntity
  8
boundary
  6
ByLayer
 62
    5
370
   -1
100
AcDbLine
 10
35.004824
 20
86.66423899999999
 11
34.497166
 21
85.988865
  0
LINE
  5
1FF
100
AcDbEntity
  8
boundary
  6
ByLayer
 62
    5
370
   -1
100
AcDbLine
 10
34.497166
 20
85.988865
 11
33.980217
 21
85.30446000000001
  0
LINE
  5
200
100
AcDbEntity
  8
boundary
  6
ByLayer
 62
    5
370
   -1
100
AcDbLine
 10
33.980217
 20
85.30446000000001
 11
33.595336
 21
84.794048
  0
LINE
  5
201
100
AcDbEntity
  8
boundary
  6
ByLayer
 62
    5
370
   -1
100
AcDbLine
 10
33.595336
 20
84.794048
 11
33.237718
 21
84.28618899999999
  0
LINE
  5
202
100
AcDbEntity
  8
boundary
  6
ByLayer
 62
    5
370
   -1
100
AcDbLine
 10
33.237718
 20
84.28618899999999
 11
32.750085
 21
83.633904
  0
LINE
  5
203
100
AcDbEntity
  8
boundary
  6
ByLayer
 62
    5
370
   -1
100
AcDbLine
 10
32.750085
 20
83.633904
 11
32.412865
 21
83.205529
  0
LINE
  5
204
100
AcDbEntity
  8
boundary
  6
ByLayer
 62
    5
370
   -1
100
AcDbLine
 10
32.412865
 20
83.205529
 11
32.063549
 21
82.715979
  0
LINE
  5
205
100
AcDbEntity
  8
boundary
  6
ByLayer
 62
    5
370
   -1
100
AcDbLine
 10
32.063549
 20
82.715979
 11
31.747699
 21
82.290289
  0
LINE
  5
206
100
AcDbEntity
  8
boundary
  6
ByLayer
 62
    5
370
   -1
100
AcDbLine
 10
31.747699
 20
82.290289
 11
31.230393
 21
81.595512
  0
LINE
  5
207
100
AcDbEntity
  8
boundary
  6
ByLayer
 62
    5
370
   -1
100
AcDbLine
 10
31.230393
 20
81.595512
 11
30.739459
 21
80.93772300000001
  0
LINE
  5
208
100
AcDbEntity
  8
boundary
  6
ByLayer
 62
    5
370
   -1
100
AcDbLine
 10
30.739459
 20
80.93772300000001
 11
30.439433
 21
80.517505
  0
LINE
  5
209
100
AcDbEntity
  8
boundary
  6
ByLayer
 62
    5
370
   -1
100
AcDbLine
 10
30.439433
 20
80.517505
 11
30.047921
 21
79.997595
  0
LINE
  5
20A
100
AcDbEntity
  8
boundary
  6
ByLayer
 62
    5
370
   -1
100
AcDbLine
 10
30.047921
 20
79.997595
 11
29.710298
 21
79.51950100000001
  0
LINE
  5
20B
100
AcDbEntity
  8
boundary
  6
ByLayer
 62
    5
370
   -1
100
AcDbLine
 10
29.710298
 20
79.51950100000001
 11
29.293234
 21
78.970007
  0
LINE
  5
20C
100
AcDbEntity
  8
boundary
  6
ByLayer
 62
    5
370
   -1
100
AcDbLine
 10
29.293234
 20
78.970007
 11
28.926468
 21
78.48602
  0
LINE
  5
20D
100
AcDbEntity
  8
boundary
  6
ByLayer
 62
    5
370
   -1
100
AcDbLine
 10
28.926468
 20
78.48602
 11
28.558583
 21
77.97395899999999
  0
LINE
  5
20E
100
AcDbEntity
  8
boundary
  6
ByLayer
 62
    5
370
   -1
100
AcDbLine
 10
28.558583
 20
77.97395899999999
 11
28.219822
 21
77.52612999999999
  0
LINE
  5
20F
100
AcDbEntity
  8
boundary
  6
ByLayer
 62
    5
370
   -1
100
AcDbLine
 10
28.219822
 20
77.52612999999999
 11
27.682978
 21
76.80579400000001
  0
LINE
  5
210
100
AcDbEntity
  8
boundary
  6
ByLayer
 62
    5
370
   -1
100
AcDbLine
 10
27.682978
 20
76.80579400000001
 11
27.235336
 21
76.195705
  0
LINE
  5
211
100
AcDbEntity
  8
boundary
  6
ByLayer
 62
    5
370
   -1
100
AcDbLine
 10
27.235336
 20
76.195705
 11
26.804245
 21
75.602951
  0
LINE
  5
212
100
AcDbEntity
  8
boundary
  6
ByLayer
 62
    5
370
   -1
100
AcDbLine
 10
26.804245
 20
75.602951
 11
26.428899
 21
75.107784
  0
LINE
  5
213
100
AcDbEntity
  8
boundary
  6
ByLayer
 62
    5
370
   -1
100
AcDbLine
 10
26.428899
 20
75.107784
 11
25.991898
 21
74.512816
  0
LINE
  5
214
100
AcDbEntity
  8
boundary
  6
ByLayer
 62
    5
370
   -1
100
AcDbLine
 10
25.991898
 20
74.512816
 11
25.677931
 21
74.073497
  0
LINE
  5
215
100
AcDbEntity
  8
boundary
  6
ByLayer
 62
    5
370
   -1
100
AcDbLine
 10
25.677931
 20
74.073497
 11
25.318033
 21
73.60402499999999
  0
LINE
  5
216
100
AcDbEntity
  8
boundary
  6
ByLayer
 62
    5
370
   -1
100
AcDbLine
 10
25.318033
 20
73.60402499999999
 11
24.890333
 21
72.987622
  0
LINE
  5
217
100
AcDbEntity
  8
boundary
  6
ByLayer
 62
    5
370
   -1
100
AcDbLine
 10
24.890333
 20
72.987622
 11
24.424351
 21
72.35477899999999
  0
LINE
  5
218
100
AcDbEntity
  8
boundary
  6
ByLayer
 62
    5
370
   -1
100
AcDbLine
 10
24.424351
 20
72.35477899999999
 11
23.918385
 21
71.684416
  0
LINE
  5
219
100
AcDbEntity
  8
boundary
  6
ByLayer
 62
    5
370
   -1
100
AcDbLine
 10
23.918385
 20
71.684416
 11
23.544327
 21
71.188901
  0
LINE
  5
21A
100
AcDbEntity
  8
boundary
  6
ByLayer
 62
    5
370
   -1
100
AcDbLine
 10
23.544327
 20
71.188901
 11
23.176021
 21
70.664925
  0
LINE
  5
21B
100
AcDbEntity
  8
boundary
  6
ByLayer
 62
    5
370
   -1
100
AcDbLine
 10
23.176021
 20
70.664925
 11
22.668181
 21
69.982297
  0
LINE
  5
21C
100
AcDbEntity
  8
boundary
  6
ByLayer
 62
    5
370
   -1
100
AcDbLine
 10
22.668181
 20
69.982297
 11
22.156247
 21
69.298772
  0
LINE
  5
21D
100
AcDbEntity
  8
boundary
  6
ByLayer
 62
    5
370
   -1
100
AcDbLine
 10
22.156247
 20
69.298772
 11
21.770616
 21
68.784888
  0
LINE
  5
21E
100
AcDbEntity
  8
boundary
  6
ByLayer
 62
    5
370
   -1
100
AcDbLine
 10
21.770616
 20
68.784888
 11
21.415393
 21
68.279223
  0
LINE
  5
21F
100
AcDbEntity
  8
boundary
  6
ByLayer
 62
    5
370
   -1
100
AcDbLine
 10
21.415393
 20
68.279223
 11
20.93621
 21
67.63708099999999
  0
LINE
  5
220
100
AcDbEntity
  8
boundary
  6
ByLayer
 62
    5
370
   -1
100
AcDbLine
 10
20.93621
 20
67.63708099999999
 11
20.588145
 21
67.19029399999999
  0
LINE
  5
221
100
AcDbEntity
  8
boundary
  6
ByLayer
 62
    5
370
   -1
100
AcDbLine
 10
20.588145
 20
67.19029399999999
 11
20.248363
 21
66.71167
  0
LINE
  5
222
100
AcDbEntity
  8
boundary
  6
ByLayer
 62
    5
370
   -1
100
AcDbLine
 10
20.248363
 20
66.71167
 11
19.928087
 21
66.28066800000001
  0
LINE
  5
223
100
AcDbEntity
  8
boundary
  6
ByLayer
 62
    5
370
   -1
100
AcDbLine
 10
19.928087
 20
66.28066800000001
 11
19.405674
 21
65.576814
  0
LINE
  5
224
100
AcDbEntity
  8
boundary
  6
ByLayer
 62
    5
370
   -1
100
AcDbLine
 10
19.405674
 20
65.576814
 11
18.929972
 21
64.933414
  0
LINE
  5
225
100
AcDbEntity
  8
boundary
  6
ByLayer
 62
    5
370
   -1
100
AcDbLine
 10
18.929972
 20
64.933414
 11
18.634376
 21
64.519729
  0
LINE
  5
226
100
AcDbEntity
  8
boundary
  6
ByLayer
 62
    5
370
   -1
100
AcDbLine
 10
18.634376
 20
64.519729
 11
18.2232
 21
63.971481
  0
LINE
  5
227
100
AcDbEntity
  8
boundary
  6
ByLayer
 62
    5
370
   -1
100
AcDbLine
 10
18.2232
 20
63.971481
 11
17.894268
 21
63.503474
  0
LINE
  5
228
100
AcDbEntity
  8
boundary
  6
ByLayer
 62
    5
370
   -1
100
AcDbLine
 10
17.894268
 20
63.503474
 11
17.542869
 21
63.046761
  0
LINE
  5
229
100
AcDbEntity
  8
boundary
  6
ByLayer
 62
    5
370
   -1
100
AcDbLine
 10
17.542869
 20
63.046761
 11
17.185599
 21
62.562405
  0
LINE
  5
22A
100
AcDbEntity
  8
boundary
  6
ByLayer
 62
    5
370
   -1
100
AcDbLine
 10
17.185599
 20
62.562405
 11
16.764346
 21
61.969654
  0
LINE
  5
22B
100
AcDbEntity
  8
boundary
  6
ByLayer
 62
    5
370
   -1
100
AcDbLine
 10
16.764346
 20
61.969654
 11
16.449496
 21
61.534064
  0
LINE
  5
22C
100
AcDbEntity
  8
boundary
  6
ByLayer
 62
    5
370
   -1
100
AcDbLine
 10
16.449496
 20
61.534064
 11
16.140478
 21
61.103419
  0
LINE
  5
22D
100
AcDbEntity
  8
boundary
  6
ByLayer
 62
    5
370
   -1
100
AcDbLine
 10
16.140478
 20
61.103419
 11
15.630353
 21
60.436663
  0
LINE
  5
22E
100
AcDbEntity
  8
boundary
  6
ByLayer
 62
    5
370
   -1
100
AcDbLine
 10
15.630353
 20
60.436663
 11
15.267022
 21
59.959914
  0
LINE
  5
22F
100
AcDbEntity
  8
boundary
  6
ByLayer
 62
    5
370
   -1
100
AcDbLine
 10
15.267022
 20
59.959914
 11
14.845147
 21
59.350247
  0
LINE
  5
230
100
AcDbEntity
  8
boundary
  6
ByLayer
 62
    5
370
   -1
100
AcDbLine
 10
14.845147
 20
59.350247
 11
14.37868
 21
58.714294
  0
LINE
  5
231
100
AcDbEntity
  8
boundary
  6
ByLayer
 62
    5
370
   -1
100
AcDbLine
 10
14.37868
 20
58.714294
 11
13.87454
 21
58.042192
  0
LINE
  5
232
100
AcDbEntity
  8
boundary
  6
ByLayer
 62
    5
370
   -1
100
AcDbLine
 10
13.87454
 20
58.042192
 11
13.493314
 21
57.534461
  0
LINE
  5
233
100
AcDbEntity
  8
boundary
  6
ByLayer
 62
    5
370
   -1
100
AcDbLine
 10
13.493314
 20
57.534461
 11
13.133664
 21
57.022086
  0
LINE
  5
234
100
AcDbEntity
  8
boundary
  6
ByLayer
 62
    5
370
   -1
100
AcDbLine
 10
13.133664
 20
57.022086
 11
12.644009
 21
56.364526
  0
LINE
  5
235
100
AcDbEntity
  8
boundary
  6
ByLayer
 62
    5
370
   -1
100
AcDbLine
 10
12.644009
 20
56.364526
 11
12.310843
 21
55.940538
  0
LINE
  5
236
100
AcDbEntity
  8
boundary
  6
ByLayer
 62
    5
370
   -1
100
AcDbLine
 10
12.310843
 20
55.940538
 11
11.96198
 21
55.44938
  0
LINE
  5
237
100
AcDbEntity
  8
boundary
  6
ByLayer
 62
    5
370
   -1
100
AcDbLine
 10
11.96198
 20
55.44938
 11
11.646523
 21
55.022914
  0
LINE
  5
238
100
AcDbEntity
  8
boundary
  6
ByLayer
 62
    5
370
   -1
100
AcDbLine
 10
11.646523
 20
55.022914
 11
11.128369
 21
54.324606
  0
LINE
  5
239
100
AcDbEntity
  8
boundary
  6
ByLayer
 62
    5
370
   -1
100
AcDbLine
 10
11.128369
 20
54.324606
 11
10.643555
 21
53.671124
  0
LINE
  5
23A
100
AcDbEntity
  8
boundary
  6
ByLayer
 62
    5
370
   -1
100
AcDbLine
 10
10.643555
 20
53.671124
 11
10.34132
 21
53.247133
  0
LINE
  5
23B
100
AcDbEntity
  8
boundary
  6
ByLayer
 62
    5
370
   -1
100
AcDbLine
 10
10.34132
 20
53.247133
 11
9.945899000000001
 21
52.720138
  0
LINE
  5
23C
100
AcDbEntity
  8
boundary
  6
ByLayer
 62
    5
370
   -1
100
AcDbLine
 10
9.945899000000001
 20
52.720138
 11
9.612954
 21
52.246756
  0
LINE
  5
23D
100
AcDbEntity
  8
boundary
  6
ByLayer
 62
    5
370
   -1
100
AcDbLine
 10
9.612954
 20
52.246756
 11
9.229191
 21
51.743319
  0
LINE
  5
23E
100
AcDbEntity
  8
boundary
  6
ByLayer
 62
    5
370
   -1
100
AcDbLine
 10
9.229191
 20
51.743319
 11
8.899025
 21
51.300115
  0
LINE
  5
23F
100
AcDbEntity
  8
boundary
  6
ByLayer
 62
    5
370
   -1
100
AcDbLine
 10
8.899025
 20
51.300115
 11
8.470507
 21
50.707363
  0
LINE
  5
240
100
AcDbEntity
  8
boundary
  6
ByLayer
 62
    5
370
   -1
100
AcDbLine
 10
8.470507
 20
50.707363
 11
8.098791
 21
50.214963
  0
LINE
  5
241
100
AcDbEntity
  8
boundary
  6
ByLayer
 62
    5
370
   -1
100
AcDbLine
 10
8.098791
 20
50.214963
 11
7.625928
 21
49.574276
  0
LINE
  5
242
100
AcDbEntity
  8
boundary
  6
ByLayer
 62
    5
370
   -1
100
AcDbLine
 10
7.625928
 20
49.574276
 11
7.330135
 21
49.153493
  0
LINE
  5
243
100
AcDbEntity
  8
boundary
  6
ByLayer
 62
    5
370
   -1
100
AcDbLine
 10
7.330135
 20
49.153493
 11
6.989717
 21
48.690471
  0
LINE
  5
244
100
AcDbEntity
  8
boundary
  6
ByLayer
 62
    5
370
   -1
100
AcDbLine
 10
6.989717
 20
48.690471
 11
6.740405
 21
48.10602
  0
LINE
  5
245
100
AcDbEntity
  8
boundary
  6
ByLayer
 62
    5
370
   -1
100
AcDbLine
 10
6.740405
 20
48.10602
 11
6.667582
 21
47.462364
  0
LINE
  5
246
100
AcDbEntity
  8
boundary
  6
ByLayer
 62
    5
370
   -1
100
AcDbLine
 10
6.667582
 20
47.462364
 11
6.667756
 21
46.869612
  0
LINE
  5
247
100
AcDbEntity
  8
boundary
  6
ByLayer
 62
    5
370
   -1
100
AcDbLine
 10
6.667756
 20
46.869612
 11
6.667925
 21
46.27686
  0
LINE
  5
248
100
AcDbEntity
  8
boundary
  6
ByLayer
 62
    5
370
   -1
100
AcDbLine
 10
6.667925
 20
46.27686
 11
6.668096
 21
45.684107
  0
LINE
  5
249
100
AcDbEntity
  8
boundary
  6
ByLayer
 62
    5
370
   -1
100
AcDbLine
 10
6.668096
 20
45.684107
 11
6.668268
 21
45.091355
  0
LINE
  5
24A
100
AcDbEntity
  8
boundary
  6
ByLayer
 62
    5
370
   -1
100
AcDbLine
 10
6.668268
 20
45.091355
 11
6.668436
 21
44.498603
  0
LINE
  5
24B
100
AcDbEntity
  8
boundary
  6
ByLayer
 62
    5
370
   -1
100
AcDbLine
 10
6.668436
 20
44.498603
 11
6.66861
 21
43.905851
  0
LINE
  5
24C
100
AcDbEntity
  8
boundary
  6
ByLayer
 62
    5
370
   -1
100
AcDbLine
 10
6.66861
 20
43.905851
 11
6.668782
 21
43.313098
  0
LINE
  5
24D
100
AcDbEntity
  8
boundary
  6
ByLayer
 62
    5
370
   -1
100
AcDbLine
 10
6.668782
 20
43.313098
 11
6.668953
 21
42.720347
  0
LINE
  5
24E
100
AcDbEntity
  8
boundary
  6
ByLayer
 62
    5
370
   -1
100
AcDbLine
 10
6.668953
 20
42.720347
 11
6.669128
 21
42.127594
  0
LINE
  5
24F
100
AcDbEntity
  8
boundary
  6
ByLayer
 62
    5
370
   -1
100
AcDbLine
 10
6.669128
 20
42.127594
 11
6.669302
 21
41.534843
  0
LINE
  5
250
100
AcDbEntity
  8
boundary
  6
ByLayer
 62
    5
370
   -1
100
AcDbLine
 10
6.669302
 20
41.534843
 11
6.669476
 21
40.94209
  0
LINE
  5
251
100
AcDbEntity
  8
boundary
  6
ByLayer
 62
    5
370
   -1
100
AcDbLine
 10
6.669476
 20
40.94209
 11
6.669614
 21
40.349338
  0
LINE
  5
252
100
AcDbEntity
  8
boundary
  6
ByLayer
 62
    5
370
   -1
100
AcDbLine
 10
6.669614
 20
40.349338
 11
6.669706
 21
39.756586
  0
LINE
  5
253
100
AcDbEntity
  8
boundary
  6
ByLayer
 62
    5
370
   -1
100
AcDbLine
 10
6.669706
 20
39.756586
 11
6.669796
 21
39.163834
  0
LINE
  5
254
100
AcDbEntity
  8
boundary
  6
ByLayer
 62
    5
370
   -1
100
AcDbLine
 10
6.669796
 20
39.163834
 11
6.669884
 21
38.571082
  0
LINE
  5
255
100
AcDbEntity
  8
boundary
  6
ByLayer
 62
    5
370
   -1
100
AcDbLine
 10
6.669884
 20
38.571082
 11
6.669974
 21
37.978329
  0
LINE
  5
256
100
AcDbEntity
  8
boundary
  6
ByLayer
 62
    5
370
   -1
100
AcDbLine
 10
6.669974
 20
37.978329
 11
6.670064
 21
37.385578
  0
LINE
  5
257
100
AcDbEntity
  8
boundary
  6
ByLayer
 62
    5
370
   -1
100
AcDbLine
 10
6.670064
 20
37.385578
 11
6.670154
 21
36.792826
  0
LINE
  5
258
100
AcDbEntity
  8
boundary
  6
ByLayer
 62
    5
370
   -1
100
AcDbLine
 10
6.670154
 20
36.792826
 11
6.670244
 21
36.200074
  0
LINE
  5
259
100
AcDbEntity
  8
boundary
  6
ByLayer
 62
    5
370
   -1
100
AcDbLine
 10
6.670244
 20
36.200074
 11
6.670334
 21
35.607321
  0
LINE
  5
25A
100
AcDbEntity
  8
boundary
  6
ByLayer
 62
    5
370
   -1
100
AcDbLine
 10
6.670334
 20
35.607321
 11
6.670424
 21
35.014569
  0
LINE
  5
25B
100
AcDbEntity
  8
boundary
  6
ByLayer
 62
    5
370
   -1
100
AcDbLine
 10
6.670424
 20
35.014569
 11
6.670514
 21
34.421818
  0
LINE
  5
25C
100
AcDbEntity
  8
boundary
  6
ByLayer
 62
    5
370
   -1
100
AcDbLine
 10
6.670514
 20
34.421818
 11
6.670604
 21
33.829065
  0
LINE
  5
25D
100
AcDbEntity
  8
boundary
  6
ByLayer
 62
    5
370
   -1
100
AcDbLine
 10
6.670604
 20
33.829065
 11
6.670694
 21
33.236313
  0
LINE
  5
25E
100
AcDbEntity
  8
boundary
  6
ByLayer
 62
    5
370
   -1
100
AcDbLine
 10
6.670694
 20
33.236313
 11
6.670784
 21
32.643561
  0
LINE
  5
25F
100
AcDbEntity
  8
boundary
  6
ByLayer
 62
    5
370
   -1
100
AcDbLine
 10
6.670784
 20
32.643561
 11
6.670874
 21
32.050808
  0
LINE
  5
260
100
AcDbEntity
  8
boundary
  6
ByLayer
 62
    5
370
   -1
100
AcDbLine
 10
6.670874
 20
32.050808
 11
6.670965
 21
31.458057
  0
LINE
  5
261
100
AcDbEntity
  8
boundary
  6
ByLayer
 62
    5
370
   -1
100
AcDbLine
 10
6.670965
 20
31.458057
 11
6.671058
 21
30.865305
  0
LINE
  5
262
100
AcDbEntity
  8
boundary
  6
ByLayer
 62
    5
370
   -1
100
AcDbLine
 10
6.671058
 20
30.865305
 11
6.671148
 21
30.272553
  0
LINE
  5
263
100
AcDbEntity
  8
boundary
  6
ByLayer
 62
    5
370
   -1
100
AcDbLine
 10
6.671148
 20
30.272553
 11
6.671244
 21
29.6798
  0
LINE
  5
264
100
AcDbEntity
  8
boundary
  6
ByLayer
 62
    5
370
   -1
100
AcDbLine
 10
6.671244
 20
29.6798
 11
6.67138
 21
29.087048
  0
LINE
  5
265
100
AcDbEntity
  8
boundary
  6
ByLayer
 62
    5
370
   -1
100
AcDbLine
 10
6.67138
 20
29.087048
 11
6.67156
 21
28.494297
  0
LINE
  5
266
100
AcDbEntity
  8
boundary
  6
ByLayer
 62
    5
370
   -1
100
AcDbLine
 10
6.67156
 20
28.494297
 11
6.671741
 21
27.901543
  0
LINE
  5
267
100
AcDbEntity
  8
boundary
  6
ByLayer
 62
    5
370
   -1
100
AcDbLine
 10
6.671741
 20
27.901543
 11
6.671916
 21
27.308792
  0
LINE
  5
268
100
AcDbEntity
  8
boundary
  6
ByLayer
 62
    5
370
   -1
100
AcDbLine
 10
6.671916
 20
27.308792
 11
6.67209
 21
26.716038
  0
LINE
  5
269
100
AcDbEntity
  8
boundary
  6
ByLayer
 62
    5
370
   -1
100
AcDbLine
 10
6.67209
 20
26.716038
 11
6.672268
 21
26.123287
  0
LINE
  5
26A
100
AcDbEntity
  8
boundary
  6
ByLayer
 62
    5
370
   -1
100
AcDbLine
 10
6.672268
 20
26.123287
 11
6.672448
 21
25.530535
  0
LINE
  5
26B
100
AcDbEntity
  8
boundary
  6
ByLayer
 62
    5
370
   -1
100
AcDbLine
 10
6.672448
 20
25.530535
 11
6.672626
 21
24.937784
  0
LINE
  5
26C
100
AcDbEntity
  8
boundary
  6
ByLayer
 62
    5
370
   -1
100
AcDbLine
 10
6.672626
 20
24.937784
 11
6.672803
 21
24.34503
  0
LINE
  5
26D
100
AcDbEntity
  8
boundary
  6
ByLayer
 62
    5
370
   -1
100
AcDbLine
 10
6.672803
 20
24.34503
 11
6.672981
 21
23.752279
  0
LINE
  5
26E
100
AcDbEntity
  8
boundary
  6
ByLayer
 62
    5
370
   -1
100
AcDbLine
 10
6.672981
 20
23.752279
 11
6.673158
 21
23.159525
  0
LINE
  5
26F
100
AcDbEntity
  8
boundary
  6
ByLayer
 62
    5
370
   -1
100
AcDbLine
 10
6.673158
 20
23.159525
 11
6.673338
 21
22.566774
  0
LINE
  5
270
100
AcDbEntity
  8
boundary
  6
ByLayer
 62
    5
370
   -1
100
AcDbLine
 10
6.673338
 20
22.566774
 11
6.673516
 21
21.974021
  0
LINE
  5
271
100
AcDbEntity
  8
boundary
  6
ByLayer
 62
    5
370
   -1
100
AcDbLine
 10
6.673516
 20
21.974021
 11
6.673693
 21
21.38127
  0
LINE
  5
272
100
AcDbEntity
  8
boundary
  6
ByLayer
 62
    5
370
   -1
100
AcDbLine
 10
6.673693
 20
21.38127
 11
6.673874
 21
20.788519
  0
LINE
  5
273
100
AcDbEntity
  8
boundary
  6
ByLayer
 62
    5
370
   -1
100
AcDbLine
 10
6.673874
 20
20.788519
 11
6.674051
 21
20.195768
  0
LINE
  5
274
100
AcDbEntity
  8
boundary
  6
ByLayer
 62
    5
370
   -1
100
AcDbLine
 10
6.674051
 20
20.195768
 11
6.674232
 21
19.603014
  0
LINE
  5
275
100
AcDbEntity
  8
boundary
  6
ByLayer
 62
    5
370
   -1
100
AcDbLine
 10
6.674232
 20
19.603014
 11
6.674409
 21
19.010263
  0
LINE
  5
276
100
AcDbEntity
  8
boundary
  6
ByLayer
 62
    5
370
   -1
100
AcDbLine
 10
6.674409
 20
19.010263
 11
6.674587
 21
18.417509
  0
LINE
  5
277
100
AcDbEntity
  8
boundary
  6
ByLayer
 62
    5
370
   -1
100
AcDbLine
 10
6.674587
 20
18.417509
 11
6.674767
 21
17.824758
  0
LINE
  5
278
100
AcDbEntity
  8
boundary
  6
ByLayer
 62
    5
370
   -1
100
AcDbLine
 10
6.674767
 20
17.824758
 11
6.674948
 21
17.232004
  0
LINE
  5
279
100
AcDbEntity
  8
boundary
  6
ByLayer
 62
    5
370
   -1
100
AcDbLine
 10
6.674948
 20
17.232004
 11
6.675125
 21
16.639253
  0
LINE
  5
27A
100
AcDbEntity
  8
boundary
  6
ByLayer
 62
    5
370
   -1
100
AcDbLine
 10
6.675125
 20
16.639253
 11
6.675306
 21
16.046499
  0
LINE
  5
27B
100
AcDbEntity
  8
boundary
  6
ByLayer
 62
    5
370
   -1
100
AcDbLine
 10
6.675306
 20
16.046499
 11
6.675486
 21
15.453749
  0
LINE
  5
27C
100
AcDbEntity
  8
boundary
  6
ByLayer
 62
    5
370
   -1
100
AcDbLine
 10
6.675486
 20
15.453749
 11
6.675667
 21
14.860998
  0
LINE
  5
27D
100
AcDbEntity
  8
boundary
  6
ByLayer
 62
    5
370
   -1
100
AcDbLine
 10
6.675667
 20
14.860998
 11
6.675847
 21
14.268244
  0
LINE
  5
27E
100
AcDbEntity
  8
boundary
  6
ByLayer
 62
    5
370
   -1
100
AcDbLine
 10
6.675847
 20
14.268244
 11
6.67603
 21
13.675493
  0
LINE
  5
27F
100
AcDbEntity
  8
boundary
  6
ByLayer
 62
    5
370
   -1
100
AcDbLine
 10
6.67603
 20
13.675493
 11
6.676214
 21
13.082739
  0
LINE
  5
280
100
AcDbEntity
  8
boundary
  6
ByLayer
 62
    5
370
   -1
100
AcDbLine
 10
6.676214
 20
13.082739
 11
6.676397
 21
12.489988
  0
LINE
  5
281
100
AcDbEntity
  8
boundary
  6
ByLayer
 62
    5
370
   -1
100
AcDbLine
 10
6.676397
 20
12.489988
 11
6.676578
 21
11.897234
  0
LINE
  5
282
100
AcDbEntity
  8
boundary
  6
ByLayer
 62
    5
370
   -1
100
AcDbLine
 10
6.676578
 20
11.897234
 11
6.676761
 21
11.304483
  0
LINE
  5
283
100
AcDbEntity
  8
boundary
  6
ByLayer
 62
    5
370
   -1
100
AcDbLine
 10
6.676761
 20
11.304483
 11
6.676945
 21
10.71173
  0
LINE
  5
284
100
AcDbEntity
  8
boundary
  6
ByLayer
 62
    5
370
   -1
100
AcDbLine
 10
6.676945
 20
10.71173
 11
6.677128
 21
10.118979
  0
LINE
  5
285
100
AcDbEntity
  8
boundary
  6
ByLayer
 62
    5
370
   -1
100
AcDbLine
 10
6.677128
 20
10.118979
 11
6.677309
 21
9.526228
  0
LINE
  5
286
100
AcDbEntity
  8
boundary
  6
ByLayer
 62
    5
370
   -1
100
AcDbLine
 10
6.677309
 20
9.526228
 11
6.677492
 21
8.933477
  0
LINE
  5
287
100
AcDbEntity
  8
boundary
  6
ByLayer
 62
    5
370
   -1
100
AcDbLine
 10
6.677492
 20
8.933477
 11
6.677676
 21
8.340723000000001
  0
LINE
  5
288
100
AcDbEntity
  8
boundary
  6
ByLayer
 62
    5
370
   -1
100
AcDbLine
 10
6.677676
 20
8.340723000000001
 11
6.707192
 21
7.747972
  0
LINE
  5
289
100
AcDbEntity
  8
boundary
  6
ByLayer
 62
    5
370
   -1
100
AcDbLine
 10
6.707192
 20
7.747972
 11
6.894344
 21
7.238628
  0
LINE
  5
28A
100
AcDbEntity
  8
boundary
  6
ByLayer
 62
    5
370
   -1
100
AcDbLine
 10
6.894344
 20
7.238628
 11
7.308354
 21
6.843708
  0
LINE
  5
28B
100
AcDbEntity
  8
boundary
  6
ByLayer
 62
    5
370
   -1
100
AcDbLine
 10
7.308354
 20
6.843708
 11
7.834635
 21
6.673882
  0
LINE
  5
28C
100
AcDbEntity
  8
boundary
  6
ByLayer
 62
    5
370
   -1
100
AcDbLine
 10
7.834635
 20
6.673882
 11
8.431697
 21
6.667635
  0
LINE
  5
28D
100
AcDbEntity
  8
boundary
  6
ByLayer
 62
    5
370
   -1
100
AcDbLine
 10
8.431697
 20
6.667635
 11
9.022779
 21
6.66794
  0
LINE
  5
28E
100
AcDbEntity
  8
boundary
  6
ByLayer
 62
    5
370
   -1
100
AcDbLine
 10
9.022779
 20
6.66794
 11
9.613863
 21
6.668237
  0
LINE
  5
28F
100
AcDbEntity
  8
boundary
  6
ByLayer
 62
    5
370
   -1
100
AcDbLine
 10
9.613863
 20
6.668237
 11
10.204947
 21
6.668537
  0
LINE
  5
290
100
AcDbEntity
  8
boundary
  6
ByLayer
 62
    5
370
   -1
100
AcDbLine
 10
10.204947
 20
6.668537
 11
10.796029
 21
6.668843
  0
LINE
  5
291
100
AcDbEntity
  8
boundary
  6
ByLayer
 62
    5
370
   -1
100
AcDbLine
 10
10.796029
 20
6.668843
 11
11.387109
 21
6.669141
  0
LINE
  5
292
100
AcDbEntity
  8
boundary
  6
ByLayer
 62
    5
370
   -1
100
AcDbLine
 10
11.387109
 20
6.669141
 11
11.978191
 21
6.669441
  0
LINE
  5
293
100
AcDbEntity
  8
boundary
  6
ByLayer
 62
    5
370
   -1
100
AcDbLine
 10
11.978191
 20
6.669441
 11
12.56927
 21
6.669744
  0
LINE
  5
294
100
AcDbEntity
  8
boundary
  6
ByLayer
 62
    5
370
   -1
100
AcDbLine
 10
12.56927
 20
6.669744
 11
13.160351
 21
6.670045
  0
LINE
  5
295
100
AcDbEntity
  8
boundary
  6
ByLayer
 62
    5
370
   -1
100
AcDbLine
 10
13.160351
 20
6.670045
 11
13.751423
 21
6.670365
  0
LINE
  5
296
100
AcDbEntity
  8
boundary
  6
ByLayer
 62
    5
370
   -1
100
AcDbLine
 10
13.751423
 20
6.670365
 11
14.342478
 21
6.670701
  0
LINE
  5
297
100
AcDbEntity
  8
boundary
  6
ByLayer
 62
    5
370
   -1
100
AcDbLine
 10
14.342478
 20
6.670701
 11
14.933523
 21
6.671049
  0
LINE
  5
298
100
AcDbEntity
  8
boundary
  6
ByLayer
 62
    5
370
   -1
100
AcDbLine
 10
14.933523
 20
6.671049
 11
15.524571
 21
6.671392
  0
LINE
  5
299
100
AcDbEntity
  8
boundary
  6
ByLayer
 62
    5
370
   -1
100
AcDbLine
 10
15.524571
 20
6.671392
 11
16.115615
 21
6.671741
  0
LINE
  5
29A
100
AcDbEntity
  8
boundary
  6
ByLayer
 62
    5
370
   -1
100
AcDbLine
 10
16.115615
 20
6.671741
 11
16.706662
 21
6.672084
  0
LINE
  5
29B
100
AcDbEntity
  8
boundary
  6
ByLayer
 62
    5
370
   -1
100
AcDbLine
 10
16.706662
 20
6.672084
 11
17.297707
 21
6.672433
  0
LINE
  5
29C
100
AcDbEntity
  8
boundary
  6
ByLayer
 62
    5
370
   -1
100
AcDbLine
 10
17.297707
 20
6.672433
 11
17.888752
 21
6.672779
  0
LINE
  5
29D
100
AcDbEntity
  8
boundary
  6
ByLayer
 62
    5
370
   -1
100
AcDbLine
 10
17.888752
 20
6.672779
 11
18.479793
 21
6.673128
  0
LINE
  5
29E
100
AcDbEntity
  8
boundary
  6
ByLayer
 62
    5
370
   -1
100
AcDbLine
 10
18.479793
 20
6.673128
 11
19.070837
 21
6.673472
  0
LINE
  5
29F
100
AcDbEntity
  8
boundary
  6
ByLayer
 62
    5
370
   -1
100
AcDbLine
 10
19.070837
 20
6.673472
 11
19.661878
 21
6.673821
  0
LINE
  5
2A0
100
AcDbEntity
  8
boundary
  6
ByLayer
 62
    5
370
   -1
100
AcDbLine
 10
19.661878
 20
6.673821
 11
20.25292
 21
6.67417
  0
LINE
  5
2A1
100
AcDbEntity
  8
boundary
  6
ByLayer
 62
    5
370
   -1
100
AcDbLine
 10
20.25292
 20
6.67417
 11
20.843961
 21
6.674514
  0
LINE
  5
2A2
100
AcDbEntity
  8
boundary
  6
ByLayer
 62
    5
370
   -1
100
AcDbLine
 10
20.843961
 20
6.674514
 11
21.435003
 21
6.674864
  0
LINE
  5
2A3
100
AcDbEntity
  8
boundary
  6
ByLayer
 62
    5
370
   -1
100
AcDbLine
 10
21.435003
 20
6.674864
 11
22.026043
 21
6.675213
  0
LINE
  5
2A4
100
AcDbEntity
  8
boundary
  6
ByLayer
 62
    5
370
   -1
100
AcDbLine
 10
22.026043
 20
6.675213
 11
22.61708
 21
6.67556
  0
LINE
  5
2A5
100
AcDbEntity
  8
boundary
  6
ByLayer
 62
    5
370
   -1
100
AcDbLine
 10
22.61708
 20
6.67556
 11
23.208119
 21
6.67591
  0
LINE
  5
2A6
100
AcDbEntity
  8
boundary
  6
ByLayer
 62
    5
370
   -1
100
AcDbLine
 10
23.208119
 20
6.67591
 11
23.799156
 21
6.67626
  0
LINE
  5
2A7
100
AcDbEntity
  8
boundary
  6
ByLayer
 62
    5
370
   -1
100
AcDbLine
 10
23.799156
 20
6.67626
 11
24.390193
 21
6.67661
  0
LINE
  5
2A8
100
AcDbEntity
  8
boundary
  6
ByLayer
 62
    5
370
   -1
100
AcDbLine
 10
24.390193
 20
6.67661
 11
24.981229
 21
6.67696
  0
LINE
  5
2A9
100
AcDbEntity
  8
boundary
  6
ByLayer
 62
    5
370
   -1
100
AcDbLine
 10
24.981229
 20
6.67696
 11
25.572265
 21
6.677305
  0
LINE
  5
2AA
100
AcDbEntity
  8
boundary
  6
ByLayer
 62
    5
370
   -1
100
AcDbLine
 10
25.572265
 20
6.677305
 11
26.163298
 21
6.677655
  0
LINE
  5
2AB
100
AcDbEntity
  8
boundary
  6
ByLayer
 62
    5
370
   -1
100
AcDbLine
 10
26.163298
 20
6.677655
 11
26.754333
 21
6.678006
  0
LINE
  5
2AC
100
AcDbEntity
  8
boundary
  6
ByLayer
 62
    5
370
   -1
100
AcDbLine
 10
26.754333
 20
6.678006
 11
27.345368
 21
6.678355
  0
LINE
  5
2AD
100
AcDbEntity
  8
boundary
  6
ByLayer
 62
    5
370
   -1
100
AcDbLine
 10
27.345368
 20
6.678355
 11
27.936418
 21
6.678676
  0
LINE
  5
2AE
100
AcDbEntity
  8
boundary
  6
ByLayer
 62
    5
370
   -1
100
AcDbLine
 10
27.936418
 20
6.678676
 11
28.527489
 21
6.67898
  0
LINE
  5
2AF
100
AcDbEntity
  8
boundary
  6
ByLayer
 62
    5
370
   -1
100
AcDbLine
 10
28.527489
 20
6.67898
 11
29.118558
 21
6.679278
  0
LINE
  5
2B0
100
AcDbEntity
  8
boundary
  6
ByLayer
 62
    5
370
   -1
100
AcDbLine
 10
29.118558
 20
6.679278
 11
29.709627
 21
6.679578
  0
LINE
  5
2B1
100
AcDbEntity
  8
boundary
  6
ByLayer
 62
    5
370
   -1
100
AcDbLine
 10
29.709627
 20
6.679578
 11
30.300697
 21
6.679878
  0
LINE
  5
2B2
100
AcDbEntity
  8
boundary
  6
ByLayer
 62
    5
370
   -1
100
AcDbLine
 10
30.300697
 20
6.679878
 11
30.891765
 21
6.680175
  0
LINE
  5
2B3
100
AcDbEntity
  8
boundary
  6
ByLayer
 62
    5
370
   -1
100
AcDbLine
 10
30.891765
 20
6.680175
 11
31.482832
 21
6.680476
  0
LINE
  5
2B4
100
AcDbEntity
  8
boundary
  6
ByLayer
 62
    5
370
   -1
100
AcDbLine
 10
31.482832
 20
6.680476
 11
32.0739
 21
6.680776
  0
LINE
  5
2B5
100
AcDbEntity
  8
boundary
  6
ByLayer
 62
    5
370
   -1
100
AcDbLine
 10
32.0739
 20
6.680776
 11
32.664966
 21
6.681077
  0
LINE
  5
2B6
100
AcDbEntity
  8
boundary
  6
ByLayer
 62
    5
370
   -1
100
AcDbLine
 10
32.664966
 20
6.681077
 11
33.256032
 21
6.681374
  0
LINE
  5
2B7
100
AcDbEntity
  8
boundary
  6
ByLayer
 62
    5
370
   -1
100
AcDbLine
 10
33.256032
 20
6.681374
 11
33.847098
 21
6.68168
  0
LINE
  5
2B8
100
AcDbEntity
  8
boundary
  6
ByLayer
 62
    5
370
   -1
100
AcDbLine
 10
33.847098
 20
6.68168
 11
34.438164
 21
6.681981
  0
LINE
  5
2B9
100
AcDbEntity
  8
boundary
  6
ByLayer
 62
    5
370
   -1
100
AcDbLine
 10
34.438164
 20
6.681981
 11
35.029228
 21
6.682279
  0
LINE
  5
2BA
100
AcDbEntity
  8
boundary
  6
ByLayer
 62
    5
370
   -1
100
AcDbLine
 10
35.029228
 20
6.682279
 11
35.620292
 21
6.68258
  0
LINE
  5
2BB
100
AcDbEntity
  8
boundary
  6
ByLayer
 62
    5
370
   -1
100
AcDbLine
 10
35.620292
 20
6.68258
 11
36.211355
 21
6.682881
  0
LINE
  5
2BC
100
AcDbEntity
  8
boundary
  6
ByLayer
 62
    5
370
   -1
100
AcDbLine
 10
36.211355
 20
6.682881
 11
36.802418
 21
6.683185
  0
LINE
  5
2BD
100
AcDbEntity
  8
boundary
  6
ByLayer
 62
    5
370
   -1
100
AcDbLine
 10
36.802418
 20
6.683185
 11
37.39348
 21
6.683486
  0
LINE
  5
2BE
100
AcDbEntity
  8
boundary
  6
ByLayer
 62
    5
370
   -1
100
AcDbLine
 10
37.39348
 20
6.683486
 11
37.984541
 21
6.683787
  0
LINE
  5
2BF
100
AcDbEntity
  8
boundary
  6
ByLayer
 62
    5
370
   -1
100
AcDbLine
 10
37.984541
 20
6.683787
 11
38.575602
 21
6.684086
  0
LINE
  5
2C0
100
AcDbEntity
  8
boundary
  6
ByLayer
 62
    5
370
   -1
100
AcDbLine
 10
38.575602
 20
6.684086
 11
39.166663
 21
6.684393
  0
LINE
  5
2C1
100
AcDbEntity
  8
boundary
  6
ByLayer
 62
    5
370
   -1
100
AcDbLine
 10
39.166663
 20
6.684393
 11
39.757723
 21
6.684692
  0
LINE
  5
2C2
100
AcDbEntity
  8
boundary
  6
ByLayer
 62
    5
370
   -1
100
AcDbLine
 10
39.757723
 20
6.684692
 11
40.348783
 21
6.684993
  0
LINE
  5
2C3
100
AcDbEntity
  8
boundary
  6
ByLayer
 62
    5
370
   -1
100
AcDbLine
 10
40.348783
 20
6.684993
 11
40.939842
 21
6.6853
  0
LINE
  5
2C4
100
AcDbEntity
  8
boundary
  6
ByLayer
 62
    5
370
   -1
100
AcDbLine
 10
40.939842
 20
6.6853
 11
41.530899
 21
6.6856
  0
LINE
  5
2C5
100
AcDbEntity
  8
boundary
  6
ByLayer
 62
    5
370
   -1
100
AcDbLine
 10
41.530899
 20
6.6856
 11
42.121957
 21
6.685907
  0
LINE
  5
2C6
100
AcDbEntity
  8
boundary
  6
ByLayer
 62
    5
370
   -1
100
AcDbLine
 10
42.121957
 20
6.685907
 11
42.713014
 21
6.686209
  0
LINE
  5
2C7
100
AcDbEntity
  8
boundary
  6
ByLayer
 62
    5
370
   -1
100
AcDbLine
 10
42.713014
 20
6.686209
 11
43.304071
 21
6.686513
  0
LINE
  5
2C8
100
AcDbEntity
  8
boundary
  6
ByLayer
 62
    5
370
   -1
100
AcDbLine
 10
43.304071
 20
6.686513
 11
43.895127
 21
6.686816
  0
LINE
  5
2C9
100
AcDbEntity
  8
boundary
  6
ByLayer
 62
    5
370
   -1
100
AcDbLine
 10
43.895127
 20
6.686816
 11
44.486182
 21
6.687121
  0
LINE
  5
2CA
100
AcDbEntity
  8
boundary
  6
ByLayer
 62
    5
370
   -1
100
AcDbLine
 10
44.486182
 20
6.687121
 11
45.077236
 21
6.687423
  0
LINE
  5
2CB
100
AcDbEntity
  8
boundary
  6
ByLayer
 62
    5
370
   -1
100
AcDbLine
 10
45.077236
 20
6.687423
 11
45.66829
 21
6.687728
  0
LINE
  5
2CC
100
AcDbEntity
  8
boundary
  6
ByLayer
 62
    5
370
   -1
100
AcDbLine
 10
45.66829
 20
6.687728
 11
46.259344
 21
6.688031
  0
LINE
  5
2CD
100
AcDbEntity
  8
boundary
  6
ByLayer
 62
    5
370
   -1
100
AcDbLine
 10
46.259344
 20
6.688031
 11
46.850382
 21
6.688356
  0
LINE
  5
2CE
100
AcDbEntity
  8
boundary
  6
ByLayer
 62
    5
370
   -1
100
AcDbLine
 10
46.850382
 20
6.688356
 11
47.441396
 21
6.688713
  0
LINE
  5
2CF
100
AcDbEntity
  8
boundary
  6
ByLayer
 62
    5
370
   -1
100
AcDbLine
 10
47.441396
 20
6.688713
 11
48.032409
 21
6.689065
  0
LINE
  5
2D0
100
AcDbEntity
  8
boundary
  6
ByLayer
 62
    5
370
   -1
100
AcDbLine
 10
48.032409
 20
6.689065
 11
48.623422
 21
6.689417
  0
LINE
  5
2D1
100
AcDbEntity
  8
boundary
  6
ByLayer
 62
    5
370
   -1
100
AcDbLine
 10
48.623422
 20
6.689417
 11
49.214433
 21
6.68977
  0
LINE
  5
2D2
100
AcDbEntity
  8
boundary
  6
ByLayer
 62
    5
370
   -1
100
AcDbLine
 10
49.214433
 20
6.68977
 11
49.805444
 21
6.690123
  0
LINE
  5
2D3
100
AcDbEntity
  8
boundary
  6
ByLayer
 62
    5
370
   -1
100
AcDbLine
 10
49.805444
 20
6.690123
 11
50.396455
 21
6.690475
  0
LINE
  5
2D4
100
AcDbEntity
  8
boundary
  6
ByLayer
 62
    5
370
   -1
100
AcDbLine
 10
50.396455
 20
6.690475
 11
50.987464
 21
6.69083
  0
LINE
  5
2D5
100
AcDbEntity
  8
boundary
  6
ByLayer
 62
    5
370
   -1
100
AcDbLine
 10
50.987464
 20
6.69083
 11
51.578473
 21
6.691183
  0
LINE
  5
2D6
100
AcDbEntity
  8
boundary
  6
ByLayer
 62
    5
370
   -1
100
AcDbLine
 10
51.578473
 20
6.691183
 11
52.16948
 21
6.691539
  0
LINE
  5
2D7
100
AcDbEntity
  8
boundary
  6
ByLayer
 62
    5
370
   -1
100
AcDbLine
 10
52.16948
 20
6.691539
 11
52.760487
 21
6.691892
  0
LINE
  5
2D8
100
AcDbEntity
  8
boundary
  6
ByLayer
 62
    5
370
   -1
100
AcDbLine
 10
52.760487
 20
6.691892
 11
53.351493
 21
6.692248
  0
LINE
  5
2D9
100
AcDbEntity
  8
boundary
  6
ByLayer
 62
    5
370
   -1
100
AcDbLine
 10
53.351493
 20
6.692248
 11
53.942499
 21
6.692601
  0
LINE
  5
2DA
100
AcDbEntity
  8
boundary
  6
ByLayer
 62
    5
370
   -1
100
AcDbLine
 10
53.942499
 20
6.692601
 11
54.533503
 21
6.692954
  0
LINE
  5
2DB
100
AcDbEntity
  8
boundary
  6
ByLayer
 62
    5
370
   -1
100
AcDbLine
 10
54.533503
 20
6.692954
 11
55.124507
 21
6.693313
  0
LINE
  5
2DC
100
AcDbEntity
  8
boundary
  6
ByLayer
 62
    5
370
   -1
100
AcDbLine
 10
55.124507
 20
6.693313
 11
55.71551
 21
6.693666
  0
LINE
  5
2DD
100
AcDbEntity
  8
boundary
  6
ByLayer
 62
    5
370
   -1
100
AcDbLine
 10
55.71551
 20
6.693666
 11
56.306511
 21
6.69402
  0
LINE
  5
2DE
100
AcDbEntity
  8
boundary
  6
ByLayer
 62
    5
370
   -1
100
AcDbLine
 10
56.306511
 20
6.69402
 11
56.897512
 21
6.694379
  0
LINE
  5
2DF
100
AcDbEntity
  8
boundary
  6
ByLayer
 62
    5
370
   -1
100
AcDbLine
 10
56.897512
 20
6.694379
 11
57.488513
 21
6.694733
  0
LINE
  5
2E0
100
AcDbEntity
  8
boundary
  6
ByLayer
 62
    5
370
   -1
100
AcDbLine
 10
57.488513
 20
6.694733
 11
58.079512
 21
6.695092
  0
LINE
  5
2E1
100
AcDbEntity
  8
boundary
  6
ByLayer
 62
    5
370
   -1
100
AcDbLine
 10
58.079512
 20
6.695092
 11
58.67051
 21
6.695446
  0
LINE
  5
2E2
100
AcDbEntity
  8
boundary
  6
ByLayer
 62
    5
370
   -1
100
AcDbLine
 10
58.67051
 20
6.695446
 11
59.261508
 21
6.695803
  0
LINE
  5
2E3
100
AcDbEntity
  8
boundary
  6
ByLayer
 62
    5
370
   -1
100
AcDbLine
 10
59.261508
 20
6.695803
 11
59.852505
 21
6.696158
  0
LINE
  5
2E4
100
AcDbEntity
  8
boundary
  6
ByLayer
 62
    5
370
   -1
100
AcDbLine
 10
59.852505
 20
6.696158
 11
60.4435
 21
6.696517
  0
LINE
  5
2E5
100
AcDbEntity
  8
boundary
  6
ByLayer
 62
    5
370
   -1
100
AcDbLine
 10
60.4435
 20
6.696517
 11
61.034496
 21
6.696872
  0
LINE
  5
2E6
100
AcDbEntity
  8
boundary
  6
ByLayer
 62
    5
370
   -1
100
AcDbLine
 10
61.034496
 20
6.696872
 11
61.62549
 21
6.697232
  0
LINE
  5
2E7
100
AcDbEntity
  8
boundary
  6
ByLayer
 62
    5
370
   -1
100
AcDbLine
 10
61.62549
 20
6.697232
 11
62.216483
 21
6.697587
  0
LINE
  5
2E8
100
AcDbEntity
  8
boundary
  6
ByLayer
 62
    5
370
   -1
100
AcDbLine
 10
62.216483
 20
6.697587
 11
62.807476
 21
6.697944
  0
LINE
  5
2E9
100
AcDbEntity
  8
boundary
  6
ByLayer
 62
    5
370
   -1
100
AcDbLine
 10
62.807476
 20
6.697944
 11
63.398467
 21
6.698304
  0
LINE
  5
2EA
100
AcDbEntity
  8
boundary
  6
ByLayer
 62
    5
370
   -1
100
AcDbLine
 10
63.398467
 20
6.698304
 11
63.989457
 21
6.69866
  0
LINE
  5
2EB
100
AcDbEntity
  8
boundary
  6
ByLayer
 62
    5
370
   -1
100
AcDbLine
 10
63.989457
 20
6.69866
 11
64.58044700000001
 21
6.69902
  0
LINE
  5
2EC
100
AcDbEntity
  8
boundary
  6
ByLayer
 62
    5
370
   -1
100
AcDbLine
 10
64.58044700000001
 20
6.69902
 11
65.171436
 21
6.69938
  0
LINE
  5
2ED
100
AcDbEntity
  8
boundary
  6
ByLayer
 62
    5
370
   -1
100
AcDbLine
 10
65.171436
 20
6.69938
 11
65.762432
 21
6.699726
  0
LINE
  5
2EE
100
AcDbEntity
  8
boundary
  6
ByLayer
 62
    5
370
   -1
100
AcDbLine
 10
65.762432
 20
6.699726
 11
66.353448
 21
6.700053
  0
LINE
  5
2EF
100
AcDbEntity
  8
boundary
  6
ByLayer
 62
    5
370
   -1
100
AcDbLine
 10
66.353448
 20
6.700053
 11
66.944462
 21
6.700379
  0
LINE
  5
2F0
100
AcDbEntity
  8
boundary
  6
ByLayer
 62
    5
370
   -1
100
AcDbLine
 10
66.944462
 20
6.700379
 11
67.53547500000001
 21
6.700705
  0
LINE
  5
2F1
100
AcDbEntity
  8
boundary
  6
ByLayer
 62
    5
370
   -1
100
AcDbLine
 10
67.53547500000001
 20
6.700705
 11
68.12648900000001
 21
6.70103
  0
LINE
  5
2F2
100
AcDbEntity
  8
boundary
  6
ByLayer
 62
    5
370
   -1
100
AcDbLine
 10
68.12648900000001
 20
6.70103
 11
68.717501
 21
6.701357
  0
LINE
  5
2F3
100
AcDbEntity
  8
boundary
  6
ByLayer
 62
    5
370
   -1
100
AcDbLine
 10
68.717501
 20
6.701357
 11
69.308513
 21
6.701684
  0
LINE
  5
2F4
100
AcDbEntity
  8
boundary
  6
ByLayer
 62
    5
370
   -1
100
AcDbLine
 10
69.308513
 20
6.701684
 11
69.899525
 21
6.70201
  0
LINE
  5
2F5
100
AcDbEntity
  8
boundary
  6
ByLayer
 62
    5
370
   -1
100
AcDbLine
 10
69.899525
 20
6.70201
 11
70.490533
 21
6.702337
  0
LINE
  5
2F6
100
AcDbEntity
  8
boundary
  6
ByLayer
 62
    5
370
   -1
100
AcDbLine
 10
70.490533
 20
6.702337
 11
71.081554
 21
6.702648
  0
LINE
  5
2F7
100
AcDbEntity
  8
boundary
  6
ByLayer
 62
    5
370
   -1
100
AcDbLine
 10
71.081554
 20
6.702648
 11
71.672634
 21
6.702886
  0
LINE
  5
2F8
100
AcDbEntity
  8
boundary
  6
ByLayer
 62
    5
370
   -1
100
AcDbLine
 10
71.672634
 20
6.702886
 11
72.26377100000001
 21
6.703063
  0
LINE
  5
2F9
100
AcDbEntity
  8
boundary
  6
ByLayer
 62
    5
370
   -1
100
AcDbLine
 10
72.26377100000001
 20
6.703063
 11
72.85480200000001
 21
6.703381
  0
LINE
  5
2FA
100
AcDbEntity
  8
boundary
  6
ByLayer
 62
    5
370
   -1
100
AcDbLine
 10
72.85480200000001
 20
6.703381
 11
73.445669
 21
6.703868
  0
LINE
  5
2FB
100
AcDbEntity
  8
boundary
  6
ByLayer
 62
    5
370
   -1
100
AcDbLine
 10
73.445669
 20
6.703868
 11
74.036536
 21
6.704358
  0
LINE
  5
2FC
100
AcDbEntity
  8
boundary
  6
ByLayer
 62
    5
370
   -1
100
AcDbLine
 10
74.036536
 20
6.704358
 11
74.627402
 21
6.704843
  0
LINE
  5
2FD
100
AcDbEntity
  8
boundary
  6
ByLayer
 62
    5
370
   -1
100
AcDbLine
 10
74.627402
 20
6.704843
 11
75.218287
 21
6.705301
  0
LINE
  5
2FE
100
AcDbEntity
  8
boundary
  6
ByLayer
 62
    5
370
   -1
100
AcDbLine
 10
75.218287
 20
6.705301
 11
75.80928299999999
 21
6.705619
  0
LINE
  5
2FF
100
AcDbEntity
  8
boundary
  6
ByLayer
 62
    5
370
   -1
100
AcDbLine
 10
75.80928299999999
 20
6.705619
 11
76.40043
 21
6.705783
  0
LINE
  5
300
100
AcDbEntity
  8
boundary
  6
ByLayer
 62
    5
370
   -1
100
AcDbLine
 10
76.40043
 20
6.705783
 11
76.991573
 21
6.705952
  0
LINE
  5
301
100
AcDbEntity
  8
boundary
  6
ByLayer
 62
    5
370
   -1
100
AcDbLine
 10
76.991573
 20
6.705952
 11
77.58271999999999
 21
6.706122
  0
LINE
  5
302
100
AcDbEntity
  8
boundary
  6
ByLayer
 62
    5
370
   -1
100
AcDbLine
 10
77.58271999999999
 20
6.706122
 11
78.173862
 21
6.706292
  0
LINE
  5
303
100
AcDbEntity
  8
boundary
  6
ByLayer
 62
    5
370
   -1
100
AcDbLine
 10
78.173862
 20
6.706292
 11
78.765006
 21
6.706462
  0
LINE
  5
304
100
AcDbEntity
  8
boundary
  6
ByLayer
 62
    5
370
   -1
100
AcDbLine
 10
78.765006
 20
6.706462
 11
79.35614700000001
 21
6.706632
  0
LINE
  5
305
100
AcDbEntity
  8
boundary
  6
ByLayer
 62
    5
370
   -1
100
AcDbLine
 10
79.35614700000001
 20
6.706632
 11
79.94722899999999
 21
6.706883
  0
LINE
  5
306
100
AcDbEntity
  8
boundary
  6
ByLayer
 62
    5
370
   -1
100
AcDbLine
 10
79.94722899999999
 20
6.706883
 11
80.538167
 21
6.707283
  0
LINE
  5
307
100
AcDbEntity
  8
boundary
  6
ByLayer
 62
    5
370
   -1
100
AcDbLine
 10
80.538167
 20
6.707283
 11
81.12907199999999
 21
6.707722
  0
LINE
  5
308
100
AcDbEntity
  8
boundary
  6
ByLayer
 62
    5
370
   -1
100
AcDbLine
 10
81.12907199999999
 20
6.707722
 11
81.719971
 21
6.708154
  0
LINE
  5
309
100
AcDbEntity
  8
boundary
  6
ByLayer
 62
    5
370
   -1
100
AcDbLine
 10
81.719971
 20
6.708154
 11
82.302121
 21
6.722138
  0
LINE
  5
30A
100
AcDbEntity
  8
boundary
  6
ByLayer
 62
    5
370
   -1
100
AcDbLine
 10
82.302121
 20
6.722138
 11
82.87128
 21
6.742289
  0
LINE
  5
30B
100
AcDbEntity
  8
boundary
  6
ByLayer
 62
    5
370
   -1
100
AcDbLine
 10
82.87128
 20
6.742289
 11
83.46105799999999
 21
6.74356
  0
LINE
  5
30C
100
AcDbEntity
  8
boundary
  6
ByLayer
 62
    5
370
   -1
100
AcDbLine
 10
83.46105799999999
 20
6.74356
 11
84.05197099999999
 21
6.743875
  0
LINE
  5
30D
100
AcDbEntity
  8
boundary
  6
ByLayer
 62
    5
370
   -1
100
AcDbLine
 10
84.05197099999999
 20
6.743875
 11
84.642889
 21
6.744191
  0
LINE
  5
30E
100
AcDbEntity
  8
boundary
  6
ByLayer
 62
    5
370
   -1
100
AcDbLine
 10
84.642889
 20
6.744191
 11
85.2338
 21
6.744505
  0
LINE
  5
30F
100
AcDbEntity
  8
boundary
  6
ByLayer
 62
    5
370
   -1
100
AcDbLine
 10
85.2338
 20
6.744505
 11
85.824713
 21
6.744821
  0
LINE
  5
310
100
AcDbEntity
  8
boundary
  6
ByLayer
 62
    5
370
   -1
100
AcDbLine
 10
85.824713
 20
6.744821
 11
86.415622
 21
6.745135
  0
LINE
  5
311
100
AcDbEntity
  8
boundary
  6
ByLayer
 62
    5
370
   -1
100
AcDbLine
 10
86.415622
 20
6.745135
 11
87.006596
 21
6.745373
  0
LINE
  5
312
100
AcDbEntity
  8
boundary
  6
ByLayer
 62
    5
370
   -1
100
AcDbLine
 10
87.006596
 20
6.745373
 11
87.59283600000001
 21
6.750775
  0
LINE
  5
313
100
AcDbEntity
  8
boundary
  6
ByLayer
 62
    5
370
   -1
100
AcDbLine
 10
87.59283600000001
 20
6.750775
 11
88.152434
 21
6.843708
  0
ENDSEC
  0
SECTION
  2
OBJECTS
  0
DICTIONARY
  5
C
330
0
100
AcDbDictionary
281
    1
  3
ACAD_GROUP
350
D
  0
DICTIONARY
  5
D
330
C
100
AcDbDictionary
281
    1
  0
ENDSEC
  0
EOF
