999
dxfrw 0.6.3
  0
SECTION
  2
HEADER
  9
$ACADVER
  1
AC1021
  9
$DWGCODEPAGE
  3
ANSI_1252
  9
$INSBASE
 10
0
 20
0
 30
0
  9
$EXTMIN
 10
0
 20
0
 30
0
  9
$EXTMAX
 10
215.9
 20
279.4
 30
0
  9
$LIMMIN
 10
0
 20
0
  9
$LIMMAX
 10
420
 20
297
  9
$ORTHOMODE
 70
    0
  9
$REGENMODE
 70
    1
  9
$FILLMODE
 70
    1
  9
$QTEXTMODE
 70
    0
  9
$MIRRTEXT
 70
    0
  9
$LTSCALE
 40
1
  9
$ATTMODE
 70
    0
  9
$TEXTSIZE
 40
2.5
  9
$TRACEWID
 40
15.68
  9
$TEXTSTYLE
  7
STANDARD
  9
$CLAYER
  8
0
  9
$CELTYPE
  6
BYLAYER
  9
$CECOLOR
 62
  256
  9
$CELTSCALE
 40
1
  9
$DISPSILH
 70
    0
  9
$DIMSCALE
 40
2.5
  9
$DIMASZ
 40
2.5
  9
$DIMEXO
 40
0.625
  9
$DIMDLI
 40
3.75
  9
$DIMRND
 40
0
  9
$DIMDLE
 40
0
  9
$DIMEXE
 40
1.25
  9
$DIMTP
 40
0
  9
$DIMTM
 40
0
  9
$DIMTXT
 40
2.5
  9
$DIMCEN
 40
2.5
  9
$DIMTSZ
 40
0
  9
$DIMTOL
 70
    0
  9
$DIMLIM
 70
    0
  9
$DIMTIH
 70
    0
  9
$DIMTOH
 70
    0
  9
$DIMSE1
 70
    0
  9
$DIMSE2
 70
    0
  9
$DIMTAD
 70
    1
  9
$DIMZIN
 70
    8
  9
$DIMBLK
  1

  9
$DIMASO
 70
    1
  9
$DIMSHO
 70
    1
  9
$DIMPOST
  1

  9
$DIMAPOST
  1

  9
$DIMALT
 70
    0
  9
$DIMALTD
 70
    3
  9
$DIMALTF
 40
0.03937
  9
$DIMLFAC
 40
1
  9
$DIMTOFL
 70
    1
  9
$DIMTVP
 40
0
  9
$DIMTIX
 70
    0
  9
$DIMSOXD
 70
    0
  9
$DIMSAH
 70
    0
  9
$DIMBLK1
  1

  9
$DIMBLK2
  1

  9
$DIMSTYLE
  2
Standard
  9
$DIMCLRD
 70
    0
  9
$DIMCLRE
 70
    0
  9
$DIMCLRT
 70
    0
  9
$DIMTFAC
 40
1
  9
$DIMGAP
 40
0.625
  9
$DIMJUST
 70
    0
  9
$DIMSD1
 70
    0
  9
$DIMSD2
 70
    0
  9
$DIMTOLJ
 70
    0
  9
$DIMTZIN
 70
    8
  9
$DIMALTZ
 70
    0
  9
$DIMALTTZ
 70
    0
  9
$DIMUPT
 70
    0
  9
$DIMDEC
 70
    2
  9
$DIMTDEC
 70
    2
  9
$DIMALTU
 70
    2
  9
$DIMALTTD
 70
    3
  9
$DIMTXSTY
  7
STANDARD
  9
$DIMAUNIT
 70
    0
  9
$DIMADEC
 70
    0
  9
$DIMALTRND
 40
0
  9
$DIMAZIN
 70
    0
  9
$DIMDSEP
 70
   44
  9
$DIMATFIT
 70
    3
  9
$DIMFRAC
 70
    0
  9
$DIMLDRBLK
  1
STANDARD
  9
$DIMLUNIT
 70
    2
  9
$DIMLWD
 70
   -2
  9
$DIMLWE
 70
   -2
  9
$DIMTMOVE
 70
    0
  9
$DIMFXL
 40
1
  9
$DIMFXLON
 70
    0
  9
$DIMJOGANG
 40
0.7854
  9
$DIMTFILL
 70
    0
  9
$DIMTFILLCLR
 70
    0
  9
$DIMARCSYM
 70
    0
  9
$DIMLTYPE
  6

  9
$DIMLTEX1
  6

  9
$DIMLTEX2
  6

  9
$LUNITS
 70
    2
  9
$LUPREC
 70
    4
  9
$SKETCHINC
 40
1
  9
$FILLETRAD
 40
0
  9
$AUNITS
 70
    0
  9
$AUPREC
 70
    2
  9
$MENU
  1
.
  9
$ELEVATION
 40
0
  9
$PELEVATION
 40
0
  9
$THICKNESS
 40
0
  9
$LIMCHECK
 70
    0
  9
$CHAMFERA
 40
0
  9
$CHAMFERB
 40
0
  9
$CHAMFERC
 40
0
  9
$CHAMFERD
 40
0
  9
$SKPOLY
 70
    0
  9
$USRTIMER
 70
    1
  9
$ANGBASE
 50
0
  9
$ANGDIR
 70
    0
  9
$PDMODE
 70
   34
  9
$PDSIZE
 40
0
  9
$PLINEWID
 40
0
  9
$SPLFRAME
 70
    0
  9
$SPLINETYPE
 70
    2
  9
$SPLINESEGS
 70
    8
  9
$HANDSEED
  5
20000
  9
$SURFTAB1
 70
    6
  9
$SURFTAB2
 70
    6
  9
$SURFTYPE
 70
    6
  9
$SURFU
 70
    6
  9
$SURFV
 70
    6
  9
$UCSBASE
  2

  9
$UCSNAME
  2

  9
$UCSORG
 10
0
 20
0
 30
0
  9
$UCSXDIR
 10
1
 20
0
 30
0
  9
$UCSYDIR
 10
0
 20
1
 30
0
  9
$UCSORTHOREF
  2

  9
$UCSORTHOVIEW
 70
    0
  9
$UCSORGTOP
 10
0
 20
0
 30
0
  9
$UCSORGBOTTOM
 10
0
 20
0
 30
0
  9
$UCSORGLEFT
 10
0
 20
0
 30
0
  9
$UCSORGRIGHT
 10
0
 20
0
 30
0
  9
$UCSORGFRONT
 10
0
 20
0
 30
0
  9
$UCSORGBACK
 10
0
 20
0
 30
0
  9
$PUCSBASE
  2

  9
$PUCSNAME
  2

  9
$PUCSORG
 10
0
 20
0
 30
0
  9
$PUCSXDIR
 10
1
 20
0
 30
0
  9
$PUCSYDIR
 10
0
 20
1
 30
0
  9
$PUCSORTHOREF
  2

  9
$PUCSORTHOVIEW
 70
    0
  9
$PUCSORGTOP
 10
0
 20
0
 30
0
  9
$PUCSORGBOTTOM
 10
0
 20
0
 30
0
  9
$PUCSORGLEFT
 10
0
 20
0
 30
0
  9
$PUCSORGRIGHT
 10
0
 20
0
 30
0
  9
$PUCSORGFRONT
 10
0
 20
0
 30
0
  9
$PUCSORGBACK
 10
0
 20
0
 30
0
  9
$USERI1
 70
    0
  9
$USERI2
 70
    0
  9
$USERI3
 70
    0
  9
$USERI4
 70
    0
  9
$USERI5
 70
    0
  9
$USERR1
 40
0
  9
$USERR2
 40
0
  9
$USERR3
 40
0
  9
$USERR4
 40
0
  9
$USERR5
 40
0
  9
$WORLDVIEW
 70
    1
  9
$SHADEDGE
 70
    3
  9
$SHADEDIF
 70
   70
  9
$TILEMODE
 70
    1
  9
$MAXACTVP
 70
   64
  9
$PINSBASE
 10
0
 20
0
 30
0
  9
$PLIMCHECK
 70
    0
  9
$PEXTMIN
 10
0
 20
0
 30
0
  9
$PEXTMAX
 10
0
 20
0
 30
0
  9
$SNAPSTYLE
 70
    0
  9
$PLIMMIN
 10
0
 20
0
  9
$PLIMMAX
 10
210
 20
297
  9
$UNITMODE
 70
    0
  9
$VISRETAIN
 70
    1
  9
$PLINEGEN
 70
    0
  9
$PSLTSCALE
 70
    1
  9
$TREEDEPTH
 70
 3020
  9
$CMLSTYLE
  2
Standard
  9
$CMLJUST
 70
    0
  9
$CMLSCALE
 40
20
  9
$PROXYGRAPHICS
 70
    1
  9
$MEASUREMENT
 70
    1
  9
$CELWEIGHT
370
   -1
  9
$ENDCAPS
280
    0
  9
$JOINSTYLE
280
    0
  9
$LWDISPLAY
290
    0
  9
$INSUNITS
 70
    4
  9
$HYPERLINKBASE
  1

  9
$STYLESHEET
  1

  9
$XEDIT
290
    1
  9
$CEPSNTYPE
380
    0
  9
$PSTYLEMODE
290
    1
  9
$EXTNAMES
290
    1
  9
$PSVPSCALE
 40
1
  9
$OLESTARTUP
290
    0
  9
$SORTENTS
280
  127
  9
$INDEXCTL
280
    0
  9
$HIDETEXT
280
    1
  9
$XCLIPFRAME
290
    0
  9
$HALOGAP
280
    0
  9
$OBSCOLOR
 70
  257
  9
$OBSLTYPE
280
    0
  9
$INTERSECTIONDISPLAY
280
    0
  9
$INTERSECTIONCOLOR
 70
  257
  9
$DIMASSOC
280
    1
  9
$PROJECTNAME
  1

  9
$CAMERADISPLAY
290
    0
  9
$LENSLENGTH
 40
50
  9
$CAMERAHEIGHT
 40
0
  9
$STEPSPERSEC
 40
2
  9
$STEPSIZE
 40
50
  9
$3DDWFPREC
 40
2
  9
$PSOLWIDTH
 40
5
  9
$PSOLHEIGHT
 40
80
  9
$LOFTANG1
 40
1.570796326794897
  9
$LOFTANG2
 40
1.570796326794897
  9
$LOFTMAG1
 40
0
  9
$LOFTMAG2
 40
0
  9
$LOFTPARAM
 70
    7
  9
$LOFTNORMALS
280
    1
  9
$LATITUDE
 40
1
  9
$LONGITUDE
 40
1
  9
$NORTHDIRECTION
 40
0
  9
$TIMEZONE
 70
-8000
  9
$LIGHTGLYPHDISPLAY
280
    1
  9
$TILEMODELIGHTSYNCH
280
    1
  9
$SOLIDHIST
280
    1
  9
$SHOWHIST
280
    1
  9
$DWFFRAME
280
    2
  9
$DGNFRAME
280
    0
  9
$REALWORLDSCALE
290
    1
  9
$INTERFERECOLOR
 62
    1
  9
$CSHADOW
280
    0
  9
$SHADOWPLANELOCATION
 40
0
  0
ENDSEC
  0
SECTION
  2
CLASSES
  0
ENDSEC
  0
SECTION
  2
TABLES
  0
TABLE
  2
VPORT
  5
8
330
0
100
AcDbSymbolTable
 70
    1
  0
VPORT
  5
31
330
2
100
AcDbSymbolTableRecord
100
AcDbViewportTableRecord
  2
*ACTIVE
 70
    0
 10
0
 20
0
 11
1
 21
1
 12
170.9687002500003
 22
128.7921116250002
 13
0
 23
0
 14
10
 24
10
 15
10
 25
10
 16
0
 26
0
 36
1
 17
0
 27
0
 37
0
 40
274.0670280000004
 41
1.870283018867924
 42
50
 43
0
 44
0
 50
0
 51
0
 71
    0
 72
  100
 73
    1
 74
    3
 75
    0
 76
    1
 77
    0
 78
    0
281
    0
 65
    1
110
0
120
0
130
0
111
1
121
0
131
0
112
0
122
1
132
0
 79
    0
146
0
348
10020
 60
    7
 61
    5
292
1
282
    1
141
0
142
0
 63
  250
421
3358443
  0
ENDTAB
  0
TABLE
  2
LTYPE
  5
5
330
0
100
AcDbSymbolTable
 70
    4
  0
LTYPE
  5
14
330
5
100
AcDbSymbolTableRecord
100
AcDbLinetypeTableRecord
  2
ByBlock
 70
    0
  3

 72
   65
 73
    0
 40
0
  0
LTYPE
  5
15
330
5
100
AcDbSymbolTableRecord
100
AcDbLinetypeTableRecord
  2
ByLayer
 70
    0
  3

 72
   65
 73
    0
 40
0
  0
LTYPE
  5
16
330
5
100
AcDbSymbolTableRecord
100
AcDbLinetypeTableRecord
  2
Continuous
 70
    0
  3
Solid line
 72
   65
 73
    0
 40
0
  0
LTYPE
  5
32
330
5
100
AcDbSymbolTableRecord
100
AcDbLinetypeTableRecord
  2
DOT
 70
    0
  3
Dot . . . . . . . . . . . . . . . . . . . . . .
 72
   65
 73
    2
 40
6.35
 49
0
 74
    0
 49
-6.35
 74
    0
  0
LTYPE
  5
33
330
5
100
AcDbSymbolTableRecord
100
AcDbLinetypeTableRecord
  2
DOTTINY
 70
    0
  3
Dot (.15x) .....................................
 72
   65
 73
    2
 40
0.9525
 49
0
 74
    0
 49
-0.9525
 74
    0
  0
LTYPE
  5
34
330
5
100
AcDbSymbolTableRecord
100
AcDbLinetypeTableRecord
  2
DOT2
 70
    0
  3
Dot (.5x) .....................................
 72
   65
 73
    2
 40
3.175
 49
0
 74
    0
 49
-3.175
 74
    0
  0
LTYPE
  5
35
330
5
100
AcDbSymbolTableRecord
100
AcDbLinetypeTableRecord
  2
DOTX2
 70
    0
  3
Dot (2x) .  .  .  .  .  .  .  .  .  .  .  .  .
 72
   65
 73
    2
 40
12.7
 49
0
 74
    0
 49
-12.7
 74
    0
  0
LTYPE
  5
36
330
5
100
AcDbSymbolTableRecord
100
AcDbLinetypeTableRecord
  2
DASHED
 70
    0
  3
Dashed _ _ _ _ _ _ _ _ _ _ _ _ _ _ _ _ _
 72
   65
 73
    2
 40
19.05
 49
12.7
 74
    0
 49
-6.35
 74
    0
  0
LTYPE
  5
37
330
5
100
AcDbSymbolTableRecord
100
AcDbLinetypeTableRecord
  2
DASHEDTINY
 70
    0
  3
Dashed (.15x) _ _ _ _ _ _ _ _ _ _ _ _ _ _ _ _ _
 72
   65
 73
    2
 40
2.8575
 49
1.905
 74
    0
 49
-0.9525
 74
    0
  0
LTYPE
  5
38
330
5
100
AcDbSymbolTableRecord
100
AcDbLinetypeTableRecord
  2
DASHED2
 70
    0
  3
Dashed (.5x) _ _ _ _ _ _ _ _ _ _ _ _ _ _ _ _ _
 72
   65
 73
    2
 40
9.524999999999999
 49
6.35
 74
    0
 49
-3.175
 74
    0
  0
LTYPE
  5
39
330
5
100
AcDbSymbolTableRecord
100
AcDbLinetypeTableRecord
  2
DASHEDX2
 70
    0
  3
Dashed (2x) ____  ____  ____  ____  ____  ___
 72
   65
 73
    2
 40
38.09999999999999
 49
25.4
 74
    0
 49
-12.7
 74
    0
  0
LTYPE
  5
3A
330
5
100
AcDbSymbolTableRecord
100
AcDbLinetypeTableRecord
  2
DASHDOT
 70
    0
  3
Dash dot __ . __ . __ . __ . __ . __ . __ . __
 72
   65
 73
    4
 40
25.4
 49
12.7
 74
    0
 49
-6.35
 74
    0
 49
0
 74
    0
 49
-6.35
 74
    0
  0
LTYPE
  5
3B
330
5
100
AcDbSymbolTableRecord
100
AcDbLinetypeTableRecord
  2
DASHDOTTINY
 70
    0
  3
Dash dot (.15x) _._._._._._._._._._._._._._._.
 72
   65
 73
    4
 40
3.81
 49
1.905
 74
    0
 49
-0.9525
 74
    0
 49
0
 74
    0
 49
-0.9525
 74
    0
  0
LTYPE
  5
3C
330
5
100
AcDbSymbolTableRecord
100
AcDbLinetypeTableRecord
  2
DASHDOT2
 70
    0
  3
Dash dot (.5x) _._._._._._._._._._._._._._._.
 72
   65
 73
    4
 40
12.7
 49
6.35
 74
    0
 49
-3.175
 74
    0
 49
0
 74
    0
 49
-3.175
 74
    0
  0
LTYPE
  5
3D
330
5
100
AcDbSymbolTableRecord
100
AcDbLinetypeTableRecord
  2
DASHDOTX2
 70
    0
  3
Dash dot (2x) ____  .  ____  .  ____  .  ___
 72
   65
 73
    4
 40
50.8
 49
25.4
 74
    0
 49
-12.7
 74
    0
 49
0
 74
    0
 49
-12.7
 74
    0
  0
LTYPE
  5
3E
330
5
100
AcDbSymbolTableRecord
100
AcDbLinetypeTableRecord
  2
DIVIDE
 70
    0
  3
Divide ____ . . ____ . . ____ . . ____ . . ____
 72
   65
 73
    6
 40
31.75
 49
12.7
 74
    0
 49
-6.35
 74
    0
 49
0
 74
    0
 49
-6.35
 74
    0
 49
0
 74
    0
 49
-6.35
 74
    0
  0
LTYPE
  5
3F
330
5
100
AcDbSymbolTableRecord
100
AcDbLinetypeTableRecord
  2
DIVIDETINY
 70
    0
  3
Divide (.15x) __..__..__..__..__..__..__..__.._
 72
   65
 73
    6
 40
4.7625
 49
1.905
 74
    0
 49
-0.9525
 74
    0
 49
0
 74
    0
 49
-0.9525
 74
    0
 49
0
 74
    0
 49
-0.9525
 74
    0
  0
LTYPE
  5
40
330
5
100
AcDbSymbolTableRecord
100
AcDbLinetypeTableRecord
  2
DIVIDE2
 70
    0
  3
Divide (.5x) __..__..__..__..__..__..__..__.._
 72
   65
 73
    6
 40
15.875
 49
6.35
 74
    0
 49
-3.175
 74
    0
 49
0
 74
    0
 49
-3.175
 74
    0
 49
0
 74
    0
 49
-3.175
 74
    0
  0
LTYPE
  5
41
330
5
100
AcDbSymbolTableRecord
100
AcDbLinetypeTableRecord
  2
DIVIDEX2
 70
    0
  3
Divide (2x) ________  .  .  ________  .  .  _
 72
   65
 73
    6
 40
63.5
 49
25.4
 74
    0
 49
-12.7
 74
    0
 49
0
 74
    0
 49
-12.7
 74
    0
 49
0
 74
    0
 49
-12.7
 74
    0
  0
LTYPE
  5
42
330
5
100
AcDbSymbolTableRecord
100
AcDbLinetypeTableRecord
  2
BORDER
 70
    0
  3
Border __ __ . __ __ . __ __ . __ __ . __ __ .
 72
   65
 73
    6
 40
44.45
 49
12.7
 74
    0
 49
-6.35
 74
    0
 49
12.7
 74
    0
 49
-6.35
 74
    0
 49
0
 74
    0
 49
-6.35
 74
    0
  0
LTYPE
  5
43
330
5
100
AcDbSymbolTableRecord
100
AcDbLinetypeTableRecord
  2
BORDERTINY
 70
    0
  3
Border (.15x) __.__.__.__.__.__.__.__.__.__.__.
 72
   65
 73
    6
 40
6.6675
 49
1.905
 74
    0
 49
-0.9525
 74
    0
 49
1.905
 74
    0
 49
-0.9525
 74
    0
 49
0
 74
    0
 49
-0.9525
 74
    0
  0
LTYPE
  5
44
330
5
100
AcDbSymbolTableRecord
100
AcDbLinetypeTableRecord
  2
BORDER2
 70
    0
  3
Border (.5x) __.__.__.__.__.__.__.__.__.__.__.
 72
   65
 73
    6
 40
22.225
 49
6.35
 74
    0
 49
-3.175
 74
    0
 49
6.35
 74
    0
 49
-3.175
 74
    0
 49
0
 74
    0
 49
-3.175
 74
    0
  0
LTYPE
  5
45
330
5
100
AcDbSymbolTableRecord
100
AcDbLinetypeTableRecord
  2
BORDERX2
 70
    0
  3
Border (2x) ____  ____  .  ____  ____  .  ___
 72
   65
 73
    6
 40
88.89999999999999
 49
25.4
 74
    0
 49
-12.7
 74
    0
 49
25.4
 74
    0
 49
-12.7
 74
    0
 49
0
 74
    0
 49
-12.7
 74
    0
  0
LTYPE
  5
46
330
5
100
AcDbSymbolTableRecord
100
AcDbLinetypeTableRecord
  2
CENTER
 70
    0
  3
Center ____ _ ____ _ ____ _ ____ _ ____ _ ____
 72
   65
 73
    4
 40
50.8
 49
31.75
 74
    0
 49
-6.35
 74
    0
 49
6.35
 74
    0
 49
-6.35
 74
    0
  0
LTYPE
  5
47
330
5
100
AcDbSymbolTableRecord
100
AcDbLinetypeTableRecord
  2
CENTERTINY
 70
    0
  3
Center (.15x) ___ _ ___ _ ___ _ ___ _ ___ _ ___
 72
   65
 73
    4
 40
7.62
 49
4.7625
 74
    0
 49
-0.9525
 74
    0
 49
0.9525
 74
    0
 49
-0.9525
 74
    0
  0
LTYPE
  5
48
330
5
100
AcDbSymbolTableRecord
100
AcDbLinetypeTableRecord
  2
CENTER2
 70
    0
  3
Center (.5x) ___ _ ___ _ ___ _ ___ _ ___ _ ___
 72
   65
 73
    4
 40
28.575
 49
19.05
 74
    0
 49
-3.175
 74
    0
 49
3.175
 74
    0
 49
-3.175
 74
    0
  0
LTYPE
  5
49
330
5
100
AcDbSymbolTableRecord
100
AcDbLinetypeTableRecord
  2
CENTERX2
 70
    0
  3
Center (2x) ________  __  ________  __  _____
 72
   65
 73
    4
 40
101.6
 49
63.5
 74
    0
 49
-12.7
 74
    0
 49
12.7
 74
    0
 49
-12.7
 74
    0
  0
ENDTAB
  0
TABLE
  2
LAYER
  5
2
330
0
100
AcDbSymbolTable
 70
    1
  0
LAYER
  5
10
330
2
100
AcDbSymbolTableRecord
100
AcDbLayerTableRecord
  2
0
 70
    0
 62
    7
  6
CONTINUOUS
370
    0
390
F
  0
LAYER
  5
4A
330
2
100
AcDbSymbolTableRecord
100
AcDbLayerTableRecord
  2
annotation
 70
    0
 62
    7
  6
CONTINUOUS
370
   -3
390
F
  0
LAYER
  5
4B
330
2
100
AcDbSymbolTableRecord
100
AcDbLayerTableRecord
  2
boundary
 70
    0
 62
    7
  6
CONTINUOUS
370
   -3
390
F
  0
LAYER
  5
4C
330
2
100
AcDbSymbolTableRecord
100
AcDbLayerTableRecord
  2
frame
 70
    0
 62
    7
  6
CONTINUOUS
370
   -3
390
F
  0
LAYER
  5
4D
330
2
100
AcDbSymbolTableRecord
100
AcDbLayerTableRecord
  2
hole
 70
    0
 62
    7
  6
CONTINUOUS
370
   -3
390
F
  0
ENDTAB
  0
TABLE
  2
STYLE
  5
3
330
0
100
AcDbSymbolTable
 70
    3
  0
STYLE
  5
4E
330
2
100
AcDbSymbolTableRecord
100
AcDbTextStyleTableRecord
  2
Standard
 70
    0
 40
0
 41
1
 50
0
 71
    0
 42
1
  3
txt
  4

  0
ENDTAB
  0
TABLE
  2
VIEW
  5
6
330
0
100
AcDbSymbolTable
 70
    0
  0
ENDTAB
  0
TABLE
  2
UCS
  5
7
330
0
100
AcDbSymbolTable
 70
    0
  0
ENDTAB
  0
TABLE
  2
APPID
  5
9
330
0
100
AcDbSymbolTable
 70
    1
  0
APPID
  5
12
330
9
100
AcDbSymbolTableRecord
100
AcDbRegAppTableRecord
  2
ACAD
 70
    0
  0
APPID
  5
4F
330
9
100
AcDbSymbolTableRecord
100
AcDbRegAppTableRecord
  2
LibreCad
 70
    0
  0
ENDTAB
  0
TABLE
  2
DIMSTYLE
  5
A
330
0
100
AcDbSymbolTable
 70
    1
100
AcDbDimStyleTable
 71
    1
  0
DIMSTYLE
105
50
330
A
100
AcDbSymbolTableRecord
100
AcDbDimStyleTableRecord
  2
Standard
 70
    0
 40
1
 41
2.5
 42
0.625
 43
0.38
 44
1.25
 45
0
 46
0
 47
0
 48
0
 49
1
140
2.5
141
0.09
142
2.5
143
25.4
144
1
145
0
146
1
147
0.625
148
0
 71
    0
 72
    0
 73
    0
 74
    1
 75
    0
 76
    0
 77
    0
 78
    1
 79
    0
170
    0
171
    2
172
    0
173
    0
174
    0
175
    0
176
    0
177
    0
178
    0
179
    0
271
    2
272
    4
273
    2
274
    2
275
    0
276
    0
277
    2
278
    0
279
    0
280
    0
281
    0
282
    0
283
    1
284
    0
285
    0
286
    0
288
    0
289
    3
340
standard
341

371
   -2
372
   -2
  0
ENDTAB
  0
TABLE
  2
BLOCK_RECORD
  5
1
330
0
100
AcDbSymbolTable
 70
    2
  0
BLOCK_RECORD
  5
1F
330
1
100
AcDbSymbolTableRecord
100
AcDbBlockTableRecord
  2
*Model_Space
 70
    0
280
    1
281
    0
  0
BLOCK_RECORD
  5
1E
330
1
100
AcDbSymbolTableRecord
100
AcDbBlockTableRecord
  2
*Paper_Space
 70
    0
280
    1
281
    0
  0
ENDTAB
  0
ENDSEC
  0
SECTION
  2
BLOCKS
  0
BLOCK
  5
20
330
1F
100
AcDbEntity
  8
0
100
AcDbBlockBegin
  2
*Model_Space
 70
    0
 10
0
 20
0
 30
0
  3
*Model_Space
  1

  0
ENDBLK
  5
21
330
1F
100
AcDbEntity
  8
0
100
AcDbBlockEnd
  0
BLOCK
  5
1C
330
1B
100
AcDbEntity
  8
0
100
AcDbBlockBegin
  2
*Paper_Space
 70
    0
 10
0
 20
0
 30
0
  3
*Paper_Space
  1

  0
ENDBLK
  5
1D
330
1F
100
AcDbEntity
  8
0
100
AcDbBlockEnd
  0
ENDSEC
  0
SECTION
  2
ENTITIES
  0
LINE
  5
51
100
AcDbEntity
  8
hole
  6
ByLayer
 62
    5
370
   -1
100
AcDbLine
 10
65.914112
 20
77.15200900000001
 11
65.644012
 21
76.607654
  0
LINE
  5
52
100
AcDbEntity
  8
hole
  6
ByLayer
 62
    5
370
   -1
100
AcDbLine
 10
65.644012
 20
76.607654
 11
65.06041399999999
 21
76.07355099999999
  0
LINE
  5
53
100
AcDbEntity
  8
hole
  6
ByLayer
 62
    5
370
   -1
100
AcDbLine
 10
65.06041399999999
 20
76.07355099999999
 11
64.43339899999999
 21
75.716904
  0
LINE
  5
54
100
AcDbEntity
  8
hole
  6
ByLayer
 62
    5
370
   -1
100
AcDbLine
 10
64.43339899999999
 20
75.716904
 11
63.578838
 21
75.714989
  0
LINE
  5
55
100
AcDbEntity
  8
hole
  6
ByLayer
 62
    5
370
   -1
100
AcDbLine
 10
63.578838
 20
75.714989
 11
63.018678
 21
75.918414
  0
LINE
  5
56
100
AcDbEntity
  8
hole
  6
ByLayer
 62
    5
370
   -1
100
AcDbLine
 10
63.018678
 20
75.918414
 11
62.202867
 21
76.59563300000001
  0
LINE
  5
57
100
AcDbEntity
  8
hole
  6
ByLayer
 62
    5
370
   -1
100
AcDbLine
 10
62.202867
 20
76.59563300000001
 11
61.915638
 21
77.212886
  0
LINE
  5
58
100
AcDbEntity
  8
hole
  6
ByLayer
 62
    5
370
   -1
100
AcDbLine
 10
61.915638
 20
77.212886
 11
61.722798
 21
77.734013
  0
LINE
  5
59
100
AcDbEntity
  8
hole
  6
ByLayer
 62
    5
370
   -1
100
AcDbLine
 10
61.722798
 20
77.734013
 11
61.888192
 21
78.27166
  0
LINE
  5
5A
100
AcDbEntity
  8
hole
  6
ByLayer
 62
    5
370
   -1
100
AcDbLine
 10
61.888192
 20
78.27166
 11
62.109021
 21
78.860371
  0
LINE
  5
5B
100
AcDbEntity
  8
hole
  6
ByLayer
 62
    5
370
   -1
100
AcDbLine
 10
62.109021
 20
78.860371
 11
62.649965
 21
79.414215
  0
LINE
  5
5C
100
AcDbEntity
  8
hole
  6
ByLayer
 62
    5
370
   -1
100
AcDbLine
 10
62.649965
 20
79.414215
 11
63.318133
 21
79.826589
  0
LINE
  5
5D
100
AcDbEntity
  8
hole
  6
ByLayer
 62
    5
370
   -1
100
AcDbLine
 10
63.318133
 20
79.826589
 11
64.285819
 21
79.868033
  0
LINE
  5
5E
100
AcDbEntity
  8
hole
  6
ByLayer
 62
    5
370
   -1
100
AcDbLine
 10
64.285819
 20
79.868033
 11
64.964805
 21
79.59004
  0
LINE
  5
5F
100
AcDbEntity
  8
hole
  6
ByLayer
 62
    5
370
   -1
100
AcDbLine
 10
64.964805
 20
79.59004
 11
65.548665
 21
79.095572
  0
LINE
  5
60
100
AcDbEntity
  8
hole
  6
ByLayer
 62
    5
370
   -1
100
AcDbLine
 10
65.548665
 20
79.095572
 11
65.94502
 21
78.34580800000001
  0
LINE
  5
61
100
AcDbEntity
  8
hole
  6
ByLayer
 62
    5
370
   -1
100
AcDbLine
 10
65.94502
 20
78.34580800000001
 11
66.147181
 21
77.73401200000001
  0
LINE
  5
62
100
AcDbEntity
  8
hole
  6
ByLayer
 62
    5
370
   -1
100
AcDbLine
 10
66.147181
 20
77.73401200000001
 11
65.926874
 21
77.189656
  0
LINE
  5
63
100
AcDbEntity
  8
hole
  6
ByLayer
 62
    5
370
   -1
100
AcDbLine
 10
65.926874
 20
77.189656
 11
65.914112
 21
77.15200900000001
  0
LINE
  5
64
100
AcDbEntity
  8
hole
  6
ByLayer
 62
    5
370
   -1
100
AcDbLine
 10
63.806223
 20
147.318656
 11
63.318133
 21
146.965792
  0
LINE
  5
65
100
AcDbEntity
  8
hole
  6
ByLayer
 62
    5
370
   -1
100
AcDbLine
 10
63.318133
 20
146.965792
 11
62.456871
 21
146.851331
  0
LINE
  5
66
100
AcDbEntity
  8
hole
  6
ByLayer
 62
    5
370
   -1
100
AcDbLine
 10
62.456871
 20
146.851331
 11
61.91483
 21
146.966562
  0
LINE
  5
67
100
AcDbEntity
  8
hole
  6
ByLayer
 62
    5
370
   -1
100
AcDbLine
 10
61.91483
 20
146.966562
 11
61.087603
 21
147.469681
  0
LINE
  5
68
100
AcDbEntity
  8
hole
  6
ByLayer
 62
    5
370
   -1
100
AcDbLine
 10
61.087603
 20
147.469681
 11
60.68726
 21
148.072515
  0
LINE
  5
69
100
AcDbEntity
  8
hole
  6
ByLayer
 62
    5
370
   -1
100
AcDbLine
 10
60.68726
 20
148.072515
 11
60.397571
 21
148.694625
  0
LINE
  5
6A
100
AcDbEntity
  8
hole
  6
ByLayer
 62
    5
370
   -1
100
AcDbLine
 10
60.397571
 20
148.694625
 11
60.511201
 21
149.419699
  0
LINE
  5
6B
100
AcDbEntity
  8
hole
  6
ByLayer
 62
    5
370
   -1
100
AcDbLine
 10
60.511201
 20
149.419699
 11
60.915189
 21
150.256743
  0
LINE
  5
6C
100
AcDbEntity
  8
hole
  6
ByLayer
 62
    5
370
   -1
100
AcDbLine
 10
60.915189
 20
150.256743
 11
61.321967
 21
150.695729
  0
LINE
  5
6D
100
AcDbEntity
  8
hole
  6
ByLayer
 62
    5
370
   -1
100
AcDbLine
 10
61.321967
 20
150.695729
 11
61.7655
 21
150.947343
  0
LINE
  5
6E
100
AcDbEntity
  8
hole
  6
ByLayer
 62
    5
370
   -1
100
AcDbLine
 10
61.7655
 20
150.947343
 11
62.576916
 21
151.126044
  0
LINE
  5
6F
100
AcDbEntity
  8
hole
  6
ByLayer
 62
    5
370
   -1
100
AcDbLine
 10
62.576916
 20
151.126044
 11
63.101404
 21
151.050885
  0
LINE
  5
70
100
AcDbEntity
  8
hole
  6
ByLayer
 62
    5
370
   -1
100
AcDbLine
 10
63.101404
 20
151.050885
 11
63.927329
 21
150.578544
  0
LINE
  5
71
100
AcDbEntity
  8
hole
  6
ByLayer
 62
    5
370
   -1
100
AcDbLine
 10
63.927329
 20
150.578544
 11
64.43339899999999
 21
149.96907
  0
LINE
  5
72
100
AcDbEntity
  8
hole
  6
ByLayer
 62
    5
370
   -1
100
AcDbLine
 10
64.43339899999999
 20
149.96907
 11
64.66960899999999
 21
149.15104
  0
LINE
  5
73
100
AcDbEntity
  8
hole
  6
ByLayer
 62
    5
370
   -1
100
AcDbLine
 10
64.66960899999999
 20
149.15104
 11
64.57163799999999
 21
148.318361
  0
LINE
  5
74
100
AcDbEntity
  8
hole
  6
ByLayer
 62
    5
370
   -1
100
AcDbLine
 10
64.57163799999999
 20
148.318361
 11
64.25116300000001
 21
147.738485
  0
LINE
  5
75
100
AcDbEntity
  8
hole
  6
ByLayer
 62
    5
370
   -1
100
AcDbLine
 10
64.25116300000001
 20
147.738485
 11
63.806223
 21
147.318656
  0
LINE
  5
76
100
AcDbEntity
  8
hole
  6
ByLayer
 62
    5
370
   -1
100
AcDbLine
 10
64.91417199999999
 20
17.304076
 11
64.43339899999999
 21
17.10179
  0
LINE
  5
77
100
AcDbEntity
  8
hole
  6
ByLayer
 62
    5
370
   -1
100
AcDbLine
 10
64.43339899999999
 20
17.10179
 11
63.534577
 21
17.19971
  0
LINE
  5
78
100
AcDbEntity
  8
hole
  6
ByLayer
 62
    5
370
   -1
100
AcDbLine
 10
63.534577
 20
17.19971
 11
62.905119
 21
17.587912
  0
LINE
  5
79
100
AcDbEntity
  8
hole
  6
ByLayer
 62
    5
370
   -1
100
AcDbLine
 10
62.905119
 20
17.587912
 11
62.441242
 21
18.03699
  0
LINE
  5
7A
100
AcDbEntity
  8
hole
  6
ByLayer
 62
    5
370
   -1
100
AcDbLine
 10
62.441242
 20
18.03699
 11
62.030848
 21
18.742485
  0
LINE
  5
7B
100
AcDbEntity
  8
hole
  6
ByLayer
 62
    5
370
   -1
100
AcDbLine
 10
62.030848
 20
18.742485
 11
61.8464
 21
19.724155
  0
LINE
  5
7C
100
AcDbEntity
  8
hole
  6
ByLayer
 62
    5
370
   -1
100
AcDbLine
 10
61.8464
 20
19.724155
 11
61.872066
 21
20.289711
  0
LINE
  5
7D
100
AcDbEntity
  8
hole
  6
ByLayer
 62
    5
370
   -1
100
AcDbLine
 10
61.872066
 20
20.289711
 11
62.202868
 21
20.835357
  0
LINE
  5
7E
100
AcDbEntity
  8
hole
  6
ByLayer
 62
    5
370
   -1
100
AcDbLine
 10
62.202868
 20
20.835357
 11
62.754838
 21
21.416066
  0
LINE
  5
7F
100
AcDbEntity
  8
hole
  6
ByLayer
 62
    5
370
   -1
100
AcDbLine
 10
62.754838
 20
21.416066
 11
63.318133
 21
21.778926
  0
LINE
  5
80
100
AcDbEntity
  8
hole
  6
ByLayer
 62
    5
370
   -1
100
AcDbLine
 10
63.318133
 20
21.778926
 11
63.854243
 21
21.803814
  0
LINE
  5
81
100
AcDbEntity
  8
hole
  6
ByLayer
 62
    5
370
   -1
100
AcDbLine
 10
63.854243
 20
21.803814
 11
64.43339899999999
 21
21.829386
  0
LINE
  5
82
100
AcDbEntity
  8
hole
  6
ByLayer
 62
    5
370
   -1
100
AcDbLine
 10
64.43339899999999
 20
21.829386
 11
65.131731
 21
21.416066
  0
LINE
  5
83
100
AcDbEntity
  8
hole
  6
ByLayer
 62
    5
370
   -1
100
AcDbLine
 10
65.131731
 20
21.416066
 11
65.548665
 21
21.036435
  0
LINE
  5
84
100
AcDbEntity
  8
hole
  6
ByLayer
 62
    5
370
   -1
100
AcDbLine
 10
65.548665
 20
21.036435
 11
66.0274
 21
20.289711
  0
LINE
  5
85
100
AcDbEntity
  8
hole
  6
ByLayer
 62
    5
370
   -1
100
AcDbLine
 10
66.0274
 20
20.289711
 11
66.22372900000001
 21
19.429608
  0
LINE
  5
86
100
AcDbEntity
  8
hole
  6
ByLayer
 62
    5
370
   -1
100
AcDbLine
 10
66.22372900000001
 20
19.429608
 11
66.187938
 21
18.885236
  0
LINE
  5
87
100
AcDbEntity
  8
hole
  6
ByLayer
 62
    5
370
   -1
100
AcDbLine
 10
66.187938
 20
18.885236
 11
65.871875
 21
18.03699
  0
LINE
  5
88
100
AcDbEntity
  8
hole
  6
ByLayer
 62
    5
370
   -1
100
AcDbLine
 10
65.871875
 20
18.03699
 11
65.136146
 21
17.407478
  0
LINE
  5
89
100
AcDbEntity
  8
hole
  6
ByLayer
 62
    5
370
   -1
100
AcDbLine
 10
65.136146
 20
17.407478
 11
64.91417199999999
 21
17.304076
  0
LINE
  5
8A
100
AcDbEntity
  8
hole
  6
ByLayer
 62
    5
370
   -1
100
AcDbLine
 10
134.746103
 20
47.271198
 11
134.274333
 21
46.906967
  0
LINE
  5
8B
100
AcDbEntity
  8
hole
  6
ByLayer
 62
    5
370
   -1
100
AcDbLine
 10
134.274333
 20
46.906967
 11
133.579879
 21
46.585726
  0
LINE
  5
8C
100
AcDbEntity
  8
hole
  6
ByLayer
 62
    5
370
   -1
100
AcDbLine
 10
133.579879
 20
46.585726
 11
132.830181
 21
46.712162
  0
LINE
  5
8D
100
AcDbEntity
  8
hole
  6
ByLayer
 62
    5
370
   -1
100
AcDbLine
 10
132.830181
 20
46.712162
 11
132.141894
 21
47.06647
  0
LINE
  5
8E
100
AcDbEntity
  8
hole
  6
ByLayer
 62
    5
370
   -1
100
AcDbLine
 10
132.141894
 20
47.06647
 11
131.612944
 21
47.569942
  0
LINE
  5
8F
100
AcDbEntity
  8
hole
  6
ByLayer
 62
    5
370
   -1
100
AcDbLine
 10
131.612944
 20
47.569942
 11
131.349347
 21
48.078197
  0
LINE
  5
90
100
AcDbEntity
  8
hole
  6
ByLayer
 62
    5
370
   -1
100
AcDbLine
 10
131.349347
 20
48.078197
 11
131.206752
 21
48.780157
  0
LINE
  5
91
100
AcDbEntity
  8
hole
  6
ByLayer
 62
    5
370
   -1
100
AcDbLine
 10
131.206752
 20
48.780157
 11
131.281282
 21
49.416816
  0
LINE
  5
92
100
AcDbEntity
  8
hole
  6
ByLayer
 62
    5
370
   -1
100
AcDbLine
 10
131.281282
 20
49.416816
 11
131.648315
 21
50.308142
  0
LINE
  5
93
100
AcDbEntity
  8
hole
  6
ByLayer
 62
    5
370
   -1
100
AcDbLine
 10
131.648315
 20
50.308142
 11
132.192585
 21
50.961621
  0
LINE
  5
94
100
AcDbEntity
  8
hole
  6
ByLayer
 62
    5
370
   -1
100
AcDbLine
 10
132.192585
 20
50.961621
 11
132.828834
 21
51.397023
  0
LINE
  5
95
100
AcDbEntity
  8
hole
  6
ByLayer
 62
    5
370
   -1
100
AcDbLine
 10
132.828834
 20
51.397023
 11
133.579879
 21
51.638064
  0
LINE
  5
96
100
AcDbEntity
  8
hole
  6
ByLayer
 62
    5
370
   -1
100
AcDbLine
 10
133.579879
 20
51.638064
 11
134.113535
 21
51.467975
  0
LINE
  5
97
100
AcDbEntity
  8
hole
  6
ByLayer
 62
    5
370
   -1
100
AcDbLine
 10
134.113535
 20
51.467975
 11
134.695145
 21
51.210014
  0
LINE
  5
98
100
AcDbEntity
  8
hole
  6
ByLayer
 62
    5
370
   -1
100
AcDbLine
 10
134.695145
 20
51.210014
 11
135.20765
 21
50.701399
  0
LINE
  5
99
100
AcDbEntity
  8
hole
  6
ByLayer
 62
    5
370
   -1
100
AcDbLine
 10
135.20765
 20
50.701399
 11
135.467322
 21
50.179495
  0
LINE
  5
9A
100
AcDbEntity
  8
hole
  6
ByLayer
 62
    5
370
   -1
100
AcDbLine
 10
135.467322
 20
50.179495
 11
135.671703
 21
49.575039
  0
LINE
  5
9B
100
AcDbEntity
  8
hole
  6
ByLayer
 62
    5
370
   -1
100
AcDbLine
 10
135.671703
 20
49.575039
 11
135.538077
 21
48.841068
  0
LINE
  5
9C
100
AcDbEntity
  8
hole
  6
ByLayer
 62
    5
370
   -1
100
AcDbLine
 10
135.538077
 20
48.841068
 11
135.301693
 21
48.160781
  0
LINE
  5
9D
100
AcDbEntity
  8
hole
  6
ByLayer
 62
    5
370
   -1
100
AcDbLine
 10
135.301693
 20
48.160781
 11
134.797063
 21
47.322321
  0
LINE
  5
9E
100
AcDbEntity
  8
hole
  6
ByLayer
 62
    5
370
   -1
100
AcDbLine
 10
134.797063
 20
47.322321
 11
134.746103
 21
47.271198
  0
LINE
  5
9F
100
AcDbEntity
  8
hole
  6
ByLayer
 62
    5
370
   -1
100
AcDbLine
 10
28.304122
 20
124.238521
 11
27.789453
 21
123.780318
  0
LINE
  5
A0
100
AcDbEntity
  8
hole
  6
ByLayer
 62
    5
370
   -1
100
AcDbLine
 10
27.789453
 20
123.780318
 11
27.15739
 21
123.352731
  0
LINE
  5
A1
100
AcDbEntity
  8
hole
  6
ByLayer
 62
    5
370
   -1
100
AcDbLine
 10
27.15739
 20
123.352731
 11
26.514363
 21
123.046485
  0
LINE
  5
A2
100
AcDbEntity
  8
hole
  6
ByLayer
 62
    5
370
   -1
100
AcDbLine
 10
26.514363
 20
123.046485
 11
25.496045
 21
122.861436
  0
LINE
  5
A3
100
AcDbEntity
  8
hole
  6
ByLayer
 62
    5
370
   -1
100
AcDbLine
 10
25.496045
 20
122.861436
 11
24.436658
 21
122.889389
  0
LINE
  5
A4
100
AcDbEntity
  8
hole
  6
ByLayer
 62
    5
370
   -1
100
AcDbLine
 10
24.436658
 20
122.889389
 11
23.599344
 21
123.094466
  0
LINE
  5
A5
100
AcDbEntity
  8
hole
  6
ByLayer
 62
    5
370
   -1
100
AcDbLine
 10
23.599344
 20
123.094466
 11
22.636442
 21
123.598834
  0
LINE
  5
A6
100
AcDbEntity
  8
hole
  6
ByLayer
 62
    5
370
   -1
100
AcDbLine
 10
22.636442
 20
123.598834
 11
22.230707
 21
123.914727
  0
LINE
  5
A7
100
AcDbEntity
  8
hole
  6
ByLayer
 62
    5
370
   -1
100
AcDbLine
 10
22.230707
 20
123.914727
 11
21.792135
 21
124.354672
  0
LINE
  5
A8
100
AcDbEntity
  8
hole
  6
ByLayer
 62
    5
370
   -1
100
AcDbLine
 10
21.792135
 20
124.354672
 11
21.228792
 21
125.041084
  0
LINE
  5
A9
100
AcDbEntity
  8
hole
  6
ByLayer
 62
    5
370
   -1
100
AcDbLine
 10
21.228792
 20
125.041084
 11
20.938032
 21
125.677055
  0
LINE
  5
AA
100
AcDbEntity
  8
hole
  6
ByLayer
 62
    5
370
   -1
100
AcDbLine
 10
20.938032
 20
125.677055
 11
20.703543
 21
126.167445
  0
LINE
  5
AB
100
AcDbEntity
  8
hole
  6
ByLayer
 62
    5
370
   -1
100
AcDbLine
 10
20.703543
 20
126.167445
 11
20.605628
 21
126.728801
  0
LINE
  5
AC
100
AcDbEntity
  8
hole
  6
ByLayer
 62
    5
370
   -1
100
AcDbLine
 10
20.605628
 20
126.728801
 11
20.514113
 21
127.293802
  0
LINE
  5
AD
100
AcDbEntity
  8
hole
  6
ByLayer
 62
    5
370
   -1
100
AcDbLine
 10
20.514113
 20
127.293802
 11
20.606814
 21
127.85529
  0
LINE
  5
AE
100
AcDbEntity
  8
hole
  6
ByLayer
 62
    5
370
   -1
100
AcDbLine
 10
20.606814
 20
127.85529
 11
20.707201
 21
128.42016
  0
LINE
  5
AF
100
AcDbEntity
  8
hole
  6
ByLayer
 62
    5
370
   -1
100
AcDbLine
 10
20.707201
 20
128.42016
 11
20.938032
 21
128.918459
  0
LINE
  5
B0
100
AcDbEntity
  8
hole
  6
ByLayer
 62
    5
370
   -1
100
AcDbLine
 10
20.938032
 20
128.918459
 11
21.213213
 21
129.54652
  0
LINE
  5
B1
100
AcDbEntity
  8
hole
  6
ByLayer
 62
    5
370
   -1
100
AcDbLine
 10
21.213213
 20
129.54652
 11
21.621081
 21
130.107848
  0
LINE
  5
B2
100
AcDbEntity
  8
hole
  6
ByLayer
 62
    5
370
   -1
100
AcDbLine
 10
21.621081
 20
130.107848
 11
22.053299
 21
130.561802
  0
LINE
  5
B3
100
AcDbEntity
  8
hole
  6
ByLayer
 62
    5
370
   -1
100
AcDbLine
 10
22.053299
 20
130.561802
 11
22.615612
 21
131.030779
  0
LINE
  5
B4
100
AcDbEntity
  8
hole
  6
ByLayer
 62
    5
370
   -1
100
AcDbLine
 10
22.615612
 20
131.030779
 11
23.168565
 21
131.408985
  0
LINE
  5
B5
100
AcDbEntity
  8
hole
  6
ByLayer
 62
    5
370
   -1
100
AcDbLine
 10
23.168565
 20
131.408985
 11
24.145259
 21
131.699706
  0
LINE
  5
B6
100
AcDbEntity
  8
hole
  6
ByLayer
 62
    5
370
   -1
100
AcDbLine
 10
24.145259
 20
131.699706
 11
24.693512
 21
131.799238
  0
LINE
  5
B7
100
AcDbEntity
  8
hole
  6
ByLayer
 62
    5
370
   -1
100
AcDbLine
 10
24.693512
 20
131.799238
 11
25.399097
 21
131.918302
  0
LINE
  5
B8
100
AcDbEntity
  8
hole
  6
ByLayer
 62
    5
370
   -1
100
AcDbLine
 10
25.399097
 20
131.918302
 11
26.308354
 21
131.66676
  0
LINE
  5
B9
100
AcDbEntity
  8
hole
  6
ByLayer
 62
    5
370
   -1
100
AcDbLine
 10
26.308354
 20
131.66676
 11
26.795942
 21
131.466273
  0
LINE
  5
BA
100
AcDbEntity
  8
hole
  6
ByLayer
 62
    5
370
   -1
100
AcDbLine
 10
26.795942
 20
131.466273
 11
27.629627
 21
131.031894
  0
LINE
  5
BB
100
AcDbEntity
  8
hole
  6
ByLayer
 62
    5
370
   -1
100
AcDbLine
 10
27.629627
 20
131.031894
 11
28.056312
 21
130.672878
  0
LINE
  5
BC
100
AcDbEntity
  8
hole
  6
ByLayer
 62
    5
370
   -1
100
AcDbLine
 10
28.056312
 20
130.672878
 11
28.453056
 21
130.281922
  0
LINE
  5
BD
100
AcDbEntity
  8
hole
  6
ByLayer
 62
    5
370
   -1
100
AcDbLine
 10
28.453056
 20
130.281922
 11
28.86872
 21
129.718572
  0
LINE
  5
BE
100
AcDbEntity
  8
hole
  6
ByLayer
 62
    5
370
   -1
100
AcDbLine
 10
28.86872
 20
129.718572
 11
29.204742
 21
129.151039
  0
LINE
  5
BF
100
AcDbEntity
  8
hole
  6
ByLayer
 62
    5
370
   -1
100
AcDbLine
 10
29.204742
 20
129.151039
 11
29.478266
 21
128.42016
  0
LINE
  5
C0
100
AcDbEntity
  8
hole
  6
ByLayer
 62
    5
370
   -1
100
AcDbLine
 10
29.478266
 20
128.42016
 11
29.559445
 21
127.821135
  0
LINE
  5
C1
100
AcDbEntity
  8
hole
  6
ByLayer
 62
    5
370
   -1
100
AcDbLine
 10
29.559445
 20
127.821135
 11
29.624005
 21
127.293802
  0
LINE
  5
C2
100
AcDbEntity
  8
hole
  6
ByLayer
 62
    5
370
   -1
100
AcDbLine
 10
29.624005
 20
127.293802
 11
29.541171
 21
126.76765
  0
LINE
  5
C3
100
AcDbEntity
  8
hole
  6
ByLayer
 62
    5
370
   -1
100
AcDbLine
 10
29.541171
 20
126.76765
 11
29.440818
 21
126.167445
  0
LINE
  5
C4
100
AcDbEntity
  8
hole
  6
ByLayer
 62
    5
370
   -1
100
AcDbLine
 10
29.440818
 20
126.167445
 11
29.235343
 21
125.694053
  0
LINE
  5
C5
100
AcDbEntity
  8
hole
  6
ByLayer
 62
    5
370
   -1
100
AcDbLine
 10
29.235343
 20
125.694053
 11
28.923676
 21
125.041084
  0
LINE
  5
C6
100
AcDbEntity
  8
hole
  6
ByLayer
 62
    5
370
   -1
100
AcDbLine
 10
28.923676
 20
125.041084
 11
28.423292
 21
124.369523
  0
LINE
  5
C7
100
AcDbEntity
  8
hole
  6
ByLayer
 62
    5
370
   -1
100
AcDbLine
 10
28.423292
 20
124.369523
 11
28.304122
 21
124.238521
  0
LINE
  5
C8
100
AcDbEntity
  8
hole
  6
ByLayer
 62
    5
370
   -1
100
AcDbLine
 10
109.154407
 20
23.575761
 11
108.618099
 21
23.124975
  0
LINE
  5
C9
100
AcDbEntity
  8
hole
  6
ByLayer
 62
    5
370
   -1
100
AcDbLine
 10
108.618099
 20
23.124975
 11
108.158731
 21
22.826242
  0
LINE
  5
CA
100
AcDbEntity
  8
hole
  6
ByLayer
 62
    5
370
   -1
100
AcDbLine
 10
108.158731
 20
22.826242
 11
107.348857
 21
22.214637
  0
LINE
  5
CB
100
AcDbEntity
  8
hole
  6
ByLayer
 62
    5
370
   -1
100
AcDbLine
 10
107.348857
 20
22.214637
 11
106.813498
 21
21.829457
  0
LINE
  5
CC
100
AcDbEntity
  8
hole
  6
ByLayer
 62
    5
370
   -1
100
AcDbLine
 10
106.813498
 20
21.829457
 11
106.145233
 21
21.416066
  0
LINE
  5
CD
100
AcDbEntity
  8
hole
  6
ByLayer
 62
    5
370
   -1
100
AcDbLine
 10
106.145233
 20
21.416066
 11
105.698235
 21
21.116167
  0
LINE
  5
CE
100
AcDbEntity
  8
hole
  6
ByLayer
 62
    5
370
   -1
100
AcDbLine
 10
105.698235
 20
21.116167
 11
105.264866
 21
20.843739
  0
LINE
  5
CF
100
AcDbEntity
  8
hole
  6
ByLayer
 62
    5
370
   -1
100
AcDbLine
 10
105.264866
 20
20.843739
 11
104.582969
 21
20.494725
  0
LINE
  5
D0
100
AcDbEntity
  8
hole
  6
ByLayer
 62
    5
370
   -1
100
AcDbLine
 10
104.582969
 20
20.494725
 11
103.896674
 21
20.107449
  0
LINE
  5
D1
100
AcDbEntity
  8
hole
  6
ByLayer
 62
    5
370
   -1
100
AcDbLine
 10
103.896674
 20
20.107449
 11
103.071143
 21
19.66503
  0
LINE
  5
D2
100
AcDbEntity
  8
hole
  6
ByLayer
 62
    5
370
   -1
100
AcDbLine
 10
103.071143
 20
19.66503
 11
102.352437
 21
19.365641
  0
LINE
  5
D3
100
AcDbEntity
  8
hole
  6
ByLayer
 62
    5
370
   -1
100
AcDbLine
 10
102.352437
 20
19.365641
 11
101.878374
 21
19.163351
  0
LINE
  5
D4
100
AcDbEntity
  8
hole
  6
ByLayer
 62
    5
370
   -1
100
AcDbLine
 10
101.878374
 20
19.163351
 11
101.23717
 21
18.837802
  0
LINE
  5
D5
100
AcDbEntity
  8
hole
  6
ByLayer
 62
    5
370
   -1
100
AcDbLine
 10
101.23717
 20
18.837802
 11
100.393625
 21
18.526639
  0
LINE
  5
D6
100
AcDbEntity
  8
hole
  6
ByLayer
 62
    5
370
   -1
100
AcDbLine
 10
100.393625
 20
18.526639
 11
99.78543999999999
 21
18.321651
  0
LINE
  5
D7
100
AcDbEntity
  8
hole
  6
ByLayer
 62
    5
370
   -1
100
AcDbLine
 10
99.78543999999999
 20
18.321651
 11
99.199883
 21
18.156588
  0
LINE
  5
D8
100
AcDbEntity
  8
hole
  6
ByLayer
 62
    5
370
   -1
100
AcDbLine
 10
99.199883
 20
18.156588
 11
98.334974
 21
17.828447
  0
LINE
  5
D9
100
AcDbEntity
  8
hole
  6
ByLayer
 62
    5
370
   -1
100
AcDbLine
 10
98.334974
 20
17.828447
 11
97.475948
 21
17.544504
  0
LINE
  5
DA
100
AcDbEntity
  8
hole
  6
ByLayer
 62
    5
370
   -1
100
AcDbLine
 10
97.475948
 20
17.544504
 11
96.776107
 21
17.36857
  0
LINE
  5
DB
100
AcDbEntity
  8
hole
  6
ByLayer
 62
    5
370
   -1
100
AcDbLine
 10
96.776107
 20
17.36857
 11
96.151844
 21
17.236939
  0
LINE
  5
DC
100
AcDbEntity
  8
hole
  6
ByLayer
 62
    5
370
   -1
100
AcDbLine
 10
96.151844
 20
17.236939
 11
95.39821999999999
 21
17.099833
  0
LINE
  5
DD
100
AcDbEntity
  8
hole
  6
ByLayer
 62
    5
370
   -1
100
AcDbLine
 10
95.39821999999999
 20
17.099833
 11
94.665488
 21
16.99702
  0
LINE
  5
DE
100
AcDbEntity
  8
hole
  6
ByLayer
 62
    5
370
   -1
100
AcDbLine
 10
94.665488
 20
16.99702
 11
93.764341
 21
16.777709
  0
LINE
  5
DF
100
AcDbEntity
  8
hole
  6
ByLayer
 62
    5
370
   -1
100
AcDbLine
 10
93.764341
 20
16.777709
 11
92.934085
 21
16.634867
  0
LINE
  5
E0
100
AcDbEntity
  8
hole
  6
ByLayer
 62
    5
370
   -1
100
AcDbLine
 10
92.934085
 20
16.634867
 11
92.315043
 21
16.556522
  0
LINE
  5
E1
100
AcDbEntity
  8
hole
  6
ByLayer
 62
    5
370
   -1
100
AcDbLine
 10
92.315043
 20
16.556522
 11
91.699681
 21
16.511523
  0
LINE
  5
E2
100
AcDbEntity
  8
hole
  6
ByLayer
 62
    5
370
   -1
100
AcDbLine
 10
91.699681
 20
16.511523
 11
90.748774
 21
16.453085
  0
LINE
  5
E3
100
AcDbEntity
  8
hole
  6
ByLayer
 62
    5
370
   -1
100
AcDbLine
 10
90.748774
 20
16.453085
 11
90.084513
 21
16.423046
  0
LINE
  5
E4
100
AcDbEntity
  8
hole
  6
ByLayer
 62
    5
370
   -1
100
AcDbLine
 10
90.084513
 20
16.423046
 11
89.405483
 21
16.427138
  0
LINE
  5
E5
100
AcDbEntity
  8
hole
  6
ByLayer
 62
    5
370
   -1
100
AcDbLine
 10
89.405483
 20
16.427138
 11
88.523646
 21
16.438749
  0
LINE
  5
E6
100
AcDbEntity
  8
hole
  6
ByLayer
 62
    5
370
   -1
100
AcDbLine
 10
88.523646
 20
16.438749
 11
87.85398000000001
 21
16.451439
  0
LINE
  5
E7
100
AcDbEntity
  8
hole
  6
ByLayer
 62
    5
370
   -1
100
AcDbLine
 10
87.85398000000001
 20
16.451439
 11
87.219116
 21
16.494918
  0
LINE
  5
E8
100
AcDbEntity
  8
hole
  6
ByLayer
 62
    5
370
   -1
100
AcDbLine
 10
87.219116
 20
16.494918
 11
86.18347900000001
 21
16.579684
  0
LINE
  5
E9
100
AcDbEntity
  8
hole
  6
ByLayer
 62
    5
370
   -1
100
AcDbLine
 10
86.18347900000001
 20
16.579684
 11
85.62344899999999
 21
16.631392
  0
LINE
  5
EA
100
AcDbEntity
  8
hole
  6
ByLayer
 62
    5
370
   -1
100
AcDbLine
 10
85.62344899999999
 20
16.631392
 11
84.842629
 21
16.748023
  0
LINE
  5
EB
100
AcDbEntity
  8
hole
  6
ByLayer
 62
    5
370
   -1
100
AcDbLine
 10
84.842629
 20
16.748023
 11
84.306607
 21
16.849549
  0
LINE
  5
EC
100
AcDbEntity
  8
hole
  6
ByLayer
 62
    5
370
   -1
100
AcDbLine
 10
84.306607
 20
16.849549
 11
83.578866
 21
17.021124
  0
LINE
  5
ED
100
AcDbEntity
  8
hole
  6
ByLayer
 62
    5
370
   -1
100
AcDbLine
 10
83.578866
 20
17.021124
 11
83.047151
 21
17.122525
  0
LINE
  5
EE
100
AcDbEntity
  8
hole
  6
ByLayer
 62
    5
370
   -1
100
AcDbLine
 10
83.047151
 20
17.122525
 11
82.277652
 21
17.250849
  0
LINE
  5
EF
100
AcDbEntity
  8
hole
  6
ByLayer
 62
    5
370
   -1
100
AcDbLine
 10
82.277652
 20
17.250849
 11
81.460199
 21
17.413638
  0
LINE
  5
F0
100
AcDbEntity
  8
hole
  6
ByLayer
 62
    5
370
   -1
100
AcDbLine
 10
81.460199
 20
17.413638
 11
80.66011399999999
 21
17.625245
  0
LINE
  5
F1
100
AcDbEntity
  8
hole
  6
ByLayer
 62
    5
370
   -1
100
AcDbLine
 10
80.66011399999999
 20
17.625245
 11
80.04712000000001
 21
17.805318
  0
LINE
  5
F2
100
AcDbEntity
  8
hole
  6
ByLayer
 62
    5
370
   -1
100
AcDbLine
 10
80.04712000000001
 20
17.805318
 11
79.48513
 21
18.03699
  0
LINE
  5
F3
100
AcDbEntity
  8
hole
  6
ByLayer
 62
    5
370
   -1
100
AcDbLine
 10
79.48513
 20
18.03699
 11
78.931854
 21
18.220837
  0
LINE
  5
F4
100
AcDbEntity
  8
hole
  6
ByLayer
 62
    5
370
   -1
100
AcDbLine
 10
78.931854
 20
18.220837
 11
78.416357
 21
18.37143
  0
LINE
  5
F5
100
AcDbEntity
  8
hole
  6
ByLayer
 62
    5
370
   -1
100
AcDbLine
 10
78.416357
 20
18.37143
 11
77.81658899999999
 21
18.571114
  0
LINE
  5
F6
100
AcDbEntity
  8
hole
  6
ByLayer
 62
    5
370
   -1
100
AcDbLine
 10
77.81658899999999
 20
18.571114
 11
77.289616
 21
18.78068
  0
LINE
  5
F7
100
AcDbEntity
  8
hole
  6
ByLayer
 62
    5
370
   -1
100
AcDbLine
 10
77.289616
 20
18.78068
 11
76.701323
 21
19.038308
  0
LINE
  5
F8
100
AcDbEntity
  8
hole
  6
ByLayer
 62
    5
370
   -1
100
AcDbLine
 10
76.701323
 20
19.038308
 11
75.940664
 21
19.378952
  0
LINE
  5
F9
100
AcDbEntity
  8
hole
  6
ByLayer
 62
    5
370
   -1
100
AcDbLine
 10
75.940664
 20
19.378952
 11
75.308041
 21
19.682383
  0
LINE
  5
FA
100
AcDbEntity
  8
hole
  6
ByLayer
 62
    5
370
   -1
100
AcDbLine
 10
75.308041
 20
19.682383
 11
74.47079100000001
 21
20.117259
  0
LINE
  5
FB
100
AcDbEntity
  8
hole
  6
ByLayer
 62
    5
370
   -1
100
AcDbLine
 10
74.47079100000001
 20
20.117259
 11
73.684166
 21
20.551151
  0
LINE
  5
FC
100
AcDbEntity
  8
hole
  6
ByLayer
 62
    5
370
   -1
100
AcDbLine
 10
73.684166
 20
20.551151
 11
72.81826700000001
 21
21.089365
  0
LINE
  5
FD
100
AcDbEntity
  8
hole
  6
ByLayer
 62
    5
370
   -1
100
AcDbLine
 10
72.81826700000001
 20
21.089365
 11
72.377387
 21
21.416066
  0
LINE
  5
FE
100
AcDbEntity
  8
hole
  6
ByLayer
 62
    5
370
   -1
100
AcDbLine
 10
72.377387
 20
21.416066
 11
71.71616
 21
21.785116
  0
LINE
  5
FF
100
AcDbEntity
  8
hole
  6
ByLayer
 62
    5
370
   -1
100
AcDbLine
 10
71.71616
 20
21.785116
 11
71.124994
 21
22.189257
  0
LINE
  5
100
100
AcDbEntity
  8
hole
  6
ByLayer
 62
    5
370
   -1
100
AcDbLine
 10
71.124994
 20
22.189257
 11
70.6507
 21
22.542426
  0
LINE
  5
101
100
AcDbEntity
  8
hole
  6
ByLayer
 62
    5
370
   -1
100
AcDbLine
 10
70.6507
 20
22.542426
 11
70.009728
 21
23.001743
  0
LINE
  5
102
100
AcDbEntity
  8
hole
  6
ByLayer
 62
    5
370
   -1
100
AcDbLine
 10
70.009728
 20
23.001743
 11
69.51342699999999
 21
23.401831
  0
LINE
  5
103
100
AcDbEntity
  8
hole
  6
ByLayer
 62
    5
370
   -1
100
AcDbLine
 10
69.51342699999999
 20
23.401831
 11
69.07748100000001
 21
23.770876
  0
LINE
  5
104
100
AcDbEntity
  8
hole
  6
ByLayer
 62
    5
370
   -1
100
AcDbLine
 10
69.07748100000001
 20
23.770876
 11
68.596678
 21
24.169008
  0
LINE
  5
105
100
AcDbEntity
  8
hole
  6
ByLayer
 62
    5
370
   -1
100
AcDbLine
 10
68.596678
 20
24.169008
 11
68.195897
 21
24.536789
  0
LINE
  5
106
100
AcDbEntity
  8
hole
  6
ByLayer
 62
    5
370
   -1
100
AcDbLine
 10
68.195897
 20
24.536789
 11
67.779196
 21
24.934299
  0
LINE
  5
107
100
AcDbEntity
  8
hole
  6
ByLayer
 62
    5
370
   -1
100
AcDbLine
 10
67.779196
 20
24.934299
 11
67.348698
 21
25.287075
  0
LINE
  5
108
100
AcDbEntity
  8
hole
  6
ByLayer
 62
    5
370
   -1
100
AcDbLine
 10
67.348698
 20
25.287075
 11
66.953898
 21
25.716468
  0
LINE
  5
109
100
AcDbEntity
  8
hole
  6
ByLayer
 62
    5
370
   -1
100
AcDbLine
 10
66.953898
 20
25.716468
 11
66.46146400000001
 21
26.212396
  0
LINE
  5
10A
100
AcDbEntity
  8
hole
  6
ByLayer
 62
    5
370
   -1
100
AcDbLine
 10
66.46146400000001
 20
26.212396
 11
66.03426
 21
26.610316
  0
LINE
  5
10B
100
AcDbEntity
  8
hole
  6
ByLayer
 62
    5
370
   -1
100
AcDbLine
 10
66.03426
 20
26.610316
 11
65.68111399999999
 21
27.047862
  0
LINE
  5
10C
100
AcDbEntity
  8
hole
  6
ByLayer
 62
    5
370
   -1
100
AcDbLine
 10
65.68111399999999
 20
27.047862
 11
65.297816
 21
27.456892
  0
LINE
  5
10D
100
AcDbEntity
  8
hole
  6
ByLayer
 62
    5
370
   -1
100
AcDbLine
 10
65.297816
 20
27.456892
 11
64.921859
 21
27.874773
  0
LINE
  5
10E
100
AcDbEntity
  8
hole
  6
ByLayer
 62
    5
370
   -1
100
AcDbLine
 10
64.921859
 20
27.874773
 11
64.53216399999999
 21
28.356033
  0
LINE
  5
10F
100
AcDbEntity
  8
hole
  6
ByLayer
 62
    5
370
   -1
100
AcDbLine
 10
64.53216399999999
 20
28.356033
 11
64.164755
 21
28.79723
  0
LINE
  5
110
100
AcDbEntity
  8
hole
  6
ByLayer
 62
    5
370
   -1
100
AcDbLine
 10
64.164755
 20
28.79723
 11
63.767414
 21
29.300577
  0
LINE
  5
111
100
AcDbEntity
  8
hole
  6
ByLayer
 62
    5
370
   -1
100
AcDbLine
 10
63.767414
 20
29.300577
 11
63.318133
 21
29.939825
  0
LINE
  5
112
100
AcDbEntity
  8
hole
  6
ByLayer
 62
    5
370
   -1
100
AcDbLine
 10
63.318133
 20
29.939825
 11
62.963058
 21
30.426938
  0
LINE
  5
113
100
AcDbEntity
  8
hole
  6
ByLayer
 62
    5
370
   -1
100
AcDbLine
 10
62.963058
 20
30.426938
 11
62.568122
 21
31.024733
  0
LINE
  5
114
100
AcDbEntity
  8
hole
  6
ByLayer
 62
    5
370
   -1
100
AcDbLine
 10
62.568122
 20
31.024733
 11
62.29164
 21
31.553298
  0
LINE
  5
115
100
AcDbEntity
  8
hole
  6
ByLayer
 62
    5
370
   -1
100
AcDbLine
 10
62.29164
 20
31.553298
 11
61.886007
 21
32.140964
  0
LINE
  5
116
100
AcDbEntity
  8
hole
  6
ByLayer
 62
    5
370
   -1
100
AcDbLine
 10
61.886007
 20
32.140964
 11
61.553438
 21
32.679659
  0
LINE
  5
117
100
AcDbEntity
  8
hole
  6
ByLayer
 62
    5
370
   -1
100
AcDbLine
 10
61.553438
 20
32.679659
 11
61.087603
 21
33.558387
  0
LINE
  5
118
100
AcDbEntity
  8
hole
  6
ByLayer
 62
    5
370
   -1
100
AcDbLine
 10
61.087603
 20
33.558387
 11
60.681246
 21
34.284046
  0
LINE
  5
119
100
AcDbEntity
  8
hole
  6
ByLayer
 62
    5
370
   -1
100
AcDbLine
 10
60.681246
 20
34.284046
 11
60.386037
 21
34.932374
  0
LINE
  5
11A
100
AcDbEntity
  8
hole
  6
ByLayer
 62
    5
370
   -1
100
AcDbLine
 10
60.386037
 20
34.932374
 11
59.972337
 21
35.887094
  0
LINE
  5
11B
100
AcDbEntity
  8
hole
  6
ByLayer
 62
    5
370
   -1
100
AcDbLine
 10
59.972337
 20
35.887094
 11
59.634552
 21
36.613528
  0
LINE
  5
11C
100
AcDbEntity
  8
hole
  6
ByLayer
 62
    5
370
   -1
100
AcDbLine
 10
59.634552
 20
36.613528
 11
59.407813
 21
37.185088
  0
LINE
  5
11D
100
AcDbEntity
  8
hole
  6
ByLayer
 62
    5
370
   -1
100
AcDbLine
 10
59.407813
 20
37.185088
 11
59.197004
 21
37.826434
  0
LINE
  5
11E
100
AcDbEntity
  8
hole
  6
ByLayer
 62
    5
370
   -1
100
AcDbLine
 10
59.197004
 20
37.826434
 11
58.980886
 21
38.523406
  0
LINE
  5
11F
100
AcDbEntity
  8
hole
  6
ByLayer
 62
    5
370
   -1
100
AcDbLine
 10
58.980886
 20
38.523406
 11
58.760633
 21
39.135033
  0
LINE
  5
120
100
AcDbEntity
  8
hole
  6
ByLayer
 62
    5
370
   -1
100
AcDbLine
 10
58.760633
 20
39.135033
 11
58.481963
 21
39.950531
  0
LINE
  5
121
100
AcDbEntity
  8
hole
  6
ByLayer
 62
    5
370
   -1
100
AcDbLine
 10
58.481963
 20
39.950531
 11
58.309979
 21
40.56417
  0
LINE
  5
122
100
AcDbEntity
  8
hole
  6
ByLayer
 62
    5
370
   -1
100
AcDbLine
 10
58.309979
 20
40.56417
 11
58.130771
 21
41.394449
  0
LINE
  5
123
100
AcDbEntity
  8
hole
  6
ByLayer
 62
    5
370
   -1
100
AcDbLine
 10
58.130771
 20
41.394449
 11
58.000457
 21
42.02702
  0
LINE
  5
124
100
AcDbEntity
  8
hole
  6
ByLayer
 62
    5
370
   -1
100
AcDbLine
 10
58.000457
 20
42.02702
 11
57.864166
 21
42.816885
  0
LINE
  5
125
100
AcDbEntity
  8
hole
  6
ByLayer
 62
    5
370
   -1
100
AcDbLine
 10
57.864166
 20
42.816885
 11
57.741804
 21
43.396653
  0
LINE
  5
126
100
AcDbEntity
  8
hole
  6
ByLayer
 62
    5
370
   -1
100
AcDbLine
 10
57.741804
 20
43.396653
 11
57.593437
 21
43.943246
  0
LINE
  5
127
100
AcDbEntity
  8
hole
  6
ByLayer
 62
    5
370
   -1
100
AcDbLine
 10
57.593437
 20
43.943246
 11
57.492073
 21
44.579436
  0
LINE
  5
128
100
AcDbEntity
  8
hole
  6
ByLayer
 62
    5
370
   -1
100
AcDbLine
 10
57.492073
 20
44.579436
 11
57.377369
 21
45.594925
  0
LINE
  5
129
100
AcDbEntity
  8
hole
  6
ByLayer
 62
    5
370
   -1
100
AcDbLine
 10
57.377369
 20
45.594925
 11
57.330942
 21
46.195967
  0
LINE
  5
12A
100
AcDbEntity
  8
hole
  6
ByLayer
 62
    5
370
   -1
100
AcDbLine
 10
57.330942
 20
46.195967
 11
57.284898
 21
46.862112
  0
LINE
  5
12B
100
AcDbEntity
  8
hole
  6
ByLayer
 62
    5
370
   -1
100
AcDbLine
 10
57.284898
 20
46.862112
 11
57.247281
 21
47.752355
  0
LINE
  5
12C
100
AcDbEntity
  8
hole
  6
ByLayer
 62
    5
370
   -1
100
AcDbLine
 10
57.247281
 20
47.752355
 11
57.239947
 21
48.448682
  0
LINE
  5
12D
100
AcDbEntity
  8
hole
  6
ByLayer
 62
    5
370
   -1
100
AcDbLine
 10
57.239947
 20
48.448682
 11
57.232538
 21
49.152715
  0
LINE
  5
12E
100
AcDbEntity
  8
hole
  6
ByLayer
 62
    5
370
   -1
100
AcDbLine
 10
57.232538
 20
49.152715
 11
57.252071
 21
50.012721
  0
LINE
  5
12F
100
AcDbEntity
  8
hole
  6
ByLayer
 62
    5
370
   -1
100
AcDbLine
 10
57.252071
 20
50.012721
 11
57.288552
 21
50.701399
  0
LINE
  5
130
100
AcDbEntity
  8
hole
  6
ByLayer
 62
    5
370
   -1
100
AcDbLine
 10
57.288552
 20
50.701399
 11
57.32769
 21
51.343782
  0
LINE
  5
131
100
AcDbEntity
  8
hole
  6
ByLayer
 62
    5
370
   -1
100
AcDbLine
 10
57.32769
 20
51.343782
 11
57.431884
 21
52.376135
  0
LINE
  5
132
100
AcDbEntity
  8
hole
  6
ByLayer
 62
    5
370
   -1
100
AcDbLine
 10
57.431884
 20
52.376135
 11
57.512486
 21
52.954118
  0
LINE
  5
133
100
AcDbEntity
  8
hole
  6
ByLayer
 62
    5
370
   -1
100
AcDbLine
 10
57.512486
 20
52.954118
 11
57.741804
 21
53.887089
  0
LINE
  5
134
100
AcDbEntity
  8
hole
  6
ByLayer
 62
    5
370
   -1
100
AcDbLine
 10
57.741804
 20
53.887089
 11
57.912681
 21
54.956215
  0
LINE
  5
135
100
AcDbEntity
  8
hole
  6
ByLayer
 62
    5
370
   -1
100
AcDbLine
 10
57.912681
 20
54.956215
 11
58.017385
 21
55.566866
  0
LINE
  5
136
100
AcDbEntity
  8
hole
  6
ByLayer
 62
    5
370
   -1
100
AcDbLine
 10
58.017385
 20
55.566866
 11
58.151805
 21
56.333196
  0
LINE
  5
137
100
AcDbEntity
  8
hole
  6
ByLayer
 62
    5
370
   -1
100
AcDbLine
 10
58.151805
 20
56.333196
 11
58.327453
 21
57.098932
  0
LINE
  5
138
100
AcDbEntity
  8
hole
  6
ByLayer
 62
    5
370
   -1
100
AcDbLine
 10
58.327453
 20
57.098932
 11
58.580958
 21
57.978296
  0
LINE
  5
139
100
AcDbEntity
  8
hole
  6
ByLayer
 62
    5
370
   -1
100
AcDbLine
 10
58.580958
 20
57.978296
 11
58.7778
 21
58.585911
  0
LINE
  5
13A
100
AcDbEntity
  8
hole
  6
ByLayer
 62
    5
370
   -1
100
AcDbLine
 10
58.7778
 20
58.585911
 11
59.060709
 21
59.391146
  0
LINE
  5
13B
100
AcDbEntity
  8
hole
  6
ByLayer
 62
    5
370
   -1
100
AcDbLine
 10
59.060709
 20
59.391146
 11
59.286066
 21
59.99809
  0
LINE
  5
13C
100
AcDbEntity
  8
hole
  6
ByLayer
 62
    5
370
   -1
100
AcDbLine
 10
59.286066
 20
59.99809
 11
59.443317
 21
60.485036
  0
LINE
  5
13D
100
AcDbEntity
  8
hole
  6
ByLayer
 62
    5
370
   -1
100
AcDbLine
 10
59.443317
 20
60.485036
 11
59.79579
 21
61.262212
  0
LINE
  5
13E
100
AcDbEntity
  8
hole
  6
ByLayer
 62
    5
370
   -1
100
AcDbLine
 10
59.79579
 20
61.262212
 11
60.058426
 21
61.798568
  0
LINE
  5
13F
100
AcDbEntity
  8
hole
  6
ByLayer
 62
    5
370
   -1
100
AcDbLine
 10
60.058426
 20
61.798568
 11
60.324942
 21
62.467682
  0
LINE
  5
140
100
AcDbEntity
  8
hole
  6
ByLayer
 62
    5
370
   -1
100
AcDbLine
 10
60.324942
 20
62.467682
 11
60.608218
 21
63.091347
  0
LINE
  5
141
100
AcDbEntity
  8
hole
  6
ByLayer
 62
    5
370
   -1
100
AcDbLine
 10
60.608218
 20
63.091347
 11
60.866771
 21
63.562429
  0
LINE
  5
142
100
AcDbEntity
  8
hole
  6
ByLayer
 62
    5
370
   -1
100
AcDbLine
 10
60.866771
 20
63.562429
 11
61.161496
 21
64.066653
  0
LINE
  5
143
100
AcDbEntity
  8
hole
  6
ByLayer
 62
    5
370
   -1
100
AcDbLine
 10
61.161496
 20
64.066653
 11
61.466703
 21
64.69176299999999
  0
LINE
  5
144
100
AcDbEntity
  8
hole
  6
ByLayer
 62
    5
370
   -1
100
AcDbLine
 10
61.466703
 20
64.69176299999999
 11
61.842497
 21
65.34406199999999
  0
LINE
  5
145
100
AcDbEntity
  8
hole
  6
ByLayer
 62
    5
370
   -1
100
AcDbLine
 10
61.842497
 20
65.34406199999999
 11
62.202868
 21
65.89740500000001
  0
LINE
  5
146
100
AcDbEntity
  8
hole
  6
ByLayer
 62
    5
370
   -1
100
AcDbLine
 10
62.202868
 20
65.89740500000001
 11
62.547743
 21
66.470426
  0
LINE
  5
147
100
AcDbEntity
  8
hole
  6
ByLayer
 62
    5
370
   -1
100
AcDbLine
 10
62.547743
 20
66.470426
 11
62.950388
 21
67.03301500000001
  0
LINE
  5
148
100
AcDbEntity
  8
hole
  6
ByLayer
 62
    5
370
   -1
100
AcDbLine
 10
62.950388
 20
67.03301500000001
 11
63.318133
 21
67.476707
  0
LINE
  5
149
100
AcDbEntity
  8
hole
  6
ByLayer
 62
    5
370
   -1
100
AcDbLine
 10
63.318133
 20
67.476707
 11
63.70672
 21
68.10298299999999
  0
LINE
  5
14A
100
AcDbEntity
  8
hole
  6
ByLayer
 62
    5
370
   -1
100
AcDbLine
 10
63.70672
 20
68.10298299999999
 11
64.185523
 21
68.723141
  0
LINE
  5
14B
100
AcDbEntity
  8
hole
  6
ByLayer
 62
    5
370
   -1
100
AcDbLine
 10
64.185523
 20
68.723141
 11
64.726601
 21
69.419456
  0
LINE
  5
14C
100
AcDbEntity
  8
hole
  6
ByLayer
 62
    5
370
   -1
100
AcDbLine
 10
64.726601
 20
69.419456
 11
65.114853
 21
69.849501
  0
LINE
  5
14D
100
AcDbEntity
  8
hole
  6
ByLayer
 62
    5
370
   -1
100
AcDbLine
 10
65.114853
 20
69.849501
 11
65.548665
 21
70.333775
  0
LINE
  5
14E
100
AcDbEntity
  8
hole
  6
ByLayer
 62
    5
370
   -1
100
AcDbLine
 10
65.548665
 20
70.333775
 11
65.88079399999999
 21
70.72269900000001
  0
LINE
  5
14F
100
AcDbEntity
  8
hole
  6
ByLayer
 62
    5
370
   -1
100
AcDbLine
 10
65.88079399999999
 20
70.72269900000001
 11
66.399233
 21
71.250951
  0
LINE
  5
150
100
AcDbEntity
  8
hole
  6
ByLayer
 62
    5
370
   -1
100
AcDbLine
 10
66.399233
 20
71.250951
 11
66.906361
 21
71.789098
  0
LINE
  5
151
100
AcDbEntity
  8
hole
  6
ByLayer
 62
    5
370
   -1
100
AcDbLine
 10
66.906361
 20
71.789098
 11
67.51110300000001
 21
72.35791999999999
  0
LINE
  5
152
100
AcDbEntity
  8
hole
  6
ByLayer
 62
    5
370
   -1
100
AcDbLine
 10
67.51110300000001
 20
72.35791999999999
 11
68.040961
 21
72.86955399999999
  0
LINE
  5
153
100
AcDbEntity
  8
hole
  6
ByLayer
 62
    5
370
   -1
100
AcDbLine
 10
68.040961
 20
72.86955399999999
 11
68.478775
 21
73.228576
  0
LINE
  5
154
100
AcDbEntity
  8
hole
  6
ByLayer
 62
    5
370
   -1
100
AcDbLine
 10
68.478775
 20
73.228576
 11
68.894463
 21
73.58512500000001
  0
LINE
  5
155
100
AcDbEntity
  8
hole
  6
ByLayer
 62
    5
370
   -1
100
AcDbLine
 10
68.894463
 20
73.58512500000001
 11
69.396135
 21
74.02543900000001
  0
LINE
  5
156
100
AcDbEntity
  8
hole
  6
ByLayer
 62
    5
370
   -1
100
AcDbLine
 10
69.396135
 20
74.02543900000001
 11
69.859454
 21
74.354934
  0
LINE
  5
157
100
AcDbEntity
  8
hole
  6
ByLayer
 62
    5
370
   -1
100
AcDbLine
 10
69.859454
 20
74.354934
 11
70.482151
 21
74.862881
  0
LINE
  5
158
100
AcDbEntity
  8
hole
  6
ByLayer
 62
    5
370
   -1
100
AcDbLine
 10
70.482151
 20
74.862881
 11
71.124994
 21
75.279725
  0
LINE
  5
159
100
AcDbEntity
  8
hole
  6
ByLayer
 62
    5
370
   -1
100
AcDbLine
 10
71.124994
 20
75.279725
 11
71.75955999999999
 21
75.720382
  0
LINE
  5
15A
100
AcDbEntity
  8
hole
  6
ByLayer
 62
    5
370
   -1
100
AcDbLine
 10
71.75955999999999
 20
75.720382
 11
72.24026000000001
 21
76.041313
  0
LINE
  5
15B
100
AcDbEntity
  8
hole
  6
ByLayer
 62
    5
370
   -1
100
AcDbLine
 10
72.24026000000001
 20
76.041313
 11
73.177774
 21
76.607654
  0
LINE
  5
15C
100
AcDbEntity
  8
hole
  6
ByLayer
 62
    5
370
   -1
100
AcDbLine
 10
73.177774
 20
76.607654
 11
73.769606
 21
77.000241
  0
LINE
  5
15D
100
AcDbEntity
  8
hole
  6
ByLayer
 62
    5
370
   -1
100
AcDbLine
 10
73.769606
 20
77.000241
 11
74.47079100000001
 21
77.35856800000001
  0
LINE
  5
15E
100
AcDbEntity
  8
hole
  6
ByLayer
 62
    5
370
   -1
100
AcDbLine
 10
74.47079100000001
 20
77.35856800000001
 11
75.265224
 21
77.73401200000001
  0
LINE
  5
15F
100
AcDbEntity
  8
hole
  6
ByLayer
 62
    5
370
   -1
100
AcDbLine
 10
75.265224
 20
77.73401200000001
 11
76.054317
 21
78.149979
  0
LINE
  5
160
100
AcDbEntity
  8
hole
  6
ByLayer
 62
    5
370
   -1
100
AcDbLine
 10
76.054317
 20
78.149979
 11
76.701323
 21
78.42557499999999
  0
LINE
  5
161
100
AcDbEntity
  8
hole
  6
ByLayer
 62
    5
370
   -1
100
AcDbLine
 10
76.701323
 20
78.42557499999999
 11
77.67884100000001
 21
78.755515
  0
LINE
  5
162
100
AcDbEntity
  8
hole
  6
ByLayer
 62
    5
370
   -1
100
AcDbLine
 10
77.67884100000001
 20
78.755515
 11
78.45195200000001
 21
79.104546
  0
LINE
  5
163
100
AcDbEntity
  8
hole
  6
ByLayer
 62
    5
370
   -1
100
AcDbLine
 10
78.45195200000001
 20
79.104546
 11
78.931855
 21
79.30681199999999
  0
LINE
  5
164
100
AcDbEntity
  8
hole
  6
ByLayer
 62
    5
370
   -1
100
AcDbLine
 10
78.931855
 20
79.30681199999999
 11
79.76347
 21
79.569988
  0
LINE
  5
165
100
AcDbEntity
  8
hole
  6
ByLayer
 62
    5
370
   -1
100
AcDbLine
 10
79.76347
 20
79.569988
 11
80.36184
 21
79.739148
  0
LINE
  5
166
100
AcDbEntity
  8
hole
  6
ByLayer
 62
    5
370
   -1
100
AcDbLine
 10
80.36184
 20
79.739148
 11
80.936787
 21
79.863159
  0
LINE
  5
167
100
AcDbEntity
  8
hole
  6
ByLayer
 62
    5
370
   -1
100
AcDbLine
 10
80.936787
 20
79.863159
 11
81.877523
 21
80.161237
  0
LINE
  5
168
100
AcDbEntity
  8
hole
  6
ByLayer
 62
    5
370
   -1
100
AcDbLine
 10
81.877523
 20
80.161237
 11
82.75953199999999
 21
80.396609
  0
LINE
  5
169
100
AcDbEntity
  8
hole
  6
ByLayer
 62
    5
370
   -1
100
AcDbLine
 10
82.75953199999999
 20
80.396609
 11
83.39291799999999
 21
80.525622
  0
LINE
  5
16A
100
AcDbEntity
  8
hole
  6
ByLayer
 62
    5
370
   -1
100
AcDbLine
 10
83.39291799999999
 20
80.525622
 11
84.249756
 21
80.65565100000001
  0
LINE
  5
16B
100
AcDbEntity
  8
hole
  6
ByLayer
 62
    5
370
   -1
100
AcDbLine
 10
84.249756
 20
80.65565100000001
 11
84.840737
 21
80.734208
  0
LINE
  5
16C
100
AcDbEntity
  8
hole
  6
ByLayer
 62
    5
370
   -1
100
AcDbLine
 10
84.840737
 20
80.734208
 11
85.62344899999999
 21
80.817249
  0
LINE
  5
16D
100
AcDbEntity
  8
hole
  6
ByLayer
 62
    5
370
   -1
100
AcDbLine
 10
85.62344899999999
 20
80.817249
 11
86.32444
 21
80.875766
  0
LINE
  5
16E
100
AcDbEntity
  8
hole
  6
ByLayer
 62
    5
370
   -1
100
AcDbLine
 10
86.32444
 20
80.875766
 11
86.994719
 21
80.923314
  0
LINE
  5
16F
100
AcDbEntity
  8
hole
  6
ByLayer
 62
    5
370
   -1
100
AcDbLine
 10
86.994719
 20
80.923314
 11
87.638372
 21
80.95326
  0
LINE
  5
170
100
AcDbEntity
  8
hole
  6
ByLayer
 62
    5
370
   -1
100
AcDbLine
 10
87.638372
 20
80.95326
 11
88.78438800000001
 21
80.98361199999999
  0
LINE
  5
171
100
AcDbEntity
  8
hole
  6
ByLayer
 62
    5
370
   -1
100
AcDbLine
 10
88.78438800000001
 20
80.98361199999999
 11
89.894187
 21
80.981359
  0
LINE
  5
172
100
AcDbEntity
  8
hole
  6
ByLayer
 62
    5
370
   -1
100
AcDbLine
 10
89.894187
 20
80.981359
 11
90.969374
 21
80.94753300000001
  0
LINE
  5
173
100
AcDbEntity
  8
hole
  6
ByLayer
 62
    5
370
   -1
100
AcDbLine
 10
90.969374
 20
80.94753300000001
 11
92.02413799999999
 21
80.88642400000001
  0
LINE
  5
174
100
AcDbEntity
  8
hole
  6
ByLayer
 62
    5
370
   -1
100
AcDbLine
 10
92.02413799999999
 20
80.88642400000001
 11
92.68876
 21
80.82905100000001
  0
LINE
  5
175
100
AcDbEntity
  8
hole
  6
ByLayer
 62
    5
370
   -1
100
AcDbLine
 10
92.68876
 20
80.82905100000001
 11
93.43031000000001
 21
80.75330700000001
  0
LINE
  5
176
100
AcDbEntity
  8
hole
  6
ByLayer
 62
    5
370
   -1
100
AcDbLine
 10
93.43031000000001
 20
80.75330700000001
 11
94.274083
 21
80.64635699999999
  0
LINE
  5
177
100
AcDbEntity
  8
hole
  6
ByLayer
 62
    5
370
   -1
100
AcDbLine
 10
94.274083
 20
80.64635699999999
 11
94.961071
 21
80.52837700000001
  0
LINE
  5
178
100
AcDbEntity
  8
hole
  6
ByLayer
 62
    5
370
   -1
100
AcDbLine
 10
94.961071
 20
80.52837700000001
 11
95.660841
 21
80.400188
  0
LINE
  5
179
100
AcDbEntity
  8
hole
  6
ByLayer
 62
    5
370
   -1
100
AcDbLine
 10
95.660841
 20
80.400188
 11
96.186114
 21
80.279425
  0
LINE
  5
17A
100
AcDbEntity
  8
hole
  6
ByLayer
 62
    5
370
   -1
100
AcDbLine
 10
96.186114
 20
80.279425
 11
96.776107
 21
80.13234300000001
  0
LINE
  5
17B
100
AcDbEntity
  8
hole
  6
ByLayer
 62
    5
370
   -1
100
AcDbLine
 10
96.776107
 20
80.13234300000001
 11
97.66819099999999
 21
79.84829000000001
  0
LINE
  5
17C
100
AcDbEntity
  8
hole
  6
ByLayer
 62
    5
370
   -1
100
AcDbLine
 10
97.66819099999999
 20
79.84829000000001
 11
98.194652
 21
79.698663
  0
LINE
  5
17D
100
AcDbEntity
  8
hole
  6
ByLayer
 62
    5
370
   -1
100
AcDbLine
 10
98.194652
 20
79.698663
 11
98.689662
 21
79.57775100000001
  0
LINE
  5
17E
100
AcDbEntity
  8
hole
  6
ByLayer
 62
    5
370
   -1
100
AcDbLine
 10
98.689662
 20
79.57775100000001
 11
99.477563
 21
79.32838599999999
  0
LINE
  5
17F
100
AcDbEntity
  8
hole
  6
ByLayer
 62
    5
370
   -1
100
AcDbLine
 10
99.477563
 20
79.32838599999999
 11
100.121904
 21
79.0968
  0
LINE
  5
180
100
AcDbEntity
  8
hole
  6
ByLayer
 62
    5
370
   -1
100
AcDbLine
 10
100.121904
 20
79.0968
 11
100.6314
 21
78.860372
  0
LINE
  5
181
100
AcDbEntity
  8
hole
  6
ByLayer
 62
    5
370
   -1
100
AcDbLine
 10
100.6314
 20
78.860372
 11
101.23717
 21
78.629228
  0
LINE
  5
182
100
AcDbEntity
  8
hole
  6
ByLayer
 62
    5
370
   -1
100
AcDbLine
 10
101.23717
 20
78.629228
 11
101.943566
 21
78.355941
  0
LINE
  5
183
100
AcDbEntity
  8
hole
  6
ByLayer
 62
    5
370
   -1
100
AcDbLine
 10
101.943566
 20
78.355941
 11
102.80087
 21
77.93921
  0
LINE
  5
184
100
AcDbEntity
  8
hole
  6
ByLayer
 62
    5
370
   -1
100
AcDbLine
 10
102.80087
 20
77.93921
 11
103.318461
 21
77.658384
  0
LINE
  5
185
100
AcDbEntity
  8
hole
  6
ByLayer
 62
    5
370
   -1
100
AcDbLine
 10
103.318461
 20
77.658384
 11
103.957693
 21
77.36705000000001
  0
LINE
  5
186
100
AcDbEntity
  8
hole
  6
ByLayer
 62
    5
370
   -1
100
AcDbLine
 10
103.957693
 20
77.36705000000001
 11
104.582969
 21
77.032247
  0
LINE
  5
187
100
AcDbEntity
  8
hole
  6
ByLayer
 62
    5
370
   -1
100
AcDbLine
 10
104.582969
 20
77.032247
 11
105.262438
 21
76.607653
  0
LINE
  5
188
100
AcDbEntity
  8
hole
  6
ByLayer
 62
    5
370
   -1
100
AcDbLine
 10
105.262438
 20
76.607653
 11
105.988646
 21
76.194373
  0
LINE
  5
189
100
AcDbEntity
  8
hole
  6
ByLayer
 62
    5
370
   -1
100
AcDbLine
 10
105.988646
 20
76.194373
 11
106.813499
 21
75.664095
  0
LINE
  5
18A
100
AcDbEntity
  8
hole
  6
ByLayer
 62
    5
370
   -1
100
AcDbLine
 10
106.813499
 20
75.664095
 11
107.521881
 21
75.194838
  0
LINE
  5
18B
100
AcDbEntity
  8
hole
  6
ByLayer
 62
    5
370
   -1
100
AcDbLine
 10
107.521881
 20
75.194838
 11
107.928765
 21
74.88814600000001
  0
LINE
  5
18C
100
AcDbEntity
  8
hole
  6
ByLayer
 62
    5
370
   -1
100
AcDbLine
 10
107.928765
 20
74.88814600000001
 11
108.371369
 21
74.54507099999999
  0
LINE
  5
18D
100
AcDbEntity
  8
hole
  6
ByLayer
 62
    5
370
   -1
100
AcDbLine
 10
108.371369
 20
74.54507099999999
 11
108.870565
 21
74.163342
  0
LINE
  5
18E
100
AcDbEntity
  8
hole
  6
ByLayer
 62
    5
370
   -1
100
AcDbLine
 10
108.870565
 20
74.163342
 11
109.456473
 21
73.681343
  0
LINE
  5
18F
100
AcDbEntity
  8
hole
  6
ByLayer
 62
    5
370
   -1
100
AcDbLine
 10
109.456473
 20
73.681343
 11
109.944771
 21
73.228577
  0
LINE
  5
190
100
AcDbEntity
  8
hole
  6
ByLayer
 62
    5
370
   -1
100
AcDbLine
 10
109.944771
 20
73.228577
 11
110.434304
 21
72.807098
  0
LINE
  5
191
100
AcDbEntity
  8
hole
  6
ByLayer
 62
    5
370
   -1
100
AcDbLine
 10
110.434304
 20
72.807098
 11
110.936305
 21
72.32943899999999
  0
LINE
  5
192
100
AcDbEntity
  8
hole
  6
ByLayer
 62
    5
370
   -1
100
AcDbLine
 10
110.936305
 20
72.32943899999999
 11
111.4921
 21
71.792294
  0
LINE
  5
193
100
AcDbEntity
  8
hole
  6
ByLayer
 62
    5
370
   -1
100
AcDbLine
 10
111.4921
 20
71.792294
 11
111.906504
 21
71.42381
  0
LINE
  5
194
100
AcDbEntity
  8
hole
  6
ByLayer
 62
    5
370
   -1
100
AcDbLine
 10
111.906504
 20
71.42381
 11
112.284015
 21
70.975859
  0
LINE
  5
195
100
AcDbEntity
  8
hole
  6
ByLayer
 62
    5
370
   -1
100
AcDbLine
 10
112.284015
 20
70.975859
 11
112.822171
 21
70.45391100000001
  0
LINE
  5
196
100
AcDbEntity
  8
hole
  6
ByLayer
 62
    5
370
   -1
100
AcDbLine
 10
112.822171
 20
70.45391100000001
 11
113.315144
 21
69.849501
  0
LINE
  5
197
100
AcDbEntity
  8
hole
  6
ByLayer
 62
    5
370
   -1
100
AcDbLine
 10
113.315144
 20
69.849501
 11
113.94561
 21
69.127399
  0
LINE
  5
198
100
AcDbEntity
  8
hole
  6
ByLayer
 62
    5
370
   -1
100
AcDbLine
 10
113.94561
 20
69.127399
 11
114.273769
 21
68.723141
  0
LINE
  5
199
100
AcDbEntity
  8
hole
  6
ByLayer
 62
    5
370
   -1
100
AcDbLine
 10
114.273769
 20
68.723141
 11
114.620362
 21
68.254132
  0
LINE
  5
19A
100
AcDbEntity
  8
hole
  6
ByLayer
 62
    5
370
   -1
100
AcDbLine
 10
114.620362
 20
68.254132
 11
115.117738
 21
67.596783
  0
LINE
  5
19B
100
AcDbEntity
  8
hole
  6
ByLayer
 62
    5
370
   -1
100
AcDbLine
 10
115.117738
 20
67.596783
 11
115.443529
 21
67.159233
  0
LINE
  5
19C
100
AcDbEntity
  8
hole
  6
ByLayer
 62
    5
370
   -1
100
AcDbLine
 10
115.443529
 20
67.159233
 11
115.735625
 21
66.688574
  0
LINE
  5
19D
100
AcDbEntity
  8
hole
  6
ByLayer
 62
    5
370
   -1
100
AcDbLine
 10
115.735625
 20
66.688574
 11
116.238816
 21
65.966371
  0
LINE
  5
19E
100
AcDbEntity
  8
hole
  6
ByLayer
 62
    5
370
   -1
100
AcDbLine
 10
116.238816
 20
65.966371
 11
116.589843
 21
65.34406199999999
  0
LINE
  5
19F
100
AcDbEntity
  8
hole
  6
ByLayer
 62
    5
370
   -1
100
AcDbLine
 10
116.589843
 20
65.34406199999999
 11
116.850892
 21
64.863849
  0
LINE
  5
1A0
100
AcDbEntity
  8
hole
  6
ByLayer
 62
    5
370
   -1
100
AcDbLine
 10
116.850892
 20
64.863849
 11
117.25082
 21
64.217704
  0
LINE
  5
1A1
100
AcDbEntity
  8
hole
  6
ByLayer
 62
    5
370
   -1
100
AcDbLine
 10
117.25082
 20
64.217704
 11
117.590715
 21
63.553026
  0
LINE
  5
1A2
100
AcDbEntity
  8
hole
  6
ByLayer
 62
    5
370
   -1
100
AcDbLine
 10
117.590715
 20
63.553026
 11
117.874496
 21
62.916103
  0
LINE
  5
1A3
100
AcDbEntity
  8
hole
  6
ByLayer
 62
    5
370
   -1
100
AcDbLine
 10
117.874496
 20
62.916103
 11
118.14868
 21
62.397853
  0
LINE
  5
1A4
100
AcDbEntity
  8
hole
  6
ByLayer
 62
    5
370
   -1
100
AcDbLine
 10
118.14868
 20
62.397853
 11
118.567805
 21
61.531542
  0
LINE
  5
1A5
100
AcDbEntity
  8
hole
  6
ByLayer
 62
    5
370
   -1
100
AcDbLine
 10
118.567805
 20
61.531542
 11
118.831898
 21
60.838629
  0
LINE
  5
1A6
100
AcDbEntity
  8
hole
  6
ByLayer
 62
    5
370
   -1
100
AcDbLine
 10
118.831898
 20
60.838629
 11
119.081424
 21
60.178857
  0
LINE
  5
1A7
100
AcDbEntity
  8
hole
  6
ByLayer
 62
    5
370
   -1
100
AcDbLine
 10
119.081424
 20
60.178857
 11
119.296272
 21
59.712272
  0
LINE
  5
1A8
100
AcDbEntity
  8
hole
  6
ByLayer
 62
    5
370
   -1
100
AcDbLine
 10
119.296272
 20
59.712272
 11
119.474887
 21
59.218008
  0
LINE
  5
1A9
100
AcDbEntity
  8
hole
  6
ByLayer
 62
    5
370
   -1
100
AcDbLine
 10
119.474887
 20
59.218008
 11
119.675809
 21
58.585911
  0
LINE
  5
1AA
100
AcDbEntity
  8
hole
  6
ByLayer
 62
    5
370
   -1
100
AcDbLine
 10
119.675809
 20
58.585911
 11
119.85853
 21
57.917268
  0
LINE
  5
1AB
100
AcDbEntity
  8
hole
  6
ByLayer
 62
    5
370
   -1
100
AcDbLine
 10
119.85853
 20
57.917268
 11
120.046607
 21
57.219643
  0
LINE
  5
1AC
100
AcDbEntity
  8
hole
  6
ByLayer
 62
    5
370
   -1
100
AcDbLine
 10
120.046607
 20
57.219643
 11
120.19669
 21
56.669443
  0
LINE
  5
1AD
100
AcDbEntity
  8
hole
  6
ByLayer
 62
    5
370
   -1
100
AcDbLine
 10
120.19669
 20
56.669443
 11
120.416396
 21
55.916473
  0
LINE
  5
1AE
100
AcDbEntity
  8
hole
  6
ByLayer
 62
    5
370
   -1
100
AcDbLine
 10
120.416396
 20
55.916473
 11
120.580855
 21
55.206833
  0
LINE
  5
1AF
100
AcDbEntity
  8
hole
  6
ByLayer
 62
    5
370
   -1
100
AcDbLine
 10
120.580855
 20
55.206833
 11
120.703361
 21
54.516938
  0
LINE
  5
1B0
100
AcDbEntity
  8
hole
  6
ByLayer
 62
    5
370
   -1
100
AcDbLine
 10
120.703361
 20
54.516938
 11
120.826205
 21
53.780869
  0
LINE
  5
1B1
100
AcDbEntity
  8
hole
  6
ByLayer
 62
    5
370
   -1
100
AcDbLine
 10
120.826205
 20
53.780869
 11
120.889685
 21
53.236509
  0
LINE
  5
1B2
100
AcDbEntity
  8
hole
  6
ByLayer
 62
    5
370
   -1
100
AcDbLine
 10
120.889685
 20
53.236509
 11
120.95872
 21
52.618254
  0
LINE
  5
1B3
100
AcDbEntity
  8
hole
  6
ByLayer
 62
    5
370
   -1
100
AcDbLine
 10
120.95872
 20
52.618254
 11
121.027533
 21
51.82776
  0
LINE
  5
1B4
100
AcDbEntity
  8
hole
  6
ByLayer
 62
    5
370
   -1
100
AcDbLine
 10
121.027533
 20
51.82776
 11
121.081275
 21
51.126986
  0
LINE
  5
1B5
100
AcDbEntity
  8
hole
  6
ByLayer
 62
    5
370
   -1
100
AcDbLine
 10
121.081275
 20
51.126986
 11
121.1221
 21
50.442686
  0
LINE
  5
1B6
100
AcDbEntity
  8
hole
  6
ByLayer
 62
    5
370
   -1
100
AcDbLine
 10
121.1221
 20
50.442686
 11
121.140418
 21
49.80879
  0
LINE
  5
1B7
100
AcDbEntity
  8
hole
  6
ByLayer
 62
    5
370
   -1
100
AcDbLine
 10
121.140418
 20
49.80879
 11
121.153328
 21
48.671301
  0
LINE
  5
1B8
100
AcDbEntity
  8
hole
  6
ByLayer
 62
    5
370
   -1
100
AcDbLine
 10
121.153328
 20
48.671301
 11
121.143204
 21
47.557699
  0
LINE
  5
1B9
100
AcDbEntity
  8
hole
  6
ByLayer
 62
    5
370
   -1
100
AcDbLine
 10
121.143204
 20
47.557699
 11
121.095517
 21
46.481937
  0
LINE
  5
1BA
100
AcDbEntity
  8
hole
  6
ByLayer
 62
    5
370
   -1
100
AcDbLine
 10
121.095517
 20
46.481937
 11
121.046204
 21
45.799332
  0
LINE
  5
1BB
100
AcDbEntity
  8
hole
  6
ByLayer
 62
    5
370
   -1
100
AcDbLine
 10
121.046204
 20
45.799332
 11
120.984039
 21
45.069606
  0
LINE
  5
1BC
100
AcDbEntity
  8
hole
  6
ByLayer
 62
    5
370
   -1
100
AcDbLine
 10
120.984039
 20
45.069606
 11
120.889977
 21
44.1726
  0
LINE
  5
1BD
100
AcDbEntity
  8
hole
  6
ByLayer
 62
    5
370
   -1
100
AcDbLine
 10
120.889977
 20
44.1726
 11
120.801518
 21
43.561633
  0
LINE
  5
1BE
100
AcDbEntity
  8
hole
  6
ByLayer
 62
    5
370
   -1
100
AcDbLine
 10
120.801518
 20
43.561633
 11
120.685292
 21
42.816885
  0
LINE
  5
1BF
100
AcDbEntity
  8
hole
  6
ByLayer
 62
    5
370
   -1
100
AcDbLine
 10
120.685292
 20
42.816885
 11
120.578776
 21
42.294809
  0
LINE
  5
1C0
100
AcDbEntity
  8
hole
  6
ByLayer
 62
    5
370
   -1
100
AcDbLine
 10
120.578776
 20
42.294809
 11
120.451051
 21
41.690531
  0
LINE
  5
1C1
100
AcDbEntity
  8
hole
  6
ByLayer
 62
    5
370
   -1
100
AcDbLine
 10
120.451051
 20
41.690531
 11
120.19669
 21
40.947642
  0
LINE
  5
1C2
100
AcDbEntity
  8
hole
  6
ByLayer
 62
    5
370
   -1
100
AcDbLine
 10
120.19669
 20
40.947642
 11
120.026847
 21
40.287684
  0
LINE
  5
1C3
100
AcDbEntity
  8
hole
  6
ByLayer
 62
    5
370
   -1
100
AcDbLine
 10
120.026847
 20
40.287684
 11
119.912962
 21
39.787801
  0
LINE
  5
1C4
100
AcDbEntity
  8
hole
  6
ByLayer
 62
    5
370
   -1
100
AcDbLine
 10
119.912962
 20
39.787801
 11
119.740511
 21
39.16164
  0
LINE
  5
1C5
100
AcDbEntity
  8
hole
  6
ByLayer
 62
    5
370
   -1
100
AcDbLine
 10
119.740511
 20
39.16164
 11
119.612145
 21
38.66673
  0
LINE
  5
1C6
100
AcDbEntity
  8
hole
  6
ByLayer
 62
    5
370
   -1
100
AcDbLine
 10
119.612145
 20
38.66673
 11
119.297462
 21
37.850714
  0
LINE
  5
1C7
100
AcDbEntity
  8
hole
  6
ByLayer
 62
    5
370
   -1
100
AcDbLine
 10
119.297462
 20
37.850714
 11
119.037999
 21
37.281083
  0
LINE
  5
1C8
100
AcDbEntity
  8
hole
  6
ByLayer
 62
    5
370
   -1
100
AcDbLine
 10
119.037999
 20
37.281083
 11
118.784874
 21
36.512917
  0
LINE
  5
1C9
100
AcDbEntity
  8
hole
  6
ByLayer
 62
    5
370
   -1
100
AcDbLine
 10
118.784874
 20
36.512917
 11
118.400494
 21
35.559007
  0
LINE
  5
1CA
100
AcDbEntity
  8
hole
  6
ByLayer
 62
    5
370
   -1
100
AcDbLine
 10
118.400494
 20
35.559007
 11
118.107716
 21
34.932374
  0
LINE
  5
1CB
100
AcDbEntity
  8
hole
  6
ByLayer
 62
    5
370
   -1
100
AcDbLine
 10
118.107716
 20
34.932374
 11
117.71385
 21
34.113275
  0
LINE
  5
1CC
100
AcDbEntity
  8
hole
  6
ByLayer
 62
    5
370
   -1
100
AcDbLine
 10
117.71385
 20
34.113275
 11
117.286648
 21
33.29881
  0
LINE
  5
1CD
100
AcDbEntity
  8
hole
  6
ByLayer
 62
    5
370
   -1
100
AcDbLine
 10
117.286648
 20
33.29881
 11
116.918004
 21
32.679659
  0
LINE
  5
1CE
100
AcDbEntity
  8
hole
  6
ByLayer
 62
    5
370
   -1
100
AcDbLine
 10
116.918004
 20
32.679659
 11
116.549776
 21
32.018272
  0
LINE
  5
1CF
100
AcDbEntity
  8
hole
  6
ByLayer
 62
    5
370
   -1
100
AcDbLine
 10
116.549776
 20
32.018272
 11
116.246552
 21
31.553298
  0
LINE
  5
1D0
100
AcDbEntity
  8
hole
  6
ByLayer
 62
    5
370
   -1
100
AcDbLine
 10
116.246552
 20
31.553298
 11
115.940309
 21
31.093073
  0
LINE
  5
1D1
100
AcDbEntity
  8
hole
  6
ByLayer
 62
    5
370
   -1
100
AcDbLine
 10
115.940309
 20
31.093073
 11
115.625549
 21
30.626897
  0
LINE
  5
1D2
100
AcDbEntity
  8
hole
  6
ByLayer
 62
    5
370
   -1
100
AcDbLine
 10
115.625549
 20
30.626897
 11
115.301703
 21
30.131555
  0
LINE
  5
1D3
100
AcDbEntity
  8
hole
  6
ByLayer
 62
    5
370
   -1
100
AcDbLine
 10
115.301703
 20
30.131555
 11
114.692413
 21
29.300577
  0
LINE
  5
1D4
100
AcDbEntity
  8
hole
  6
ByLayer
 62
    5
370
   -1
100
AcDbLine
 10
114.692413
 20
29.300577
 11
114.275323
 21
28.7144
  0
LINE
  5
1D5
100
AcDbEntity
  8
hole
  6
ByLayer
 62
    5
370
   -1
100
AcDbLine
 10
114.275323
 20
28.7144
 11
113.804163
 21
28.174223
  0
LINE
  5
1D6
100
AcDbEntity
  8
hole
  6
ByLayer
 62
    5
370
   -1
100
AcDbLine
 10
113.804163
 20
28.174223
 11
113.220727
 21
27.456713
  0
LINE
  5
1D7
100
AcDbEntity
  8
hole
  6
ByLayer
 62
    5
370
   -1
100
AcDbLine
 10
113.220727
 20
27.456713
 11
112.835685
 21
27.047862
  0
LINE
  5
1D8
100
AcDbEntity
  8
hole
  6
ByLayer
 62
    5
370
   -1
100
AcDbLine
 10
112.835685
 20
27.047862
 11
112.389826
 21
26.569523
  0
LINE
  5
1D9
100
AcDbEntity
  8
hole
  6
ByLayer
 62
    5
370
   -1
100
AcDbLine
 10
112.389826
 20
26.569523
 11
112.042275
 21
26.182284
  0
LINE
  5
1DA
100
AcDbEntity
  8
hole
  6
ByLayer
 62
    5
370
   -1
100
AcDbLine
 10
112.042275
 20
26.182284
 11
111.520093
 21
25.678435
  0
LINE
  5
1DB
100
AcDbEntity
  8
hole
  6
ByLayer
 62
    5
370
   -1
100
AcDbLine
 10
111.520093
 20
25.678435
 11
111.009001
 21
25.161785
  0
LINE
  5
1DC
100
AcDbEntity
  8
hole
  6
ByLayer
 62
    5
370
   -1
100
AcDbLine
 10
111.009001
 20
25.161785
 11
110.58365
 21
24.795147
  0
LINE
  5
1DD
100
AcDbEntity
  8
hole
  6
ByLayer
 62
    5
370
   -1
100
AcDbLine
 10
110.58365
 20
24.795147
 11
110.159297
 21
24.416763
  0
LINE
  5
1DE
100
AcDbEntity
  8
hole
  6
ByLayer
 62
    5
370
   -1
100
AcDbLine
 10
110.159297
 20
24.416763
 11
109.686595
 21
23.984693
  0
LINE
  5
1DF
100
AcDbEntity
  8
hole
  6
ByLayer
 62
    5
370
   -1
100
AcDbLine
 10
109.686595
 20
23.984693
 11
109.264785
 21
23.668787
  0
LINE
  5
1E0
100
AcDbEntity
  8
hole
  6
ByLayer
 62
    5
370
   -1
100
AcDbLine
 10
109.264785
 20
23.668787
 11
109.154407
 21
23.575761
  0
LINE
  5
1E1
100
AcDbEntity
  8
boundary
  6
ByLayer
 62
    5
370
   -1
100
AcDbLine
 10
132.464613
 20
32.474077
 11
133.078871
 21
32.953373
  0
LINE
  5
1E2
100
AcDbEntity
  8
boundary
  6
ByLayer
 62
    5
370
   -1
100
AcDbLine
 10
133.078871
 20
32.953373
 11
133.579879
 21
33.336794
  0
LINE
  5
1E3
100
AcDbEntity
  8
boundary
  6
ByLayer
 62
    5
370
   -1
100
AcDbLine
 10
133.579879
 20
33.336794
 11
134.229396
 21
33.806019
  0
LINE
  5
1E4
100
AcDbEntity
  8
boundary
  6
ByLayer
 62
    5
370
   -1
100
AcDbLine
 10
134.229396
 20
33.806019
 11
134.695145
 21
34.164674
  0
LINE
  5
1E5
100
AcDbEntity
  8
boundary
  6
ByLayer
 62
    5
370
   -1
100
AcDbLine
 10
134.695145
 20
34.164674
 11
135.221842
 21
34.594452
  0
LINE
  5
1E6
100
AcDbEntity
  8
boundary
  6
ByLayer
 62
    5
370
   -1
100
AcDbLine
 10
135.221842
 20
34.594452
 11
135.728788
 21
34.932374
  0
LINE
  5
1E7
100
AcDbEntity
  8
boundary
  6
ByLayer
 62
    5
370
   -1
100
AcDbLine
 10
135.728788
 20
34.932374
 11
136.31356
 21
35.413825
  0
LINE
  5
1E8
100
AcDbEntity
  8
boundary
  6
ByLayer
 62
    5
370
   -1
100
AcDbLine
 10
136.31356
 20
35.413825
 11
136.925678
 21
35.821684
  0
LINE
  5
1E9
100
AcDbEntity
  8
boundary
  6
ByLayer
 62
    5
370
   -1
100
AcDbLine
 10
136.925678
 20
35.821684
 11
137.555845
 21
36.308169
  0
LINE
  5
1EA
100
AcDbEntity
  8
boundary
  6
ByLayer
 62
    5
370
   -1
100
AcDbLine
 10
137.555845
 20
36.308169
 11
138.040944
 21
36.68457
  0
LINE
  5
1EB
100
AcDbEntity
  8
boundary
  6
ByLayer
 62
    5
370
   -1
100
AcDbLine
 10
138.040944
 20
36.68457
 11
138.726145
 21
37.185089
  0
LINE
  5
1EC
100
AcDbEntity
  8
boundary
  6
ByLayer
 62
    5
370
   -1
100
AcDbLine
 10
138.726145
 20
37.185089
 11
139.156204
 21
37.518215
  0
LINE
  5
1ED
100
AcDbEntity
  8
boundary
  6
ByLayer
 62
    5
370
   -1
100
AcDbLine
 10
139.156204
 20
37.518215
 11
139.699448
 21
37.964373
  0
LINE
  5
1EE
100
AcDbEntity
  8
boundary
  6
ByLayer
 62
    5
370
   -1
100
AcDbLine
 10
139.699448
 20
37.964373
 11
140.220757
 21
38.311455
  0
LINE
  5
1EF
100
AcDbEntity
  8
boundary
  6
ByLayer
 62
    5
370
   -1
100
AcDbLine
 10
140.220757
 20
38.311455
 11
140.77538
 21
38.782477
  0
LINE
  5
1F0
100
AcDbEntity
  8
boundary
  6
ByLayer
 62
    5
370
   -1
100
AcDbLine
 10
140.77538
 20
38.782477
 11
141.386736
 21
39.208487
  0
LINE
  5
1F1
100
AcDbEntity
  8
boundary
  6
ByLayer
 62
    5
370
   -1
100
AcDbLine
 10
141.386736
 20
39.208487
 11
141.747562
 21
39.711289
  0
LINE
  5
1F2
100
AcDbEntity
  8
boundary
  6
ByLayer
 62
    5
370
   -1
100
AcDbLine
 10
141.747562
 20
39.711289
 11
142.227401
 21
40.56417
  0
LINE
  5
1F3
100
AcDbEntity
  8
boundary
  6
ByLayer
 62
    5
370
   -1
100
AcDbLine
 10
142.227401
 20
40.56417
 11
142.253097
 21
41.211192
  0
LINE
  5
1F4
100
AcDbEntity
  8
boundary
  6
ByLayer
 62
    5
370
   -1
100
AcDbLine
 10
142.253097
 20
41.211192
 11
142.272003
 21
42.150199
  0
LINE
  5
1F5
100
AcDbEntity
  8
boundary
  6
ByLayer
 62
    5
370
   -1
100
AcDbLine
 10
142.272003
 20
42.150199
 11
142.272003
 21
42.816885
  0
LINE
  5
1F6
100
AcDbEntity
  8
boundary
  6
ByLayer
 62
    5
370
   -1
100
AcDbLine
 10
142.272003
 20
42.816885
 11
142.272003
 21
43.483572
  0
LINE
  5
1F7
100
AcDbEntity
  8
boundary
  6
ByLayer
 62
    5
370
   -1
100
AcDbLine
 10
142.272003
 20
43.483572
 11
142.272003
 21
44.402919
  0
LINE
  5
1F8
100
AcDbEntity
  8
boundary
  6
ByLayer
 62
    5
370
   -1
100
AcDbLine
 10
142.272003
 20
44.402919
 11
142.272003
 21
45.069606
  0
LINE
  5
1F9
100
AcDbEntity
  8
boundary
  6
ByLayer
 62
    5
370
   -1
100
AcDbLine
 10
142.272003
 20
45.069606
 11
142.272003
 21
45.736293
  0
LINE
  5
1FA
100
AcDbEntity
  8
boundary
  6
ByLayer
 62
    5
370
   -1
100
AcDbLine
 10
142.272003
 20
45.736293
 11
142.272003
 21
46.655641
  0
LINE
  5
1FB
100
AcDbEntity
  8
boundary
  6
ByLayer
 62
    5
370
   -1
100
AcDbLine
 10
142.272003
 20
46.655641
 11
142.272003
 21
47.322321
  0
LINE
  5
1FC
100
AcDbEntity
  8
boundary
  6
ByLayer
 62
    5
370
   -1
100
AcDbLine
 10
142.272003
 20
47.322321
 11
142.272002
 21
47.989008
  0
LINE
  5
1FD
100
AcDbEntity
  8
boundary
  6
ByLayer
 62
    5
370
   -1
100
AcDbLine
 10
142.272002
 20
47.989008
 11
142.272003
 21
48.908355
  0
LINE
  5
1FE
100
AcDbEntity
  8
boundary
  6
ByLayer
 62
    5
370
   -1
100
AcDbLine
 10
142.272003
 20
48.908355
 11
142.272003
 21
49.575039
  0
LINE
  5
1FF
100
AcDbEntity
  8
boundary
  6
ByLayer
 62
    5
370
   -1
100
AcDbLine
 10
142.272003
 20
49.575039
 11
142.272002
 21
50.241726
  0
LINE
  5
200
100
AcDbEntity
  8
boundary
  6
ByLayer
 62
    5
370
   -1
100
AcDbLine
 10
142.272002
 20
50.241726
 11
142.272002
 21
51.161074
  0
LINE
  5
201
100
AcDbEntity
  8
boundary
  6
ByLayer
 62
    5
370
   -1
100
AcDbLine
 10
142.272002
 20
51.161074
 11
142.272003
 21
51.82776
  0
LINE
  5
202
100
AcDbEntity
  8
boundary
  6
ByLayer
 62
    5
370
   -1
100
AcDbLine
 10
142.272003
 20
51.82776
 11
142.272002
 21
52.494441
  0
LINE
  5
203
100
AcDbEntity
  8
boundary
  6
ByLayer
 62
    5
370
   -1
100
AcDbLine
 10
142.272002
 20
52.494441
 11
142.272003
 21
53.413792
  0
LINE
  5
204
100
AcDbEntity
  8
boundary
  6
ByLayer
 62
    5
370
   -1
100
AcDbLine
 10
142.272003
 20
53.413792
 11
142.272003
 21
54.080475
  0
LINE
  5
205
100
AcDbEntity
  8
boundary
  6
ByLayer
 62
    5
370
   -1
100
AcDbLine
 10
142.272003
 20
54.080475
 11
142.272003
 21
54.747161
  0
LINE
  5
206
100
AcDbEntity
  8
boundary
  6
ByLayer
 62
    5
370
   -1
100
AcDbLine
 10
142.272003
 20
54.747161
 11
142.272003
 21
55.666506
  0
LINE
  5
207
100
AcDbEntity
  8
boundary
  6
ByLayer
 62
    5
370
   -1
100
AcDbLine
 10
142.272003
 20
55.666506
 11
142.272003
 21
56.333196
  0
LINE
  5
208
100
AcDbEntity
  8
boundary
  6
ByLayer
 62
    5
370
   -1
100
AcDbLine
 10
142.272003
 20
56.333196
 11
142.108334
 21
56.82499
  0
LINE
  5
209
100
AcDbEntity
  8
boundary
  6
ByLayer
 62
    5
370
   -1
100
AcDbLine
 10
142.108334
 20
56.82499
 11
141.905155
 21
57.459554
  0
LINE
  5
20A
100
AcDbEntity
  8
boundary
  6
ByLayer
 62
    5
370
   -1
100
AcDbLine
 10
141.905155
 20
57.459554
 11
141.386736
 21
58.142329
  0
LINE
  5
20B
100
AcDbEntity
  8
boundary
  6
ByLayer
 62
    5
370
   -1
100
AcDbLine
 10
141.386736
 20
58.142329
 11
140.872179
 21
58.585911
  0
LINE
  5
20C
100
AcDbEntity
  8
boundary
  6
ByLayer
 62
    5
370
   -1
100
AcDbLine
 10
140.872179
 20
58.585911
 11
140.271476
 21
59.039033
  0
LINE
  5
20D
100
AcDbEntity
  8
boundary
  6
ByLayer
 62
    5
370
   -1
100
AcDbLine
 10
140.271476
 20
59.039033
 11
139.766836
 21
59.432081
  0
LINE
  5
20E
100
AcDbEntity
  8
boundary
  6
ByLayer
 62
    5
370
   -1
100
AcDbLine
 10
139.766836
 20
59.432081
 11
139.322854
 21
59.795134
  0
LINE
  5
20F
100
AcDbEntity
  8
boundary
  6
ByLayer
 62
    5
370
   -1
100
AcDbLine
 10
139.322854
 20
59.795134
 11
138.875959
 21
60.109262
  0
LINE
  5
210
100
AcDbEntity
  8
boundary
  6
ByLayer
 62
    5
370
   -1
100
AcDbLine
 10
138.875959
 20
60.109262
 11
138.040944
 21
60.741652
  0
LINE
  5
211
100
AcDbEntity
  8
boundary
  6
ByLayer
 62
    5
370
   -1
100
AcDbLine
 10
138.040944
 20
60.741652
 11
137.434186
 21
61.167633
  0
LINE
  5
212
100
AcDbEntity
  8
boundary
  6
ByLayer
 62
    5
370
   -1
100
AcDbLine
 10
137.434186
 20
61.167633
 11
136.925678
 21
61.586117
  0
LINE
  5
213
100
AcDbEntity
  8
boundary
  6
ByLayer
 62
    5
370
   -1
100
AcDbLine
 10
136.925678
 20
61.586117
 11
136.439262
 21
61.964987
  0
LINE
  5
214
100
AcDbEntity
  8
boundary
  6
ByLayer
 62
    5
370
   -1
100
AcDbLine
 10
136.439262
 20
61.964987
 11
135.810405
 21
62.427172
  0
LINE
  5
215
100
AcDbEntity
  8
boundary
  6
ByLayer
 62
    5
370
   -1
100
AcDbLine
 10
135.810405
 20
62.427172
 11
135.309232
 21
62.816779
  0
LINE
  5
216
100
AcDbEntity
  8
boundary
  6
ByLayer
 62
    5
370
   -1
100
AcDbLine
 10
135.309232
 20
62.816779
 11
134.865563
 21
63.17691
  0
LINE
  5
217
100
AcDbEntity
  8
boundary
  6
ByLayer
 62
    5
370
   -1
100
AcDbLine
 10
134.865563
 20
63.17691
 11
134.413272
 21
63.491993
  0
LINE
  5
218
100
AcDbEntity
  8
boundary
  6
ByLayer
 62
    5
370
   -1
100
AcDbLine
 10
134.413272
 20
63.491993
 11
133.579879
 21
64.114677
  0
LINE
  5
219
100
AcDbEntity
  8
boundary
  6
ByLayer
 62
    5
370
   -1
100
AcDbLine
 10
133.579879
 20
64.114677
 11
132.964551
 21
64.541827
  0
LINE
  5
21A
100
AcDbEntity
  8
boundary
  6
ByLayer
 62
    5
370
   -1
100
AcDbLine
 10
132.964551
 20
64.541827
 11
132.464613
 21
64.94604200000001
  0
LINE
  5
21B
100
AcDbEntity
  8
boundary
  6
ByLayer
 62
    5
370
   -1
100
AcDbLine
 10
132.464613
 20
64.94604200000001
 11
131.945951
 21
65.34406199999999
  0
LINE
  5
21C
100
AcDbEntity
  8
boundary
  6
ByLayer
 62
    5
370
   -1
100
AcDbLine
 10
131.945951
 20
65.34406199999999
 11
131.349346
 21
65.774535
  0
LINE
  5
21D
100
AcDbEntity
  8
boundary
  6
ByLayer
 62
    5
370
   -1
100
AcDbLine
 10
131.349346
 20
65.774535
 11
130.833046
 21
66.17128599999999
  0
LINE
  5
21E
100
AcDbEntity
  8
boundary
  6
ByLayer
 62
    5
370
   -1
100
AcDbLine
 10
130.833046
 20
66.17128599999999
 11
130.383728
 21
66.540896
  0
LINE
  5
21F
100
AcDbEntity
  8
boundary
  6
ByLayer
 62
    5
370
   -1
100
AcDbLine
 10
130.383728
 20
66.540896
 11
129.816818
 21
66.911862
  0
LINE
  5
220
100
AcDbEntity
  8
boundary
  6
ByLayer
 62
    5
370
   -1
100
AcDbLine
 10
129.816818
 20
66.911862
 11
129.118814
 21
67.44911
  0
LINE
  5
221
100
AcDbEntity
  8
boundary
  6
ByLayer
 62
    5
370
   -1
100
AcDbLine
 10
129.118814
 20
67.44911
 11
128.471102
 21
67.905289
  0
LINE
  5
222
100
AcDbEntity
  8
boundary
  6
ByLayer
 62
    5
370
   -1
100
AcDbLine
 10
128.471102
 20
67.905289
 11
128.003548
 21
68.279892
  0
LINE
  5
223
100
AcDbEntity
  8
boundary
  6
ByLayer
 62
    5
370
   -1
100
AcDbLine
 10
128.003548
 20
68.279892
 11
127.424187
 21
68.723141
  0
LINE
  5
224
100
AcDbEntity
  8
boundary
  6
ByLayer
 62
    5
370
   -1
100
AcDbLine
 10
127.424187
 20
68.723141
 11
126.888281
 21
69.108402
  0
LINE
  5
225
100
AcDbEntity
  8
boundary
  6
ByLayer
 62
    5
370
   -1
100
AcDbLine
 10
126.888281
 20
69.108402
 11
126.354186
 21
69.518761
  0
LINE
  5
226
100
AcDbEntity
  8
boundary
  6
ByLayer
 62
    5
370
   -1
100
AcDbLine
 10
126.354186
 20
69.518761
 11
125.897723
 21
69.90366400000001
  0
LINE
  5
227
100
AcDbEntity
  8
boundary
  6
ByLayer
 62
    5
370
   -1
100
AcDbLine
 10
125.897723
 20
69.90366400000001
 11
125.327025
 21
70.27140300000001
  0
LINE
  5
228
100
AcDbEntity
  8
boundary
  6
ByLayer
 62
    5
370
   -1
100
AcDbLine
 10
125.327025
 20
70.27140300000001
 11
124.657752
 21
70.78531
  0
LINE
  5
229
100
AcDbEntity
  8
boundary
  6
ByLayer
 62
    5
370
   -1
100
AcDbLine
 10
124.657752
 20
70.78531
 11
123.978775
 21
71.27005699999999
  0
LINE
  5
22A
100
AcDbEntity
  8
boundary
  6
ByLayer
 62
    5
370
   -1
100
AcDbLine
 10
123.978775
 20
71.27005699999999
 11
123.542486
 21
71.61677400000001
  0
LINE
  5
22B
100
AcDbEntity
  8
boundary
  6
ByLayer
 62
    5
370
   -1
100
AcDbLine
 10
123.542486
 20
71.61677400000001
 11
123.120644
 21
71.93726599999999
  0
LINE
  5
22C
100
AcDbEntity
  8
boundary
  6
ByLayer
 62
    5
370
   -1
100
AcDbLine
 10
123.120644
 20
71.93726599999999
 11
122.609641
 21
72.30723999999999
  0
LINE
  5
22D
100
AcDbEntity
  8
boundary
  6
ByLayer
 62
    5
370
   -1
100
AcDbLine
 10
122.609641
 20
72.30723999999999
 11
122.017261
 21
72.756749
  0
LINE
  5
22E
100
AcDbEntity
  8
boundary
  6
ByLayer
 62
    5
370
   -1
100
AcDbLine
 10
122.017261
 20
72.756749
 11
121.461747
 21
73.228577
  0
LINE
  5
22F
100
AcDbEntity
  8
boundary
  6
ByLayer
 62
    5
370
   -1
100
AcDbLine
 10
121.461747
 20
73.228577
 11
120.831374
 21
73.62875099999999
  0
LINE
  5
230
100
AcDbEntity
  8
boundary
  6
ByLayer
 62
    5
370
   -1
100
AcDbLine
 10
120.831374
 20
73.62875099999999
 11
120.19669
 21
74.110699
  0
LINE
  5
231
100
AcDbEntity
  8
boundary
  6
ByLayer
 62
    5
370
   -1
100
AcDbLine
 10
120.19669
 20
74.110699
 11
119.470512
 21
74.63224200000001
  0
LINE
  5
232
100
AcDbEntity
  8
boundary
  6
ByLayer
 62
    5
370
   -1
100
AcDbLine
 10
119.470512
 20
74.63224200000001
 11
118.63411
 21
75.283795
  0
LINE
  5
233
100
AcDbEntity
  8
boundary
  6
ByLayer
 62
    5
370
   -1
100
AcDbLine
 10
118.63411
 20
75.283795
 11
118.189257
 21
75.617992
  0
LINE
  5
234
100
AcDbEntity
  8
boundary
  6
ByLayer
 62
    5
370
   -1
100
AcDbLine
 10
118.189257
 20
75.617992
 11
117.667057
 21
76.006175
  0
LINE
  5
235
100
AcDbEntity
  8
boundary
  6
ByLayer
 62
    5
370
   -1
100
AcDbLine
 10
117.667057
 20
76.006175
 11
117.184473
 21
76.404258
  0
LINE
  5
236
100
AcDbEntity
  8
boundary
  6
ByLayer
 62
    5
370
   -1
100
AcDbLine
 10
117.184473
 20
76.404258
 11
116.693579
 21
76.780252
  0
LINE
  5
237
100
AcDbEntity
  8
boundary
  6
ByLayer
 62
    5
370
   -1
100
AcDbLine
 10
116.693579
 20
76.780252
 11
116.115593
 21
77.13669400000001
  0
LINE
  5
238
100
AcDbEntity
  8
boundary
  6
ByLayer
 62
    5
370
   -1
100
AcDbLine
 10
116.115593
 20
77.13669400000001
 11
115.542347
 21
77.584643
  0
LINE
  5
239
100
AcDbEntity
  8
boundary
  6
ByLayer
 62
    5
370
   -1
100
AcDbLine
 10
115.542347
 20
77.584643
 11
114.963494
 21
77.994174
  0
LINE
  5
23A
100
AcDbEntity
  8
boundary
  6
ByLayer
 62
    5
370
   -1
100
AcDbLine
 10
114.963494
 20
77.994174
 11
114.145697
 21
78.62623499999999
  0
LINE
  5
23B
100
AcDbEntity
  8
boundary
  6
ByLayer
 62
    5
370
   -1
100
AcDbLine
 10
114.145697
 20
78.62623499999999
 11
113.702256
 21
78.968271
  0
LINE
  5
23C
100
AcDbEntity
  8
boundary
  6
ByLayer
 62
    5
370
   -1
100
AcDbLine
 10
113.702256
 20
78.968271
 11
113.211943
 21
79.308992
  0
LINE
  5
23D
100
AcDbEntity
  8
boundary
  6
ByLayer
 62
    5
370
   -1
100
AcDbLine
 10
113.211943
 20
79.308992
 11
112.389827
 21
79.93073699999999
  0
LINE
  5
23E
100
AcDbEntity
  8
boundary
  6
ByLayer
 62
    5
370
   -1
100
AcDbLine
 10
112.389827
 20
79.93073699999999
 11
111.805827
 21
80.326964
  0
LINE
  5
23F
100
AcDbEntity
  8
boundary
  6
ByLayer
 62
    5
370
   -1
100
AcDbLine
 10
111.805827
 20
80.326964
 11
111.27456
 21
80.758911
  0
LINE
  5
240
100
AcDbEntity
  8
boundary
  6
ByLayer
 62
    5
370
   -1
100
AcDbLine
 10
111.27456
 20
80.758911
 11
110.813899
 21
81.113088
  0
LINE
  5
241
100
AcDbEntity
  8
boundary
  6
ByLayer
 62
    5
370
   -1
100
AcDbLine
 10
110.813899
 20
81.113088
 11
110.385004
 21
81.408958
  0
LINE
  5
242
100
AcDbEntity
  8
boundary
  6
ByLayer
 62
    5
370
   -1
100
AcDbLine
 10
110.385004
 20
81.408958
 11
109.659805
 21
81.968114
  0
LINE
  5
243
100
AcDbEntity
  8
boundary
  6
ByLayer
 62
    5
370
   -1
100
AcDbLine
 10
109.659805
 20
81.968114
 11
109.214008
 21
82.324887
  0
LINE
  5
244
100
AcDbEntity
  8
boundary
  6
ByLayer
 62
    5
370
   -1
100
AcDbLine
 10
109.214008
 20
82.324887
 11
108.762926
 21
82.63615799999999
  0
LINE
  5
245
100
AcDbEntity
  8
boundary
  6
ByLayer
 62
    5
370
   -1
100
AcDbLine
 10
108.762926
 20
82.63615799999999
 11
107.928765
 21
83.25361599999999
  0
LINE
  5
246
100
AcDbEntity
  8
boundary
  6
ByLayer
 62
    5
370
   -1
100
AcDbLine
 10
107.928765
 20
83.25361599999999
 11
107.305583
 21
83.685907
  0
LINE
  5
247
100
AcDbEntity
  8
boundary
  6
ByLayer
 62
    5
370
   -1
100
AcDbLine
 10
107.305583
 20
83.685907
 11
106.813498
 21
84.081187
  0
LINE
  5
248
100
AcDbEntity
  8
boundary
  6
ByLayer
 62
    5
370
   -1
100
AcDbLine
 10
106.813498
 20
84.081187
 11
106.27558
 21
84.492165
  0
LINE
  5
249
100
AcDbEntity
  8
boundary
  6
ByLayer
 62
    5
370
   -1
100
AcDbLine
 10
106.27558
 20
84.492165
 11
105.698235
 21
84.906462
  0
LINE
  5
24A
100
AcDbEntity
  8
boundary
  6
ByLayer
 62
    5
370
   -1
100
AcDbLine
 10
105.698235
 20
84.906462
 11
105.174906
 21
85.307379
  0
LINE
  5
24B
100
AcDbEntity
  8
boundary
  6
ByLayer
 62
    5
370
   -1
100
AcDbLine
 10
105.174906
 20
85.307379
 11
104.722624
 21
85.682226
  0
LINE
  5
24C
100
AcDbEntity
  8
boundary
  6
ByLayer
 62
    5
370
   -1
100
AcDbLine
 10
104.722624
 20
85.682226
 11
104.153499
 21
86.051029
  0
LINE
  5
24D
100
AcDbEntity
  8
boundary
  6
ByLayer
 62
    5
370
   -1
100
AcDbLine
 10
104.153499
 20
86.051029
 11
103.4677
 21
86.57636100000001
  0
LINE
  5
24E
100
AcDbEntity
  8
boundary
  6
ByLayer
 62
    5
370
   -1
100
AcDbLine
 10
103.4677
 20
86.57636100000001
 11
102.804055
 21
87.045891
  0
LINE
  5
24F
100
AcDbEntity
  8
boundary
  6
ByLayer
 62
    5
370
   -1
100
AcDbLine
 10
102.804055
 20
87.045891
 11
102.352437
 21
87.405097
  0
LINE
  5
250
100
AcDbEntity
  8
boundary
  6
ByLayer
 62
    5
370
   -1
100
AcDbLine
 10
102.352437
 20
87.405097
 11
101.73905
 21
87.871242
  0
LINE
  5
251
100
AcDbEntity
  8
boundary
  6
ByLayer
 62
    5
370
   -1
100
AcDbLine
 10
101.73905
 20
87.871242
 11
101.23717
 21
88.229006
  0
LINE
  5
252
100
AcDbEntity
  8
boundary
  6
ByLayer
 62
    5
370
   -1
100
AcDbLine
 10
101.23717
 20
88.229006
 11
100.691737
 21
88.645562
  0
LINE
  5
253
100
AcDbEntity
  8
boundary
  6
ByLayer
 62
    5
370
   -1
100
AcDbLine
 10
100.691737
 20
88.645562
 11
100.287412
 21
88.997601
  0
LINE
  5
254
100
AcDbEntity
  8
boundary
  6
ByLayer
 62
    5
370
   -1
100
AcDbLine
 10
100.287412
 20
88.997601
 11
99.65412499999999
 21
89.416543
  0
LINE
  5
255
100
AcDbEntity
  8
boundary
  6
ByLayer
 62
    5
370
   -1
100
AcDbLine
 10
99.65412499999999
 20
89.416543
 11
99.00663900000001
 21
89.9498
  0
LINE
  5
256
100
AcDbEntity
  8
boundary
  6
ByLayer
 62
    5
370
   -1
100
AcDbLine
 10
99.00663900000001
 20
89.9498
 11
98.457274
 21
90.61288500000001
  0
LINE
  5
257
100
AcDbEntity
  8
boundary
  6
ByLayer
 62
    5
370
   -1
100
AcDbLine
 10
98.457274
 20
90.61288500000001
 11
98.14215299999999
 21
91.250319
  0
LINE
  5
258
100
AcDbEntity
  8
boundary
  6
ByLayer
 62
    5
370
   -1
100
AcDbLine
 10
98.14215299999999
 20
91.250319
 11
97.891373
 21
91.898566
  0
LINE
  5
259
100
AcDbEntity
  8
boundary
  6
ByLayer
 62
    5
370
   -1
100
AcDbLine
 10
97.891373
 20
91.898566
 11
97.681253
 21
92.376677
  0
LINE
  5
25A
100
AcDbEntity
  8
boundary
  6
ByLayer
 62
    5
370
   -1
100
AcDbLine
 10
97.681253
 20
92.376677
 11
97.496934
 21
92.867661
  0
LINE
  5
25B
100
AcDbEntity
  8
boundary
  6
ByLayer
 62
    5
370
   -1
100
AcDbLine
 10
97.496934
 20
92.867661
 11
97.286421
 21
93.50303700000001
  0
LINE
  5
25C
100
AcDbEntity
  8
boundary
  6
ByLayer
 62
    5
370
   -1
100
AcDbLine
 10
97.286421
 20
93.50303700000001
 11
97.10195299999999
 21
94.094545
  0
LINE
  5
25D
100
AcDbEntity
  8
boundary
  6
ByLayer
 62
    5
370
   -1
100
AcDbLine
 10
97.10195299999999
 20
94.094545
 11
96.954885
 21
94.629396
  0
LINE
  5
25E
100
AcDbEntity
  8
boundary
  6
ByLayer
 62
    5
370
   -1
100
AcDbLine
 10
96.954885
 20
94.629396
 11
96.776107
 21
95.138524
  0
LINE
  5
25F
100
AcDbEntity
  8
boundary
  6
ByLayer
 62
    5
370
   -1
100
AcDbLine
 10
96.776107
 20
95.138524
 11
96.507204
 21
95.755754
  0
LINE
  5
260
100
AcDbEntity
  8
boundary
  6
ByLayer
 62
    5
370
   -1
100
AcDbLine
 10
96.507204
 20
95.755754
 11
96.272688
 21
96.42993
  0
LINE
  5
261
100
AcDbEntity
  8
boundary
  6
ByLayer
 62
    5
370
   -1
100
AcDbLine
 10
96.272688
 20
96.42993
 11
96.035133
 21
97.157279
  0
LINE
  5
262
100
AcDbEntity
  8
boundary
  6
ByLayer
 62
    5
370
   -1
100
AcDbLine
 10
96.035133
 20
97.157279
 11
95.86994900000001
 21
97.753483
  0
LINE
  5
263
100
AcDbEntity
  8
boundary
  6
ByLayer
 62
    5
370
   -1
100
AcDbLine
 10
95.86994900000001
 20
97.753483
 11
95.660841
 21
98.38709299999999
  0
LINE
  5
264
100
AcDbEntity
  8
boundary
  6
ByLayer
 62
    5
370
   -1
100
AcDbLine
 10
95.660841
 20
98.38709299999999
 11
95.33384
 21
99.13483100000001
  0
LINE
  5
265
100
AcDbEntity
  8
boundary
  6
ByLayer
 62
    5
370
   -1
100
AcDbLine
 10
95.33384
 20
99.13483100000001
 11
95.043887
 21
99.993855
  0
LINE
  5
266
100
AcDbEntity
  8
boundary
  6
ByLayer
 62
    5
370
   -1
100
AcDbLine
 10
95.043887
 20
99.993855
 11
94.847441
 21
100.615931
  0
LINE
  5
267
100
AcDbEntity
  8
boundary
  6
ByLayer
 62
    5
370
   -1
100
AcDbLine
 10
94.847441
 20
100.615931
 11
94.702753
 21
101.144864
  0
LINE
  5
268
100
AcDbEntity
  8
boundary
  6
ByLayer
 62
    5
370
   -1
100
AcDbLine
 10
94.702753
 20
101.144864
 11
94.545576
 21
101.634598
  0
LINE
  5
269
100
AcDbEntity
  8
boundary
  6
ByLayer
 62
    5
370
   -1
100
AcDbLine
 10
94.545576
 20
101.634598
 11
94.159583
 21
102.513908
  0
LINE
  5
26A
100
AcDbEntity
  8
boundary
  6
ByLayer
 62
    5
370
   -1
100
AcDbLine
 10
94.159583
 20
102.513908
 11
93.883123
 21
103.36054
  0
LINE
  5
26B
100
AcDbEntity
  8
boundary
  6
ByLayer
 62
    5
370
   -1
100
AcDbLine
 10
93.883123
 20
103.36054
 11
93.69250700000001
 21
103.967857
  0
LINE
  5
26C
100
AcDbEntity
  8
boundary
  6
ByLayer
 62
    5
370
   -1
100
AcDbLine
 10
93.69250700000001
 20
103.967857
 11
93.516717
 21
104.614817
  0
LINE
  5
26D
100
AcDbEntity
  8
boundary
  6
ByLayer
 62
    5
370
   -1
100
AcDbLine
 10
93.516717
 20
104.614817
 11
93.18394600000001
 21
105.40473
  0
LINE
  5
26E
100
AcDbEntity
  8
boundary
  6
ByLayer
 62
    5
370
   -1
100
AcDbLine
 10
93.18394600000001
 20
105.40473
 11
92.988738
 21
105.892984
  0
LINE
  5
26F
100
AcDbEntity
  8
boundary
  6
ByLayer
 62
    5
370
   -1
100
AcDbLine
 10
92.988738
 20
105.892984
 11
92.712132
 21
106.728338
  0
LINE
  5
270
100
AcDbEntity
  8
boundary
  6
ByLayer
 62
    5
370
   -1
100
AcDbLine
 10
92.712132
 20
106.728338
 11
92.508792
 21
107.302574
  0
LINE
  5
271
100
AcDbEntity
  8
boundary
  6
ByLayer
 62
    5
370
   -1
100
AcDbLine
 10
92.508792
 20
107.302574
 11
92.315043
 21
107.89186
  0
LINE
  5
272
100
AcDbEntity
  8
boundary
  6
ByLayer
 62
    5
370
   -1
100
AcDbLine
 10
92.315043
 20
107.89186
 11
92.004152
 21
108.681788
  0
LINE
  5
273
100
AcDbEntity
  8
boundary
  6
ByLayer
 62
    5
370
   -1
100
AcDbLine
 10
92.004152
 20
108.681788
 11
91.800595
 21
109.272061
  0
LINE
  5
274
100
AcDbEntity
  8
boundary
  6
ByLayer
 62
    5
370
   -1
100
AcDbLine
 10
91.800595
 20
109.272061
 11
91.564285
 21
110.024244
  0
LINE
  5
275
100
AcDbEntity
  8
boundary
  6
ByLayer
 62
    5
370
   -1
100
AcDbLine
 10
91.564285
 20
110.024244
 11
91.359829
 21
110.651853
  0
LINE
  5
276
100
AcDbEntity
  8
boundary
  6
ByLayer
 62
    5
370
   -1
100
AcDbLine
 10
91.359829
 20
110.651853
 11
91.199777
 21
111.134872
  0
LINE
  5
277
100
AcDbEntity
  8
boundary
  6
ByLayer
 62
    5
370
   -1
100
AcDbLine
 10
91.199777
 20
111.134872
 11
90.834221
 21
112.045696
  0
LINE
  5
278
100
AcDbEntity
  8
boundary
  6
ByLayer
 62
    5
370
   -1
100
AcDbLine
 10
90.834221
 20
112.045696
 11
90.629909
 21
112.651137
  0
LINE
  5
279
100
AcDbEntity
  8
boundary
  6
ByLayer
 62
    5
370
   -1
100
AcDbLine
 10
90.629909
 20
112.651137
 11
90.42483799999999
 21
113.304617
  0
LINE
  5
27A
100
AcDbEntity
  8
boundary
  6
ByLayer
 62
    5
370
   -1
100
AcDbLine
 10
90.42483799999999
 20
113.304617
 11
90.211225
 21
113.994712
  0
LINE
  5
27B
100
AcDbEntity
  8
boundary
  6
ByLayer
 62
    5
370
   -1
100
AcDbLine
 10
90.211225
 20
113.994712
 11
89.98426000000001
 21
114.590605
  0
LINE
  5
27C
100
AcDbEntity
  8
boundary
  6
ByLayer
 62
    5
370
   -1
100
AcDbLine
 10
89.98426000000001
 20
114.590605
 11
89.674761
 21
115.3805
  0
LINE
  5
27D
100
AcDbEntity
  8
boundary
  6
ByLayer
 62
    5
370
   -1
100
AcDbLine
 10
89.674761
 20
115.3805
 11
89.46156999999999
 21
116.030214
  0
LINE
  5
27E
100
AcDbEntity
  8
boundary
  6
ByLayer
 62
    5
370
   -1
100
AcDbLine
 10
89.46156999999999
 20
116.030214
 11
89.28777100000001
 21
116.589082
  0
LINE
  5
27F
100
AcDbEntity
  8
boundary
  6
ByLayer
 62
    5
370
   -1
100
AcDbLine
 10
89.28777100000001
 20
116.589082
 11
89.132846
 21
117.156573
  0
LINE
  5
280
100
AcDbEntity
  8
boundary
  6
ByLayer
 62
    5
370
   -1
100
AcDbLine
 10
89.132846
 20
117.156573
 11
88.832522
 21
117.914678
  0
LINE
  5
281
100
AcDbEntity
  8
boundary
  6
ByLayer
 62
    5
370
   -1
100
AcDbLine
 10
88.832522
 20
117.914678
 11
88.516261
 21
118.723044
  0
LINE
  5
282
100
AcDbEntity
  8
boundary
  6
ByLayer
 62
    5
370
   -1
100
AcDbLine
 10
88.516261
 20
118.723044
 11
88.29547700000001
 21
119.409291
  0
LINE
  5
283
100
AcDbEntity
  8
boundary
  6
ByLayer
 62
    5
370
   -1
100
AcDbLine
 10
88.29547700000001
 20
119.409291
 11
88.041393
 21
120.298103
  0
LINE
  5
284
100
AcDbEntity
  8
boundary
  6
ByLayer
 62
    5
370
   -1
100
AcDbLine
 10
88.041393
 20
120.298103
 11
87.85398000000001
 21
120.865337
  0
LINE
  5
285
100
AcDbEntity
  8
boundary
  6
ByLayer
 62
    5
370
   -1
100
AcDbLine
 10
87.85398000000001
 20
120.865337
 11
87.504774
 21
121.662009
  0
LINE
  5
286
100
AcDbEntity
  8
boundary
  6
ByLayer
 62
    5
370
   -1
100
AcDbLine
 10
87.504774
 20
121.662009
 11
87.220157
 21
122.516394
  0
LINE
  5
287
100
AcDbEntity
  8
boundary
  6
ByLayer
 62
    5
370
   -1
100
AcDbLine
 10
87.220157
 20
122.516394
 11
87.026194
 21
123.133167
  0
LINE
  5
288
100
AcDbEntity
  8
boundary
  6
ByLayer
 62
    5
370
   -1
100
AcDbLine
 10
87.026194
 20
123.133167
 11
86.87252599999999
 21
123.69828
  0
LINE
  5
289
100
AcDbEntity
  8
boundary
  6
ByLayer
 62
    5
370
   -1
100
AcDbLine
 10
86.87252599999999
 20
123.69828
 11
86.519806
 21
124.578445
  0
LINE
  5
28A
100
AcDbEntity
  8
boundary
  6
ByLayer
 62
    5
370
   -1
100
AcDbLine
 10
86.519806
 20
124.578445
 11
86.199547
 21
125.388659
  0
LINE
  5
28B
100
AcDbEntity
  8
boundary
  6
ByLayer
 62
    5
370
   -1
100
AcDbLine
 10
86.199547
 20
125.388659
 11
86.05094099999999
 21
125.883629
  0
LINE
  5
28C
100
AcDbEntity
  8
boundary
  6
ByLayer
 62
    5
370
   -1
100
AcDbLine
 10
86.05094099999999
 20
125.883629
 11
85.84358
 21
126.465078
  0
LINE
  5
28D
100
AcDbEntity
  8
boundary
  6
ByLayer
 62
    5
370
   -1
100
AcDbLine
 10
85.84358
 20
126.465078
 11
85.62344899999999
 21
127.128395
  0
LINE
  5
28E
100
AcDbEntity
  8
boundary
  6
ByLayer
 62
    5
370
   -1
100
AcDbLine
 10
85.62344899999999
 20
127.128395
 11
85.397628
 21
127.702826
  0
LINE
  5
28F
100
AcDbEntity
  8
boundary
  6
ByLayer
 62
    5
370
   -1
100
AcDbLine
 10
85.397628
 20
127.702826
 11
85.142321
 21
128.42016
  0
LINE
  5
290
100
AcDbEntity
  8
boundary
  6
ByLayer
 62
    5
370
   -1
100
AcDbLine
 10
85.142321
 20
128.42016
 11
84.88768
 21
129.229251
  0
LINE
  5
291
100
AcDbEntity
  8
boundary
  6
ByLayer
 62
    5
370
   -1
100
AcDbLine
 10
84.88768
 20
129.229251
 11
84.688306
 21
129.819498
  0
LINE
  5
292
100
AcDbEntity
  8
boundary
  6
ByLayer
 62
    5
370
   -1
100
AcDbLine
 10
84.688306
 20
129.819498
 11
84.508183
 21
130.368401
  0
LINE
  5
293
100
AcDbEntity
  8
boundary
  6
ByLayer
 62
    5
370
   -1
100
AcDbLine
 10
84.508183
 20
130.368401
 11
84.169422
 21
131.22554
  0
LINE
  5
294
100
AcDbEntity
  8
boundary
  6
ByLayer
 62
    5
370
   -1
100
AcDbLine
 10
84.169422
 20
131.22554
 11
83.974373
 21
131.799238
  0
LINE
  5
295
100
AcDbEntity
  8
boundary
  6
ByLayer
 62
    5
370
   -1
100
AcDbLine
 10
83.974373
 20
131.799238
 11
83.74878200000001
 21
132.516855
  0
LINE
  5
296
100
AcDbEntity
  8
boundary
  6
ByLayer
 62
    5
370
   -1
100
AcDbLine
 10
83.74878200000001
 20
132.516855
 11
83.541014
 21
133.166635
  0
LINE
  5
297
100
AcDbEntity
  8
boundary
  6
ByLayer
 62
    5
370
   -1
100
AcDbLine
 10
83.541014
 20
133.166635
 11
83.31608
 21
133.781261
  0
LINE
  5
298
100
AcDbEntity
  8
boundary
  6
ByLayer
 62
    5
370
   -1
100
AcDbLine
 10
83.31608
 20
133.781261
 11
83.011808
 21
134.556305
  0
LINE
  5
299
100
AcDbEntity
  8
boundary
  6
ByLayer
 62
    5
370
   -1
100
AcDbLine
 10
83.011808
 20
134.556305
 11
82.804095
 21
135.178314
  0
LINE
  5
29A
100
AcDbEntity
  8
boundary
  6
ByLayer
 62
    5
370
   -1
100
AcDbLine
 10
82.804095
 20
135.178314
 11
82.61025600000001
 21
135.799337
  0
LINE
  5
29B
100
AcDbEntity
  8
boundary
  6
ByLayer
 62
    5
370
   -1
100
AcDbLine
 10
82.61025600000001
 20
135.799337
 11
82.470337
 21
136.304674
  0
LINE
  5
29C
100
AcDbEntity
  8
boundary
  6
ByLayer
 62
    5
370
   -1
100
AcDbLine
 10
82.470337
 20
136.304674
 11
82.277652
 21
136.855005
  0
LINE
  5
29D
100
AcDbEntity
  8
boundary
  6
ByLayer
 62
    5
370
   -1
100
AcDbLine
 10
82.277652
 20
136.855005
 11
82.026858
 21
137.431032
  0
LINE
  5
29E
100
AcDbEntity
  8
boundary
  6
ByLayer
 62
    5
370
   -1
100
AcDbLine
 10
82.026858
 20
137.431032
 11
81.79463199999999
 21
138.093541
  0
LINE
  5
29F
100
AcDbEntity
  8
boundary
  6
ByLayer
 62
    5
370
   -1
100
AcDbLine
 10
81.79463199999999
 20
138.093541
 11
81.548005
 21
138.845087
  0
LINE
  5
2A0
100
AcDbEntity
  8
boundary
  6
ByLayer
 62
    5
370
   -1
100
AcDbLine
 10
81.548005
 20
138.845087
 11
81.388312
 21
139.417728
  0
LINE
  5
2A1
100
AcDbEntity
  8
boundary
  6
ByLayer
 62
    5
370
   -1
100
AcDbLine
 10
81.388312
 20
139.417728
 11
81.162386
 21
139.964639
  0
LINE
  5
2A2
100
AcDbEntity
  8
boundary
  6
ByLayer
 62
    5
370
   -1
100
AcDbLine
 10
81.162386
 20
139.964639
 11
80.606881
 21
140.810107
  0
LINE
  5
2A3
100
AcDbEntity
  8
boundary
  6
ByLayer
 62
    5
370
   -1
100
AcDbLine
 10
80.606881
 20
140.810107
 11
80.04712000000001
 21
141.512348
  0
LINE
  5
2A4
100
AcDbEntity
  8
boundary
  6
ByLayer
 62
    5
370
   -1
100
AcDbLine
 10
80.04712000000001
 20
141.512348
 11
79.632115
 21
141.936471
  0
LINE
  5
2A5
100
AcDbEntity
  8
boundary
  6
ByLayer
 62
    5
370
   -1
100
AcDbLine
 10
79.632115
 20
141.936471
 11
79.212637
 21
142.338573
  0
LINE
  5
2A6
100
AcDbEntity
  8
boundary
  6
ByLayer
 62
    5
370
   -1
100
AcDbLine
 10
79.212637
 20
142.338573
 11
78.74133999999999
 21
142.861566
  0
LINE
  5
2A7
100
AcDbEntity
  8
boundary
  6
ByLayer
 62
    5
370
   -1
100
AcDbLine
 10
78.74133999999999
 20
142.861566
 11
78.245251
 21
143.364416
  0
LINE
  5
2A8
100
AcDbEntity
  8
boundary
  6
ByLayer
 62
    5
370
   -1
100
AcDbLine
 10
78.245251
 20
143.364416
 11
77.81658899999999
 21
143.880661
  0
LINE
  5
2A9
100
AcDbEntity
  8
boundary
  6
ByLayer
 62
    5
370
   -1
100
AcDbLine
 10
77.81658899999999
 20
143.880661
 11
77.204566
 21
144.536678
  0
LINE
  5
2AA
100
AcDbEntity
  8
boundary
  6
ByLayer
 62
    5
370
   -1
100
AcDbLine
 10
77.204566
 20
144.536678
 11
76.701323
 21
145.177482
  0
LINE
  5
2AB
100
AcDbEntity
  8
boundary
  6
ByLayer
 62
    5
370
   -1
100
AcDbLine
 10
76.701323
 20
145.177482
 11
76.186877
 21
145.766091
  0
LINE
  5
2AC
100
AcDbEntity
  8
boundary
  6
ByLayer
 62
    5
370
   -1
100
AcDbLine
 10
76.186877
 20
145.766091
 11
75.899061
 21
146.195842
  0
LINE
  5
2AD
100
AcDbEntity
  8
boundary
  6
ByLayer
 62
    5
370
   -1
100
AcDbLine
 10
75.899061
 20
146.195842
 11
75.586057
 21
146.630081
  0
LINE
  5
2AE
100
AcDbEntity
  8
boundary
  6
ByLayer
 62
    5
370
   -1
100
AcDbLine
 10
75.586057
 20
146.630081
 11
75.13290499999999
 21
147.162803
  0
LINE
  5
2AF
100
AcDbEntity
  8
boundary
  6
ByLayer
 62
    5
370
   -1
100
AcDbLine
 10
75.13290499999999
 20
147.162803
 11
74.81915100000001
 21
147.568261
  0
LINE
  5
2B0
100
AcDbEntity
  8
boundary
  6
ByLayer
 62
    5
370
   -1
100
AcDbLine
 10
74.81915100000001
 20
147.568261
 11
74.47079100000001
 21
148.075769
  0
LINE
  5
2B1
100
AcDbEntity
  8
boundary
  6
ByLayer
 62
    5
370
   -1
100
AcDbLine
 10
74.47079100000001
 20
148.075769
 11
74.02539
 21
148.694625
  0
LINE
  5
2B2
100
AcDbEntity
  8
boundary
  6
ByLayer
 62
    5
370
   -1
100
AcDbLine
 10
74.02539
 20
148.694625
 11
73.66730800000001
 21
149.182854
  0
LINE
  5
2B3
100
AcDbEntity
  8
boundary
  6
ByLayer
 62
    5
370
   -1
100
AcDbLine
 10
73.66730800000001
 20
149.182854
 11
73.355525
 21
149.697014
  0
LINE
  5
2B4
100
AcDbEntity
  8
boundary
  6
ByLayer
 62
    5
370
   -1
100
AcDbLine
 10
73.355525
 20
149.697014
 11
72.882313
 21
150.369266
  0
LINE
  5
2B5
100
AcDbEntity
  8
boundary
  6
ByLayer
 62
    5
370
   -1
100
AcDbLine
 10
72.882313
 20
150.369266
 11
72.546038
 21
150.947343
  0
LINE
  5
2B6
100
AcDbEntity
  8
boundary
  6
ByLayer
 62
    5
370
   -1
100
AcDbLine
 10
72.546038
 20
150.947343
 11
72.24026000000001
 21
151.491723
  0
LINE
  5
2B7
100
AcDbEntity
  8
boundary
  6
ByLayer
 62
    5
370
   -1
100
AcDbLine
 10
72.24026000000001
 20
151.491723
 11
71.865287
 21
152.073697
  0
LINE
  5
2B8
100
AcDbEntity
  8
boundary
  6
ByLayer
 62
    5
370
   -1
100
AcDbLine
 10
71.865287
 20
152.073697
 11
71.50235600000001
 21
152.726412
  0
LINE
  5
2B9
100
AcDbEntity
  8
boundary
  6
ByLayer
 62
    5
370
   -1
100
AcDbLine
 10
71.50235600000001
 20
152.726412
 11
71.285112
 21
153.200058
  0
LINE
  5
2BA
100
AcDbEntity
  8
boundary
  6
ByLayer
 62
    5
370
   -1
100
AcDbLine
 10
71.285112
 20
153.200058
 11
70.901257
 21
153.852618
  0
LINE
  5
2BB
100
AcDbEntity
  8
boundary
  6
ByLayer
 62
    5
370
   -1
100
AcDbLine
 10
70.901257
 20
153.852618
 11
70.632434
 21
154.326412
  0
LINE
  5
2BC
100
AcDbEntity
  8
boundary
  6
ByLayer
 62
    5
370
   -1
100
AcDbLine
 10
70.632434
 20
154.326412
 11
70.35265
 21
154.912816
  0
LINE
  5
2BD
100
AcDbEntity
  8
boundary
  6
ByLayer
 62
    5
370
   -1
100
AcDbLine
 10
70.35265
 20
154.912816
 11
70.13960299999999
 21
155.452773
  0
LINE
  5
2BE
100
AcDbEntity
  8
boundary
  6
ByLayer
 62
    5
370
   -1
100
AcDbLine
 10
70.13960299999999
 20
155.452773
 11
69.785799
 21
156.10713
  0
LINE
  5
2BF
100
AcDbEntity
  8
boundary
  6
ByLayer
 62
    5
370
   -1
100
AcDbLine
 10
69.785799
 20
156.10713
 11
69.543341
 21
156.579133
  0
LINE
  5
2C0
100
AcDbEntity
  8
boundary
  6
ByLayer
 62
    5
370
   -1
100
AcDbLine
 10
69.543341
 20
156.579133
 11
69.25927799999999
 21
157.254166
  0
LINE
  5
2C1
100
AcDbEntity
  8
boundary
  6
ByLayer
 62
    5
370
   -1
100
AcDbLine
 10
69.25927799999999
 20
157.254166
 11
69.00765199999999
 21
157.90723
  0
LINE
  5
2C2
100
AcDbEntity
  8
boundary
  6
ByLayer
 62
    5
370
   -1
100
AcDbLine
 10
69.00765199999999
 20
157.90723
 11
68.75826499999999
 21
158.457583
  0
LINE
  5
2C3
100
AcDbEntity
  8
boundary
  6
ByLayer
 62
    5
370
   -1
100
AcDbLine
 10
68.75826499999999
 20
158.457583
 11
68.416186
 21
159.212758
  0
LINE
  5
2C4
100
AcDbEntity
  8
boundary
  6
ByLayer
 62
    5
370
   -1
100
AcDbLine
 10
68.416186
 20
159.212758
 11
68.16808
 21
159.958209
  0
LINE
  5
2C5
100
AcDbEntity
  8
boundary
  6
ByLayer
 62
    5
370
   -1
100
AcDbLine
 10
68.16808
 20
159.958209
 11
67.900667
 21
160.885807
  0
LINE
  5
2C6
100
AcDbEntity
  8
boundary
  6
ByLayer
 62
    5
370
   -1
100
AcDbLine
 10
67.900667
 20
160.885807
 11
67.56065
 21
161.750044
  0
LINE
  5
2C7
100
AcDbEntity
  8
boundary
  6
ByLayer
 62
    5
370
   -1
100
AcDbLine
 10
67.56065
 20
161.750044
 11
67.25994900000001
 21
162.575749
  0
LINE
  5
2C8
100
AcDbEntity
  8
boundary
  6
ByLayer
 62
    5
370
   -1
100
AcDbLine
 10
67.25994900000001
 20
162.575749
 11
67.06011100000001
 21
163.33729
  0
LINE
  5
2C9
100
AcDbEntity
  8
boundary
  6
ByLayer
 62
    5
370
   -1
100
AcDbLine
 10
67.06011100000001
 20
163.33729
 11
66.935406
 21
163.832164
  0
LINE
  5
2CA
100
AcDbEntity
  8
boundary
  6
ByLayer
 62
    5
370
   -1
100
AcDbLine
 10
66.935406
 20
163.832164
 11
66.794922
 21
164.463645
  0
LINE
  5
2CB
100
AcDbEntity
  8
boundary
  6
ByLayer
 62
    5
370
   -1
100
AcDbLine
 10
66.794922
 20
164.463645
 11
66.54692300000001
 21
165.263179
  0
LINE
  5
2CC
100
AcDbEntity
  8
boundary
  6
ByLayer
 62
    5
370
   -1
100
AcDbLine
 10
66.54692300000001
 20
165.263179
 11
66.30584
 21
166.119744
  0
LINE
  5
2CD
100
AcDbEntity
  8
boundary
  6
ByLayer
 62
    5
370
   -1
100
AcDbLine
 10
66.30584
 20
166.119744
 11
66.163297
 21
166.716366
  0
LINE
  5
2CE
100
AcDbEntity
  8
boundary
  6
ByLayer
 62
    5
370
   -1
100
AcDbLine
 10
66.163297
 20
166.716366
 11
66.013447
 21
167.586107
  0
LINE
  5
2CF
100
AcDbEntity
  8
boundary
  6
ByLayer
 62
    5
370
   -1
100
AcDbLine
 10
66.013447
 20
167.586107
 11
65.89526600000001
 21
168.2908
  0
LINE
  5
2D0
100
AcDbEntity
  8
boundary
  6
ByLayer
 62
    5
370
   -1
100
AcDbLine
 10
65.89526600000001
 20
168.2908
 11
65.79065799999999
 21
168.969081
  0
LINE
  5
2D1
100
AcDbEntity
  8
boundary
  6
ByLayer
 62
    5
370
   -1
100
AcDbLine
 10
65.79065799999999
 20
168.969081
 11
65.675449
 21
169.921725
  0
LINE
  5
2D2
100
AcDbEntity
  8
boundary
  6
ByLayer
 62
    5
370
   -1
100
AcDbLine
 10
65.675449
 20
169.921725
 11
65.548665
 21
170.648369
  0
LINE
  5
2D3
100
AcDbEntity
  8
boundary
  6
ByLayer
 62
    5
370
   -1
100
AcDbLine
 10
65.548665
 20
170.648369
 11
65.408648
 21
171.221802
  0
LINE
  5
2D4
100
AcDbEntity
  8
boundary
  6
ByLayer
 62
    5
370
   -1
100
AcDbLine
 10
65.408648
 20
171.221802
 11
65.321701
 21
171.884659
  0
LINE
  5
2D5
100
AcDbEntity
  8
boundary
  6
ByLayer
 62
    5
370
   -1
100
AcDbLine
 10
65.321701
 20
171.884659
 11
65.219872
 21
172.907318
  0
LINE
  5
2D6
100
AcDbEntity
  8
boundary
  6
ByLayer
 62
    5
370
   -1
100
AcDbLine
 10
65.219872
 20
172.907318
 11
65.174795
 21
173.474517
  0
LINE
  5
2D7
100
AcDbEntity
  8
boundary
  6
ByLayer
 62
    5
370
   -1
100
AcDbLine
 10
65.174795
 20
173.474517
 11
65.128553
 21
174.114816
  0
LINE
  5
2D8
100
AcDbEntity
  8
boundary
  6
ByLayer
 62
    5
370
   -1
100
AcDbLine
 10
65.128553
 20
174.114816
 11
65.078812
 21
175.045742
  0
LINE
  5
2D9
100
AcDbEntity
  8
boundary
  6
ByLayer
 62
    5
370
   -1
100
AcDbLine
 10
65.078812
 20
175.045742
 11
65.058525
 21
175.727232
  0
LINE
  5
2DA
100
AcDbEntity
  8
boundary
  6
ByLayer
 62
    5
370
   -1
100
AcDbLine
 10
65.058525
 20
175.727232
 11
65.04277999999999
 21
176.42832
  0
LINE
  5
2DB
100
AcDbEntity
  8
boundary
  6
ByLayer
 62
    5
370
   -1
100
AcDbLine
 10
65.04277999999999
 20
176.42832
 11
65.032792
 21
177.270983
  0
LINE
  5
2DC
100
AcDbEntity
  8
boundary
  6
ByLayer
 62
    5
370
   -1
100
AcDbLine
 10
65.032792
 20
177.270983
 11
65.032979
 21
177.979953
  0
LINE
  5
2DD
100
AcDbEntity
  8
boundary
  6
ByLayer
 62
    5
370
   -1
100
AcDbLine
 10
65.032979
 20
177.979953
 11
65.04941599999999
 21
178.680443
  0
LINE
  5
2DE
100
AcDbEntity
  8
boundary
  6
ByLayer
 62
    5
370
   -1
100
AcDbLine
 10
65.04941599999999
 20
178.680443
 11
65.075689
 21
179.553536
  0
LINE
  5
2DF
100
AcDbEntity
  8
boundary
  6
ByLayer
 62
    5
370
   -1
100
AcDbLine
 10
65.075689
 20
179.553536
 11
65.09833999999999
 21
180.232668
  0
LINE
  5
2E0
100
AcDbEntity
  8
boundary
  6
ByLayer
 62
    5
370
   -1
100
AcDbLine
 10
65.09833999999999
 20
180.232668
 11
65.144229
 21
180.86844
  0
LINE
  5
2E1
100
AcDbEntity
  8
boundary
  6
ByLayer
 62
    5
370
   -1
100
AcDbLine
 10
65.144229
 20
180.86844
 11
65.225431
 21
181.920786
  0
LINE
  5
2E2
100
AcDbEntity
  8
boundary
  6
ByLayer
 62
    5
370
   -1
100
AcDbLine
 10
65.225431
 20
181.920786
 11
65.270668
 21
182.485383
  0
LINE
  5
2E3
100
AcDbEntity
  8
boundary
  6
ByLayer
 62
    5
370
   -1
100
AcDbLine
 10
65.270668
 20
182.485383
 11
65.36408299999999
 21
183.231791
  0
LINE
  5
2E4
100
AcDbEntity
  8
boundary
  6
ByLayer
 62
    5
370
   -1
100
AcDbLine
 10
65.36408299999999
 20
183.231791
 11
65.45377499999999
 21
183.872088
  0
LINE
  5
2E5
100
AcDbEntity
  8
boundary
  6
ByLayer
 62
    5
370
   -1
100
AcDbLine
 10
65.45377499999999
 20
183.872088
 11
65.59647699999999
 21
184.646882
  0
LINE
  5
2E6
100
AcDbEntity
  8
boundary
  6
ByLayer
 62
    5
370
   -1
100
AcDbLine
 10
65.59647699999999
 20
184.646882
 11
65.34366300000001
 21
185.41923
  0
LINE
  5
2E7
100
AcDbEntity
  8
boundary
  6
ByLayer
 62
    5
370
   -1
100
AcDbLine
 10
65.34366300000001
 20
185.41923
 11
65.04455400000001
 21
186.23208
  0
LINE
  5
2E8
100
AcDbEntity
  8
boundary
  6
ByLayer
 62
    5
370
   -1
100
AcDbLine
 10
65.04455400000001
 20
186.23208
 11
64.818938
 21
186.990825
  0
LINE
  5
2E9
100
AcDbEntity
  8
boundary
  6
ByLayer
 62
    5
370
   -1
100
AcDbLine
 10
64.818938
 20
186.990825
 11
64.560953
 21
187.908109
  0
LINE
  5
2EA
100
AcDbEntity
  8
boundary
  6
ByLayer
 62
    5
370
   -1
100
AcDbLine
 10
64.560953
 20
187.908109
 11
64.210488
 21
188.776952
  0
LINE
  5
2EB
100
AcDbEntity
  8
boundary
  6
ByLayer
 62
    5
370
   -1
100
AcDbLine
 10
64.210488
 20
188.776952
 11
63.898106
 21
189.605958
  0
LINE
  5
2EC
100
AcDbEntity
  8
boundary
  6
ByLayer
 62
    5
370
   -1
100
AcDbLine
 10
63.898106
 20
189.605958
 11
63.755883
 21
190.102319
  0
LINE
  5
2ED
100
AcDbEntity
  8
boundary
  6
ByLayer
 62
    5
370
   -1
100
AcDbLine
 10
63.755883
 20
190.102319
 11
63.473703
 21
190.611366
  0
LINE
  5
2EE
100
AcDbEntity
  8
boundary
  6
ByLayer
 62
    5
370
   -1
100
AcDbLine
 10
63.473703
 20
190.611366
 11
62.796768
 21
191.18099
  0
LINE
  5
2EF
100
AcDbEntity
  8
boundary
  6
ByLayer
 62
    5
370
   -1
100
AcDbLine
 10
62.796768
 20
191.18099
 11
62.39028
 21
191.496255
  0
LINE
  5
2F0
100
AcDbEntity
  8
boundary
  6
ByLayer
 62
    5
370
   -1
100
AcDbLine
 10
62.39028
 20
191.496255
 11
61.850434
 21
191.496255
  0
LINE
  5
2F1
100
AcDbEntity
  8
boundary
  6
ByLayer
 62
    5
370
   -1
100
AcDbLine
 10
61.850434
 20
191.496255
 11
61.087603
 21
191.210756
  0
LINE
  5
2F2
100
AcDbEntity
  8
boundary
  6
ByLayer
 62
    5
370
   -1
100
AcDbLine
 10
61.087603
 20
191.210756
 11
60.258543
 21
190.814098
  0
LINE
  5
2F3
100
AcDbEntity
  8
boundary
  6
ByLayer
 62
    5
370
   -1
100
AcDbLine
 10
60.258543
 20
190.814098
 11
59.710877
 21
190.539483
  0
LINE
  5
2F4
100
AcDbEntity
  8
boundary
  6
ByLayer
 62
    5
370
   -1
100
AcDbLine
 10
59.710877
 20
190.539483
 11
59.110433
 21
190.21421
  0
LINE
  5
2F5
100
AcDbEntity
  8
boundary
  6
ByLayer
 62
    5
370
   -1
100
AcDbLine
 10
59.110433
 20
190.21421
 11
58.421504
 21
189.796897
  0
LINE
  5
2F6
100
AcDbEntity
  8
boundary
  6
ByLayer
 62
    5
370
   -1
100
AcDbLine
 10
58.421504
 20
189.796897
 11
57.741804
 21
189.458683
  0
LINE
  5
2F7
100
AcDbEntity
  8
boundary
  6
ByLayer
 62
    5
370
   -1
100
AcDbLine
 10
57.741804
 20
189.458683
 11
57.060855
 21
189.05719
  0
LINE
  5
2F8
100
AcDbEntity
  8
boundary
  6
ByLayer
 62
    5
370
   -1
100
AcDbLine
 10
57.060855
 20
189.05719
 11
56.27477
 21
188.592244
  0
LINE
  5
2F9
100
AcDbEntity
  8
boundary
  6
ByLayer
 62
    5
370
   -1
100
AcDbLine
 10
56.27477
 20
188.592244
 11
55.721235
 21
188.332044
  0
LINE
  5
2FA
100
AcDbEntity
  8
boundary
  6
ByLayer
 62
    5
370
   -1
100
AcDbLine
 10
55.721235
 20
188.332044
 11
54.906447
 21
187.83661
  0
LINE
  5
2FB
100
AcDbEntity
  8
boundary
  6
ByLayer
 62
    5
370
   -1
100
AcDbLine
 10
54.906447
 20
187.83661
 11
54.396007
 21
187.534848
  0
LINE
  5
2FC
100
AcDbEntity
  8
boundary
  6
ByLayer
 62
    5
370
   -1
100
AcDbLine
 10
54.396007
 20
187.534848
 11
53.424267
 21
186.990825
  0
LINE
  5
2FD
100
AcDbEntity
  8
boundary
  6
ByLayer
 62
    5
370
   -1
100
AcDbLine
 10
53.424267
 20
186.990825
 11
52.859779
 21
186.614642
  0
LINE
  5
2FE
100
AcDbEntity
  8
boundary
  6
ByLayer
 62
    5
370
   -1
100
AcDbLine
 10
52.859779
 20
186.614642
 11
52.165476
 21
186.248868
  0
LINE
  5
2FF
100
AcDbEntity
  8
boundary
  6
ByLayer
 62
    5
370
   -1
100
AcDbLine
 10
52.165476
 20
186.248868
 11
51.432365
 21
185.864464
  0
LINE
  5
300
100
AcDbEntity
  8
boundary
  6
ByLayer
 62
    5
370
   -1
100
AcDbLine
 10
51.432365
 20
185.864464
 11
50.565411
 21
185.329574
  0
LINE
  5
301
100
AcDbEntity
  8
boundary
  6
ByLayer
 62
    5
370
   -1
100
AcDbLine
 10
50.565411
 20
185.329574
 11
49.934945
 21
185.007408
  0
LINE
  5
302
100
AcDbEntity
  8
boundary
  6
ByLayer
 62
    5
370
   -1
100
AcDbLine
 10
49.934945
 20
185.007408
 11
49.428393
 21
184.73811
  0
LINE
  5
303
100
AcDbEntity
  8
boundary
  6
ByLayer
 62
    5
370
   -1
100
AcDbLine
 10
49.428393
 20
184.73811
 11
48.819679
 21
184.360546
  0
LINE
  5
304
100
AcDbEntity
  8
boundary
  6
ByLayer
 62
    5
370
   -1
100
AcDbLine
 10
48.819679
 20
184.360546
 11
48.166308
 21
183.993994
  0
LINE
  5
305
100
AcDbEntity
  8
boundary
  6
ByLayer
 62
    5
370
   -1
100
AcDbLine
 10
48.166308
 20
183.993994
 11
47.704412
 21
183.777334
  0
LINE
  5
306
100
AcDbEntity
  8
boundary
  6
ByLayer
 62
    5
370
   -1
100
AcDbLine
 10
47.704412
 20
183.777334
 11
47.061717
 21
183.381694
  0
LINE
  5
307
100
AcDbEntity
  8
boundary
  6
ByLayer
 62
    5
370
   -1
100
AcDbLine
 10
47.061717
 20
183.381694
 11
46.589146
 21
183.099966
  0
LINE
  5
308
100
AcDbEntity
  8
boundary
  6
ByLayer
 62
    5
370
   -1
100
AcDbLine
 10
46.589146
 20
183.099966
 11
46.069588
 21
182.813166
  0
LINE
  5
309
100
AcDbEntity
  8
boundary
  6
ByLayer
 62
    5
370
   -1
100
AcDbLine
 10
46.069588
 20
182.813166
 11
45.47388
 21
182.544454
  0
LINE
  5
30A
100
AcDbEntity
  8
boundary
  6
ByLayer
 62
    5
370
   -1
100
AcDbLine
 10
45.47388
 20
182.544454
 11
44.899625
 21
182.154704
  0
LINE
  5
30B
100
AcDbEntity
  8
boundary
  6
ByLayer
 62
    5
370
   -1
100
AcDbLine
 10
44.899625
 20
182.154704
 11
44.358614
 21
181.830687
  0
LINE
  5
30C
100
AcDbEntity
  8
boundary
  6
ByLayer
 62
    5
370
   -1
100
AcDbLine
 10
44.358614
 20
181.830687
 11
43.504012
 21
181.359028
  0
LINE
  5
30D
100
AcDbEntity
  8
boundary
  6
ByLayer
 62
    5
370
   -1
100
AcDbLine
 10
43.504012
 20
181.359028
 11
42.845846
 21
180.932063
  0
LINE
  5
30E
100
AcDbEntity
  8
boundary
  6
ByLayer
 62
    5
370
   -1
100
AcDbLine
 10
42.845846
 20
180.932063
 11
42.128084
 21
180.558319
  0
LINE
  5
30F
100
AcDbEntity
  8
boundary
  6
ByLayer
 62
    5
370
   -1
100
AcDbLine
 10
42.128084
 20
180.558319
 11
41.505297
 21
180.232668
  0
LINE
  5
310
100
AcDbEntity
  8
boundary
  6
ByLayer
 62
    5
370
   -1
100
AcDbLine
 10
41.505297
 20
180.232668
 11
41.012818
 21
179.928604
  0
LINE
  5
311
100
AcDbEntity
  8
boundary
  6
ByLayer
 62
    5
370
   -1
100
AcDbLine
 10
41.012818
 20
179.928604
 11
40.572533
 21
179.663664
  0
LINE
  5
312
100
AcDbEntity
  8
boundary
  6
ByLayer
 62
    5
370
   -1
100
AcDbLine
 10
40.572533
 20
179.663664
 11
39.897552
 21
179.326864
  0
LINE
  5
313
100
AcDbEntity
  8
boundary
  6
ByLayer
 62
    5
370
   -1
100
AcDbLine
 10
39.897552
 20
179.326864
 11
39.212697
 21
178.924178
  0
LINE
  5
314
100
AcDbEntity
  8
boundary
  6
ByLayer
 62
    5
370
   -1
100
AcDbLine
 10
39.212697
 20
178.924178
 11
38.426978
 21
178.458535
  0
LINE
  5
315
100
AcDbEntity
  8
boundary
  6
ByLayer
 62
    5
370
   -1
100
AcDbLine
 10
38.426978
 20
178.458535
 11
37.88279
 21
178.202864
  0
LINE
  5
316
100
AcDbEntity
  8
boundary
  6
ByLayer
 62
    5
370
   -1
100
AcDbLine
 10
37.88279
 20
178.202864
 11
37.058178
 21
177.705342
  0
LINE
  5
317
100
AcDbEntity
  8
boundary
  6
ByLayer
 62
    5
370
   -1
100
AcDbLine
 10
37.058178
 20
177.705342
 11
36.551753
 21
177.406758
  0
LINE
  5
318
100
AcDbEntity
  8
boundary
  6
ByLayer
 62
    5
370
   -1
100
AcDbLine
 10
36.551753
 20
177.406758
 11
35.565209
 21
176.853598
  0
LINE
  5
319
100
AcDbEntity
  8
boundary
  6
ByLayer
 62
    5
370
   -1
100
AcDbLine
 10
35.565209
 20
176.853598
 11
34.944714
 21
176.459288
  0
LINE
  5
31A
100
AcDbEntity
  8
boundary
  6
ByLayer
 62
    5
370
   -1
100
AcDbLine
 10
34.944714
 20
176.459288
 11
34.321224
 21
176.12013
  0
LINE
  5
31B
100
AcDbEntity
  8
boundary
  6
ByLayer
 62
    5
370
   -1
100
AcDbLine
 10
34.321224
 20
176.12013
 11
33.572594
 21
175.727232
  0
LINE
  5
31C
100
AcDbEntity
  8
boundary
  6
ByLayer
 62
    5
370
   -1
100
AcDbLine
 10
33.572594
 20
175.727232
 11
32.714053
 21
175.197279
  0
LINE
  5
31D
100
AcDbEntity
  8
boundary
  6
ByLayer
 62
    5
370
   -1
100
AcDbLine
 10
32.714053
 20
175.197279
 11
32.090692
 21
174.877724
  0
LINE
  5
31E
100
AcDbEntity
  8
boundary
  6
ByLayer
 62
    5
370
   -1
100
AcDbLine
 10
32.090692
 20
174.877724
 11
31.591382
 21
174.600877
  0
LINE
  5
31F
100
AcDbEntity
  8
boundary
  6
ByLayer
 62
    5
370
   -1
100
AcDbLine
 10
31.591382
 20
174.600877
 11
30.975425
 21
174.202173
  0
LINE
  5
320
100
AcDbEntity
  8
boundary
  6
ByLayer
 62
    5
370
   -1
100
AcDbLine
 10
30.975425
 20
174.202173
 11
30.354266
 21
173.84506
  0
LINE
  5
321
100
AcDbEntity
  8
boundary
  6
ByLayer
 62
    5
370
   -1
100
AcDbLine
 10
30.354266
 20
173.84506
 11
29.860162
 21
173.611683
  0
LINE
  5
322
100
AcDbEntity
  8
boundary
  6
ByLayer
 62
    5
370
   -1
100
AcDbLine
 10
29.860162
 20
173.611683
 11
29.237852
 21
173.218439
  0
LINE
  5
323
100
AcDbEntity
  8
boundary
  6
ByLayer
 62
    5
370
   -1
100
AcDbLine
 10
29.237852
 20
173.218439
 11
28.744896
 21
172.92591
  0
LINE
  5
324
100
AcDbEntity
  8
boundary
  6
ByLayer
 62
    5
370
   -1
100
AcDbLine
 10
28.744896
 20
172.92591
 11
28.291376
 21
172.64673
  0
LINE
  5
325
100
AcDbEntity
  8
boundary
  6
ByLayer
 62
    5
370
   -1
100
AcDbLine
 10
28.291376
 20
172.64673
 11
27.717289
 21
172.348156
  0
LINE
  5
326
100
AcDbEntity
  8
boundary
  6
ByLayer
 62
    5
370
   -1
100
AcDbLine
 10
27.717289
 20
172.348156
 11
27.119813
 21
171.969438
  0
LINE
  5
327
100
AcDbEntity
  8
boundary
  6
ByLayer
 62
    5
370
   -1
100
AcDbLine
 10
27.119813
 20
171.969438
 11
26.514364
 21
171.639624
  0
LINE
  5
328
100
AcDbEntity
  8
boundary
  6
ByLayer
 62
    5
370
   -1
100
AcDbLine
 10
26.514364
 20
171.639624
 11
25.721677
 21
171.221802
  0
LINE
  5
329
100
AcDbEntity
  8
boundary
  6
ByLayer
 62
    5
370
   -1
100
AcDbLine
 10
25.721677
 20
171.221802
 11
24.887964
 21
170.705206
  0
LINE
  5
32A
100
AcDbEntity
  8
boundary
  6
ByLayer
 62
    5
370
   -1
100
AcDbLine
 10
24.887964
 20
170.705206
 11
24.283828
 21
170.391739
  0
LINE
  5
32B
100
AcDbEntity
  8
boundary
  6
ByLayer
 62
    5
370
   -1
100
AcDbLine
 10
24.283828
 20
170.391739
 11
23.721892
 21
170.095441
  0
LINE
  5
32C
100
AcDbEntity
  8
boundary
  6
ByLayer
 62
    5
370
   -1
100
AcDbLine
 10
23.721892
 20
170.095441
 11
23.168565
 21
169.753027
  0
LINE
  5
32D
100
AcDbEntity
  8
boundary
  6
ByLayer
 62
    5
370
   -1
100
AcDbLine
 10
23.168565
 20
169.753027
 11
22.482921
 21
169.366333
  0
LINE
  5
32E
100
AcDbEntity
  8
boundary
  6
ByLayer
 62
    5
370
   -1
100
AcDbLine
 10
22.482921
 20
169.366333
 11
21.876965
 21
169.061343
  0
LINE
  5
32F
100
AcDbEntity
  8
boundary
  6
ByLayer
 62
    5
370
   -1
100
AcDbLine
 10
21.876965
 20
169.061343
 11
21.3915
 21
168.76189
  0
LINE
  5
330
100
AcDbEntity
  8
boundary
  6
ByLayer
 62
    5
370
   -1
100
AcDbLine
 10
21.3915
 20
168.76189
 11
20.938032
 21
168.489608
  0
LINE
  5
331
100
AcDbEntity
  8
boundary
  6
ByLayer
 62
    5
370
   -1
100
AcDbLine
 10
20.938032
 20
168.489608
 11
20.384288
 21
168.183487
  0
LINE
  5
332
100
AcDbEntity
  8
boundary
  6
ByLayer
 62
    5
370
   -1
100
AcDbLine
 10
20.384288
 20
168.183487
 11
19.822766
 21
167.929418
  0
LINE
  5
333
100
AcDbEntity
  8
boundary
  6
ByLayer
 62
    5
370
   -1
100
AcDbLine
 10
19.822766
 20
167.929418
 11
19.232315
 21
167.540992
  0
LINE
  5
334
100
AcDbEntity
  8
boundary
  6
ByLayer
 62
    5
370
   -1
100
AcDbLine
 10
19.232315
 20
167.540992
 11
18.707506
 21
167.231828
  0
LINE
  5
335
100
AcDbEntity
  8
boundary
  6
ByLayer
 62
    5
370
   -1
100
AcDbLine
 10
18.707506
 20
167.231828
 11
17.786017
 21
166.716366
  0
LINE
  5
336
100
AcDbEntity
  8
boundary
  6
ByLayer
 62
    5
370
   -1
100
AcDbLine
 10
17.786017
 20
166.716366
 11
17.182694
 21
166.317749
  0
LINE
  5
337
100
AcDbEntity
  8
boundary
  6
ByLayer
 62
    5
370
   -1
100
AcDbLine
 10
17.182694
 20
166.317749
 11
16.476973
 21
165.94523
  0
LINE
  5
338
100
AcDbEntity
  8
boundary
  6
ByLayer
 62
    5
370
   -1
100
AcDbLine
 10
16.476973
 20
165.94523
 11
15.799192
 21
165.590005
  0
LINE
  5
339
100
AcDbEntity
  8
boundary
  6
ByLayer
 62
    5
370
   -1
100
AcDbLine
 10
15.799192
 20
165.590005
 11
15.361707
 21
165.317763
  0
LINE
  5
33A
100
AcDbEntity
  8
boundary
  6
ByLayer
 62
    5
370
   -1
100
AcDbLine
 10
15.361707
 20
165.317763
 11
14.89932
 21
165.038164
  0
LINE
  5
33B
100
AcDbEntity
  8
boundary
  6
ByLayer
 62
    5
370
   -1
100
AcDbLine
 10
14.89932
 20
165.038164
 11
14.246435
 21
164.709328
  0
LINE
  5
33C
100
AcDbEntity
  8
boundary
  6
ByLayer
 62
    5
370
   -1
100
AcDbLine
 10
14.246435
 20
164.709328
 11
13.787887
 21
164.463645
  0
LINE
  5
33D
100
AcDbEntity
  8
boundary
  6
ByLayer
 62
    5
370
   -1
100
AcDbLine
 10
13.787887
 20
164.463645
 11
13.131175
 21
164.05509
  0
LINE
  5
33E
100
AcDbEntity
  8
boundary
  6
ByLayer
 62
    5
370
   -1
100
AcDbLine
 10
13.131175
 20
164.05509
 11
12.507637
 21
163.706437
  0
LINE
  5
33F
100
AcDbEntity
  8
boundary
  6
ByLayer
 62
    5
370
   -1
100
AcDbLine
 10
12.507637
 20
163.706437
 11
12.015909
 21
163.478593
  0
LINE
  5
340
100
AcDbEntity
  8
boundary
  6
ByLayer
 62
    5
370
   -1
100
AcDbLine
 10
12.015909
 20
163.478593
 11
11.390085
 21
163.085771
  0
LINE
  5
341
100
AcDbEntity
  8
boundary
  6
ByLayer
 62
    5
370
   -1
100
AcDbLine
 10
11.390085
 20
163.085771
 11
10.900642
 21
162.79542
  0
LINE
  5
342
100
AcDbEntity
  8
boundary
  6
ByLayer
 62
    5
370
   -1
100
AcDbLine
 10
10.900642
 20
162.79542
 11
10.440907
 21
162.511792
  0
LINE
  5
343
100
AcDbEntity
  8
boundary
  6
ByLayer
 62
    5
370
   -1
100
AcDbLine
 10
10.440907
 20
162.511792
 11
9.862533000000001
 21
162.210924
  0
LINE
  5
344
100
AcDbEntity
  8
boundary
  6
ByLayer
 62
    5
370
   -1
100
AcDbLine
 10
9.862533000000001
 20
162.210924
 11
9.270709
 21
161.836106
  0
LINE
  5
345
100
AcDbEntity
  8
boundary
  6
ByLayer
 62
    5
370
   -1
100
AcDbLine
 10
9.270709
 20
161.836106
 11
8.670109999999999
 21
161.508939
  0
LINE
  5
346
100
AcDbEntity
  8
boundary
  6
ByLayer
 62
    5
370
   -1
100
AcDbLine
 10
8.670109999999999
 20
161.508939
 11
7.930543
 21
161.084569
  0
LINE
  5
347
100
AcDbEntity
  8
boundary
  6
ByLayer
 62
    5
370
   -1
100
AcDbLine
 10
7.930543
 20
161.084569
 11
7.267608
 21
160.432419
  0
LINE
  5
348
100
AcDbEntity
  8
boundary
  6
ByLayer
 62
    5
370
   -1
100
AcDbLine
 10
7.267608
 20
160.432419
 11
6.890841
 21
159.958209
  0
LINE
  5
349
100
AcDbEntity
  8
boundary
  6
ByLayer
 62
    5
370
   -1
100
AcDbLine
 10
6.890841
 20
159.958209
 11
6.793397
 21
159.414929
  0
LINE
  5
34A
100
AcDbEntity
  8
boundary
  6
ByLayer
 62
    5
370
   -1
100
AcDbLine
 10
6.793397
 20
159.414929
 11
6.687633
 21
158.831854
  0
LINE
  5
34B
100
AcDbEntity
  8
boundary
  6
ByLayer
 62
    5
370
   -1
100
AcDbLine
 10
6.687633
 20
158.831854
 11
6.68763
 21
158.187258
  0
LINE
  5
34C
100
AcDbEntity
  8
boundary
  6
ByLayer
 62
    5
370
   -1
100
AcDbLine
 10
6.68763
 20
158.187258
 11
6.68763
 21
157.22373
  0
LINE
  5
34D
100
AcDbEntity
  8
boundary
  6
ByLayer
 62
    5
370
   -1
100
AcDbLine
 10
6.68763
 20
157.22373
 11
6.687633
 21
156.579133
  0
LINE
  5
34E
100
AcDbEntity
  8
boundary
  6
ByLayer
 62
    5
370
   -1
100
AcDbLine
 10
6.687633
 20
156.579133
 11
6.68763
 21
155.934537
  0
LINE
  5
34F
100
AcDbEntity
  8
boundary
  6
ByLayer
 62
    5
370
   -1
100
AcDbLine
 10
6.68763
 20
155.934537
 11
6.68763
 21
154.971009
  0
LINE
  5
350
100
AcDbEntity
  8
boundary
  6
ByLayer
 62
    5
370
   -1
100
AcDbLine
 10
6.68763
 20
154.971009
 11
6.687633
 21
154.326412
  0
LINE
  5
351
100
AcDbEntity
  8
boundary
  6
ByLayer
 62
    5
370
   -1
100
AcDbLine
 10
6.687633
 20
154.326412
 11
6.68763
 21
153.681822
  0
LINE
  5
352
100
AcDbEntity
  8
boundary
  6
ByLayer
 62
    5
370
   -1
100
AcDbLine
 10
6.68763
 20
153.681822
 11
6.68763
 21
152.718294
  0
LINE
  5
353
100
AcDbEntity
  8
boundary
  6
ByLayer
 62
    5
370
   -1
100
AcDbLine
 10
6.68763
 20
152.718294
 11
6.687632
 21
152.073697
  0
LINE
  5
354
100
AcDbEntity
  8
boundary
  6
ByLayer
 62
    5
370
   -1
100
AcDbLine
 10
6.687632
 20
152.073697
 11
6.68763
 21
151.429107
  0
LINE
  5
355
100
AcDbEntity
  8
boundary
  6
ByLayer
 62
    5
370
   -1
100
AcDbLine
 10
6.68763
 20
151.429107
 11
6.68763
 21
150.465579
  0
LINE
  5
356
100
AcDbEntity
  8
boundary
  6
ByLayer
 62
    5
370
   -1
100
AcDbLine
 10
6.68763
 20
150.465579
 11
6.687632
 21
149.820979
  0
LINE
  5
357
100
AcDbEntity
  8
boundary
  6
ByLayer
 62
    5
370
   -1
100
AcDbLine
 10
6.687632
 20
149.820979
 11
6.68763
 21
149.176384
  0
LINE
  5
358
100
AcDbEntity
  8
boundary
  6
ByLayer
 62
    5
370
   -1
100
AcDbLine
 10
6.68763
 20
149.176384
 11
6.68763
 21
148.212858
  0
LINE
  5
359
100
AcDbEntity
  8
boundary
  6
ByLayer
 62
    5
370
   -1
100
AcDbLine
 10
6.68763
 20
148.212858
 11
6.687632
 21
147.568261
  0
LINE
  5
35A
100
AcDbEntity
  8
boundary
  6
ByLayer
 62
    5
370
   -1
100
AcDbLine
 10
6.687632
 20
147.568261
 11
6.68763
 21
146.923666
  0
LINE
  5
35B
100
AcDbEntity
  8
boundary
  6
ByLayer
 62
    5
370
   -1
100
AcDbLine
 10
6.68763
 20
146.923666
 11
6.68763
 21
145.960143
  0
LINE
  5
35C
100
AcDbEntity
  8
boundary
  6
ByLayer
 62
    5
370
   -1
100
AcDbLine
 10
6.68763
 20
145.960143
 11
6.687633
 21
145.315546
  0
LINE
  5
35D
100
AcDbEntity
  8
boundary
  6
ByLayer
 62
    5
370
   -1
100
AcDbLine
 10
6.687633
 20
145.315546
 11
6.68763
 21
144.670947
  0
LINE
  5
35E
100
AcDbEntity
  8
boundary
  6
ByLayer
 62
    5
370
   -1
100
AcDbLine
 10
6.68763
 20
144.670947
 11
6.68763
 21
143.707422
  0
LINE
  5
35F
100
AcDbEntity
  8
boundary
  6
ByLayer
 62
    5
370
   -1
100
AcDbLine
 10
6.68763
 20
143.707422
 11
6.687633
 21
143.062828
  0
LINE
  5
360
100
AcDbEntity
  8
boundary
  6
ByLayer
 62
    5
370
   -1
100
AcDbLine
 10
6.687633
 20
143.062828
 11
6.68763
 21
142.418232
  0
LINE
  5
361
100
AcDbEntity
  8
boundary
  6
ByLayer
 62
    5
370
   -1
100
AcDbLine
 10
6.68763
 20
142.418232
 11
6.68763
 21
141.454704
  0
LINE
  5
362
100
AcDbEntity
  8
boundary
  6
ByLayer
 62
    5
370
   -1
100
AcDbLine
 10
6.68763
 20
141.454704
 11
6.687633
 21
140.810107
  0
LINE
  5
363
100
AcDbEntity
  8
boundary
  6
ByLayer
 62
    5
370
   -1
100
AcDbLine
 10
6.687633
 20
140.810107
 11
6.68763
 21
140.165514
  0
LINE
  5
364
100
AcDbEntity
  8
boundary
  6
ByLayer
 62
    5
370
   -1
100
AcDbLine
 10
6.68763
 20
140.165514
 11
6.68763
 21
139.201988
  0
LINE
  5
365
100
AcDbEntity
  8
boundary
  6
ByLayer
 62
    5
370
   -1
100
AcDbLine
 10
6.68763
 20
139.201988
 11
6.687633
 21
138.557392
  0
LINE
  5
366
100
AcDbEntity
  8
boundary
  6
ByLayer
 62
    5
370
   -1
100
AcDbLine
 10
6.687633
 20
138.557392
 11
6.68763
 21
137.912796
  0
LINE
  5
367
100
AcDbEntity
  8
boundary
  6
ByLayer
 62
    5
370
   -1
100
AcDbLine
 10
6.68763
 20
137.912796
 11
6.68763
 21
136.94927
  0
LINE
  5
368
100
AcDbEntity
  8
boundary
  6
ByLayer
 62
    5
370
   -1
100
AcDbLine
 10
6.68763
 20
136.94927
 11
6.687633
 21
136.304674
  0
LINE
  5
369
100
AcDbEntity
  8
boundary
  6
ByLayer
 62
    5
370
   -1
100
AcDbLine
 10
6.687633
 20
136.304674
 11
6.68763
 21
135.660078
  0
LINE
  5
36A
100
AcDbEntity
  8
boundary
  6
ByLayer
 62
    5
370
   -1
100
AcDbLine
 10
6.68763
 20
135.660078
 11
6.68763
 21
134.69655
  0
LINE
  5
36B
100
AcDbEntity
  8
boundary
  6
ByLayer
 62
    5
370
   -1
100
AcDbLine
 10
6.68763
 20
134.69655
 11
6.687633
 21
134.051956
  0
LINE
  5
36C
100
AcDbEntity
  8
boundary
  6
ByLayer
 62
    5
370
   -1
100
AcDbLine
 10
6.687633
 20
134.051956
 11
6.68763
 21
133.40736
  0
LINE
  5
36D
100
AcDbEntity
  8
boundary
  6
ByLayer
 62
    5
370
   -1
100
AcDbLine
 10
6.68763
 20
133.40736
 11
6.68763
 21
132.443835
  0
LINE
  5
36E
100
AcDbEntity
  8
boundary
  6
ByLayer
 62
    5
370
   -1
100
AcDbLine
 10
6.68763
 20
132.443835
 11
6.687632
 21
131.799238
  0
LINE
  5
36F
100
AcDbEntity
  8
boundary
  6
ByLayer
 62
    5
370
   -1
100
AcDbLine
 10
6.687632
 20
131.799238
 11
6.68763
 21
131.154642
  0
LINE
  5
370
100
AcDbEntity
  8
boundary
  6
ByLayer
 62
    5
370
   -1
100
AcDbLine
 10
6.68763
 20
131.154642
 11
6.68763
 21
130.191116
  0
LINE
  5
371
100
AcDbEntity
  8
boundary
  6
ByLayer
 62
    5
370
   -1
100
AcDbLine
 10
6.68763
 20
130.191116
 11
6.687633
 21
129.54652
  0
LINE
  5
372
100
AcDbEntity
  8
boundary
  6
ByLayer
 62
    5
370
   -1
100
AcDbLine
 10
6.687633
 20
129.54652
 11
6.68763
 21
128.901926
  0
LINE
  5
373
100
AcDbEntity
  8
boundary
  6
ByLayer
 62
    5
370
   -1
100
AcDbLine
 10
6.68763
 20
128.901926
 11
6.68763
 21
127.938398
  0
LINE
  5
374
100
AcDbEntity
  8
boundary
  6
ByLayer
 62
    5
370
   -1
100
AcDbLine
 10
6.68763
 20
127.938398
 11
6.687632
 21
127.293802
  0
LINE
  5
375
100
AcDbEntity
  8
boundary
  6
ByLayer
 62
    5
370
   -1
100
AcDbLine
 10
6.687632
 20
127.293802
 11
6.68763
 21
126.649207
  0
LINE
  5
376
100
AcDbEntity
  8
boundary
  6
ByLayer
 62
    5
370
   -1
100
AcDbLine
 10
6.68763
 20
126.649207
 11
6.68763
 21
125.685681
  0
LINE
  5
377
100
AcDbEntity
  8
boundary
  6
ByLayer
 62
    5
370
   -1
100
AcDbLine
 10
6.68763
 20
125.685681
 11
6.687633
 21
125.041085
  0
LINE
  5
378
100
AcDbEntity
  8
boundary
  6
ByLayer
 62
    5
370
   -1
100
AcDbLine
 10
6.687633
 20
125.041085
 11
6.68763
 21
124.39649
  0
LINE
  5
379
100
AcDbEntity
  8
boundary
  6
ByLayer
 62
    5
370
   -1
100
AcDbLine
 10
6.68763
 20
124.39649
 11
6.68763
 21
123.432963
  0
LINE
  5
37A
100
AcDbEntity
  8
boundary
  6
ByLayer
 62
    5
370
   -1
100
AcDbLine
 10
6.68763
 20
123.432963
 11
6.687633
 21
122.788368
  0
LINE
  5
37B
100
AcDbEntity
  8
boundary
  6
ByLayer
 62
    5
370
   -1
100
AcDbLine
 10
6.687633
 20
122.788368
 11
6.68763
 21
122.143772
  0
LINE
  5
37C
100
AcDbEntity
  8
boundary
  6
ByLayer
 62
    5
370
   -1
100
AcDbLine
 10
6.68763
 20
122.143772
 11
6.68757
 21
121.180312
  0
LINE
  5
37D
100
AcDbEntity
  8
boundary
  6
ByLayer
 62
    5
370
   -1
100
AcDbLine
 10
6.68757
 20
121.180312
 11
6.687486
 21
120.53565
  0
LINE
  5
37E
100
AcDbEntity
  8
boundary
  6
ByLayer
 62
    5
370
   -1
100
AcDbLine
 10
6.687486
 20
120.53565
 11
6.675673
 21
119.875206
  0
LINE
  5
37F
100
AcDbEntity
  8
boundary
  6
ByLayer
 62
    5
370
   -1
100
AcDbLine
 10
6.675673
 20
119.875206
 11
6.6675
 21
118.952238
  0
LINE
  5
380
100
AcDbEntity
  8
boundary
  6
ByLayer
 62
    5
370
   -1
100
AcDbLine
 10
6.6675
 20
118.952238
 11
6.667505
 21
118.282932
  0
LINE
  5
381
100
AcDbEntity
  8
boundary
  6
ByLayer
 62
    5
370
   -1
100
AcDbLine
 10
6.667505
 20
118.282932
 11
6.6675
 21
117.613624
  0
LINE
  5
382
100
AcDbEntity
  8
boundary
  6
ByLayer
 62
    5
370
   -1
100
AcDbLine
 10
6.6675
 20
117.613624
 11
6.6675
 21
116.699522
  0
LINE
  5
383
100
AcDbEntity
  8
boundary
  6
ByLayer
 62
    5
370
   -1
100
AcDbLine
 10
6.6675
 20
116.699522
 11
6.667505
 21
116.030214
  0
LINE
  5
384
100
AcDbEntity
  8
boundary
  6
ByLayer
 62
    5
370
   -1
100
AcDbLine
 10
6.667505
 20
116.030214
 11
6.6675
 21
115.360907
  0
LINE
  5
385
100
AcDbEntity
  8
boundary
  6
ByLayer
 62
    5
370
   -1
100
AcDbLine
 10
6.6675
 20
115.360907
 11
6.6675
 21
114.446803
  0
LINE
  5
386
100
AcDbEntity
  8
boundary
  6
ByLayer
 62
    5
370
   -1
100
AcDbLine
 10
6.6675
 20
114.446803
 11
6.667505
 21
113.777496
  0
LINE
  5
387
100
AcDbEntity
  8
boundary
  6
ByLayer
 62
    5
370
   -1
100
AcDbLine
 10
6.667505
 20
113.777496
 11
6.6675
 21
113.108189
  0
LINE
  5
388
100
AcDbEntity
  8
boundary
  6
ByLayer
 62
    5
370
   -1
100
AcDbLine
 10
6.6675
 20
113.108189
 11
6.6675
 21
112.194086
  0
LINE
  5
389
100
AcDbEntity
  8
boundary
  6
ByLayer
 62
    5
370
   -1
100
AcDbLine
 10
6.6675
 20
112.194086
 11
6.667505
 21
111.524779
  0
LINE
  5
38A
100
AcDbEntity
  8
boundary
  6
ByLayer
 62
    5
370
   -1
100
AcDbLine
 10
6.667505
 20
111.524779
 11
6.6675
 21
110.855472
  0
LINE
  5
38B
100
AcDbEntity
  8
boundary
  6
ByLayer
 62
    5
370
   -1
100
AcDbLine
 10
6.6675
 20
110.855472
 11
6.6675
 21
109.941368
  0
LINE
  5
38C
100
AcDbEntity
  8
boundary
  6
ByLayer
 62
    5
370
   -1
100
AcDbLine
 10
6.6675
 20
109.941368
 11
6.667505
 21
109.272061
  0
LINE
  5
38D
100
AcDbEntity
  8
boundary
  6
ByLayer
 62
    5
370
   -1
100
AcDbLine
 10
6.667505
 20
109.272061
 11
6.6675
 21
108.602753
  0
LINE
  5
38E
100
AcDbEntity
  8
boundary
  6
ByLayer
 62
    5
370
   -1
100
AcDbLine
 10
6.6675
 20
108.602753
 11
6.6675
 21
107.688651
  0
LINE
  5
38F
100
AcDbEntity
  8
boundary
  6
ByLayer
 62
    5
370
   -1
100
AcDbLine
 10
6.6675
 20
107.688651
 11
6.667505
 21
107.019343
  0
LINE
  5
390
100
AcDbEntity
  8
boundary
  6
ByLayer
 62
    5
370
   -1
100
AcDbLine
 10
6.667505
 20
107.019343
 11
6.6675
 21
106.350035
  0
LINE
  5
391
100
AcDbEntity
  8
boundary
  6
ByLayer
 62
    5
370
   -1
100
AcDbLine
 10
6.6675
 20
106.350035
 11
6.6675
 21
105.435933
  0
LINE
  5
392
100
AcDbEntity
  8
boundary
  6
ByLayer
 62
    5
370
   -1
100
AcDbLine
 10
6.6675
 20
105.435933
 11
6.667505
 21
104.766625
  0
LINE
  5
393
100
AcDbEntity
  8
boundary
  6
ByLayer
 62
    5
370
   -1
100
AcDbLine
 10
6.667505
 20
104.766625
 11
6.6675
 21
104.097318
  0
LINE
  5
394
100
AcDbEntity
  8
boundary
  6
ByLayer
 62
    5
370
   -1
100
AcDbLine
 10
6.6675
 20
104.097318
 11
6.6675
 21
103.183215
  0
LINE
  5
395
100
AcDbEntity
  8
boundary
  6
ByLayer
 62
    5
370
   -1
100
AcDbLine
 10
6.6675
 20
103.183215
 11
6.667505
 21
102.513907
  0
LINE
  5
396
100
AcDbEntity
  8
boundary
  6
ByLayer
 62
    5
370
   -1
100
AcDbLine
 10
6.667505
 20
102.513907
 11
6.6675
 21
101.8446
  0
LINE
  5
397
100
AcDbEntity
  8
boundary
  6
ByLayer
 62
    5
370
   -1
100
AcDbLine
 10
6.6675
 20
101.8446
 11
6.6675
 21
100.930497
  0
LINE
  5
398
100
AcDbEntity
  8
boundary
  6
ByLayer
 62
    5
370
   -1
100
AcDbLine
 10
6.6675
 20
100.930497
 11
6.667505
 21
100.26119
  0
LINE
  5
399
100
AcDbEntity
  8
boundary
  6
ByLayer
 62
    5
370
   -1
100
AcDbLine
 10
6.667505
 20
100.26119
 11
6.6675
 21
99.591883
  0
LINE
  5
39A
100
AcDbEntity
  8
boundary
  6
ByLayer
 62
    5
370
   -1
100
AcDbLine
 10
6.6675
 20
99.591883
 11
6.6675
 21
98.677779
  0
LINE
  5
39B
100
AcDbEntity
  8
boundary
  6
ByLayer
 62
    5
370
   -1
100
AcDbLine
 10
6.6675
 20
98.677779
 11
6.667505
 21
98.008472
  0
LINE
  5
39C
100
AcDbEntity
  8
boundary
  6
ByLayer
 62
    5
370
   -1
100
AcDbLine
 10
6.667505
 20
98.008472
 11
6.6675
 21
97.33916499999999
  0
LINE
  5
39D
100
AcDbEntity
  8
boundary
  6
ByLayer
 62
    5
370
   -1
100
AcDbLine
 10
6.6675
 20
97.33916499999999
 11
6.6675
 21
96.425061
  0
LINE
  5
39E
100
AcDbEntity
  8
boundary
  6
ByLayer
 62
    5
370
   -1
100
AcDbLine
 10
6.6675
 20
96.425061
 11
6.667505
 21
95.755754
  0
LINE
  5
39F
100
AcDbEntity
  8
boundary
  6
ByLayer
 62
    5
370
   -1
100
AcDbLine
 10
6.667505
 20
95.755754
 11
6.6675
 21
95.08644700000001
  0
LINE
  5
3A0
100
AcDbEntity
  8
boundary
  6
ByLayer
 62
    5
370
   -1
100
AcDbLine
 10
6.6675
 20
95.08644700000001
 11
6.6675
 21
94.172343
  0
LINE
  5
3A1
100
AcDbEntity
  8
boundary
  6
ByLayer
 62
    5
370
   -1
100
AcDbLine
 10
6.6675
 20
94.172343
 11
6.667505
 21
93.50303700000001
  0
LINE
  5
3A2
100
AcDbEntity
  8
boundary
  6
ByLayer
 62
    5
370
   -1
100
AcDbLine
 10
6.667505
 20
93.50303700000001
 11
6.6675
 21
92.83373
  0
LINE
  5
3A3
100
AcDbEntity
  8
boundary
  6
ByLayer
 62
    5
370
   -1
100
AcDbLine
 10
6.6675
 20
92.83373
 11
6.6675
 21
91.919625
  0
LINE
  5
3A4
100
AcDbEntity
  8
boundary
  6
ByLayer
 62
    5
370
   -1
100
AcDbLine
 10
6.6675
 20
91.919625
 11
6.667505
 21
91.250319
  0
LINE
  5
3A5
100
AcDbEntity
  8
boundary
  6
ByLayer
 62
    5
370
   -1
100
AcDbLine
 10
6.667505
 20
91.250319
 11
6.6675
 21
90.581012
  0
LINE
  5
3A6
100
AcDbEntity
  8
boundary
  6
ByLayer
 62
    5
370
   -1
100
AcDbLine
 10
6.6675
 20
90.581012
 11
6.6675
 21
89.66690800000001
  0
LINE
  5
3A7
100
AcDbEntity
  8
boundary
  6
ByLayer
 62
    5
370
   -1
100
AcDbLine
 10
6.6675
 20
89.66690800000001
 11
6.667505
 21
88.997601
  0
LINE
  5
3A8
100
AcDbEntity
  8
boundary
  6
ByLayer
 62
    5
370
   -1
100
AcDbLine
 10
6.667505
 20
88.997601
 11
6.6675
 21
88.328294
  0
LINE
  5
3A9
100
AcDbEntity
  8
boundary
  6
ByLayer
 62
    5
370
   -1
100
AcDbLine
 10
6.6675
 20
88.328294
 11
6.6675
 21
87.414191
  0
LINE
  5
3AA
100
AcDbEntity
  8
boundary
  6
ByLayer
 62
    5
370
   -1
100
AcDbLine
 10
6.6675
 20
87.414191
 11
6.667505
 21
86.744882
  0
LINE
  5
3AB
100
AcDbEntity
  8
boundary
  6
ByLayer
 62
    5
370
   -1
100
AcDbLine
 10
6.667505
 20
86.744882
 11
6.6675
 21
86.075575
  0
LINE
  5
3AC
100
AcDbEntity
  8
boundary
  6
ByLayer
 62
    5
370
   -1
100
AcDbLine
 10
6.6675
 20
86.075575
 11
6.6675
 21
85.161473
  0
LINE
  5
3AD
100
AcDbEntity
  8
boundary
  6
ByLayer
 62
    5
370
   -1
100
AcDbLine
 10
6.6675
 20
85.161473
 11
6.667505
 21
84.492165
  0
LINE
  5
3AE
100
AcDbEntity
  8
boundary
  6
ByLayer
 62
    5
370
   -1
100
AcDbLine
 10
6.667505
 20
84.492165
 11
6.6675
 21
83.82285899999999
  0
LINE
  5
3AF
100
AcDbEntity
  8
boundary
  6
ByLayer
 62
    5
370
   -1
100
AcDbLine
 10
6.6675
 20
83.82285899999999
 11
6.6675
 21
82.908755
  0
LINE
  5
3B0
100
AcDbEntity
  8
boundary
  6
ByLayer
 62
    5
370
   -1
100
AcDbLine
 10
6.6675
 20
82.908755
 11
6.667505
 21
82.239448
  0
LINE
  5
3B1
100
AcDbEntity
  8
boundary
  6
ByLayer
 62
    5
370
   -1
100
AcDbLine
 10
6.667505
 20
82.239448
 11
6.6675
 21
81.57014100000001
  0
LINE
  5
3B2
100
AcDbEntity
  8
boundary
  6
ByLayer
 62
    5
370
   -1
100
AcDbLine
 10
6.6675
 20
81.57014100000001
 11
6.6675
 21
80.656037
  0
LINE
  5
3B3
100
AcDbEntity
  8
boundary
  6
ByLayer
 62
    5
370
   -1
100
AcDbLine
 10
6.6675
 20
80.656037
 11
6.667505
 21
79.98672999999999
  0
LINE
  5
3B4
100
AcDbEntity
  8
boundary
  6
ByLayer
 62
    5
370
   -1
100
AcDbLine
 10
6.667505
 20
79.98672999999999
 11
6.778998
 21
79.441288
  0
LINE
  5
3B5
100
AcDbEntity
  8
boundary
  6
ByLayer
 62
    5
370
   -1
100
AcDbLine
 10
6.778998
 20
79.441288
 11
6.893212
 21
78.860371
  0
LINE
  5
3B6
100
AcDbEntity
  8
boundary
  6
ByLayer
 62
    5
370
   -1
100
AcDbLine
 10
6.893212
 20
78.860371
 11
7.205397
 21
78.23260999999999
  0
LINE
  5
3B7
100
AcDbEntity
  8
boundary
  6
ByLayer
 62
    5
370
   -1
100
AcDbLine
 10
7.205397
 20
78.23260999999999
 11
7.426531
 21
77.73401200000001
  0
LINE
  5
3B8
100
AcDbEntity
  8
boundary
  6
ByLayer
 62
    5
370
   -1
100
AcDbLine
 10
7.426531
 20
77.73401200000001
 11
7.867215
 21
77.139625
  0
LINE
  5
3B9
100
AcDbEntity
  8
boundary
  6
ByLayer
 62
    5
370
   -1
100
AcDbLine
 10
7.867215
 20
77.139625
 11
8.242940000000001
 21
76.607653
  0
LINE
  5
3BA
100
AcDbEntity
  8
boundary
  6
ByLayer
 62
    5
370
   -1
100
AcDbLine
 10
8.242940000000001
 20
76.607653
 11
8.670109999999999
 21
75.965653
  0
LINE
  5
3BB
100
AcDbEntity
  8
boundary
  6
ByLayer
 62
    5
370
   -1
100
AcDbLine
 10
8.670109999999999
 20
75.965653
 11
9.019219
 21
75.481296
  0
LINE
  5
3BC
100
AcDbEntity
  8
boundary
  6
ByLayer
 62
    5
370
   -1
100
AcDbLine
 10
9.019219
 20
75.481296
 11
9.424393
 21
74.89581200000001
  0
LINE
  5
3BD
100
AcDbEntity
  8
boundary
  6
ByLayer
 62
    5
370
   -1
100
AcDbLine
 10
9.424393
 20
74.89581200000001
 11
9.721826999999999
 21
74.354934
  0
LINE
  5
3BE
100
AcDbEntity
  8
boundary
  6
ByLayer
 62
    5
370
   -1
100
AcDbLine
 10
9.721826999999999
 20
74.354934
 11
10.273283
 21
73.65357299999999
  0
LINE
  5
3BF
100
AcDbEntity
  8
boundary
  6
ByLayer
 62
    5
370
   -1
100
AcDbLine
 10
10.273283
 20
73.65357299999999
 11
10.573868
 21
73.228576
  0
LINE
  5
3C0
100
AcDbEntity
  8
boundary
  6
ByLayer
 62
    5
370
   -1
100
AcDbLine
 10
10.573868
 20
73.228576
 11
10.900642
 21
72.731708
  0
LINE
  5
3C1
100
AcDbEntity
  8
boundary
  6
ByLayer
 62
    5
370
   -1
100
AcDbLine
 10
10.900642
 20
72.731708
 11
11.350912
 21
72.102216
  0
LINE
  5
3C2
100
AcDbEntity
  8
boundary
  6
ByLayer
 62
    5
370
   -1
100
AcDbLine
 10
11.350912
 20
72.102216
 11
11.708096
 21
71.62208
  0
LINE
  5
3C3
100
AcDbEntity
  8
boundary
  6
ByLayer
 62
    5
370
   -1
100
AcDbLine
 10
11.708096
 20
71.62208
 11
12.015908
 21
71.126305
  0
LINE
  5
3C4
100
AcDbEntity
  8
boundary
  6
ByLayer
 62
    5
370
   -1
100
AcDbLine
 10
12.015908
 20
71.126305
 11
12.506587
 21
70.475134
  0
LINE
  5
3C5
100
AcDbEntity
  8
boundary
  6
ByLayer
 62
    5
370
   -1
100
AcDbLine
 10
12.506587
 20
70.475134
 11
12.892259
 21
69.849501
  0
LINE
  5
3C6
100
AcDbEntity
  8
boundary
  6
ByLayer
 62
    5
370
   -1
100
AcDbLine
 10
12.892259
 20
69.849501
 11
13.353021
 21
69.195446
  0
LINE
  5
3C7
100
AcDbEntity
  8
boundary
  6
ByLayer
 62
    5
370
   -1
100
AcDbLine
 10
13.353021
 20
69.195446
 11
13.691312
 21
68.723141
  0
LINE
  5
3C8
100
AcDbEntity
  8
boundary
  6
ByLayer
 62
    5
370
   -1
100
AcDbLine
 10
13.691312
 20
68.723141
 11
14.246435
 21
67.89947600000001
  0
LINE
  5
3C9
100
AcDbEntity
  8
boundary
  6
ByLayer
 62
    5
370
   -1
100
AcDbLine
 10
14.246435
 20
67.89947600000001
 11
14.791245
 21
67.160124
  0
LINE
  5
3CA
100
AcDbEntity
  8
boundary
  6
ByLayer
 62
    5
370
   -1
100
AcDbLine
 10
14.791245
 20
67.160124
 11
15.200911
 21
66.470426
  0
LINE
  5
3CB
100
AcDbEntity
  8
boundary
  6
ByLayer
 62
    5
370
   -1
100
AcDbLine
 10
15.200911
 20
66.470426
 11
15.654375
 21
65.86459600000001
  0
LINE
  5
3CC
100
AcDbEntity
  8
boundary
  6
ByLayer
 62
    5
370
   -1
100
AcDbLine
 10
15.654375
 20
65.86459600000001
 11
16.025298
 21
65.34406199999999
  0
LINE
  5
3CD
100
AcDbEntity
  8
boundary
  6
ByLayer
 62
    5
370
   -1
100
AcDbLine
 10
16.025298
 20
65.34406199999999
 11
16.476973
 21
64.666973
  0
LINE
  5
3CE
100
AcDbEntity
  8
boundary
  6
ByLayer
 62
    5
370
   -1
100
AcDbLine
 10
16.476973
 20
64.666973
 11
16.801484
 21
64.217704
  0
LINE
  5
3CF
100
AcDbEntity
  8
boundary
  6
ByLayer
 62
    5
370
   -1
100
AcDbLine
 10
16.801484
 20
64.217704
 11
17.221357
 21
63.61272
  0
LINE
  5
3D0
100
AcDbEntity
  8
boundary
  6
ByLayer
 62
    5
370
   -1
100
AcDbLine
 10
17.221357
 20
63.61272
 11
17.509658
 21
63.091347
  0
LINE
  5
3D1
100
AcDbEntity
  8
boundary
  6
ByLayer
 62
    5
370
   -1
100
AcDbLine
 10
17.509658
 20
63.091347
 11
17.958023
 21
62.526807
  0
LINE
  5
3D2
100
AcDbEntity
  8
boundary
  6
ByLayer
 62
    5
370
   -1
100
AcDbLine
 10
17.958023
 20
62.526807
 11
18.358345
 21
61.964987
  0
LINE
  5
3D3
100
AcDbEntity
  8
boundary
  6
ByLayer
 62
    5
370
   -1
100
AcDbLine
 10
18.358345
 20
61.964987
 11
18.707506
 21
61.434844
  0
LINE
  5
3D4
100
AcDbEntity
  8
boundary
  6
ByLayer
 62
    5
370
   -1
100
AcDbLine
 10
18.707506
 20
61.434844
 11
19.133677
 21
60.838629
  0
LINE
  5
3D5
100
AcDbEntity
  8
boundary
  6
ByLayer
 62
    5
370
   -1
100
AcDbLine
 10
19.133677
 20
60.838629
 11
19.50651
 21
60.339921
  0
LINE
  5
3D6
100
AcDbEntity
  8
boundary
  6
ByLayer
 62
    5
370
   -1
100
AcDbLine
 10
19.50651
 20
60.339921
 11
19.822766
 21
59.829376
  0
LINE
  5
3D7
100
AcDbEntity
  8
boundary
  6
ByLayer
 62
    5
370
   -1
100
AcDbLine
 10
19.822766
 20
59.829376
 11
20.302464
 21
59.1959
  0
LINE
  5
3D8
100
AcDbEntity
  8
boundary
  6
ByLayer
 62
    5
370
   -1
100
AcDbLine
 10
20.302464
 20
59.1959
 11
20.68131
 21
58.585911
  0
LINE
  5
3D9
100
AcDbEntity
  8
boundary
  6
ByLayer
 62
    5
370
   -1
100
AcDbLine
 10
20.68131
 20
58.585911
 11
21.144094
 21
57.919534
  0
LINE
  5
3DA
100
AcDbEntity
  8
boundary
  6
ByLayer
 62
    5
370
   -1
100
AcDbLine
 10
21.144094
 20
57.919534
 11
21.473913
 21
57.459553
  0
LINE
  5
3DB
100
AcDbEntity
  8
boundary
  6
ByLayer
 62
    5
370
   -1
100
AcDbLine
 10
21.473913
 20
57.459553
 11
22.053299
 21
56.601479
  0
LINE
  5
3DC
100
AcDbEntity
  8
boundary
  6
ByLayer
 62
    5
370
   -1
100
AcDbLine
 10
22.053299
 20
56.601479
 11
22.585473
 21
55.882019
  0
LINE
  5
3DD
100
AcDbEntity
  8
boundary
  6
ByLayer
 62
    5
370
   -1
100
AcDbLine
 10
22.585473
 20
55.882019
 11
22.988786
 21
55.206833
  0
LINE
  5
3DE
100
AcDbEntity
  8
boundary
  6
ByLayer
 62
    5
370
   -1
100
AcDbLine
 10
22.988786
 20
55.206833
 11
23.443448
 21
54.589781
  0
LINE
  5
3DF
100
AcDbEntity
  8
boundary
  6
ByLayer
 62
    5
370
   -1
100
AcDbLine
 10
23.443448
 20
54.589781
 11
23.806254
 21
54.080475
  0
LINE
  5
3E0
100
AcDbEntity
  8
boundary
  6
ByLayer
 62
    5
370
   -1
100
AcDbLine
 10
23.806254
 20
54.080475
 11
24.283828
 21
53.366438
  0
LINE
  5
3E1
100
AcDbEntity
  8
boundary
  6
ByLayer
 62
    5
370
   -1
100
AcDbLine
 10
24.283828
 20
53.366438
 11
24.582543
 21
52.954118
  0
LINE
  5
3E2
100
AcDbEntity
  8
boundary
  6
ByLayer
 62
    5
370
   -1
100
AcDbLine
 10
24.582543
 20
52.954118
 11
25.017843
 21
52.329599
  0
LINE
  5
3E3
100
AcDbEntity
  8
boundary
  6
ByLayer
 62
    5
370
   -1
100
AcDbLine
 10
25.017843
 20
52.329599
 11
25.297483
 21
51.82776
  0
LINE
  5
3E4
100
AcDbEntity
  8
boundary
  6
ByLayer
 62
    5
370
   -1
100
AcDbLine
 10
25.297483
 20
51.82776
 11
25.747555
 21
51.254006
  0
LINE
  5
3E5
100
AcDbEntity
  8
boundary
  6
ByLayer
 62
    5
370
   -1
100
AcDbLine
 10
25.747555
 20
51.254006
 11
26.141921
 21
50.7014
  0
LINE
  5
3E6
100
AcDbEntity
  8
boundary
  6
ByLayer
 62
    5
370
   -1
100
AcDbLine
 10
26.141921
 20
50.7014
 11
26.514363
 21
50.138509
  0
LINE
  5
3E7
100
AcDbEntity
  8
boundary
  6
ByLayer
 62
    5
370
   -1
100
AcDbLine
 10
26.514363
 20
50.138509
 11
26.918332
 21
49.575039
  0
LINE
  5
3E8
100
AcDbEntity
  8
boundary
  6
ByLayer
 62
    5
370
   -1
100
AcDbLine
 10
26.918332
 20
49.575039
 11
27.305429
 21
49.059531
  0
LINE
  5
3E9
100
AcDbEntity
  8
boundary
  6
ByLayer
 62
    5
370
   -1
100
AcDbLine
 10
27.305429
 20
49.059531
 11
27.629627
 21
48.534862
  0
LINE
  5
3EA
100
AcDbEntity
  8
boundary
  6
ByLayer
 62
    5
370
   -1
100
AcDbLine
 10
27.629627
 20
48.534862
 11
28.099266
 21
47.917189
  0
LINE
  5
3EB
100
AcDbEntity
  8
boundary
  6
ByLayer
 62
    5
370
   -1
100
AcDbLine
 10
28.099266
 20
47.917189
 11
28.471333
 21
47.322321
  0
LINE
  5
3EC
100
AcDbEntity
  8
boundary
  6
ByLayer
 62
    5
370
   -1
100
AcDbLine
 10
28.471333
 20
47.322321
 11
28.933183
 21
46.643114
  0
LINE
  5
3ED
100
AcDbEntity
  8
boundary
  6
ByLayer
 62
    5
370
   -1
100
AcDbLine
 10
28.933183
 20
46.643114
 11
29.248904
 21
46.195967
  0
LINE
  5
3EE
100
AcDbEntity
  8
boundary
  6
ByLayer
 62
    5
370
   -1
100
AcDbLine
 10
29.248904
 20
46.195967
 11
29.570686
 21
45.75867
  0
LINE
  5
3EF
100
AcDbEntity
  8
boundary
  6
ByLayer
 62
    5
370
   -1
100
AcDbLine
 10
29.570686
 20
45.75867
 11
29.860162
 21
45.294986
  0
LINE
  5
3F0
100
AcDbEntity
  8
boundary
  6
ByLayer
 62
    5
370
   -1
100
AcDbLine
 10
29.860162
 20
45.294986
 11
30.376613
 21
44.603132
  0
LINE
  5
3F1
100
AcDbEntity
  8
boundary
  6
ByLayer
 62
    5
370
   -1
100
AcDbLine
 10
30.376613
 20
44.603132
 11
30.777776
 21
43.943246
  0
LINE
  5
3F2
100
AcDbEntity
  8
boundary
  6
ByLayer
 62
    5
370
   -1
100
AcDbLine
 10
30.777776
 20
43.943246
 11
31.234603
 21
43.315944
  0
LINE
  5
3F3
100
AcDbEntity
  8
boundary
  6
ByLayer
 62
    5
370
   -1
100
AcDbLine
 10
31.234603
 20
43.315944
 11
31.591396
 21
42.816885
  0
LINE
  5
3F4
100
AcDbEntity
  8
boundary
  6
ByLayer
 62
    5
370
   -1
100
AcDbLine
 10
31.591396
 20
42.816885
 11
32.090691
 21
42.071627
  0
LINE
  5
3F5
100
AcDbEntity
  8
boundary
  6
ByLayer
 62
    5
370
   -1
100
AcDbLine
 10
32.090691
 20
42.071627
 11
32.664407
 21
41.284108
  0
LINE
  5
3F6
100
AcDbEntity
  8
boundary
  6
ByLayer
 62
    5
370
   -1
100
AcDbLine
 10
32.664407
 20
41.284108
 11
32.949818
 21
40.788341
  0
LINE
  5
3F7
100
AcDbEntity
  8
boundary
  6
ByLayer
 62
    5
370
   -1
100
AcDbLine
 10
32.949818
 20
40.788341
 11
33.536012
 21
39.98032
  0
LINE
  5
3F8
100
AcDbEntity
  8
boundary
  6
ByLayer
 62
    5
370
   -1
100
AcDbLine
 10
33.536012
 20
39.98032
 11
33.922519
 21
39.437809
  0
LINE
  5
3F9
100
AcDbEntity
  8
boundary
  6
ByLayer
 62
    5
370
   -1
100
AcDbLine
 10
33.922519
 20
39.437809
 11
34.321224
 21
38.836828
  0
LINE
  5
3FA
100
AcDbEntity
  8
boundary
  6
ByLayer
 62
    5
370
   -1
100
AcDbLine
 10
34.321224
 20
38.836828
 11
34.698806
 21
38.311455
  0
LINE
  5
3FB
100
AcDbEntity
  8
boundary
  6
ByLayer
 62
    5
370
   -1
100
AcDbLine
 10
34.698806
 20
38.311455
 11
35.102786
 21
37.776489
  0
LINE
  5
3FC
100
AcDbEntity
  8
boundary
  6
ByLayer
 62
    5
370
   -1
100
AcDbLine
 10
35.102786
 20
37.776489
 11
35.436487
 21
37.235344
  0
LINE
  5
3FD
100
AcDbEntity
  8
boundary
  6
ByLayer
 62
    5
370
   -1
100
AcDbLine
 10
35.436487
 20
37.235344
 11
35.894847
 21
36.635849
  0
LINE
  5
3FE
100
AcDbEntity
  8
boundary
  6
ByLayer
 62
    5
370
   -1
100
AcDbLine
 10
35.894847
 20
36.635849
 11
36.25911
 21
36.058734
  0
LINE
  5
3FF
100
AcDbEntity
  8
boundary
  6
ByLayer
 62
    5
370
   -1
100
AcDbLine
 10
36.25911
 20
36.058734
 11
36.551753
 21
35.600917
  0
LINE
  5
400
100
AcDbEntity
  8
boundary
  6
ByLayer
 62
    5
370
   -1
100
AcDbLine
 10
36.551753
 20
35.600917
 11
37.032275
 21
34.932373
  0
LINE
  5
401
100
AcDbEntity
  8
boundary
  6
ByLayer
 62
    5
370
   -1
100
AcDbLine
 10
37.032275
 20
34.932373
 11
37.369793
 21
34.476621
  0
LINE
  5
402
100
AcDbEntity
  8
boundary
  6
ByLayer
 62
    5
370
   -1
100
AcDbLine
 10
37.369793
 20
34.476621
 11
37.66702
 21
34.000167
  0
LINE
  5
403
100
AcDbEntity
  8
boundary
  6
ByLayer
 62
    5
370
   -1
100
AcDbLine
 10
37.66702
 20
34.000167
 11
38.172658
 21
33.325438
  0
LINE
  5
404
100
AcDbEntity
  8
boundary
  6
ByLayer
 62
    5
370
   -1
100
AcDbLine
 10
38.172658
 20
33.325438
 11
38.567175
 21
32.679659
  0
LINE
  5
405
100
AcDbEntity
  8
boundary
  6
ByLayer
 62
    5
370
   -1
100
AcDbLine
 10
38.567175
 20
32.679659
 11
39.025312
 21
32.04117
  0
LINE
  5
406
100
AcDbEntity
  8
boundary
  6
ByLayer
 62
    5
370
   -1
100
AcDbLine
 10
39.025312
 20
32.04117
 11
39.374099
 21
31.553298
  0
LINE
  5
407
100
AcDbEntity
  8
boundary
  6
ByLayer
 62
    5
370
   -1
100
AcDbLine
 10
39.374099
 20
31.553298
 11
39.897552
 21
30.774114
  0
LINE
  5
408
100
AcDbEntity
  8
boundary
  6
ByLayer
 62
    5
370
   -1
100
AcDbLine
 10
39.897552
 20
30.774114
 11
40.458844
 21
30.008049
  0
LINE
  5
409
100
AcDbEntity
  8
boundary
  6
ByLayer
 62
    5
370
   -1
100
AcDbLine
 10
40.458844
 20
30.008049
 11
40.729713
 21
29.540531
  0
LINE
  5
40A
100
AcDbEntity
  8
boundary
  6
ByLayer
 62
    5
370
   -1
100
AcDbLine
 10
40.729713
 20
29.540531
 11
41.012818
 21
29.097317
  0
LINE
  5
40B
100
AcDbEntity
  8
boundary
  6
ByLayer
 62
    5
370
   -1
100
AcDbLine
 10
41.012818
 20
29.097317
 11
41.707661
 21
28.174223
  0
LINE
  5
40C
100
AcDbEntity
  8
boundary
  6
ByLayer
 62
    5
370
   -1
100
AcDbLine
 10
41.707661
 20
28.174223
 11
42.128084
 21
27.541753
  0
LINE
  5
40D
100
AcDbEntity
  8
boundary
  6
ByLayer
 62
    5
370
   -1
100
AcDbLine
 10
42.128084
 20
27.541753
 11
42.483666
 21
27.047862
  0
LINE
  5
40E
100
AcDbEntity
  8
boundary
  6
ByLayer
 62
    5
370
   -1
100
AcDbLine
 10
42.483666
 20
27.047862
 11
42.8849
 21
26.467429
  0
LINE
  5
40F
100
AcDbEntity
  8
boundary
  6
ByLayer
 62
    5
370
   -1
100
AcDbLine
 10
42.8849
 20
26.467429
 11
43.184653
 21
25.921508
  0
LINE
  5
410
100
AcDbEntity
  8
boundary
  6
ByLayer
 62
    5
370
   -1
100
AcDbLine
 10
43.184653
 20
25.921508
 11
43.670915
 21
25.330414
  0
LINE
  5
411
100
AcDbEntity
  8
boundary
  6
ByLayer
 62
    5
370
   -1
100
AcDbLine
 10
43.670915
 20
25.330414
 11
44.037052
 21
24.795147
  0
LINE
  5
412
100
AcDbEntity
  8
boundary
  6
ByLayer
 62
    5
370
   -1
100
AcDbLine
 10
44.037052
 20
24.795147
 11
44.358614
 21
24.306288
  0
LINE
  5
413
100
AcDbEntity
  8
boundary
  6
ByLayer
 62
    5
370
   -1
100
AcDbLine
 10
44.358614
 20
24.306288
 11
44.814908
 21
23.668787
  0
LINE
  5
414
100
AcDbEntity
  8
boundary
  6
ByLayer
 62
    5
370
   -1
100
AcDbLine
 10
44.814908
 20
23.668787
 11
45.168193
 21
23.193431
  0
LINE
  5
415
100
AcDbEntity
  8
boundary
  6
ByLayer
 62
    5
370
   -1
100
AcDbLine
 10
45.168193
 20
23.193431
 11
45.47388
 21
22.701545
  0
LINE
  5
416
100
AcDbEntity
  8
boundary
  6
ByLayer
 62
    5
370
   -1
100
AcDbLine
 10
45.47388
 20
22.701545
 11
45.967528
 21
22.045817
  0
LINE
  5
417
100
AcDbEntity
  8
boundary
  6
ByLayer
 62
    5
370
   -1
100
AcDbLine
 10
45.967528
 20
22.045817
 11
46.35506
 21
21.416066
  0
LINE
  5
418
100
AcDbEntity
  8
boundary
  6
ByLayer
 62
    5
370
   -1
100
AcDbLine
 10
46.35506
 20
21.416066
 11
46.81515
 21
20.765148
  0
LINE
  5
419
100
AcDbEntity
  8
boundary
  6
ByLayer
 62
    5
370
   -1
100
AcDbLine
 10
46.81515
 20
20.765148
 11
47.155392
 21
20.289711
  0
LINE
  5
41A
100
AcDbEntity
  8
boundary
  6
ByLayer
 62
    5
370
   -1
100
AcDbLine
 10
47.155392
 20
20.289711
 11
47.704413
 21
19.474615
  0
LINE
  5
41B
100
AcDbEntity
  8
boundary
  6
ByLayer
 62
    5
370
   -1
100
AcDbLine
 10
47.704413
 20
19.474615
 11
48.252454
 21
18.730324
  0
LINE
  5
41C
100
AcDbEntity
  8
boundary
  6
ByLayer
 62
    5
370
   -1
100
AcDbLine
 10
48.252454
 20
18.730324
 11
48.663785
 21
18.03699
  0
LINE
  5
41D
100
AcDbEntity
  8
boundary
  6
ByLayer
 62
    5
370
   -1
100
AcDbLine
 10
48.663785
 20
18.03699
 11
49.117064
 21
17.434041
  0
LINE
  5
41E
100
AcDbEntity
  8
boundary
  6
ByLayer
 62
    5
370
   -1
100
AcDbLine
 10
49.117064
 20
17.434041
 11
49.490195
 21
16.91063
  0
LINE
  5
41F
100
AcDbEntity
  8
boundary
  6
ByLayer
 62
    5
370
   -1
100
AcDbLine
 10
49.490195
 20
16.91063
 11
49.934945
 21
16.243598
  0
LINE
  5
420
100
AcDbEntity
  8
boundary
  6
ByLayer
 62
    5
370
   -1
100
AcDbLine
 10
49.934945
 20
16.243598
 11
50.26649
 21
15.784275
  0
LINE
  5
421
100
AcDbEntity
  8
boundary
  6
ByLayer
 62
    5
370
   -1
100
AcDbLine
 10
50.26649
 20
15.784275
 11
50.682136
 21
15.184704
  0
LINE
  5
422
100
AcDbEntity
  8
boundary
  6
ByLayer
 62
    5
370
   -1
100
AcDbLine
 10
50.682136
 20
15.184704
 11
50.972857
 21
14.657915
  0
LINE
  5
423
100
AcDbEntity
  8
boundary
  6
ByLayer
 62
    5
370
   -1
100
AcDbLine
 10
50.972857
 20
14.657915
 11
51.413463
 21
14.104758
  0
LINE
  5
424
100
AcDbEntity
  8
boundary
  6
ByLayer
 62
    5
370
   -1
100
AcDbLine
 10
51.413463
 20
14.104758
 11
51.82278
 21
13.53156
  0
LINE
  5
425
100
AcDbEntity
  8
boundary
  6
ByLayer
 62
    5
370
   -1
100
AcDbLine
 10
51.82278
 20
13.53156
 11
52.165476
 21
13.010786
  0
LINE
  5
426
100
AcDbEntity
  8
boundary
  6
ByLayer
 62
    5
370
   -1
100
AcDbLine
 10
52.165476
 20
13.010786
 11
52.598205
 21
12.4052
  0
LINE
  5
427
100
AcDbEntity
  8
boundary
  6
ByLayer
 62
    5
370
   -1
100
AcDbLine
 10
52.598205
 20
12.4052
 11
52.966878
 21
11.911689
  0
LINE
  5
428
100
AcDbEntity
  8
boundary
  6
ByLayer
 62
    5
370
   -1
100
AcDbLine
 10
52.966878
 20
11.911689
 11
53.280741
 21
11.405694
  0
LINE
  5
429
100
AcDbEntity
  8
boundary
  6
ByLayer
 62
    5
370
   -1
100
AcDbLine
 10
53.280741
 20
11.405694
 11
53.763736
 21
10.767387
  0
LINE
  5
42A
100
AcDbEntity
  8
boundary
  6
ByLayer
 62
    5
370
   -1
100
AcDbLine
 10
53.763736
 20
10.767387
 11
54.144964
 21
10.152479
  0
LINE
  5
42B
100
AcDbEntity
  8
boundary
  6
ByLayer
 62
    5
370
   -1
100
AcDbLine
 10
54.144964
 20
10.152479
 11
54.607373
 21
9.490330999999999
  0
LINE
  5
42C
100
AcDbEntity
  8
boundary
  6
ByLayer
 62
    5
370
   -1
100
AcDbLine
 10
54.607373
 20
9.490330999999999
 11
54.940389
 21
9.026118
  0
LINE
  5
42D
100
AcDbEntity
  8
boundary
  6
ByLayer
 62
    5
370
   -1
100
AcDbLine
 10
54.940389
 20
9.026118
 11
55.511273
 21
8.190416000000001
  0
LINE
  5
42E
100
AcDbEntity
  8
boundary
  6
ByLayer
 62
    5
370
   -1
100
AcDbLine
 10
55.511273
 20
8.190416000000001
 11
56.115886
 21
7.580418
  0
LINE
  5
42F
100
AcDbEntity
  8
boundary
  6
ByLayer
 62
    5
370
   -1
100
AcDbLine
 10
56.115886
 20
7.580418
 11
56.62654
 21
7.122576
  0
LINE
  5
430
100
AcDbEntity
  8
boundary
  6
ByLayer
 62
    5
370
   -1
100
AcDbLine
 10
56.62654
 20
7.122576
 11
57.424542
 21
6.773409
  0
LINE
  5
431
100
AcDbEntity
  8
boundary
  6
ByLayer
 62
    5
370
   -1
100
AcDbLine
 10
57.424542
 20
6.773409
 11
58.702318
 21
6.670592
  0
LINE
  5
432
100
AcDbEntity
  8
boundary
  6
ByLayer
 62
    5
370
   -1
100
AcDbLine
 10
58.702318
 20
6.670592
 11
59.817583
 21
6.670592
  0
LINE
  5
433
100
AcDbEntity
  8
boundary
  6
ByLayer
 62
    5
370
   -1
100
AcDbLine
 10
59.817583
 20
6.670592
 11
60.93285
 21
6.670592
  0
LINE
  5
434
100
AcDbEntity
  8
boundary
  6
ByLayer
 62
    5
370
   -1
100
AcDbLine
 10
60.93285
 20
6.670592
 11
62.048115
 21
6.670592
  0
LINE
  5
435
100
AcDbEntity
  8
boundary
  6
ByLayer
 62
    5
370
   -1
100
AcDbLine
 10
62.048115
 20
6.670592
 11
63.16338
 21
6.670592
  0
LINE
  5
436
100
AcDbEntity
  8
boundary
  6
ByLayer
 62
    5
370
   -1
100
AcDbLine
 10
63.16338
 20
6.670592
 11
64.27864700000001
 21
6.670592
  0
LINE
  5
437
100
AcDbEntity
  8
boundary
  6
ByLayer
 62
    5
370
   -1
100
AcDbLine
 10
64.27864700000001
 20
6.670592
 11
65.393895
 21
6.67058
  0
LINE
  5
438
100
AcDbEntity
  8
boundary
  6
ByLayer
 62
    5
370
   -1
100
AcDbLine
 10
65.393895
 20
6.67058
 11
66.509033
 21
6.670484
  0
LINE
  5
439
100
AcDbEntity
  8
boundary
  6
ByLayer
 62
    5
370
   -1
100
AcDbLine
 10
66.509033
 20
6.670484
 11
67.62363999999999
 21
6.669992
  0
LINE
  5
43A
100
AcDbEntity
  8
boundary
  6
ByLayer
 62
    5
370
   -1
100
AcDbLine
 10
67.62363999999999
 20
6.669992
 11
68.73651700000001
 21
6.668189
  0
LINE
  5
43B
100
AcDbEntity
  8
boundary
  6
ByLayer
 62
    5
370
   -1
100
AcDbLine
 10
68.73651700000001
 20
6.668189
 11
69.85113
 21
6.667558
  0
LINE
  5
43C
100
AcDbEntity
  8
boundary
  6
ByLayer
 62
    5
370
   -1
100
AcDbLine
 10
69.85113
 20
6.667558
 11
70.96635499999999
 21
6.6675
  0
LINE
  5
43D
100
AcDbEntity
  8
boundary
  6
ByLayer
 62
    5
370
   -1
100
AcDbLine
 10
70.96635499999999
 20
6.6675
 11
72.081621
 21
6.6675
  0
LINE
  5
43E
100
AcDbEntity
  8
boundary
  6
ByLayer
 62
    5
370
   -1
100
AcDbLine
 10
72.081621
 20
6.6675
 11
73.196887
 21
6.6675
  0
LINE
  5
43F
100
AcDbEntity
  8
boundary
  6
ByLayer
 62
    5
370
   -1
100
AcDbLine
 10
73.196887
 20
6.6675
 11
74.312153
 21
6.6675
  0
LINE
  5
440
100
AcDbEntity
  8
boundary
  6
ByLayer
 62
    5
370
   -1
100
AcDbLine
 10
74.312153
 20
6.6675
 11
75.427418
 21
6.6675
  0
LINE
  5
441
100
AcDbEntity
  8
boundary
  6
ByLayer
 62
    5
370
   -1
100
AcDbLine
 10
75.427418
 20
6.6675
 11
76.54268399999999
 21
6.6675
  0
LINE
  5
442
100
AcDbEntity
  8
boundary
  6
ByLayer
 62
    5
370
   -1
100
AcDbLine
 10
76.54268399999999
 20
6.6675
 11
77.65795
 21
6.6675
  0
LINE
  5
443
100
AcDbEntity
  8
boundary
  6
ByLayer
 62
    5
370
   -1
100
AcDbLine
 10
77.65795
 20
6.6675
 11
78.77321600000001
 21
6.6675
  0
LINE
  5
444
100
AcDbEntity
  8
boundary
  6
ByLayer
 62
    5
370
   -1
100
AcDbLine
 10
78.77321600000001
 20
6.6675
 11
79.888481
 21
6.6675
  0
LINE
  5
445
100
AcDbEntity
  8
boundary
  6
ByLayer
 62
    5
370
   -1
100
AcDbLine
 10
79.888481
 20
6.6675
 11
81.003747
 21
6.6675
  0
LINE
  5
446
100
AcDbEntity
  8
boundary
  6
ByLayer
 62
    5
370
   -1
100
AcDbLine
 10
81.003747
 20
6.6675
 11
82.119013
 21
6.6675
  0
LINE
  5
447
100
AcDbEntity
  8
boundary
  6
ByLayer
 62
    5
370
   -1
100
AcDbLine
 10
82.119013
 20
6.6675
 11
83.234279
 21
6.6675
  0
LINE
  5
448
100
AcDbEntity
  8
boundary
  6
ByLayer
 62
    5
370
   -1
100
AcDbLine
 10
83.234279
 20
6.6675
 11
84.34954500000001
 21
6.6675
  0
LINE
  5
449
100
AcDbEntity
  8
boundary
  6
ByLayer
 62
    5
370
   -1
100
AcDbLine
 10
84.34954500000001
 20
6.6675
 11
85.46481
 21
6.6675
  0
LINE
  5
44A
100
AcDbEntity
  8
boundary
  6
ByLayer
 62
    5
370
   -1
100
AcDbLine
 10
85.46481
 20
6.6675
 11
86.58007600000001
 21
6.6675
  0
LINE
  5
44B
100
AcDbEntity
  8
boundary
  6
ByLayer
 62
    5
370
   -1
100
AcDbLine
 10
86.58007600000001
 20
6.6675
 11
87.695341
 21
6.6675
  0
LINE
  5
44C
100
AcDbEntity
  8
boundary
  6
ByLayer
 62
    5
370
   -1
100
AcDbLine
 10
87.695341
 20
6.6675
 11
88.810608
 21
6.6675
  0
LINE
  5
44D
100
AcDbEntity
  8
boundary
  6
ByLayer
 62
    5
370
   -1
100
AcDbLine
 10
88.810608
 20
6.6675
 11
89.92587399999999
 21
6.6675
  0
LINE
  5
44E
100
AcDbEntity
  8
boundary
  6
ByLayer
 62
    5
370
   -1
100
AcDbLine
 10
89.92587399999999
 20
6.6675
 11
91.041139
 21
6.6675
  0
LINE
  5
44F
100
AcDbEntity
  8
boundary
  6
ByLayer
 62
    5
370
   -1
100
AcDbLine
 10
91.041139
 20
6.6675
 11
92.15640500000001
 21
6.6675
  0
LINE
  5
450
100
AcDbEntity
  8
boundary
  6
ByLayer
 62
    5
370
   -1
100
AcDbLine
 10
92.15640500000001
 20
6.6675
 11
93.271671
 21
6.6675
  0
LINE
  5
451
100
AcDbEntity
  8
boundary
  6
ByLayer
 62
    5
370
   -1
100
AcDbLine
 10
93.271671
 20
6.6675
 11
94.386937
 21
6.6675
  0
LINE
  5
452
100
AcDbEntity
  8
boundary
  6
ByLayer
 62
    5
370
   -1
100
AcDbLine
 10
94.386937
 20
6.6675
 11
95.502202
 21
6.6675
  0
LINE
  5
453
100
AcDbEntity
  8
boundary
  6
ByLayer
 62
    5
370
   -1
100
AcDbLine
 10
95.502202
 20
6.6675
 11
96.617468
 21
6.6675
  0
LINE
  5
454
100
AcDbEntity
  8
boundary
  6
ByLayer
 62
    5
370
   -1
100
AcDbLine
 10
96.617468
 20
6.6675
 11
97.175111
 21
6.773409
  0
LINE
  5
455
100
AcDbEntity
  8
boundary
  6
ByLayer
 62
    5
370
   -1
100
AcDbLine
 10
97.175111
 20
6.773409
 11
97.891373
 21
7.024946
  0
LINE
  5
456
100
AcDbEntity
  8
boundary
  6
ByLayer
 62
    5
370
   -1
100
AcDbLine
 10
97.891373
 20
7.024946
 11
98.36126
 21
7.307312
  0
LINE
  5
457
100
AcDbEntity
  8
boundary
  6
ByLayer
 62
    5
370
   -1
100
AcDbLine
 10
98.36126
 20
7.307312
 11
99.00663900000001
 21
7.650382
  0
LINE
  5
458
100
AcDbEntity
  8
boundary
  6
ByLayer
 62
    5
370
   -1
100
AcDbLine
 10
99.00663900000001
 20
7.650382
 11
99.65818299999999
 21
8.119567
  0
LINE
  5
459
100
AcDbEntity
  8
boundary
  6
ByLayer
 62
    5
370
   -1
100
AcDbLine
 10
99.65818299999999
 20
8.119567
 11
100.121904
 21
8.471465999999999
  0
LINE
  5
45A
100
AcDbEntity
  8
boundary
  6
ByLayer
 62
    5
370
   -1
100
AcDbLine
 10
100.121904
 20
8.471465999999999
 11
100.888541
 21
9.026118
  0
LINE
  5
45B
100
AcDbEntity
  8
boundary
  6
ByLayer
 62
    5
370
   -1
100
AcDbLine
 10
100.888541
 20
9.026118
 11
101.632446
 21
9.607079000000001
  0
LINE
  5
45C
100
AcDbEntity
  8
boundary
  6
ByLayer
 62
    5
370
   -1
100
AcDbLine
 10
101.632446
 20
9.607079000000001
 11
102.160203
 21
9.932807
  0
LINE
  5
45D
100
AcDbEntity
  8
boundary
  6
ByLayer
 62
    5
370
   -1
100
AcDbLine
 10
102.160203
 20
9.932807
 11
103.049534
 21
10.633284
  0
LINE
  5
45E
100
AcDbEntity
  8
boundary
  6
ByLayer
 62
    5
370
   -1
100
AcDbLine
 10
103.049534
 20
10.633284
 11
103.4677
 21
10.948362
  0
LINE
  5
45F
100
AcDbEntity
  8
boundary
  6
ByLayer
 62
    5
370
   -1
100
AcDbLine
 10
103.4677
 20
10.948362
 11
103.931667
 21
11.278839
  0
LINE
  5
460
100
AcDbEntity
  8
boundary
  6
ByLayer
 62
    5
370
   -1
100
AcDbLine
 10
103.931667
 20
11.278839
 11
104.582969
 21
11.782628
  0
LINE
  5
461
100
AcDbEntity
  8
boundary
  6
ByLayer
 62
    5
370
   -1
100
AcDbLine
 10
104.582969
 20
11.782628
 11
105.003246
 21
12.115319
  0
LINE
  5
462
100
AcDbEntity
  8
boundary
  6
ByLayer
 62
    5
370
   -1
100
AcDbLine
 10
105.003246
 20
12.115319
 11
105.438412
 21
12.4052
  0
LINE
  5
463
100
AcDbEntity
  8
boundary
  6
ByLayer
 62
    5
370
   -1
100
AcDbLine
 10
105.438412
 20
12.4052
 11
106.128785
 21
12.950877
  0
LINE
  5
464
100
AcDbEntity
  8
boundary
  6
ByLayer
 62
    5
370
   -1
100
AcDbLine
 10
106.128785
 20
12.950877
 11
106.568845
 21
13.225289
  0
LINE
  5
465
100
AcDbEntity
  8
boundary
  6
ByLayer
 62
    5
370
   -1
100
AcDbLine
 10
106.568845
 20
13.225289
 11
107.01659
 21
13.53156
  0
LINE
  5
466
100
AcDbEntity
  8
boundary
  6
ByLayer
 62
    5
370
   -1
100
AcDbLine
 10
107.01659
 20
13.53156
 11
107.928765
 21
14.263397
  0
LINE
  5
467
100
AcDbEntity
  8
boundary
  6
ByLayer
 62
    5
370
   -1
100
AcDbLine
 10
107.928765
 20
14.263397
 11
108.481658
 21
14.657915
  0
LINE
  5
468
100
AcDbEntity
  8
boundary
  6
ByLayer
 62
    5
370
   -1
100
AcDbLine
 10
108.481658
 20
14.657915
 11
109.044031
 21
15.085934
  0
LINE
  5
469
100
AcDbEntity
  8
boundary
  6
ByLayer
 62
    5
370
   -1
100
AcDbLine
 10
109.044031
 20
15.085934
 11
109.524633
 21
15.469803
  0
LINE
  5
46A
100
AcDbEntity
  8
boundary
  6
ByLayer
 62
    5
370
   -1
100
AcDbLine
 10
109.524633
 20
15.469803
 11
109.997847
 21
15.784275
  0
LINE
  5
46B
100
AcDbEntity
  8
boundary
  6
ByLayer
 62
    5
370
   -1
100
AcDbLine
 10
109.997847
 20
15.784275
 11
110.629909
 21
16.292302
  0
LINE
  5
46C
100
AcDbEntity
  8
boundary
  6
ByLayer
 62
    5
370
   -1
100
AcDbLine
 10
110.629909
 20
16.292302
 11
111.27456
 21
16.711588
  0
LINE
  5
46D
100
AcDbEntity
  8
boundary
  6
ByLayer
 62
    5
370
   -1
100
AcDbLine
 10
111.27456
 20
16.711588
 11
111.885595
 21
17.189464
  0
LINE
  5
46E
100
AcDbEntity
  8
boundary
  6
ByLayer
 62
    5
370
   -1
100
AcDbLine
 10
111.885595
 20
17.189464
 11
112.389827
 21
17.574517
  0
LINE
  5
46F
100
AcDbEntity
  8
boundary
  6
ByLayer
 62
    5
370
   -1
100
AcDbLine
 10
112.389827
 20
17.574517
 11
113.033204
 21
18.03699
  0
LINE
  5
470
100
AcDbEntity
  8
boundary
  6
ByLayer
 62
    5
370
   -1
100
AcDbLine
 10
113.033204
 20
18.03699
 11
113.505093
 21
18.398651
  0
LINE
  5
471
100
AcDbEntity
  8
boundary
  6
ByLayer
 62
    5
370
   -1
100
AcDbLine
 10
113.505093
 20
18.398651
 11
114.032383
 21
18.825371
  0
LINE
  5
472
100
AcDbEntity
  8
boundary
  6
ByLayer
 62
    5
370
   -1
100
AcDbLine
 10
114.032383
 20
18.825371
 11
114.544123
 21
19.163351
  0
LINE
  5
473
100
AcDbEntity
  8
boundary
  6
ByLayer
 62
    5
370
   -1
100
AcDbLine
 10
114.544123
 20
19.163351
 11
115.130515
 21
19.641434
  0
LINE
  5
474
100
AcDbEntity
  8
boundary
  6
ByLayer
 62
    5
370
   -1
100
AcDbLine
 10
115.130515
 20
19.641434
 11
115.735625
 21
20.041859
  0
LINE
  5
475
100
AcDbEntity
  8
boundary
  6
ByLayer
 62
    5
370
   -1
100
AcDbLine
 10
115.735625
 20
20.041859
 11
116.376031
 21
20.524022
  0
LINE
  5
476
100
AcDbEntity
  8
boundary
  6
ByLayer
 62
    5
370
   -1
100
AcDbLine
 10
116.376031
 20
20.524022
 11
116.850892
 21
20.887003
  0
LINE
  5
477
100
AcDbEntity
  8
boundary
  6
ByLayer
 62
    5
370
   -1
100
AcDbLine
 10
116.850892
 20
20.887003
 11
117.582816
 21
21.416066
  0
LINE
  5
478
100
AcDbEntity
  8
boundary
  6
ByLayer
 62
    5
370
   -1
100
AcDbLine
 10
117.582816
 20
21.416066
 11
118.348763
 21
22.011107
  0
LINE
  5
479
100
AcDbEntity
  8
boundary
  6
ByLayer
 62
    5
370
   -1
100
AcDbLine
 10
118.348763
 20
22.011107
 11
118.915008
 21
22.358547
  0
LINE
  5
47A
100
AcDbEntity
  8
boundary
  6
ByLayer
 62
    5
370
   -1
100
AcDbLine
 10
118.915008
 20
22.358547
 11
119.435326
 21
22.755789
  0
LINE
  5
47B
100
AcDbEntity
  8
boundary
  6
ByLayer
 62
    5
370
   -1
100
AcDbLine
 10
119.435326
 20
22.755789
 11
119.874922
 21
23.124098
  0
LINE
  5
47C
100
AcDbEntity
  8
boundary
  6
ByLayer
 62
    5
370
   -1
100
AcDbLine
 10
119.874922
 20
23.124098
 11
120.423528
 21
23.528245
  0
LINE
  5
47D
100
AcDbEntity
  8
boundary
  6
ByLayer
 62
    5
370
   -1
100
AcDbLine
 10
120.423528
 20
23.528245
 11
120.868849
 21
23.861004
  0
LINE
  5
47E
100
AcDbEntity
  8
boundary
  6
ByLayer
 62
    5
370
   -1
100
AcDbLine
 10
120.868849
 20
23.861004
 11
121.311953
 21
24.202185
  0
LINE
  5
47F
100
AcDbEntity
  8
boundary
  6
ByLayer
 62
    5
370
   -1
100
AcDbLine
 10
121.311953
 20
24.202185
 11
122.125133
 21
24.795147
  0
LINE
  5
480
100
AcDbEntity
  8
boundary
  6
ByLayer
 62
    5
370
   -1
100
AcDbLine
 10
122.125133
 20
24.795147
 11
122.839533
 21
25.35828
  0
LINE
  5
481
100
AcDbEntity
  8
boundary
  6
ByLayer
 62
    5
370
   -1
100
AcDbLine
 10
122.839533
 20
25.35828
 11
123.32218
 21
25.658354
  0
LINE
  5
482
100
AcDbEntity
  8
boundary
  6
ByLayer
 62
    5
370
   -1
100
AcDbLine
 10
123.32218
 20
25.658354
 11
124.111845
 21
26.27433
  0
LINE
  5
483
100
AcDbEntity
  8
boundary
  6
ByLayer
 62
    5
370
   -1
100
AcDbLine
 10
124.111845
 20
26.27433
 11
124.657752
 21
26.691214
  0
LINE
  5
484
100
AcDbEntity
  8
boundary
  6
ByLayer
 62
    5
370
   -1
100
AcDbLine
 10
124.657752
 20
26.691214
 11
125.157545
 21
27.047862
  0
LINE
  5
485
100
AcDbEntity
  8
boundary
  6
ByLayer
 62
    5
370
   -1
100
AcDbLine
 10
125.157545
 20
27.047862
 11
125.773015
 21
27.516219
  0
LINE
  5
486
100
AcDbEntity
  8
boundary
  6
ByLayer
 62
    5
370
   -1
100
AcDbLine
 10
125.773015
 20
27.516219
 11
126.223054
 21
27.873845
  0
LINE
  5
487
100
AcDbEntity
  8
boundary
  6
ByLayer
 62
    5
370
   -1
100
AcDbLine
 10
126.223054
 20
27.873845
 11
126.672032
 21
28.174222
  0
LINE
  5
488
100
AcDbEntity
  8
boundary
  6
ByLayer
 62
    5
370
   -1
100
AcDbLine
 10
126.672032
 20
28.174222
 11
127.334025
 21
28.70284
  0
LINE
  5
489
100
AcDbEntity
  8
boundary
  6
ByLayer
 62
    5
370
   -1
100
AcDbLine
 10
127.334025
 20
28.70284
 11
128.003548
 21
29.134854
  0
LINE
  5
48A
100
AcDbEntity
  8
boundary
  6
ByLayer
 62
    5
370
   -1
100
AcDbLine
 10
128.003548
 20
29.134854
 11
128.595661
 21
29.611434
  0
LINE
  5
48B
100
AcDbEntity
  8
boundary
  6
ByLayer
 62
    5
370
   -1
100
AcDbLine
 10
128.595661
 20
29.611434
 11
129.118814
 21
30.012188
  0
LINE
  5
48C
100
AcDbEntity
  8
boundary
  6
ByLayer
 62
    5
370
   -1
100
AcDbLine
 10
129.118814
 20
30.012188
 11
129.696274
 21
30.426938
  0
LINE
  5
48D
100
AcDbEntity
  8
boundary
  6
ByLayer
 62
    5
370
   -1
100
AcDbLine
 10
129.696274
 20
30.426938
 11
130.23408
 21
30.838261
  0
LINE
  5
48E
100
AcDbEntity
  8
boundary
  6
ByLayer
 62
    5
370
   -1
100
AcDbLine
 10
130.23408
 20
30.838261
 11
130.725467
 21
31.233496
  0
LINE
  5
48F
100
AcDbEntity
  8
boundary
  6
ByLayer
 62
    5
370
   -1
100
AcDbLine
 10
130.725467
 20
31.233496
 11
131.205433
 21
31.553298
  0
LINE
  5
490
100
AcDbEntity
  8
boundary
  6
ByLayer
 62
    5
370
   -1
100
AcDbLine
 10
131.205433
 20
31.553298
 11
131.826022
 21
32.055806
  0
LINE
  5
491
100
AcDbEntity
  8
boundary
  6
ByLayer
 62
    5
370
   -1
100
AcDbLine
 10
131.826022
 20
32.055806
 11
132.464613
 21
32.474077
  0
ENDSEC
  0
SECTION
  2
OBJECTS
  0
DICTIONARY
  5
C
330
0
100
AcDbDictionary
281
    1
  3
ACAD_GROUP
350
D
  0
DICTIONARY
  5
D
330
C
100
AcDbDictionary
281
    1
  0
ENDSEC
  0
EOF
